<svg width="50" height="37" viewBox="0 0 50 37" fill="none" xmlns="http://www.w3.org/2000/svg">
<path fill-rule="evenodd" clip-rule="evenodd" d="M14.5319 0.0126281C14.4278 0.0269459 14.073 0.0694577 13.7435 0.107113C10.5716 0.46922 7.32197 1.82266 4.66082 3.88997C3.89901 4.48179 2.59206 5.75197 1.90651 6.56689C1.39239 7.17795 0.424022 8.5534 0.115528 9.11078C-0.0336414 9.3803 -0.0339582 9.38496 0.089225 9.4575C0.157912 9.49793 0.753393 9.8097 1.41252 10.1504C2.07164 10.491 3.18111 11.0647 3.87801 11.4252L5.1451 12.0807L5.53591 11.4838C7.36246 8.69405 10.277 6.71467 13.5174 6.06324C15.0205 5.76105 16.21 5.72681 17.8117 5.93943C18.4036 6.01802 19.8971 6.36057 19.9712 6.43468C19.9844 6.44793 19.7759 6.73851 19.5077 7.0805C17.5717 9.54933 16.2961 12.5223 15.8236 15.6661C15.6352 16.9199 15.5916 18.8996 15.7249 20.1482C16.1043 23.7044 17.4617 27.0014 19.6561 29.6975C19.9144 30.0148 20.0277 30.1994 19.975 30.217C19.6674 30.3195 18.9351 30.5084 18.5371 30.5879C17.0392 30.8874 14.9534 30.8922 13.5542 30.5993C10.4916 29.9583 7.79572 28.25 5.98745 25.8044C5.7566 25.4922 5.50273 25.1295 5.42338 24.9984L5.27901 24.76L4.13422 25.3527C3.50455 25.6788 2.34361 26.2778 1.55443 26.684C0.765251 27.0903 0.119501 27.458 0.119501 27.5011C0.119501 27.6281 1.06233 29.0291 1.6305 29.7465C2.27669 30.5625 3.73161 32.0212 4.53467 32.6585C7.32891 34.8757 10.4728 36.1865 13.9638 36.5899C15.0094 36.7108 17.0112 36.712 18.0329 36.5924C20.2168 36.3369 22.2199 35.7348 24.1665 34.7489L24.9708 34.3415L25.9957 34.8452C27.7653 35.7151 29.3 36.1955 31.3774 36.5296C32.2193 36.665 34.6859 36.7223 35.6443 36.6286C39.2877 36.2727 42.6188 34.9114 45.4696 32.6134C46.1229 32.0868 47.3712 30.8797 47.945 30.2196C48.5345 29.5415 49.9487 27.5131 49.8765 27.4493C49.8366 27.414 46.9447 25.922 45.7969 25.3445L44.705 24.7952L44.5985 24.9296C44.5399 25.0035 44.3075 25.3283 44.082 25.6513C43.6066 26.3325 42.5081 27.4996 41.8174 28.0575C40.0688 29.4696 37.836 30.4345 35.6399 30.7268C34.7593 30.8441 33.1707 30.8428 32.2655 30.7241C31.5083 30.6249 30.0994 30.2962 29.9985 30.1952C29.9618 30.1586 30.0563 29.9959 30.2472 29.7664C32.261 27.3466 33.6298 24.2427 34.1501 20.9162C34.2903 20.019 34.3432 17.6775 34.2463 16.6475C33.9184 13.1594 32.5754 9.77489 30.453 7.08794C30.2129 6.78405 30.0165 6.50911 30.0165 6.47707C30.0165 6.39848 30.5214 6.25158 31.4357 6.06419C35.5955 5.21168 39.8496 6.5093 42.8328 9.54069C43.541 10.2603 43.9546 10.7677 44.4447 11.5182C44.6373 11.8131 44.8023 12.0636 44.8114 12.0751C44.8204 12.0865 44.8942 12.0549 44.9753 12.0047C45.0563 11.9546 45.7187 11.6081 46.4472 11.2349C48.0795 10.3985 49.9725 9.42129 49.9994 9.40111C50.0105 9.39291 49.8558 9.12081 49.6558 8.79648C46.9881 4.4717 42.8073 1.48364 37.9007 0.394982C36.4775 0.0792341 35.7856 0.0109251 33.9902 0.00903291C32.2334 0.00714069 31.7515 0.0499678 30.3319 0.334242C28.7859 0.643871 27.2611 1.18252 25.8068 1.93266L24.9717 2.36345L24.5138 2.10996C22.7941 1.1578 20.7709 0.483853 18.6499 0.156626C18.0209 0.0596181 17.426 0.0222784 16.2664 0.00701454C15.4165 -0.0042126 14.6359 -0.00168965 14.5319 0.0126281ZM24.4437 10.3366C22.4185 12.718 21.4067 15.6382 21.5211 18.7717C21.6259 21.6439 22.6352 24.2236 24.5566 26.5302C24.7586 26.7728 24.948 26.9713 24.9774 26.9713C25.0068 26.9713 25.2497 26.7087 25.5172 26.3878C27.0633 24.5331 28.0552 22.2342 28.3813 19.7493C28.5046 18.8105 28.4225 16.8325 28.2204 15.8703C27.7633 13.6935 26.8609 11.8891 25.3582 10.1463C25.1712 9.92954 25.0004 9.75256 24.9787 9.75313C24.9569 9.75363 24.7162 10.0162 24.4437 10.3366Z" fill="white"/>
</svg>
