<svg width="67" height="49" viewBox="0 0 67 49" fill="none" xmlns="http://www.w3.org/2000/svg">
<path fill-rule="evenodd" clip-rule="evenodd" d="M19.6009 0.6904C19.4643 0.709188 18.9988 0.764975 18.5663 0.814388C14.404 1.28957 10.1396 3.06564 6.64747 5.77849C5.64778 6.55512 3.93272 8.22193 3.03309 9.29131C2.35844 10.0932 1.08768 11.8981 0.682854 12.6296C0.487104 12.9832 0.486688 12.9894 0.648337 13.0846C0.738473 13.1376 1.5199 13.5467 2.38484 13.9938C3.24978 14.4407 4.7057 15.1936 5.62022 15.6667L7.28298 16.5269L7.79582 15.7436C10.1927 12.0827 14.0174 9.48524 18.2696 8.6304C20.2421 8.23385 21.8031 8.18891 23.9049 8.46792C24.6816 8.57105 26.6414 9.02057 26.7388 9.11783C26.7561 9.13521 26.4824 9.51653 26.1305 9.9653C23.59 13.2051 21.916 17.1063 21.296 21.2319C21.0488 22.8772 20.9916 25.4751 21.1664 27.1136C21.6643 31.7802 23.4455 36.1068 26.3253 39.6448C26.6642 40.0612 26.8129 40.3034 26.7437 40.3265C26.34 40.461 25.3791 40.7089 24.8568 40.8133C22.8912 41.2062 20.1541 41.2125 18.318 40.8282C14.299 39.987 10.7613 37.7452 8.38836 34.536C8.08543 34.1263 7.75228 33.6504 7.64816 33.4783L7.4587 33.1655L5.95643 33.9433C5.13014 34.3711 3.60669 35.1573 2.57107 35.6903C1.53546 36.2234 0.688067 36.7059 0.688067 36.7625C0.688067 36.9291 1.92531 38.7677 2.67089 39.7091C3.51887 40.7798 5.42811 42.6941 6.48193 43.5303C10.1487 46.4399 14.2743 48.16 18.8555 48.6894C20.2275 48.848 22.8544 48.8497 24.1951 48.6928C27.061 48.3574 29.6896 47.5673 32.2441 46.2735L33.2995 45.7389L34.6444 46.4C36.9666 47.5415 38.9806 48.1718 41.7067 48.6103C42.8115 48.788 46.0482 48.8632 47.306 48.7403C52.0871 48.2731 56.4583 46.4868 60.1993 43.4712C61.0567 42.7801 62.6947 41.1961 63.4477 40.3299C64.2213 39.44 66.0771 36.7783 65.9824 36.6946C65.9301 36.6482 62.135 34.6903 60.6288 33.9325L59.196 33.2117L59.0562 33.388C58.9793 33.485 58.6743 33.9112 58.3784 34.3351C57.7546 35.229 56.3131 36.7605 55.4067 37.4926C53.1121 39.3458 50.182 40.6119 47.3001 40.9955C46.1446 41.1494 44.06 41.1477 42.8721 40.992C41.8784 40.8618 40.0296 40.4304 39.8971 40.2979C39.8491 40.2498 39.973 40.0363 40.2236 39.7352C42.8662 36.5598 44.6623 32.4866 45.3451 28.1214C45.5292 26.944 45.5986 23.8714 45.4714 22.5197C45.0411 17.9425 43.2787 13.5011 40.4936 9.97507C40.1786 9.57629 39.9208 9.2155 39.9208 9.17345C39.9208 9.07032 40.5834 8.87755 41.7831 8.63164C47.2419 7.51293 52.8244 9.21574 56.7392 13.1937C57.6685 14.138 58.2112 14.8038 58.8544 15.7887C59.1071 16.1757 59.3237 16.5045 59.3356 16.5196C59.3475 16.5346 59.4443 16.493 59.5507 16.4272C59.657 16.3614 60.5263 15.9067 61.4823 15.4169C63.6243 14.3194 66.1083 13.037 66.1437 13.0106C66.1582 12.9998 65.9552 12.6427 65.6927 12.2171C62.192 6.54187 56.7057 2.62075 50.267 1.19215C48.3994 0.777804 47.4914 0.688165 45.1353 0.685682C42.8299 0.683199 42.1976 0.739399 40.3347 1.11244C38.306 1.51876 36.305 2.22561 34.3966 3.20999L33.3007 3.7753L32.6998 3.44265C30.4431 2.19316 27.7881 1.30877 25.0048 0.879362C24.1795 0.752063 23.3988 0.703063 21.8771 0.683033C20.7617 0.6683 19.7375 0.671611 19.6009 0.6904ZM32.6079 14.2381C29.9502 17.3632 28.6225 21.1953 28.7726 25.3072C28.9101 29.0764 30.2345 32.4616 32.756 35.4884C33.0211 35.8068 33.2696 36.0673 33.3082 36.0673C33.3468 36.0673 33.6655 35.7227 34.0165 35.3016C36.0455 32.8677 37.347 29.8509 37.775 26.5901C37.9368 25.3582 37.8291 22.7625 37.5639 21.4998C36.964 18.6434 35.7799 16.2755 33.8079 13.9885C33.5625 13.704 33.3384 13.4718 33.3099 13.4725C33.2813 13.4732 32.9654 13.8177 32.6079 14.2381Z" fill="#2B2928"/>
</svg>
