<svg width="304" height="254" viewBox="0 0 304 254" fill="none" xmlns="http://www.w3.org/2000/svg">
<g opacity="0.12" clip-path="url(#clip0_1285_290)">
<path d="M0.73031 41.0168V-0.166679C0.73031 -1.02674 1.03905 -1.75448 1.65652 -2.3499C2.274 -2.94532 3.01277 -3.24303 3.87282 -3.24303H42.013C42.8731 -3.24303 43.6008 -2.9343 44.1962 -2.31682C44.8137 -1.69934 45.1225 -0.960577 45.1225 -0.100521V3.00891C45.1225 3.86897 44.8137 4.60774 44.1962 5.22521C43.6008 5.82064 42.8731 6.11835 42.013 6.11835H13.2011V15.7444H38.0104C38.8705 15.7444 39.5982 16.0531 40.1937 16.6706C40.8111 17.266 41.1199 17.9937 41.1199 18.8538V21.9632C41.1199 22.8233 40.8111 23.5621 40.1937 24.1795C39.5982 24.775 38.8705 25.0727 38.0104 25.0727H13.2011V34.831H41.9469C42.7849 34.831 43.5016 35.1287 44.097 35.7241C44.6924 36.3196 44.9901 37.0473 44.9901 37.9074V41.0829C44.9901 41.943 44.6814 42.6818 44.0639 43.2992C43.4464 43.8947 42.7077 44.1924 41.8476 44.1924H3.87282C3.01277 44.1924 2.274 43.8947 1.65652 43.2992C1.03905 42.6818 0.73031 41.921 0.73031 41.0168ZM100.298 42.7369C100.298 43.7072 99.725 44.1924 98.5783 44.1924H91.0032C90.1431 44.1924 89.2169 43.8947 88.2245 43.2992C87.2321 42.6818 86.4603 41.943 85.909 41.0829L80.0871 31.8539C78.6977 29.6045 77.2974 27.9175 75.886 26.7928C74.4746 25.646 72.7766 25.0727 70.7918 25.0727H63.6798V41.1491C63.6798 42.0092 63.3711 42.7369 62.7536 43.3323C62.1582 43.9057 61.4304 44.1924 60.5704 44.1924H54.3515C53.4915 44.1924 52.7527 43.8836 52.1352 43.2662C51.5177 42.6266 51.209 41.8768 51.209 41.0168V-0.100521C51.209 -0.960577 51.5177 -1.71037 52.1352 -2.3499C52.7527 -2.98943 53.4915 -3.30919 54.3515 -3.30919H60.5704C61.4304 -3.30919 62.1582 -2.98943 62.7536 -2.3499C63.3711 -1.71037 63.6798 -0.960577 63.6798 -0.100521V15.7444H70.7918C72.7325 15.7444 74.4305 15.2151 75.886 14.1566C77.3635 13.098 78.7639 11.389 80.0871 9.02931L85.2143 -0.100521C86.3831 -2.21758 87.9709 -3.28714 89.9777 -3.30919H97.619C98.6775 -3.30919 99.2068 -2.84609 99.2068 -1.91987C99.2068 -1.41266 99.0193 -0.806208 98.6444 -0.100521L91.4663 12.8996C90.4298 14.7961 89.261 16.3618 87.9599 17.5968C86.6808 18.8317 85.0048 19.7028 82.9319 20.21C84.3873 20.5188 85.8759 21.434 87.3975 22.9556C88.9412 24.4772 90.2975 26.1312 91.4663 27.9175L99.736 41.0829C100.111 41.7225 100.298 42.2738 100.298 42.7369ZM105.062 41.1491V-0.0343625C105.062 -0.938524 105.37 -1.69934 105.988 -2.31682C106.605 -2.9343 107.344 -3.24303 108.204 -3.24303H114.423C115.283 -3.24303 116.011 -2.9343 116.606 -2.31682C117.224 -1.69934 117.533 -0.938524 117.533 -0.0343625V34.831H146.344C147.205 34.831 147.932 35.1397 148.528 35.7572C149.145 36.3747 149.454 37.1135 149.454 37.9735V41.0829C149.454 41.943 149.145 42.6818 148.528 43.2992C147.932 43.8947 147.205 44.1924 146.344 44.1924H108.204C107.344 44.1924 106.605 43.9057 105.988 43.3323C105.37 42.7369 105.062 42.0092 105.062 41.1491ZM197.65 39.2967C193.151 43.2441 186.536 45.2178 177.803 45.2178C169.092 45.2178 162.476 43.2441 157.955 39.2967C153.434 35.3272 151.174 29.0532 151.174 20.4747C151.174 11.8962 153.434 5.63319 157.955 1.68575C162.476 -2.26169 169.092 -4.23541 177.803 -4.23541C186.536 -4.23541 193.151 -2.26169 197.65 1.68575C202.171 5.63319 204.431 11.8962 204.431 20.4747C204.431 29.0532 202.171 35.3272 197.65 39.2967ZM188.62 8.66544C186.392 6.01911 182.787 4.69595 177.803 4.69595C172.841 4.69595 169.235 6.01911 166.986 8.66544C164.758 11.3118 163.645 15.2592 163.645 20.5078C163.645 25.7342 164.758 29.6707 166.986 32.317C169.235 34.9413 172.841 36.2534 177.803 36.2534C182.787 36.2534 186.392 34.9413 188.62 32.317C190.847 29.6707 191.961 25.7342 191.961 20.5078C191.961 15.2592 190.847 11.3118 188.62 8.66544Z" fill="url(#paint0_linear_1285_290)"/>
<path d="M224.762 41.0168V-0.166679C224.762 -1.02674 225.07 -1.75448 225.688 -2.3499C226.305 -2.94532 227.044 -3.24303 227.904 -3.24303H266.044C266.904 -3.24303 267.632 -2.9343 268.227 -2.31682C268.845 -1.69934 269.154 -0.960577 269.154 -0.100521V3.00891C269.154 3.86897 268.845 4.60774 268.227 5.22521C267.632 5.82064 266.904 6.11835 266.044 6.11835H237.232V15.7444H262.042C262.902 15.7444 263.629 16.0531 264.225 16.6706C264.842 17.266 265.151 17.9937 265.151 18.8538V21.9632C265.151 22.8233 264.842 23.5621 264.225 24.1795C263.629 24.775 262.902 25.0727 262.042 25.0727H237.232V34.831H265.978C266.816 34.831 267.533 35.1287 268.128 35.7241C268.724 36.3196 269.021 37.0473 269.021 37.9074V41.0829C269.021 41.943 268.713 42.6818 268.095 43.2992C267.478 43.8947 266.739 44.1924 265.879 44.1924H227.904C227.044 44.1924 226.305 43.8947 225.688 43.2992C225.07 42.6818 224.762 41.921 224.762 41.0168ZM324.33 42.7369C324.33 43.7072 323.756 44.1924 322.61 44.1924H315.034C314.174 44.1924 313.248 43.8947 312.256 43.2992C311.263 42.6818 310.492 41.943 309.94 41.0829L304.118 31.8539C302.729 29.6045 301.329 27.9175 299.917 26.7928C298.506 25.646 296.808 25.0727 294.823 25.0727H287.711V41.1491C287.711 42.0092 287.402 42.7369 286.785 43.3323C286.189 43.9057 285.462 44.1924 284.602 44.1924H278.383C277.523 44.1924 276.784 43.8836 276.166 43.2662C275.549 42.6266 275.24 41.8768 275.24 41.0168V-0.100521C275.24 -0.960577 275.549 -1.71037 276.166 -2.3499C276.784 -2.98943 277.523 -3.30919 278.383 -3.30919H284.602C285.462 -3.30919 286.189 -2.98943 286.785 -2.3499C287.402 -1.71037 287.711 -0.960577 287.711 -0.100521V15.7444H294.823C296.764 15.7444 298.462 15.2151 299.917 14.1566C301.395 13.098 302.795 11.389 304.118 9.02931L309.246 -0.100521C310.414 -2.21758 312.002 -3.28714 314.009 -3.30919H321.65C322.709 -3.30919 323.238 -2.84609 323.238 -1.91987C323.238 -1.41266 323.051 -0.806208 322.676 -0.100521L315.498 12.8996C314.461 14.7961 313.292 16.3618 311.991 17.5968C310.712 18.8317 309.036 19.7028 306.963 20.21C308.419 20.5188 309.907 21.434 311.429 22.9556C312.972 24.4772 314.329 26.1312 315.498 27.9175L323.767 41.0829C324.142 41.7225 324.33 42.2738 324.33 42.7369ZM329.093 41.1491V-0.0343625C329.093 -0.938524 329.402 -1.69934 330.019 -2.31682C330.637 -2.9343 331.375 -3.24303 332.236 -3.24303H338.454C339.314 -3.24303 340.042 -2.9343 340.638 -2.31682C341.255 -1.69934 341.564 -0.938524 341.564 -0.0343625V34.831H370.376C371.236 34.831 371.964 35.1397 372.559 35.7572C373.176 36.3747 373.485 37.1135 373.485 37.9735V41.0829C373.485 41.943 373.176 42.6818 372.559 43.2992C371.964 43.8947 371.236 44.1924 370.376 44.1924H332.236C331.375 44.1924 330.637 43.9057 330.019 43.3323C329.402 42.7369 329.093 42.0092 329.093 41.1491ZM421.681 39.2967C417.183 43.2441 410.567 45.2178 401.834 45.2178C393.123 45.2178 386.507 43.2441 381.986 39.2967C377.466 35.3272 375.205 29.0532 375.205 20.4747C375.205 11.8962 377.466 5.63319 381.986 1.68575C386.507 -2.26169 393.123 -4.23541 401.834 -4.23541C410.567 -4.23541 417.183 -2.26169 421.681 1.68575C426.202 5.63319 428.463 11.8962 428.463 20.4747C428.463 29.0532 426.202 35.3272 421.681 39.2967ZM412.651 8.66544C410.423 6.01911 406.818 4.69595 401.834 4.69595C396.872 4.69595 393.266 6.01911 391.017 8.66544C388.79 11.3118 387.676 15.2592 387.676 20.5078C387.676 25.7342 388.79 29.6707 391.017 32.317C393.266 34.9413 396.872 36.2534 401.834 36.2534C406.818 36.2534 410.423 34.9413 412.651 32.317C414.878 29.6707 415.992 25.7342 415.992 20.5078C415.992 15.2592 414.878 11.3118 412.651 8.66544Z" fill="url(#paint1_linear_1285_290)"/>
<path d="M-134.27 95.2141V54.0306C-134.27 53.1705 -133.961 52.4428 -133.343 51.8474C-132.726 51.2519 -131.987 50.9542 -131.127 50.9542H-92.987C-92.1269 50.9542 -91.3992 51.263 -90.8038 51.8804C-90.1863 52.4979 -89.8775 53.2367 -89.8775 54.0967V57.2062C-89.8775 58.0662 -90.1863 58.805 -90.8038 59.4225C-91.3992 60.0179 -92.1269 60.3156 -92.987 60.3156H-121.799V69.9416H-96.9896C-96.1295 69.9416 -95.4018 70.2504 -94.8063 70.8678C-94.1889 71.4633 -93.8801 72.191 -93.8801 73.0511V76.1605C-93.8801 77.0206 -94.1889 77.7593 -94.8063 78.3768C-95.4018 78.9722 -96.1295 79.2699 -96.9896 79.2699H-121.799V89.0283H-93.0531C-92.2151 89.0283 -91.4984 89.326 -90.903 89.9214C-90.3076 90.5168 -90.0099 91.2446 -90.0099 92.1046V95.2802C-90.0099 96.1403 -90.3186 96.879 -90.9361 97.4965C-91.5536 98.0919 -92.2923 98.3896 -93.1524 98.3896H-131.127C-131.987 98.3896 -132.726 98.0919 -133.343 97.4965C-133.961 96.879 -134.27 96.1182 -134.27 95.2141ZM-34.7016 96.9342C-34.7016 97.9045 -35.275 98.3896 -36.4217 98.3896H-43.9968C-44.8569 98.3896 -45.7831 98.0919 -46.7755 97.4965C-47.7679 96.879 -48.5397 96.1403 -49.091 95.2802L-54.9129 86.0511C-56.3023 83.8018 -57.7026 82.1147 -59.114 80.99C-60.5254 79.8433 -62.2234 79.2699 -64.2082 79.2699H-71.3202V95.3464C-71.3202 96.2064 -71.6289 96.9342 -72.2464 97.5296C-72.8418 98.103 -73.5696 98.3896 -74.4296 98.3896H-80.6485C-81.5085 98.3896 -82.2473 98.0809 -82.8648 97.4634C-83.4823 96.8239 -83.791 96.0741 -83.791 95.2141V54.0967C-83.791 53.2367 -83.4823 52.4869 -82.8648 51.8474C-82.2473 51.2078 -81.5085 50.8881 -80.6485 50.8881H-74.4296C-73.5696 50.8881 -72.8418 51.2078 -72.2464 51.8474C-71.6289 52.4869 -71.3202 53.2367 -71.3202 54.0967V69.9416H-64.2082C-62.2675 69.9416 -60.5695 69.4124 -59.114 68.3538C-57.6365 67.2953 -56.2361 65.5862 -54.9129 63.2266L-49.7857 54.0967C-48.6169 51.9797 -47.0291 50.9101 -45.0223 50.8881H-37.381C-36.3225 50.8881 -35.7932 51.3512 -35.7932 52.2774C-35.7932 52.7846 -35.9807 53.3911 -36.3556 54.0967L-43.5337 67.0968C-44.5702 68.9934 -45.739 70.5591 -47.0401 71.7941C-48.3192 73.029 -49.9952 73.9001 -52.0681 74.4073C-50.6127 74.716 -49.1241 75.6312 -47.6025 77.1529C-46.0588 78.6745 -44.7025 80.3285 -43.5337 82.1147L-35.264 95.2802C-34.8891 95.9197 -34.7016 96.4711 -34.7016 96.9342ZM-29.9382 95.3464V54.1629C-29.9382 53.2587 -29.6295 52.4979 -29.012 51.8804C-28.3945 51.263 -27.6558 50.9542 -26.7957 50.9542H-20.5769C-19.7168 50.9542 -18.9891 51.263 -18.3936 51.8804C-17.7762 52.4979 -17.4674 53.2587 -17.4674 54.1629V89.0283H11.3445C12.2045 89.0283 12.9323 89.337 13.5277 89.9545C14.1452 90.572 14.4539 91.3107 14.4539 92.1708V95.2802C14.4539 96.1403 14.1452 96.879 13.5277 97.4965C12.9323 98.0919 12.2045 98.3896 11.3445 98.3896H-26.7957C-27.6558 98.3896 -28.3945 98.103 -29.012 97.5296C-29.6295 96.9342 -29.9382 96.2064 -29.9382 95.3464ZM62.6501 93.4939C58.1514 97.4414 51.5356 99.4151 42.8027 99.4151C34.0919 99.4151 27.476 97.4414 22.9552 93.4939C18.4344 89.5245 16.174 83.2505 16.174 74.6719C16.174 66.0934 18.4344 59.8305 22.9552 55.883C27.476 51.9356 34.0919 49.9619 42.8027 49.9619C51.5356 49.9619 58.1514 51.9356 62.6501 55.883C67.1709 59.8305 69.4314 66.0934 69.4314 74.6719C69.4314 83.2505 67.1709 89.5245 62.6501 93.4939ZM53.6195 62.8627C51.3922 60.2164 47.7866 58.8932 42.8027 58.8932C37.8408 58.8932 34.2352 60.2164 31.9858 62.8627C29.7585 65.509 28.6448 69.4565 28.6448 74.705C28.6448 79.9315 29.7585 83.8679 31.9858 86.5143C34.2352 89.1385 37.8408 90.4507 42.8027 90.4507C47.7866 90.4507 51.3922 89.1385 53.6195 86.5143C55.8469 83.8679 56.9605 79.9315 56.9605 74.705C56.9605 69.4565 55.8469 65.509 53.6195 62.8627Z" fill="url(#paint2_linear_1285_290)"/>
<path d="M89.7616 95.2141V54.0306C89.7616 53.1705 90.0703 52.4428 90.6878 51.8474C91.3053 51.2519 92.044 50.9542 92.9041 50.9542H131.044C131.904 50.9542 132.632 51.263 133.227 51.8804C133.845 52.4979 134.154 53.2367 134.154 54.0967V57.2062C134.154 58.0662 133.845 58.805 133.227 59.4225C132.632 60.0179 131.904 60.3156 131.044 60.3156H102.232V69.9416H127.042C127.902 69.9416 128.629 70.2504 129.225 70.8678C129.842 71.4633 130.151 72.191 130.151 73.0511V76.1605C130.151 77.0206 129.842 77.7593 129.225 78.3768C128.629 78.9722 127.902 79.2699 127.042 79.2699H102.232V89.0283H130.978C131.816 89.0283 132.533 89.326 133.128 89.9214C133.724 90.5168 134.021 91.2446 134.021 92.1046V95.2802C134.021 96.1403 133.713 96.879 133.095 97.4965C132.478 98.0919 131.739 98.3896 130.879 98.3896H92.9041C92.044 98.3896 91.3053 98.0919 90.6878 97.4965C90.0703 96.879 89.7616 96.1182 89.7616 95.2141ZM189.33 96.9342C189.33 97.9045 188.756 98.3896 187.61 98.3896H180.034C179.174 98.3896 178.248 98.0919 177.256 97.4965C176.263 96.879 175.492 96.1403 174.94 95.2802L169.118 86.0511C167.729 83.8018 166.329 82.1147 164.917 80.99C163.506 79.8433 161.808 79.2699 159.823 79.2699H152.711V95.3464C152.711 96.2064 152.402 96.9342 151.785 97.5296C151.189 98.103 150.462 98.3896 149.602 98.3896H143.383C142.523 98.3896 141.784 98.0809 141.166 97.4634C140.549 96.8239 140.24 96.0741 140.24 95.2141V54.0967C140.24 53.2367 140.549 52.4869 141.166 51.8474C141.784 51.2078 142.523 50.8881 143.383 50.8881H149.602C150.462 50.8881 151.189 51.2078 151.785 51.8474C152.402 52.4869 152.711 53.2367 152.711 54.0967V69.9416H159.823C161.764 69.9416 163.462 69.4124 164.917 68.3538C166.395 67.2953 167.795 65.5862 169.118 63.2266L174.246 54.0967C175.414 51.9797 177.002 50.9101 179.009 50.8881H186.65C187.709 50.8881 188.238 51.3512 188.238 52.2774C188.238 52.7846 188.051 53.3911 187.676 54.0967L180.498 67.0968C179.461 68.9934 178.292 70.5591 176.991 71.7941C175.712 73.029 174.036 73.9001 171.963 74.4073C173.419 74.716 174.907 75.6312 176.429 77.1529C177.972 78.6745 179.329 80.3285 180.498 82.1147L188.767 95.2802C189.142 95.9197 189.33 96.4711 189.33 96.9342ZM194.093 95.3464V54.1629C194.093 53.2587 194.402 52.4979 195.019 51.8804C195.637 51.263 196.375 50.9542 197.236 50.9542H203.454C204.314 50.9542 205.042 51.263 205.638 51.8804C206.255 52.4979 206.564 53.2587 206.564 54.1629V89.0283H235.376C236.236 89.0283 236.964 89.337 237.559 89.9545C238.176 90.572 238.485 91.3107 238.485 92.1708V95.2802C238.485 96.1403 238.176 96.879 237.559 97.4965C236.964 98.0919 236.236 98.3896 235.376 98.3896H197.236C196.375 98.3896 195.637 98.103 195.019 97.5296C194.402 96.9342 194.093 96.2064 194.093 95.3464ZM286.681 93.4939C282.183 97.4414 275.567 99.4151 266.834 99.4151C258.123 99.4151 251.507 97.4414 246.986 93.4939C242.466 89.5245 240.205 83.2505 240.205 74.6719C240.205 66.0934 242.466 59.8305 246.986 55.883C251.507 51.9356 258.123 49.9619 266.834 49.9619C275.567 49.9619 282.183 51.9356 286.681 55.883C291.202 59.8305 293.463 66.0934 293.463 74.6719C293.463 83.2505 291.202 89.5245 286.681 93.4939ZM277.651 62.8627C275.423 60.2164 271.818 58.8932 266.834 58.8932C261.872 58.8932 258.266 60.2164 256.017 62.8627C253.79 65.509 252.676 69.4565 252.676 74.705C252.676 79.9315 253.79 83.8679 256.017 86.5143C258.266 89.1385 261.872 90.4507 266.834 90.4507C271.818 90.4507 275.423 89.1385 277.651 86.5143C279.878 83.8679 280.992 79.9315 280.992 74.705C280.992 69.4565 279.878 65.509 277.651 62.8627Z" fill="url(#paint3_linear_1285_290)"/>
<path d="M-76.3088 151.79V110.607C-76.3088 109.747 -76 109.019 -75.3825 108.424C-74.7651 107.828 -74.0263 107.53 -73.1662 107.53H-35.026C-34.166 107.53 -33.4382 107.839 -32.8428 108.457C-32.2253 109.074 -31.9166 109.813 -31.9166 110.673V113.782C-31.9166 114.642 -32.2253 115.381 -32.8428 115.999C-33.4382 116.594 -34.166 116.892 -35.026 116.892H-63.8379V126.518H-39.0286C-38.1686 126.518 -37.4408 126.827 -36.8454 127.444C-36.2279 128.039 -35.9192 128.767 -35.9192 129.627V132.737C-35.9192 133.597 -36.2279 134.335 -36.8454 134.953C-37.4408 135.548 -38.1686 135.846 -39.0286 135.846H-63.8379V145.604H-35.0922C-34.2542 145.604 -33.5375 145.902 -32.9421 146.498C-32.3466 147.093 -32.0489 147.821 -32.0489 148.681V151.856C-32.0489 152.716 -32.3577 153.455 -32.9751 154.073C-33.5926 154.668 -34.3314 154.966 -35.1914 154.966H-73.1662C-74.0263 154.966 -74.7651 154.668 -75.3825 154.073C-76 153.455 -76.3088 152.694 -76.3088 151.79ZM23.2593 153.51C23.2593 154.481 22.6859 154.966 21.5392 154.966H13.9641C13.104 154.966 12.1778 154.668 11.1854 154.073C10.1931 153.455 9.42123 152.716 8.86991 151.856L3.04799 142.627C1.65867 140.378 0.258319 138.691 -1.15306 137.566C-2.56443 136.419 -4.26249 135.846 -6.24724 135.846H-13.3592V151.923C-13.3592 152.783 -13.668 153.51 -14.2855 154.106C-14.8809 154.679 -15.6086 154.966 -16.4687 154.966H-22.6875C-23.5476 154.966 -24.2864 154.657 -24.9038 154.04C-25.5213 153.4 -25.8301 152.65 -25.8301 151.79V110.673C-25.8301 109.813 -25.5213 109.063 -24.9038 108.424C-24.2864 107.784 -23.5476 107.464 -22.6875 107.464H-16.4687C-15.6086 107.464 -14.8809 107.784 -14.2855 108.424C-13.668 109.063 -13.3592 109.813 -13.3592 110.673V126.518H-6.24724C-4.3066 126.518 -2.60854 125.989 -1.15306 124.93C0.324477 123.871 1.72483 122.162 3.04799 119.803L8.17525 110.673C9.34404 108.556 10.9318 107.486 12.9386 107.464H20.5799C21.6384 107.464 22.1677 107.927 22.1677 108.854C22.1677 109.361 21.9803 109.967 21.6054 110.673L14.4272 123.673C13.3907 125.57 12.2219 127.135 10.9208 128.37C9.64175 129.605 7.96575 130.476 5.89279 130.983C7.34827 131.292 8.83683 132.207 10.3585 133.729C11.9022 135.251 13.2584 136.905 14.4272 138.691L22.697 151.856C23.0719 152.496 23.2593 153.047 23.2593 153.51ZM28.0227 151.923V110.739C28.0227 109.835 28.3314 109.074 28.9489 108.457C29.5664 107.839 30.3052 107.53 31.1652 107.53H37.3841C38.2441 107.53 38.9719 107.839 39.5673 108.457C40.1848 109.074 40.4935 109.835 40.4935 110.739V145.604H69.3054C70.1655 145.604 70.8932 145.913 71.4886 146.531C72.1061 147.148 72.4148 147.887 72.4148 148.747V151.856C72.4148 152.716 72.1061 153.455 71.4886 154.073C70.8932 154.668 70.1655 154.966 69.3054 154.966H31.1652C30.3052 154.966 29.5664 154.679 28.9489 154.106C28.3314 153.51 28.0227 152.783 28.0227 151.923ZM120.611 150.07C116.112 154.018 109.496 155.991 100.764 155.991C92.0528 155.991 85.437 154.018 80.9162 150.07C76.3954 146.101 74.135 139.827 74.135 131.248C74.135 122.67 76.3954 116.407 80.9162 112.459C85.437 108.512 92.0528 106.538 100.764 106.538C109.496 106.538 116.112 108.512 120.611 112.459C125.132 116.407 127.392 122.67 127.392 131.248C127.392 139.827 125.132 146.101 120.611 150.07ZM111.58 119.439C109.353 116.793 105.748 115.469 100.764 115.469C95.8018 115.469 92.1961 116.793 89.9468 119.439C87.7194 122.085 86.6058 126.033 86.6058 131.281C86.6058 136.508 87.7194 140.444 89.9468 143.09C92.1961 145.715 95.8018 147.027 100.764 147.027C105.748 147.027 109.353 145.715 111.58 143.09C113.808 140.444 114.921 136.508 114.921 131.281C114.921 126.033 113.808 122.085 111.58 119.439Z" fill="url(#paint4_linear_1285_290)"/>
<path d="M147.722 151.79V110.607C147.722 109.747 148.031 109.019 148.649 108.424C149.266 107.828 150.005 107.53 150.865 107.53H189.005C189.865 107.53 190.593 107.839 191.188 108.457C191.806 109.074 192.115 109.813 192.115 110.673V113.782C192.115 114.642 191.806 115.381 191.188 115.999C190.593 116.594 189.865 116.892 189.005 116.892H160.193V126.518H185.003C185.863 126.518 186.59 126.827 187.186 127.444C187.803 128.039 188.112 128.767 188.112 129.627V132.737C188.112 133.597 187.803 134.335 187.186 134.953C186.59 135.548 185.863 135.846 185.003 135.846H160.193V145.604H188.939C189.777 145.604 190.494 145.902 191.089 146.498C191.685 147.093 191.982 147.821 191.982 148.681V151.856C191.982 152.716 191.674 153.455 191.056 154.073C190.439 154.668 189.7 154.966 188.84 154.966H150.865C150.005 154.966 149.266 154.668 148.649 154.073C148.031 153.455 147.722 152.694 147.722 151.79ZM247.291 153.51C247.291 154.481 246.717 154.966 245.57 154.966H237.995C237.135 154.966 236.209 154.668 235.217 154.073C234.224 153.455 233.452 152.716 232.901 151.856L227.079 142.627C225.69 140.378 224.29 138.691 222.878 137.566C221.467 136.419 219.769 135.846 217.784 135.846H210.672V151.923C210.672 152.783 210.363 153.51 209.746 154.106C209.15 154.679 208.423 154.966 207.563 154.966H201.344C200.484 154.966 199.745 154.657 199.127 154.04C198.51 153.4 198.201 152.65 198.201 151.79V110.673C198.201 109.813 198.51 109.063 199.127 108.424C199.745 107.784 200.484 107.464 201.344 107.464H207.563C208.423 107.464 209.15 107.784 209.746 108.424C210.363 109.063 210.672 109.813 210.672 110.673V126.518H217.784C219.725 126.518 221.423 125.989 222.878 124.93C224.356 123.871 225.756 122.162 227.079 119.803L232.206 110.673C233.375 108.556 234.963 107.486 236.97 107.464H244.611C245.67 107.464 246.199 107.927 246.199 108.854C246.199 109.361 246.012 109.967 245.637 110.673L238.458 123.673C237.422 125.57 236.253 127.135 234.952 128.37C233.673 129.605 231.997 130.476 229.924 130.983C231.38 131.292 232.868 132.207 234.39 133.729C235.933 135.251 237.29 136.905 238.458 138.691L246.728 151.856C247.103 152.496 247.291 153.047 247.291 153.51ZM252.054 151.923V110.739C252.054 109.835 252.363 109.074 252.98 108.457C253.598 107.839 254.336 107.53 255.196 107.53H261.415C262.275 107.53 263.003 107.839 263.599 108.457C264.216 109.074 264.525 109.835 264.525 110.739V145.604H293.337C294.197 145.604 294.924 145.913 295.52 146.531C296.137 147.148 296.446 147.887 296.446 148.747V151.856C296.446 152.716 296.137 153.455 295.52 154.073C294.924 154.668 294.197 154.966 293.337 154.966H255.196C254.336 154.966 253.598 154.679 252.98 154.106C252.363 153.51 252.054 152.783 252.054 151.923ZM344.642 150.07C340.144 154.018 333.528 155.991 324.795 155.991C316.084 155.991 309.468 154.018 304.947 150.07C300.427 146.101 298.166 139.827 298.166 131.248C298.166 122.67 300.427 116.407 304.947 112.459C309.468 108.512 316.084 106.538 324.795 106.538C333.528 106.538 340.144 108.512 344.642 112.459C349.163 116.407 351.424 122.67 351.424 131.248C351.424 139.827 349.163 146.101 344.642 150.07ZM335.612 119.439C333.384 116.793 329.779 115.469 324.795 115.469C319.833 115.469 316.227 116.793 313.978 119.439C311.751 122.085 310.637 126.033 310.637 131.281C310.637 136.508 311.751 140.444 313.978 143.09C316.227 145.715 319.833 147.027 324.795 147.027C329.779 147.027 333.384 145.715 335.612 143.09C337.839 140.444 338.953 136.508 338.953 131.281C338.953 126.033 337.839 122.085 335.612 119.439Z" fill="url(#paint5_linear_1285_290)"/>
<path d="M-57.2697 263.017V221.833C-57.2697 220.973 -56.961 220.246 -56.3435 219.65C-55.726 219.055 -54.9872 218.757 -54.1272 218.757H-15.987C-15.1269 218.757 -14.3992 219.066 -13.8038 219.683C-13.1863 220.301 -12.8775 221.039 -12.8775 221.899V225.009C-12.8775 225.869 -13.1863 226.608 -13.8038 227.225C-14.3992 227.821 -15.1269 228.118 -15.987 228.118H-44.7989V237.744H-19.9896C-19.1295 237.744 -18.4018 238.053 -17.8063 238.671C-17.1889 239.266 -16.8801 239.994 -16.8801 240.854V243.963C-16.8801 244.823 -17.1889 245.562 -17.8063 246.18C-18.4018 246.775 -19.1295 247.073 -19.9896 247.073H-44.7989V256.831H-16.0531C-15.2151 256.831 -14.4984 257.129 -13.903 257.724C-13.3076 258.32 -13.0099 259.047 -13.0099 259.907V263.083C-13.0099 263.943 -13.3186 264.682 -13.9361 265.299C-14.5536 265.895 -15.2923 266.192 -16.1524 266.192H-54.1272C-54.9872 266.192 -55.726 265.895 -56.3435 265.299C-56.961 264.682 -57.2697 263.921 -57.2697 263.017ZM42.2984 264.737C42.2984 265.707 41.725 266.192 40.5783 266.192H33.0032C32.1431 266.192 31.2169 265.895 30.2245 265.299C29.2321 264.682 28.4603 263.943 27.909 263.083L22.0871 253.854C20.6977 251.605 19.2974 249.917 17.886 248.793C16.4746 247.646 14.7766 247.073 12.7918 247.073H5.67982V263.149C5.67982 264.009 5.37108 264.737 4.75361 265.332C4.15818 265.906 3.43044 266.192 2.57039 266.192H-3.64848C-4.50854 266.192 -5.2473 265.884 -5.86478 265.266C-6.48226 264.627 -6.791 263.877 -6.791 263.017V221.899C-6.791 221.039 -6.48226 220.29 -5.86478 219.65C-5.2473 219.011 -4.50854 218.691 -3.64848 218.691H2.57039C3.43044 218.691 4.15818 219.011 4.75361 219.65C5.37108 220.29 5.67982 221.039 5.67982 221.899V237.744H12.7918C14.7325 237.744 16.4305 237.215 17.886 236.157C19.3635 235.098 20.7639 233.389 22.0871 231.029L27.2143 221.899C28.3831 219.782 29.9709 218.713 31.9777 218.691H39.619C40.6775 218.691 41.2068 219.154 41.2068 220.08C41.2068 220.587 41.0193 221.194 40.6444 221.899L33.4663 234.9C32.4298 236.796 31.261 238.362 29.9599 239.597C28.6808 240.832 27.0048 241.703 24.9319 242.21C26.3873 242.519 27.8759 243.434 29.3975 244.956C30.9412 246.477 32.2975 248.131 33.4663 249.917L41.736 263.083C42.1109 263.722 42.2984 264.274 42.2984 264.737ZM47.0618 263.149V221.966C47.0618 221.061 47.3705 220.301 47.988 219.683C48.6055 219.066 49.3442 218.757 50.2043 218.757H56.4231C57.2832 218.757 58.0109 219.066 58.6064 219.683C59.2238 220.301 59.5326 221.061 59.5326 221.966V256.831H88.3445C89.2045 256.831 89.9323 257.14 90.5277 257.757C91.1452 258.375 91.4539 259.113 91.4539 259.974V263.083C91.4539 263.943 91.1452 264.682 90.5277 265.299C89.9323 265.895 89.2045 266.192 88.3445 266.192H50.2043C49.3442 266.192 48.6055 265.906 47.988 265.332C47.3705 264.737 47.0618 264.009 47.0618 263.149ZM139.65 261.297C135.151 265.244 128.536 267.218 119.803 267.218C111.092 267.218 104.476 265.244 99.9552 261.297C95.4344 257.327 93.174 251.053 93.174 242.475C93.174 233.896 95.4344 227.633 99.9552 223.686C104.476 219.738 111.092 217.765 119.803 217.765C128.536 217.765 135.151 219.738 139.65 223.686C144.171 227.633 146.431 233.896 146.431 242.475C146.431 251.053 144.171 257.327 139.65 261.297ZM130.62 230.665C128.392 228.019 124.787 226.696 119.803 226.696C114.841 226.696 111.235 228.019 108.986 230.665C106.758 233.312 105.645 237.259 105.645 242.508C105.645 247.734 106.758 251.671 108.986 254.317C111.235 256.941 114.841 258.253 119.803 258.253C124.787 258.253 128.392 256.941 130.62 254.317C132.847 251.671 133.961 247.734 133.961 242.508C133.961 237.259 132.847 233.312 130.62 230.665Z" fill="url(#paint6_linear_1285_290)"/>
<path d="M166.762 263.017V221.833C166.762 220.973 167.07 220.246 167.688 219.65C168.305 219.055 169.044 218.757 169.904 218.757H208.044C208.904 218.757 209.632 219.066 210.227 219.683C210.845 220.301 211.154 221.039 211.154 221.899V225.009C211.154 225.869 210.845 226.608 210.227 227.225C209.632 227.821 208.904 228.118 208.044 228.118H179.232V237.744H204.042C204.902 237.744 205.629 238.053 206.225 238.671C206.842 239.266 207.151 239.994 207.151 240.854V243.963C207.151 244.823 206.842 245.562 206.225 246.18C205.629 246.775 204.902 247.073 204.042 247.073H179.232V256.831H207.978C208.816 256.831 209.533 257.129 210.128 257.724C210.724 258.32 211.021 259.047 211.021 259.907V263.083C211.021 263.943 210.713 264.682 210.095 265.299C209.478 265.895 208.739 266.192 207.879 266.192H169.904C169.044 266.192 168.305 265.895 167.688 265.299C167.07 264.682 166.762 263.921 166.762 263.017ZM266.33 264.737C266.33 265.707 265.756 266.192 264.61 266.192H257.034C256.174 266.192 255.248 265.895 254.256 265.299C253.263 264.682 252.492 263.943 251.94 263.083L246.118 253.854C244.729 251.605 243.329 249.917 241.917 248.793C240.506 247.646 238.808 247.073 236.823 247.073H229.711V263.149C229.711 264.009 229.402 264.737 228.785 265.332C228.189 265.906 227.462 266.192 226.602 266.192H220.383C219.523 266.192 218.784 265.884 218.166 265.266C217.549 264.627 217.24 263.877 217.24 263.017V221.899C217.24 221.039 217.549 220.29 218.166 219.65C218.784 219.011 219.523 218.691 220.383 218.691H226.602C227.462 218.691 228.189 219.011 228.785 219.65C229.402 220.29 229.711 221.039 229.711 221.899V237.744H236.823C238.764 237.744 240.462 237.215 241.917 236.157C243.395 235.098 244.795 233.389 246.118 231.029L251.246 221.899C252.414 219.782 254.002 218.713 256.009 218.691H263.65C264.709 218.691 265.238 219.154 265.238 220.08C265.238 220.587 265.051 221.194 264.676 221.899L257.498 234.9C256.461 236.796 255.292 238.362 253.991 239.597C252.712 240.832 251.036 241.703 248.963 242.21C250.419 242.519 251.907 243.434 253.429 244.956C254.972 246.477 256.329 248.131 257.498 249.917L265.767 263.083C266.142 263.722 266.33 264.274 266.33 264.737ZM271.093 263.149V221.966C271.093 221.061 271.402 220.301 272.019 219.683C272.637 219.066 273.375 218.757 274.236 218.757H280.454C281.314 218.757 282.042 219.066 282.638 219.683C283.255 220.301 283.564 221.061 283.564 221.966V256.831H312.376C313.236 256.831 313.964 257.14 314.559 257.757C315.176 258.375 315.485 259.113 315.485 259.974V263.083C315.485 263.943 315.176 264.682 314.559 265.299C313.964 265.895 313.236 266.192 312.376 266.192H274.236C273.375 266.192 272.637 265.906 272.019 265.332C271.402 264.737 271.093 264.009 271.093 263.149ZM363.681 261.297C359.183 265.244 352.567 267.218 343.834 267.218C335.123 267.218 328.507 265.244 323.986 261.297C319.466 257.327 317.205 251.053 317.205 242.475C317.205 233.896 319.466 227.633 323.986 223.686C328.507 219.738 335.123 217.765 343.834 217.765C352.567 217.765 359.183 219.738 363.681 223.686C368.202 227.633 370.463 233.896 370.463 242.475C370.463 251.053 368.202 257.327 363.681 261.297ZM354.651 230.665C352.423 228.019 348.818 226.696 343.834 226.696C338.872 226.696 335.266 228.019 333.017 230.665C330.79 233.312 329.676 237.259 329.676 242.508C329.676 247.734 330.79 251.671 333.017 254.317C335.266 256.941 338.872 258.253 343.834 258.253C348.818 258.253 352.423 256.941 354.651 254.317C356.878 251.671 357.992 247.734 357.992 242.508C357.992 237.259 356.878 233.312 354.651 230.665Z" fill="url(#paint7_linear_1285_290)"/>
<path d="M-122.27 205.598V164.415C-122.27 163.555 -121.961 162.827 -121.343 162.232C-120.726 161.636 -119.987 161.339 -119.127 161.339H-80.987C-80.1269 161.339 -79.3992 161.647 -78.8038 162.265C-78.1863 162.882 -77.8775 163.621 -77.8775 164.481V167.59C-77.8775 168.451 -78.1863 169.189 -78.8038 169.807C-79.3992 170.402 -80.1269 170.7 -80.987 170.7H-109.799V180.326H-84.9896C-84.1295 180.326 -83.4018 180.635 -82.8063 181.252C-82.1889 181.848 -81.8801 182.575 -81.8801 183.435V186.545C-81.8801 187.405 -82.1889 188.144 -82.8063 188.761C-83.4018 189.356 -84.1295 189.654 -84.9896 189.654H-109.799V199.413H-81.0531C-80.2151 199.413 -79.4984 199.71 -78.903 200.306C-78.3076 200.901 -78.0099 201.629 -78.0099 202.489V205.664C-78.0099 206.525 -78.3186 207.263 -78.9361 207.881C-79.5536 208.476 -80.2923 208.774 -81.1524 208.774H-119.127C-119.987 208.774 -120.726 208.476 -121.343 207.881C-121.961 207.263 -122.27 206.502 -122.27 205.598ZM-22.7016 207.318C-22.7016 208.289 -23.275 208.774 -24.4217 208.774H-31.9968C-32.8569 208.774 -33.7831 208.476 -34.7755 207.881C-35.7679 207.263 -36.5397 206.525 -37.091 205.664L-42.9129 196.435C-44.3023 194.186 -45.7026 192.499 -47.114 191.374C-48.5254 190.228 -50.2234 189.654 -52.2082 189.654H-59.3202V205.731C-59.3202 206.591 -59.6289 207.318 -60.2464 207.914C-60.8418 208.487 -61.5696 208.774 -62.4296 208.774H-68.6485C-69.5085 208.774 -70.2473 208.465 -70.8648 207.848C-71.4823 207.208 -71.791 206.458 -71.791 205.598V164.481C-71.791 163.621 -71.4823 162.871 -70.8648 162.232C-70.2473 161.592 -69.5085 161.272 -68.6485 161.272H-62.4296C-61.5696 161.272 -60.8418 161.592 -60.2464 162.232C-59.6289 162.871 -59.3202 163.621 -59.3202 164.481V180.326H-52.2082C-50.2675 180.326 -48.5695 179.797 -47.114 178.738C-45.6365 177.68 -44.2361 175.97 -42.9129 173.611L-37.7857 164.481C-36.6169 162.364 -35.0291 161.294 -33.0223 161.272H-25.381C-24.3225 161.272 -23.7932 161.735 -23.7932 162.662C-23.7932 163.169 -23.9807 163.775 -24.3556 164.481L-31.5337 177.481C-32.5702 179.378 -33.739 180.943 -35.0401 182.178C-36.3192 183.413 -37.9952 184.284 -40.0681 184.792C-38.6127 185.1 -37.1241 186.016 -35.6025 187.537C-34.0588 189.059 -32.7025 190.713 -31.5337 192.499L-23.264 205.664C-22.8891 206.304 -22.7016 206.855 -22.7016 207.318ZM-17.9382 205.731V164.547C-17.9382 163.643 -17.6295 162.882 -17.012 162.265C-16.3945 161.647 -15.6558 161.339 -14.7957 161.339H-8.57686C-7.7168 161.339 -6.98906 161.647 -6.39364 162.265C-5.77616 162.882 -5.46742 163.643 -5.46742 164.547V199.413H23.3445C24.2045 199.413 24.9323 199.721 25.5277 200.339C26.1452 200.956 26.4539 201.695 26.4539 202.555V205.664C26.4539 206.525 26.1452 207.263 25.5277 207.881C24.9323 208.476 24.2045 208.774 23.3445 208.774H-14.7957C-15.6558 208.774 -16.3945 208.487 -17.012 207.914C-17.6295 207.318 -17.9382 206.591 -17.9382 205.731ZM74.6501 203.878C70.1514 207.826 63.5356 209.799 54.8027 209.799C46.0919 209.799 39.476 207.826 34.9552 203.878C30.4344 199.909 28.174 193.635 28.174 185.056C28.174 176.478 30.4344 170.215 34.9552 166.267C39.476 162.32 46.0919 160.346 54.8027 160.346C63.5356 160.346 70.1514 162.32 74.6501 166.267C79.1709 170.215 81.4314 176.478 81.4314 185.056C81.4314 193.635 79.1709 199.909 74.6501 203.878ZM65.6195 173.247C63.3922 170.601 59.7866 169.277 54.8027 169.277C49.8408 169.277 46.2352 170.601 43.9858 173.247C41.7585 175.893 40.6448 179.841 40.6448 185.089C40.6448 190.316 41.7585 194.252 43.9858 196.899C46.2352 199.523 49.8408 200.835 54.8027 200.835C59.7866 200.835 63.3922 199.523 65.6195 196.899C67.8469 194.252 68.9605 190.316 68.9605 185.089C68.9605 179.841 67.8469 175.893 65.6195 173.247Z" fill="url(#paint8_linear_1285_290)"/>
<path d="M101.762 205.598V164.415C101.762 163.555 102.07 162.827 102.688 162.232C103.305 161.636 104.044 161.339 104.904 161.339H143.044C143.904 161.339 144.632 161.647 145.227 162.265C145.845 162.882 146.154 163.621 146.154 164.481V167.59C146.154 168.451 145.845 169.189 145.227 169.807C144.632 170.402 143.904 170.7 143.044 170.7H114.232V180.326H139.042C139.902 180.326 140.629 180.635 141.225 181.252C141.842 181.848 142.151 182.575 142.151 183.435V186.545C142.151 187.405 141.842 188.144 141.225 188.761C140.629 189.356 139.902 189.654 139.042 189.654H114.232V199.413H142.978C143.816 199.413 144.533 199.71 145.128 200.306C145.724 200.901 146.021 201.629 146.021 202.489V205.664C146.021 206.525 145.713 207.263 145.095 207.881C144.478 208.476 143.739 208.774 142.879 208.774H104.904C104.044 208.774 103.305 208.476 102.688 207.881C102.07 207.263 101.762 206.502 101.762 205.598ZM201.33 207.318C201.33 208.289 200.756 208.774 199.61 208.774H192.034C191.174 208.774 190.248 208.476 189.256 207.881C188.263 207.263 187.492 206.525 186.94 205.664L181.118 196.435C179.729 194.186 178.329 192.499 176.917 191.374C175.506 190.228 173.808 189.654 171.823 189.654H164.711V205.731C164.711 206.591 164.402 207.318 163.785 207.914C163.189 208.487 162.462 208.774 161.602 208.774H155.383C154.523 208.774 153.784 208.465 153.166 207.848C152.549 207.208 152.24 206.458 152.24 205.598V164.481C152.24 163.621 152.549 162.871 153.166 162.232C153.784 161.592 154.523 161.272 155.383 161.272H161.602C162.462 161.272 163.189 161.592 163.785 162.232C164.402 162.871 164.711 163.621 164.711 164.481V180.326H171.823C173.764 180.326 175.462 179.797 176.917 178.738C178.395 177.68 179.795 175.97 181.118 173.611L186.246 164.481C187.414 162.364 189.002 161.294 191.009 161.272H198.65C199.709 161.272 200.238 161.735 200.238 162.662C200.238 163.169 200.051 163.775 199.676 164.481L192.498 177.481C191.461 179.378 190.292 180.943 188.991 182.178C187.712 183.413 186.036 184.284 183.963 184.792C185.419 185.1 186.907 186.016 188.429 187.537C189.972 189.059 191.329 190.713 192.498 192.499L200.767 205.664C201.142 206.304 201.33 206.855 201.33 207.318ZM206.093 205.731V164.547C206.093 163.643 206.402 162.882 207.019 162.265C207.637 161.647 208.375 161.339 209.236 161.339H215.454C216.314 161.339 217.042 161.647 217.638 162.265C218.255 162.882 218.564 163.643 218.564 164.547V199.413H247.376C248.236 199.413 248.964 199.721 249.559 200.339C250.176 200.956 250.485 201.695 250.485 202.555V205.664C250.485 206.525 250.176 207.263 249.559 207.881C248.964 208.476 248.236 208.774 247.376 208.774H209.236C208.375 208.774 207.637 208.487 207.019 207.914C206.402 207.318 206.093 206.591 206.093 205.731ZM298.681 203.878C294.183 207.826 287.567 209.799 278.834 209.799C270.123 209.799 263.507 207.826 258.986 203.878C254.466 199.909 252.205 193.635 252.205 185.056C252.205 176.478 254.466 170.215 258.986 166.267C263.507 162.32 270.123 160.346 278.834 160.346C287.567 160.346 294.183 162.32 298.681 166.267C303.202 170.215 305.463 176.478 305.463 185.056C305.463 193.635 303.202 199.909 298.681 203.878ZM289.651 173.247C287.423 170.601 283.818 169.277 278.834 169.277C273.872 169.277 270.266 170.601 268.017 173.247C265.79 175.893 264.676 179.841 264.676 185.089C264.676 190.316 265.79 194.252 268.017 196.899C270.266 199.523 273.872 200.835 278.834 200.835C283.818 200.835 287.423 199.523 289.651 196.899C291.878 194.252 292.992 190.316 292.992 185.089C292.992 179.841 291.878 175.893 289.651 173.247Z" fill="url(#paint9_linear_1285_290)"/>
</g>
<defs>
<linearGradient id="paint0_linear_1285_290" x1="30.815" y1="-12.9176" x2="40.9379" y2="60.727" gradientUnits="userSpaceOnUse">
<stop stop-color="#427EFF"/>
<stop offset="1" stop-color="#6BB4FF"/>
</linearGradient>
<linearGradient id="paint1_linear_1285_290" x1="254.846" y1="-12.9176" x2="264.969" y2="60.727" gradientUnits="userSpaceOnUse">
<stop stop-color="#427EFF"/>
<stop offset="1" stop-color="#6BB4FF"/>
</linearGradient>
<linearGradient id="paint2_linear_1285_290" x1="-104.185" y1="41.2796" x2="-94.0621" y2="114.924" gradientUnits="userSpaceOnUse">
<stop stop-color="#427EFF"/>
<stop offset="1" stop-color="#6BB4FF"/>
</linearGradient>
<linearGradient id="paint3_linear_1285_290" x1="140.492" y1="41.2796" x2="146.919" y2="115.761" gradientUnits="userSpaceOnUse">
<stop stop-color="#427EFF"/>
<stop offset="1" stop-color="#6BB4FF"/>
</linearGradient>
<linearGradient id="paint4_linear_1285_290" x1="-46.2241" y1="97.8558" x2="-36.1012" y2="171.5" gradientUnits="userSpaceOnUse">
<stop stop-color="#427EFF"/>
<stop offset="1" stop-color="#6BB4FF"/>
</linearGradient>
<linearGradient id="paint5_linear_1285_290" x1="177.807" y1="97.8558" x2="187.93" y2="171.5" gradientUnits="userSpaceOnUse">
<stop stop-color="#427EFF"/>
<stop offset="1" stop-color="#6BB4FF"/>
</linearGradient>
<linearGradient id="paint6_linear_1285_290" x1="-27.185" y1="209.082" x2="-17.0621" y2="282.727" gradientUnits="userSpaceOnUse">
<stop stop-color="#427EFF"/>
<stop offset="1" stop-color="#6BB4FF"/>
</linearGradient>
<linearGradient id="paint7_linear_1285_290" x1="196.846" y1="209.082" x2="206.969" y2="282.727" gradientUnits="userSpaceOnUse">
<stop stop-color="#427EFF"/>
<stop offset="1" stop-color="#6BB4FF"/>
</linearGradient>
<linearGradient id="paint8_linear_1285_290" x1="-92.185" y1="151.664" x2="-82.0621" y2="225.309" gradientUnits="userSpaceOnUse">
<stop stop-color="#427EFF"/>
<stop offset="1" stop-color="#6BB4FF"/>
</linearGradient>
<linearGradient id="paint9_linear_1285_290" x1="131.846" y1="151.664" x2="141.969" y2="225.309" gradientUnits="userSpaceOnUse">
<stop stop-color="#427EFF"/>
<stop offset="1" stop-color="#6BB4FF"/>
</linearGradient>
<clipPath id="clip0_1285_290">
<rect width="304" height="254" fill="white"/>
</clipPath>
</defs>
</svg>
