<svg width="828" height="828" viewBox="0 0 828 828" fill="none" xmlns="http://www.w3.org/2000/svg">
<rect width="828" height="828" rx="120" fill="#427EFF"/>
<rect x="235" y="199" width="358" height="114.053" rx="15.8407" fill="#FFBC1D"/>
<rect x="235" y="199" width="358" height="114.053" rx="15.8407" fill="#FFBC1D"/>
<rect x="235" y="199" width="358" height="114.053" rx="15.8407" fill="url(#paint0_linear_1051_2861)" fill-opacity="0.9"/>
<rect x="235" y="199" width="358" height="114.053" rx="15.8407" fill="white"/>
<rect x="235" y="357.408" width="307.31" height="114.053" rx="15.8407" fill="#FFBC1D"/>
<rect x="235" y="357.408" width="307.31" height="114.053" rx="15.8407" fill="#FFBC1D"/>
<rect x="235" y="357.408" width="307.31" height="114.053" rx="15.8407" fill="url(#paint1_linear_1051_2861)" fill-opacity="0.9"/>
<rect x="235" y="357.408" width="307.31" height="114.053" rx="15.8407" fill="white"/>
<rect x="235" y="515.813" width="358" height="114.053" rx="15.8407" fill="#FFBC1D"/>
<rect x="235" y="515.813" width="358" height="114.053" rx="15.8407" fill="#FFBC1D"/>
<rect x="235" y="515.813" width="358" height="114.053" rx="15.8407" fill="url(#paint2_linear_1051_2861)" fill-opacity="0.9"/>
<rect x="235" y="515.813" width="358" height="114.053" rx="15.8407" fill="white"/>
<defs>
<linearGradient id="paint0_linear_1051_2861" x1="175.942" y1="256.027" x2="187.824" y2="351.583" gradientUnits="userSpaceOnUse">
<stop stop-color="#FF4242"/>
<stop offset="1" stop-color="#FF4242"/>
</linearGradient>
<linearGradient id="paint1_linear_1051_2861" x1="184.304" y1="414.435" x2="198.071" y2="509.475" gradientUnits="userSpaceOnUse">
<stop stop-color="#FF4242"/>
<stop offset="1" stop-color="#FF4242"/>
</linearGradient>
<linearGradient id="paint2_linear_1051_2861" x1="175.942" y1="572.84" x2="187.824" y2="668.397" gradientUnits="userSpaceOnUse">
<stop stop-color="#FF4242"/>
<stop offset="1" stop-color="#FF4242"/>
</linearGradient>
</defs>
</svg>
