<svg width="62" height="49" viewBox="0 0 62 49" fill="none" xmlns="http://www.w3.org/2000/svg">
<path fill-rule="evenodd" clip-rule="evenodd" d="M8.51672 0.623975C6.85764 0.865636 5.78847 1.41391 5.10352 2.37429L4.82907 2.75901L4.76767 12.2756L4.70628 21.7922L4.37105 22.3626C4.18661 22.6762 3.85506 23.0854 3.63428 23.2718C3.05984 23.7566 1.90606 24.2743 1.16635 24.379L0.53125 24.4689L1.21694 24.6273C2.75826 24.9834 3.79023 25.6369 4.37105 26.6248L4.70628 27.1952L4.76767 36.6504L4.82907 46.1056L5.12943 46.6302C5.42549 47.147 6.17969 47.7298 6.91658 48.011C7.82797 48.3589 9.30544 48.4997 12.0433 48.5L14.8369 48.5001V47.7189V46.9377L13.059 46.8772C11.4928 46.8241 11.2115 46.7816 10.6952 46.52C10.2374 46.2881 10.0421 46.0895 9.80226 45.6118L9.49528 45.0005L9.43388 36.2206C9.37285 27.4947 9.37088 27.4377 9.10503 26.9413C8.53379 25.8738 7.04282 24.9305 5.49241 24.6555L4.70628 24.5162L5.54312 24.3461C7.07057 24.0356 8.43077 23.184 9.08833 22.1263L9.37248 21.6694L9.43388 12.8282C9.48815 5.0193 9.51849 3.93674 9.69433 3.55718C10.174 2.52177 10.9525 2.20226 13.2098 2.11471L14.8369 2.05159V1.26951V0.487305L12.0433 0.502286C10.5067 0.510513 8.91986 0.565279 8.51672 0.623975ZM47.2547 1.3923V2.17438L48.8817 2.2375C51.0627 2.32211 51.7716 2.58526 52.2711 3.49553C52.452 3.82512 52.48 4.79507 52.5349 12.644C52.5949 21.234 52.6018 21.4357 52.8537 21.9764C53.4088 23.1683 54.8057 24.118 56.5078 24.4604L57.3494 24.6298L56.5919 24.7706C55.4155 24.9894 54.2274 25.5963 53.5284 26.3353C52.5003 27.4225 52.535 27.062 52.5341 36.642C52.5338 41.7684 52.4866 45.1693 52.4122 45.4372C52.3454 45.6774 52.1385 46.0199 51.9523 46.1982C51.3466 46.7785 50.7724 46.9312 48.9431 46.9987L47.2547 47.0609V47.8419V48.6229L50.1097 48.6186C53.1813 48.6141 54.3605 48.4796 55.4525 48.0099C56.2196 47.6798 57.0103 46.8615 57.1911 46.2106C57.2789 45.8942 57.3231 42.724 57.3244 36.6504L57.3263 27.5636L57.6154 26.9427C57.7743 26.6014 58.1387 26.1213 58.4252 25.8763C58.9928 25.3904 60.2048 24.8535 61.0327 24.721L61.5566 24.6373L60.8217 24.485C59.2401 24.1571 58.1326 23.3973 57.6128 22.2834L57.3263 21.6694L57.3251 12.6677C57.3243 6.18462 57.2835 3.5056 57.1796 3.09313C56.9685 2.25457 56.1338 1.4607 55.1067 1.12129C53.8904 0.71951 52.8281 0.615134 49.9255 0.612555L47.2547 0.6101V1.3923ZM24.4763 10.2469C22.6747 10.6433 20.5999 11.7298 19.8261 12.6821C19.0943 13.5826 18.6435 14.3975 18.3322 15.3826C18.0727 16.2037 18.0295 16.5772 18.0295 17.9983C18.0295 21.1577 18.7652 22.9929 20.4659 24.0763L20.9988 24.416L20.5209 24.6597C19.4379 25.2123 18.5201 26.5451 18.1409 28.1162C17.9002 29.1135 17.9271 31.3016 18.1946 32.4754C18.3176 33.0157 18.6418 33.9274 18.9147 34.5015C19.3157 35.3446 19.5932 35.7223 20.3577 36.4662C21.5158 37.5931 22.633 38.2128 24.2409 38.6208L25.4286 38.9221H33.5788H41.7289V35.8522V32.7824H33.8651C26.3025 32.7824 25.9834 32.7731 25.5306 32.5422C24.552 32.0429 24.1106 31.1672 24.1921 29.8871C24.2544 28.9095 24.708 28.1876 25.5169 27.7785L26.0633 27.5022H33.8961H41.7289V24.4357V21.3693L33.7577 21.3352L25.7866 21.301L25.2542 20.9311C23.9608 20.032 23.787 17.8991 24.9222 16.8556C25.6403 16.1953 25.5065 16.205 33.9275 16.205H41.7289V13.1352V10.0653L33.471 10.075C27.1143 10.0826 25.0434 10.1222 24.4763 10.2469Z" fill="white"/>
</svg>
