<svg width="49" height="50" viewBox="0 0 49 50" fill="none" xmlns="http://www.w3.org/2000/svg">
<path d="M11.763 11.89C-0.0318527 24.7267 -1.51645 27.6139 1.10138 32.6207C2.73952 35.7519 14.9667 50.2004 15.515 49.6512C15.7175 49.4486 14.3827 46.0339 12.5486 42.0643C9.69058 35.88 9.37501 34.5414 10.3415 32.7299C10.9623 31.5666 16.0632 25.6093 21.6766 19.491C27.2901 13.3727 31.8823 7.99573 31.8823 7.54357C31.8823 6.72309 24.1296 0 23.1848 0C22.9116 0 17.772 5.35058 11.763 11.89Z" fill="#008CD4"/>
<path fill-rule="evenodd" clip-rule="evenodd" d="M35.4384 24.6749C27.6838 33.2471 26.4912 35.5823 28.2142 38.8219C29.7751 41.7572 36.7082 49.9262 37.6389 49.9262C38.0515 49.9262 37.3714 47.7295 36.1279 45.0438C34.8836 42.3582 34.1648 39.6264 34.5303 38.9736C34.8967 38.3198 38.2409 34.4293 41.9618 30.3278L48.7282 22.8709L45.6224 19.8603L42.5166 16.8506L35.4384 24.6749Z" fill="white"/>
<path d="M24.7438 47.5345C28.298 51.7613 28.5806 49.8546 25.3495 43.4547C23.7613 40.3084 22.4623 37.3392 22.4623 36.8578C22.4623 36.3755 26.4818 31.5948 31.3934 26.2329C36.306 20.872 40.333 15.9905 40.3425 15.3867C40.3528 14.7829 38.7637 13.0232 36.8109 11.4774L33.2624 8.66644L26.2133 16.2675L26.0939 16.3962C18.7463 24.3199 15.1381 28.211 15.077 32.157C15.018 35.9644 18.2615 39.823 24.6347 47.4047L24.7438 47.5345Z" fill="#555754"/>
</svg>
