<svg width="304" height="254" viewBox="0 0 304 254" fill="none" xmlns="http://www.w3.org/2000/svg">
<g opacity="0.12">
<path d="M-64.9025 41.0168V-0.0343625C-64.9025 -0.938524 -64.6048 -1.69934 -64.0094 -2.31682C-63.4139 -2.9343 -62.6862 -3.24303 -61.8261 -3.24303H-48.363C-47.5029 -3.24303 -46.6869 -2.9343 -45.9151 -2.31682C-45.1433 -1.69934 -44.625 -0.960577 -44.3604 -0.100521L-34.6021 28.149L-24.8437 -0.100521C-24.5791 -0.960577 -24.0609 -1.69934 -23.289 -2.31682C-22.5172 -2.9343 -21.7012 -3.24303 -20.8412 -3.24303H-7.37796C-6.51791 -3.24303 -5.80119 -2.9343 -5.22782 -2.31682C-4.6324 -1.69934 -4.33469 -0.938524 -4.33469 -0.0343625V41.0168C-4.33469 41.921 -4.64342 42.6818 -5.2609 43.2992C-5.85632 43.8947 -6.58406 44.1924 -7.44412 44.1924H-13.3984C-14.2584 44.1924 -14.9972 43.8947 -15.6147 43.2992C-16.2101 42.6818 -16.5078 41.921 -16.5078 41.0168V8.69852L-28.1847 41.2153C-28.4934 42.0312 -29.0337 42.7369 -29.8056 43.3323C-30.5774 43.9057 -31.3934 44.1924 -32.2534 44.1924H-36.9837C-37.8438 44.1924 -38.6598 43.9057 -39.4316 43.3323C-40.1814 42.7369 -40.7217 42.0312 -41.0525 41.2153L-52.6963 8.69852V41.0168C-52.6963 41.921 -53.0051 42.6818 -53.6225 43.2992C-54.218 43.8947 -54.9457 44.1924 -55.8058 44.1924H-61.76C-62.62 44.1924 -63.3588 43.8947 -63.9763 43.2992C-64.5938 42.6818 -64.9025 41.921 -64.9025 41.0168ZM48.9227 39.2967C44.4239 43.2441 37.8081 45.2178 29.0752 45.2178C20.3644 45.2178 13.7486 43.2441 9.22774 39.2967C4.70693 35.3272 2.44653 29.0532 2.44653 20.4747C2.44653 11.8962 4.70693 5.63319 9.22774 1.68575C13.7486 -2.26169 20.3644 -4.23541 29.0752 -4.23541C37.8081 -4.23541 44.4239 -2.26169 48.9227 1.68575C53.4435 5.63319 55.7039 11.8962 55.7039 20.4747C55.7039 29.0532 53.4435 35.3272 48.9227 39.2967ZM39.8921 8.66544C37.6647 6.01911 34.0591 4.69595 29.0752 4.69595C24.1133 4.69595 20.5077 6.01911 18.2583 8.66544C16.031 11.3118 14.9173 15.2592 14.9173 20.5078C14.9173 25.7342 16.031 29.6707 18.2583 32.317C20.5077 34.9413 24.1133 36.2534 29.0752 36.2534C34.0591 36.2534 37.6647 34.9413 39.8921 32.317C42.1194 29.6707 43.233 25.7342 43.233 20.5078C43.233 15.2592 42.1194 11.3118 39.8921 8.66544ZM106.282 39.2967C101.783 43.2441 95.1672 45.2178 86.4343 45.2178C77.7235 45.2178 71.1077 43.2441 66.5869 39.2967C62.0661 35.3272 59.8057 29.0532 59.8057 20.4747C59.8057 11.8962 62.0661 5.63319 66.5869 1.68575C71.1077 -2.26169 77.7235 -4.23541 86.4343 -4.23541C95.1672 -4.23541 101.783 -2.26169 106.282 1.68575C110.803 5.63319 113.063 11.8962 113.063 20.4747C113.063 29.0532 110.803 35.3272 106.282 39.2967ZM97.2512 8.66544C95.0239 6.01911 91.4183 4.69595 86.4343 4.69595C81.4725 4.69595 77.8669 6.01911 75.6175 8.66544C73.3902 11.3118 72.2765 15.2592 72.2765 20.5078C72.2765 25.7342 73.3902 29.6707 75.6175 32.317C77.8669 34.9413 81.4725 36.2534 86.4343 36.2534C91.4183 36.2534 95.0239 34.9413 97.2512 32.317C99.4785 29.6707 100.592 25.7342 100.592 20.5078C100.592 15.2592 99.4785 11.3118 97.2512 8.66544ZM119.877 41.1491V-0.0343625C119.877 -0.938524 120.186 -1.69934 120.804 -2.31682C121.421 -2.9343 122.16 -3.24303 123.02 -3.24303H141.511C151.082 -3.24303 158.04 -1.32445 162.384 2.51273C166.75 6.32785 168.934 12.3262 168.934 20.5078C168.934 28.6673 166.75 34.6546 162.384 38.4697C158.04 42.2848 151.082 44.1924 141.511 44.1924H123.02C122.16 44.1924 121.421 43.9057 120.804 43.3323C120.186 42.7369 119.877 42.0092 119.877 41.1491ZM132.348 34.831H141.147C147.079 34.831 151.115 33.7504 153.254 31.5892C155.393 29.4281 156.463 25.7342 156.463 20.5078C156.463 15.2592 155.393 11.5543 153.254 9.39318C151.115 7.20996 147.079 6.11835 141.147 6.11835H132.348V34.831ZM175.715 41.1491V-0.0343625C175.715 -0.938524 176.024 -1.69934 176.641 -2.31682C177.258 -2.9343 177.997 -3.24303 178.857 -3.24303H185.076C185.936 -3.24303 186.664 -2.9343 187.259 -2.31682C187.877 -1.69934 188.186 -0.938524 188.186 -0.0343625V34.831H216.998C217.858 34.831 218.585 35.1397 219.181 35.7572C219.798 36.3747 220.107 37.1135 220.107 37.9735V41.0829C220.107 41.943 219.798 42.6818 219.181 43.2992C218.585 43.8947 217.858 44.1924 216.998 44.1924H178.857C177.997 44.1924 177.258 43.9057 176.641 43.3323C176.024 42.7369 175.715 42.0092 175.715 41.1491ZM216.501 -1.65524C216.501 -2.71377 217.075 -3.24303 218.221 -3.24303H224.506C226.998 -3.24303 228.917 -2.19553 230.262 -0.100521L240.98 16.4059L251.664 -0.100521C253.032 -2.19553 254.95 -3.24303 257.42 -3.24303H263.738C264.863 -3.24303 265.425 -2.71377 265.425 -1.65524C265.425 -1.17008 265.249 -0.651839 264.896 -0.100521L247.199 27.2559V41.1491C247.199 42.0092 246.89 42.7369 246.273 43.3323C245.677 43.9057 244.949 44.1924 244.089 44.1924H237.87C237.01 44.1924 236.272 43.9057 235.654 43.3323C235.037 42.7369 234.728 42.0092 234.728 41.1491V27.2559L217.064 -0.100521C216.689 -0.651839 216.501 -1.17008 216.501 -1.65524Z" fill="url(#paint0_linear_1239_189)"/>
<path d="M284.129 41.0168V-0.0343625C284.129 -0.938524 284.426 -1.69934 285.022 -2.31682C285.617 -2.9343 286.345 -3.24303 287.205 -3.24303H300.668C301.528 -3.24303 302.344 -2.9343 303.116 -2.31682C303.888 -1.69934 304.406 -0.960577 304.671 -0.100521L314.429 28.149L324.188 -0.100521C324.452 -0.960577 324.97 -1.69934 325.742 -2.31682C326.514 -2.9343 327.33 -3.24303 328.19 -3.24303H341.653C342.513 -3.24303 343.23 -2.9343 343.803 -2.31682C344.399 -1.69934 344.697 -0.938524 344.697 -0.0343625V41.0168C344.697 41.921 344.388 42.6818 343.77 43.2992C343.175 43.8947 342.447 44.1924 341.587 44.1924H335.633C334.773 44.1924 334.034 43.8947 333.417 43.2992C332.821 42.6818 332.523 41.921 332.523 41.0168V8.69852L320.847 41.2153C320.538 42.0312 319.998 42.7369 319.226 43.3323C318.454 43.9057 317.638 44.1924 316.778 44.1924H312.048C311.187 44.1924 310.371 43.9057 309.6 43.3323C308.85 42.7369 308.31 42.0312 307.979 41.2153L296.335 8.69852V41.0168C296.335 41.921 296.026 42.6818 295.409 43.2992C294.813 43.8947 294.086 44.1924 293.225 44.1924H287.271C286.411 44.1924 285.672 43.8947 285.055 43.2992C284.437 42.6818 284.129 41.921 284.129 41.0168ZM397.954 39.2967C393.455 43.2441 386.839 45.2178 378.106 45.2178C369.396 45.2178 362.78 43.2441 358.259 39.2967C353.738 35.3272 351.478 29.0532 351.478 20.4747C351.478 11.8962 353.738 5.63319 358.259 1.68575C362.78 -2.26169 369.396 -4.23541 378.106 -4.23541C386.839 -4.23541 393.455 -2.26169 397.954 1.68575C402.475 5.63319 404.735 11.8962 404.735 20.4747C404.735 29.0532 402.475 35.3272 397.954 39.2967ZM388.923 8.66544C386.696 6.01911 383.09 4.69595 378.106 4.69595C373.145 4.69595 369.539 6.01911 367.29 8.66544C365.062 11.3118 363.949 15.2592 363.949 20.5078C363.949 25.7342 365.062 29.6707 367.29 32.317C369.539 34.9413 373.145 36.2534 378.106 36.2534C383.09 36.2534 386.696 34.9413 388.923 32.317C391.151 29.6707 392.264 25.7342 392.264 20.5078C392.264 15.2592 391.151 11.3118 388.923 8.66544ZM455.313 39.2967C450.814 43.2441 444.198 45.2178 435.466 45.2178C426.755 45.2178 420.139 43.2441 415.618 39.2967C411.097 35.3272 408.837 29.0532 408.837 20.4747C408.837 11.8962 411.097 5.63319 415.618 1.68575C420.139 -2.26169 426.755 -4.23541 435.466 -4.23541C444.198 -4.23541 450.814 -2.26169 455.313 1.68575C459.834 5.63319 462.094 11.8962 462.094 20.4747C462.094 29.0532 459.834 35.3272 455.313 39.2967ZM446.282 8.66544C444.055 6.01911 440.45 4.69595 435.466 4.69595C430.504 4.69595 426.898 6.01911 424.649 8.66544C422.421 11.3118 421.308 15.2592 421.308 20.5078C421.308 25.7342 422.421 29.6707 424.649 32.317C426.898 34.9413 430.504 36.2534 435.466 36.2534C440.45 36.2534 444.055 34.9413 446.282 32.317C448.51 29.6707 449.623 25.7342 449.623 20.5078C449.623 15.2592 448.51 11.3118 446.282 8.66544ZM468.909 41.1491V-0.0343625C468.909 -0.938524 469.217 -1.69934 469.835 -2.31682C470.452 -2.9343 471.191 -3.24303 472.051 -3.24303H490.542C500.113 -3.24303 507.071 -1.32445 511.415 2.51273C515.782 6.32785 517.965 12.3262 517.965 20.5078C517.965 28.6673 515.782 34.6546 511.415 38.4697C507.071 42.2848 500.113 44.1924 490.542 44.1924H472.051C471.191 44.1924 470.452 43.9057 469.835 43.3323C469.217 42.7369 468.909 42.0092 468.909 41.1491ZM481.379 34.831H490.178C496.111 34.831 500.146 33.7504 502.285 31.5892C504.424 29.4281 505.494 25.7342 505.494 20.5078C505.494 15.2592 504.424 11.5543 502.285 9.39318C500.146 7.20996 496.111 6.11835 490.178 6.11835H481.379V34.831ZM524.746 41.1491V-0.0343625C524.746 -0.938524 525.055 -1.69934 525.672 -2.31682C526.29 -2.9343 527.029 -3.24303 527.889 -3.24303H534.107C534.967 -3.24303 535.695 -2.9343 536.291 -2.31682C536.908 -1.69934 537.217 -0.938524 537.217 -0.0343625V34.831H566.029C566.889 34.831 567.617 35.1397 568.212 35.7572C568.829 36.3747 569.138 37.1135 569.138 37.9735V41.0829C569.138 41.943 568.829 42.6818 568.212 43.2992C567.617 43.8947 566.889 44.1924 566.029 44.1924H527.889C527.029 44.1924 526.29 43.9057 525.672 43.3323C525.055 42.7369 524.746 42.0092 524.746 41.1491ZM565.533 -1.65524C565.533 -2.71377 566.106 -3.24303 567.253 -3.24303H573.538C576.03 -3.24303 577.948 -2.19553 579.293 -0.100521L590.011 16.4059L600.696 -0.100521C602.063 -2.19553 603.982 -3.24303 606.451 -3.24303H612.77C613.894 -3.24303 614.457 -2.71377 614.457 -1.65524C614.457 -1.17008 614.28 -0.651839 613.927 -0.100521L596.23 27.2559V41.1491C596.23 42.0092 595.921 42.7369 595.304 43.3323C594.708 43.9057 593.981 44.1924 593.121 44.1924H586.902C586.042 44.1924 585.303 43.9057 584.685 43.3323C584.068 42.7369 583.759 42.0092 583.759 41.1491V27.2559L566.095 -0.100521C565.72 -0.651839 565.533 -1.17008 565.533 -1.65524Z" fill="url(#paint1_linear_1239_189)"/>
<path d="M-157.137 95.2141V54.1629C-157.137 53.2587 -156.839 52.4979 -156.244 51.8804C-155.648 51.263 -154.921 50.9542 -154.061 50.9542H-140.597C-139.737 50.9542 -138.921 51.263 -138.149 51.8804C-137.378 52.4979 -136.859 53.2367 -136.595 54.0967L-126.836 82.3463L-117.078 54.0967C-116.813 53.2367 -116.295 52.4979 -115.523 51.8804C-114.752 51.263 -113.936 50.9542 -113.076 50.9542H-99.6123C-98.7523 50.9542 -98.0356 51.263 -97.4622 51.8804C-96.8668 52.4979 -96.5691 53.2587 -96.5691 54.1629V95.2141C-96.5691 96.1182 -96.8778 96.879 -97.4953 97.4965C-98.0907 98.0919 -98.8184 98.3896 -99.6785 98.3896H-105.633C-106.493 98.3896 -107.232 98.0919 -107.849 97.4965C-108.444 96.879 -108.742 96.1182 -108.742 95.2141V62.8958L-120.419 95.4125C-120.728 96.2285 -121.268 96.9342 -122.04 97.5296C-122.812 98.103 -123.628 98.3896 -124.488 98.3896H-129.218C-130.078 98.3896 -130.894 98.103 -131.666 97.5296C-132.416 96.9342 -132.956 96.2285 -133.287 95.4125L-144.931 62.8958V95.2141C-144.931 96.1182 -145.239 96.879 -145.857 97.4965C-146.452 98.0919 -147.18 98.3896 -148.04 98.3896H-153.994C-154.854 98.3896 -155.593 98.0919 -156.211 97.4965C-156.828 96.879 -157.137 96.1182 -157.137 95.2141ZM-43.3117 93.4939C-47.8105 97.4414 -54.4263 99.4151 -63.1592 99.4151C-71.87 99.4151 -78.4858 97.4414 -83.0066 93.4939C-87.5274 89.5245 -89.7878 83.2505 -89.7878 74.6719C-89.7878 66.0934 -87.5274 59.8305 -83.0066 55.883C-78.4858 51.9356 -71.87 49.9619 -63.1592 49.9619C-54.4263 49.9619 -47.8105 51.9356 -43.3117 55.883C-38.7909 59.8305 -36.5305 66.0934 -36.5305 74.6719C-36.5305 83.2505 -38.7909 89.5245 -43.3117 93.4939ZM-52.3423 62.8627C-54.5696 60.2164 -58.1753 58.8932 -63.1592 58.8932C-68.121 58.8932 -71.7267 60.2164 -73.976 62.8627C-76.2034 65.509 -77.317 69.4565 -77.317 74.705C-77.317 79.9315 -76.2034 83.8679 -73.976 86.5143C-71.7267 89.1385 -68.121 90.4507 -63.1592 90.4507C-58.1753 90.4507 -54.5696 89.1385 -52.3423 86.5143C-50.115 83.8679 -49.0013 79.9315 -49.0013 74.705C-49.0013 69.4565 -50.115 65.509 -52.3423 62.8627ZM14.0474 93.4939C9.54867 97.4414 2.93285 99.4151 -5.80003 99.4151C-14.5109 99.4151 -21.1267 97.4414 -25.6475 93.4939C-30.1683 89.5245 -32.4287 83.2505 -32.4287 74.6719C-32.4287 66.0934 -30.1683 59.8305 -25.6475 55.883C-21.1267 51.9356 -14.5109 49.9619 -5.80003 49.9619C2.93285 49.9619 9.54867 51.9356 14.0474 55.883C18.5682 59.8305 20.8286 66.0934 20.8286 74.6719C20.8286 83.2505 18.5682 89.5245 14.0474 93.4939ZM5.01683 62.8627C2.78951 60.2164 -0.816116 58.8932 -5.80003 58.8932C-10.7619 58.8932 -14.3675 60.2164 -16.6169 62.8627C-18.8442 65.509 -19.9579 69.4565 -19.9579 74.705C-19.9579 79.9315 -18.8442 83.8679 -16.6169 86.5143C-14.3675 89.1385 -10.7619 90.4507 -5.80003 90.4507C-0.816116 90.4507 2.78951 89.1385 5.01683 86.5143C7.24416 83.8679 8.35782 79.9315 8.35782 74.705C8.35782 69.4565 7.24416 65.509 5.01683 62.8627ZM27.6429 95.3464V54.1629C27.6429 53.2587 27.9517 52.4979 28.5692 51.8804C29.1866 51.263 29.9254 50.9542 30.7855 50.9542H49.2767C58.8475 50.9542 65.8052 52.8728 70.1496 56.71C74.516 60.5251 76.6992 66.5235 76.6992 74.705C76.6992 82.8645 74.516 88.8518 70.1496 92.667C65.8052 96.4821 58.8475 98.3896 49.2767 98.3896H30.7855C29.9254 98.3896 29.1866 98.103 28.5692 97.5296C27.9517 96.9342 27.6429 96.2064 27.6429 95.3464ZM40.1138 89.0283H48.9128C54.845 89.0283 58.8806 87.9477 61.0197 85.7865C63.1589 83.6253 64.2284 79.9315 64.2284 74.705C64.2284 69.4565 63.1589 65.7516 61.0197 63.5904C58.8806 61.4072 54.845 60.3156 48.9128 60.3156H40.1138V89.0283ZM83.4804 95.3464V54.1629C83.4804 53.2587 83.7892 52.4979 84.4066 51.8804C85.0241 51.263 85.7629 50.9542 86.6229 50.9542H92.8418C93.7019 50.9542 94.4296 51.263 95.025 51.8804C95.6425 52.4979 95.9512 53.2587 95.9512 54.1629V89.0283H124.763C125.623 89.0283 126.351 89.337 126.946 89.9545C127.564 90.572 127.873 91.3107 127.873 92.1708V95.2802C127.873 96.1403 127.564 96.879 126.946 97.4965C126.351 98.0919 125.623 98.3896 124.763 98.3896H86.6229C85.7629 98.3896 85.0241 98.103 84.4066 97.5296C83.7892 96.9342 83.4804 96.2064 83.4804 95.3464ZM124.267 52.542C124.267 51.4835 124.84 50.9542 125.987 50.9542H132.272C134.764 50.9542 136.683 52.0017 138.028 54.0967L148.745 70.6032L159.43 54.0967C160.797 52.0017 162.716 50.9542 165.186 50.9542H171.504C172.629 50.9542 173.191 51.4835 173.191 52.542C173.191 53.0272 173.015 53.5454 172.662 54.0967L154.964 81.4532V95.3464C154.964 96.2064 154.656 96.9342 154.038 97.5296C153.443 98.103 152.715 98.3896 151.855 98.3896H145.636C144.776 98.3896 144.037 98.103 143.42 97.5296C142.802 96.9342 142.494 96.2064 142.494 95.3464V81.4532L124.829 54.0967C124.454 53.5454 124.267 53.0272 124.267 52.542Z" fill="url(#paint2_linear_1239_189)"/>
<path d="M191.894 95.2141V54.1629C191.894 53.2587 192.192 52.4979 192.788 51.8804C193.383 51.263 194.111 50.9542 194.971 50.9542H208.434C209.294 50.9542 210.11 51.263 210.882 51.8804C211.654 52.4979 212.172 53.2367 212.436 54.0967L222.195 82.3463L231.953 54.0967C232.218 53.2367 232.736 52.4979 233.508 51.8804C234.28 51.263 235.096 50.9542 235.956 50.9542H249.419C250.279 50.9542 250.996 51.263 251.569 51.8804C252.164 52.4979 252.462 53.2587 252.462 54.1629V95.2141C252.462 96.1182 252.153 96.879 251.536 97.4965C250.941 98.0919 250.213 98.3896 249.353 98.3896H243.399C242.538 98.3896 241.8 98.0919 241.182 97.4965C240.587 96.879 240.289 96.1182 240.289 95.2141V62.8958L228.612 95.4125C228.303 96.2285 227.763 96.9342 226.991 97.5296C226.219 98.103 225.403 98.3896 224.543 98.3896H219.813C218.953 98.3896 218.137 98.103 217.365 97.5296C216.615 96.9342 216.075 96.2285 215.744 95.4125L204.101 62.8958V95.2141C204.101 96.1182 203.792 96.879 203.174 97.4965C202.579 98.0919 201.851 98.3896 200.991 98.3896H195.037C194.177 98.3896 193.438 98.0919 192.821 97.4965C192.203 96.879 191.894 96.1182 191.894 95.2141ZM305.72 93.4939C301.221 97.4414 294.605 99.4151 285.872 99.4151C277.161 99.4151 270.545 97.4414 266.025 93.4939C261.504 89.5245 259.243 83.2505 259.243 74.6719C259.243 66.0934 261.504 59.8305 266.025 55.883C270.545 51.9356 277.161 49.9619 285.872 49.9619C294.605 49.9619 301.221 51.9356 305.72 55.883C310.24 59.8305 312.501 66.0934 312.501 74.6719C312.501 83.2505 310.24 89.5245 305.72 93.4939ZM296.689 62.8627C294.462 60.2164 290.856 58.8932 285.872 58.8932C280.91 58.8932 277.305 60.2164 275.055 62.8627C272.828 65.509 271.714 69.4565 271.714 74.705C271.714 79.9315 272.828 83.8679 275.055 86.5143C277.305 89.1385 280.91 90.4507 285.872 90.4507C290.856 90.4507 294.462 89.1385 296.689 86.5143C298.916 83.8679 300.03 79.9315 300.03 74.705C300.03 69.4565 298.916 65.509 296.689 62.8627ZM363.079 93.4939C358.58 97.4414 351.964 99.4151 343.231 99.4151C334.52 99.4151 327.905 97.4414 323.384 93.4939C318.863 89.5245 316.603 83.2505 316.603 74.6719C316.603 66.0934 318.863 59.8305 323.384 55.883C327.905 51.9356 334.52 49.9619 343.231 49.9619C351.964 49.9619 358.58 51.9356 363.079 55.883C367.599 59.8305 369.86 66.0934 369.86 74.6719C369.86 83.2505 367.599 89.5245 363.079 93.4939ZM354.048 62.8627C351.821 60.2164 348.215 58.8932 343.231 58.8932C338.269 58.8932 334.664 60.2164 332.414 62.8627C330.187 65.509 329.073 69.4565 329.073 74.705C329.073 79.9315 330.187 83.8679 332.414 86.5143C334.664 89.1385 338.269 90.4507 343.231 90.4507C348.215 90.4507 351.821 89.1385 354.048 86.5143C356.275 83.8679 357.389 79.9315 357.389 74.705C357.389 69.4565 356.275 65.509 354.048 62.8627ZM376.674 95.3464V54.1629C376.674 53.2587 376.983 52.4979 377.6 51.8804C378.218 51.263 378.957 50.9542 379.817 50.9542H398.308C407.879 50.9542 414.836 52.8728 419.181 56.71C423.547 60.5251 425.73 66.5235 425.73 74.705C425.73 82.8645 423.547 88.8518 419.181 92.667C414.836 96.4821 407.879 98.3896 398.308 98.3896H379.817C378.957 98.3896 378.218 98.103 377.6 97.5296C376.983 96.9342 376.674 96.2064 376.674 95.3464ZM389.145 89.0283H397.944C403.876 89.0283 407.912 87.9477 410.051 85.7865C412.19 83.6253 413.26 79.9315 413.26 74.705C413.26 69.4565 412.19 65.7516 410.051 63.5904C407.912 61.4072 403.876 60.3156 397.944 60.3156H389.145V89.0283ZM432.512 95.3464V54.1629C432.512 53.2587 432.82 52.4979 433.438 51.8804C434.055 51.263 434.794 50.9542 435.654 50.9542H441.873C442.733 50.9542 443.461 51.263 444.056 51.8804C444.674 52.4979 444.982 53.2587 444.982 54.1629V89.0283H473.794C474.654 89.0283 475.382 89.337 475.978 89.9545C476.595 90.572 476.904 91.3107 476.904 92.1708V95.2802C476.904 96.1403 476.595 96.879 475.978 97.4965C475.382 98.0919 474.654 98.3896 473.794 98.3896H435.654C434.794 98.3896 434.055 98.103 433.438 97.5296C432.82 96.9342 432.512 96.2064 432.512 95.3464ZM473.298 52.542C473.298 51.4835 473.872 50.9542 475.018 50.9542H481.303C483.795 50.9542 485.714 52.0017 487.059 54.0967L497.777 70.6032L508.461 54.0967C509.829 52.0017 511.747 50.9542 514.217 50.9542H520.535C521.66 50.9542 522.222 51.4835 522.222 52.542C522.222 53.0272 522.046 53.5454 521.693 54.0967L503.996 81.4532V95.3464C503.996 96.2064 503.687 96.9342 503.069 97.5296C502.474 98.103 501.746 98.3896 500.886 98.3896H494.667C493.807 98.3896 493.068 98.103 492.451 97.5296C491.834 96.9342 491.525 96.2064 491.525 95.3464V81.4532L473.861 54.0967C473.486 53.5454 473.298 53.0272 473.298 52.542Z" fill="url(#paint3_linear_1239_189)"/>
<path d="M-76.3088 151.79V110.739C-76.3088 109.835 -76.011 109.074 -75.4156 108.457C-74.8202 107.839 -74.0925 107.53 -73.2324 107.53H-59.7692C-58.9092 107.53 -58.0932 107.839 -57.3214 108.457C-56.5495 109.074 -56.0313 109.813 -55.7666 110.673L-46.0083 138.922L-36.25 110.673C-35.9853 109.813 -35.4671 109.074 -34.6953 108.457C-33.9234 107.839 -33.1075 107.53 -32.2474 107.53H-18.7842C-17.9242 107.53 -17.2074 107.839 -16.6341 108.457C-16.0386 109.074 -15.7409 109.835 -15.7409 110.739V151.79C-15.7409 152.694 -16.0497 153.455 -16.6672 154.073C-17.2626 154.668 -17.9903 154.966 -18.8504 154.966H-24.8046C-25.6647 154.966 -26.4034 154.668 -27.0209 154.073C-27.6163 153.455 -27.914 152.694 -27.914 151.79V119.472L-39.591 151.989C-39.8997 152.805 -40.44 153.51 -41.2118 154.106C-41.9837 154.679 -42.7996 154.966 -43.6597 154.966H-48.39C-49.2501 154.966 -50.066 154.679 -50.8379 154.106C-51.5876 153.51 -52.1279 152.805 -52.4587 151.989L-64.1026 119.472V151.79C-64.1026 152.694 -64.4113 153.455 -65.0288 154.073C-65.6242 154.668 -66.3519 154.966 -67.212 154.966H-73.1662C-74.0263 154.966 -74.7651 154.668 -75.3825 154.073C-76 153.455 -76.3088 152.694 -76.3088 151.79ZM37.5164 150.07C33.0176 154.018 26.4018 155.991 17.6689 155.991C8.95812 155.991 2.3423 154.018 -2.17851 150.07C-6.69932 146.101 -8.95972 139.827 -8.95972 131.248C-8.95972 122.67 -6.69932 116.407 -2.17851 112.459C2.3423 108.512 8.95812 106.538 17.6689 106.538C26.4018 106.538 33.0176 108.512 37.5164 112.459C42.0372 116.407 44.2976 122.67 44.2976 131.248C44.2976 139.827 42.0372 146.101 37.5164 150.07ZM28.4858 119.439C26.2585 116.793 22.6529 115.469 17.6689 115.469C12.7071 115.469 9.10146 116.793 6.85208 119.439C4.62476 122.085 3.5111 126.033 3.5111 131.281C3.5111 136.508 4.62476 140.444 6.85208 143.09C9.10146 145.715 12.7071 147.027 17.6689 147.027C22.6529 147.027 26.2585 145.715 28.4858 143.09C30.7131 140.444 31.8268 136.508 31.8268 131.281C31.8268 126.033 30.7131 122.085 28.4858 119.439ZM94.8755 150.07C90.3768 154.018 83.761 155.991 75.0281 155.991C66.3173 155.991 59.7014 154.018 55.1806 150.07C50.6598 146.101 48.3994 139.827 48.3994 131.248C48.3994 122.67 50.6598 116.407 55.1806 112.459C59.7014 108.512 66.3173 106.538 75.0281 106.538C83.761 106.538 90.3768 108.512 94.8755 112.459C99.3964 116.407 101.657 122.67 101.657 131.248C101.657 139.827 99.3964 146.101 94.8755 150.07ZM85.845 119.439C83.6176 116.793 80.012 115.469 75.0281 115.469C70.0662 115.469 66.4606 116.793 64.2112 119.439C61.9839 122.085 60.8702 126.033 60.8702 131.281C60.8702 136.508 61.9839 140.444 64.2112 143.09C66.4606 145.715 70.0662 147.027 75.0281 147.027C80.012 147.027 83.6176 145.715 85.845 143.09C88.0723 140.444 89.1859 136.508 89.1859 131.281C89.1859 126.033 88.0723 122.085 85.845 119.439ZM108.471 151.923V110.739C108.471 109.835 108.78 109.074 109.397 108.457C110.015 107.839 110.754 107.53 111.614 107.53H130.105C139.676 107.53 146.633 109.449 150.978 113.286C155.344 117.101 157.527 123.1 157.527 131.281C157.527 139.441 155.344 145.428 150.978 149.243C146.633 153.058 139.676 154.966 130.105 154.966H111.614C110.754 154.966 110.015 154.679 109.397 154.106C108.78 153.51 108.471 152.783 108.471 151.923ZM120.942 145.604H129.741C135.673 145.604 139.709 144.524 141.848 142.363C143.987 140.202 145.057 136.508 145.057 131.281C145.057 126.033 143.987 122.328 141.848 120.167C139.709 117.983 135.673 116.892 129.741 116.892H120.942V145.604ZM164.309 151.923V110.739C164.309 109.835 164.617 109.074 165.235 108.457C165.852 107.839 166.591 107.53 167.451 107.53H173.67C174.53 107.53 175.258 107.839 175.853 108.457C176.471 109.074 176.779 109.835 176.779 110.739V145.604H205.591C206.451 145.604 207.179 145.913 207.774 146.531C208.392 147.148 208.701 147.887 208.701 148.747V151.856C208.701 152.716 208.392 153.455 207.774 154.073C207.179 154.668 206.451 154.966 205.591 154.966H167.451C166.591 154.966 165.852 154.679 165.235 154.106C164.617 153.51 164.309 152.783 164.309 151.923ZM205.095 109.118C205.095 108.06 205.668 107.53 206.815 107.53H213.1C215.592 107.53 217.511 108.578 218.856 110.673L229.574 127.179L240.258 110.673C241.625 108.578 243.544 107.53 246.014 107.53H252.332C253.457 107.53 254.019 108.06 254.019 109.118C254.019 109.603 253.843 110.122 253.49 110.673L235.792 138.029V151.923C235.792 152.783 235.484 153.51 234.866 154.106C234.271 154.679 233.543 154.966 232.683 154.966H226.464C225.604 154.966 224.865 154.679 224.248 154.106C223.63 153.51 223.322 152.783 223.322 151.923V138.029L205.657 110.673C205.283 110.122 205.095 109.603 205.095 109.118Z" fill="url(#paint4_linear_1239_189)"/>
<path d="M272.722 151.79V110.739C272.722 109.835 273.02 109.074 273.616 108.457C274.211 107.839 274.939 107.53 275.799 107.53H289.262C290.122 107.53 290.938 107.839 291.71 108.457C292.482 109.074 293 109.813 293.265 110.673L303.023 138.922L312.781 110.673C313.046 109.813 313.564 109.074 314.336 108.457C315.108 107.839 315.924 107.53 316.784 107.53H330.247C331.107 107.53 331.824 107.839 332.397 108.457C332.993 109.074 333.29 109.835 333.29 110.739V151.79C333.29 152.694 332.982 153.455 332.364 154.073C331.769 154.668 331.041 154.966 330.181 154.966H324.227C323.367 154.966 322.628 154.668 322.01 154.073C321.415 153.455 321.117 152.694 321.117 151.79V119.472L309.44 151.989C309.132 152.805 308.591 153.51 307.819 154.106C307.048 154.679 306.232 154.966 305.372 154.966H300.641C299.781 154.966 298.965 154.679 298.193 154.106C297.444 153.51 296.903 152.805 296.573 151.989L284.929 119.472V151.79C284.929 152.694 284.62 153.455 284.002 154.073C283.407 154.668 282.679 154.966 281.819 154.966H275.865C275.005 154.966 274.266 154.668 273.649 154.073C273.031 153.455 272.722 152.694 272.722 151.79ZM386.548 150.07C382.049 154.018 375.433 155.991 366.7 155.991C357.989 155.991 351.374 154.018 346.853 150.07C342.332 146.101 340.072 139.827 340.072 131.248C340.072 122.67 342.332 116.407 346.853 112.459C351.374 108.512 357.989 106.538 366.7 106.538C375.433 106.538 382.049 108.512 386.548 112.459C391.068 116.407 393.329 122.67 393.329 131.248C393.329 139.827 391.068 146.101 386.548 150.07ZM377.517 119.439C375.29 116.793 371.684 115.469 366.7 115.469C361.738 115.469 358.133 116.793 355.883 119.439C353.656 122.085 352.542 126.033 352.542 131.281C352.542 136.508 353.656 140.444 355.883 143.09C358.133 145.715 361.738 147.027 366.7 147.027C371.684 147.027 375.29 145.715 377.517 143.09C379.744 140.444 380.858 136.508 380.858 131.281C380.858 126.033 379.744 122.085 377.517 119.439ZM443.907 150.07C439.408 154.018 432.792 155.991 424.059 155.991C415.349 155.991 408.733 154.018 404.212 150.07C399.691 146.101 397.431 139.827 397.431 131.248C397.431 122.67 399.691 116.407 404.212 112.459C408.733 108.512 415.349 106.538 424.059 106.538C432.792 106.538 439.408 108.512 443.907 112.459C448.428 116.407 450.688 122.67 450.688 131.248C450.688 139.827 448.428 146.101 443.907 150.07ZM434.876 119.439C432.649 116.793 429.043 115.469 424.059 115.469C419.097 115.469 415.492 116.793 413.242 119.439C411.015 122.085 409.901 126.033 409.901 131.281C409.901 136.508 411.015 140.444 413.242 143.09C415.492 145.715 419.097 147.027 424.059 147.027C429.043 147.027 432.649 145.715 434.876 143.09C437.104 140.444 438.217 136.508 438.217 131.281C438.217 126.033 437.104 122.085 434.876 119.439ZM457.502 151.923V110.739C457.502 109.835 457.811 109.074 458.429 108.457C459.046 107.839 459.785 107.53 460.645 107.53H479.136C488.707 107.53 495.665 109.449 500.009 113.286C504.375 117.101 506.559 123.1 506.559 131.281C506.559 139.441 504.375 145.428 500.009 149.243C495.665 153.058 488.707 154.966 479.136 154.966H460.645C459.785 154.966 459.046 154.679 458.429 154.106C457.811 153.51 457.502 152.783 457.502 151.923ZM469.973 145.604H478.772C484.704 145.604 488.74 144.524 490.879 142.363C493.018 140.202 494.088 136.508 494.088 131.281C494.088 126.033 493.018 122.328 490.879 120.167C488.74 117.983 484.704 116.892 478.772 116.892H469.973V145.604ZM513.34 151.923V110.739C513.34 109.835 513.649 109.074 514.266 108.457C514.883 107.839 515.622 107.53 516.482 107.53H522.701C523.561 107.53 524.289 107.839 524.884 108.457C525.502 109.074 525.811 109.835 525.811 110.739V145.604H554.623C555.483 145.604 556.21 145.913 556.806 146.531C557.423 147.148 557.732 147.887 557.732 148.747V151.856C557.732 152.716 557.423 153.455 556.806 154.073C556.21 154.668 555.483 154.966 554.623 154.966H516.482C515.622 154.966 514.883 154.679 514.266 154.106C513.649 153.51 513.34 152.783 513.34 151.923ZM554.126 109.118C554.126 108.06 554.7 107.53 555.846 107.53H562.131C564.623 107.53 566.542 108.578 567.887 110.673L578.605 127.179L589.289 110.673C590.657 108.578 592.575 107.53 595.045 107.53H601.363C602.488 107.53 603.05 108.06 603.05 109.118C603.05 109.603 602.874 110.122 602.521 110.673L584.824 138.029V151.923C584.824 152.783 584.515 153.51 583.898 154.106C583.302 154.679 582.574 154.966 581.714 154.966H575.495C574.635 154.966 573.897 154.679 573.279 154.106C572.662 153.51 572.353 152.783 572.353 151.923V138.029L554.689 110.673C554.314 110.122 554.126 109.603 554.126 109.118Z" fill="url(#paint5_linear_1239_189)"/>
<path d="M-228.215 205.598V164.547C-228.215 163.643 -227.917 162.882 -227.322 162.265C-226.726 161.647 -225.999 161.339 -225.139 161.339H-211.675C-210.815 161.339 -209.999 161.647 -209.228 162.265C-208.456 162.882 -207.938 163.621 -207.673 164.481L-197.915 192.731L-188.156 164.481C-187.892 163.621 -187.373 162.882 -186.602 162.265C-185.83 161.647 -185.014 161.339 -184.154 161.339H-170.69C-169.83 161.339 -169.114 161.647 -168.54 162.265C-167.945 162.882 -167.647 163.643 -167.647 164.547V205.598C-167.647 206.502 -167.956 207.263 -168.573 207.881C-169.169 208.476 -169.897 208.774 -170.757 208.774H-176.711C-177.571 208.774 -178.31 208.476 -178.927 207.881C-179.523 207.263 -179.82 206.502 -179.82 205.598V173.28L-191.497 205.797C-191.806 206.613 -192.346 207.318 -193.118 207.914C-193.89 208.487 -194.706 208.774 -195.566 208.774H-200.296C-201.156 208.774 -201.972 208.487 -202.744 207.914C-203.494 207.318 -204.034 206.613 -204.365 205.797L-216.009 173.28V205.598C-216.009 206.502 -216.318 207.263 -216.935 207.881C-217.53 208.476 -218.258 208.774 -219.118 208.774H-225.072C-225.933 208.774 -226.671 208.476 -227.289 207.881C-227.906 207.263 -228.215 206.502 -228.215 205.598ZM-114.39 203.878C-118.889 207.826 -125.504 209.799 -134.237 209.799C-142.948 209.799 -149.564 207.826 -154.085 203.878C-158.606 199.909 -160.866 193.635 -160.866 185.056C-160.866 176.478 -158.606 170.215 -154.085 166.267C-149.564 162.32 -142.948 160.346 -134.237 160.346C-125.504 160.346 -118.889 162.32 -114.39 166.267C-109.869 170.215 -107.609 176.478 -107.609 185.056C-107.609 193.635 -109.869 199.909 -114.39 203.878ZM-123.42 173.247C-125.648 170.601 -129.253 169.277 -134.237 169.277C-139.199 169.277 -142.805 170.601 -145.054 173.247C-147.281 175.893 -148.395 179.841 -148.395 185.089C-148.395 190.316 -147.281 194.252 -145.054 196.899C-142.805 199.523 -139.199 200.835 -134.237 200.835C-129.253 200.835 -125.648 199.523 -123.42 196.899C-121.193 194.252 -120.079 190.316 -120.079 185.089C-120.079 179.841 -121.193 175.893 -123.42 173.247ZM-57.0307 203.878C-61.5295 207.826 -68.1453 209.799 -76.8782 209.799C-85.589 209.799 -92.2048 207.826 -96.7256 203.878C-101.246 199.909 -103.507 193.635 -103.507 185.056C-103.507 176.478 -101.246 170.215 -96.7256 166.267C-92.2048 162.32 -85.589 160.346 -76.8782 160.346C-68.1453 160.346 -61.5295 162.32 -57.0307 166.267C-52.5099 170.215 -50.2495 176.478 -50.2495 185.056C-50.2495 193.635 -52.5099 199.909 -57.0307 203.878ZM-66.0613 173.247C-68.2886 170.601 -71.8942 169.277 -76.8782 169.277C-81.84 169.277 -85.4456 170.601 -87.695 173.247C-89.9223 175.893 -91.036 179.841 -91.036 185.089C-91.036 190.316 -89.9223 194.252 -87.695 196.899C-85.4456 199.523 -81.84 200.835 -76.8782 200.835C-71.8942 200.835 -68.2886 199.523 -66.0613 196.899C-63.834 194.252 -62.7203 190.316 -62.7203 185.089C-62.7203 179.841 -63.834 175.893 -66.0613 173.247ZM-43.4352 205.731V164.547C-43.4352 163.643 -43.1264 162.882 -42.509 162.265C-41.8915 161.647 -41.1527 161.339 -40.2927 161.339H-21.8015C-12.2306 161.339 -5.27294 163.257 -0.928554 167.094C3.43789 170.909 5.62111 176.908 5.62111 185.089C5.62111 193.249 3.43789 199.236 -0.928554 203.051C-5.27294 206.866 -12.2306 208.774 -21.8015 208.774H-40.2927C-41.1527 208.774 -41.8915 208.487 -42.509 207.914C-43.1264 207.318 -43.4352 206.591 -43.4352 205.731ZM-30.9644 199.413H-22.1653C-16.2331 199.413 -12.1975 198.332 -10.0584 196.171C-7.91927 194.01 -6.84971 190.316 -6.84971 185.089C-6.84971 179.841 -7.91927 176.136 -10.0584 173.975C-12.1975 171.792 -16.2331 170.7 -22.1653 170.7H-30.9644V199.413ZM12.4023 205.731V164.547C12.4023 163.643 12.711 162.882 13.3285 162.265C13.946 161.647 14.6848 161.339 15.5448 161.339H21.7637C22.6237 161.339 23.3515 161.647 23.9469 162.265C24.5644 162.882 24.8731 163.643 24.8731 164.547V199.413H53.685C54.5451 199.413 55.2728 199.721 55.8682 200.339C56.4857 200.956 56.7944 201.695 56.7944 202.555V205.664C56.7944 206.525 56.4857 207.263 55.8682 207.881C55.2728 208.476 54.5451 208.774 53.685 208.774H15.5448C14.6848 208.774 13.946 208.487 13.3285 207.914C12.711 207.318 12.4023 206.591 12.4023 205.731ZM53.1888 162.926C53.1888 161.868 53.7622 161.339 54.9089 161.339H61.194C63.6859 161.339 65.6045 162.386 66.9497 164.481L77.6674 180.987L88.3519 164.481C89.7192 162.386 91.6378 161.339 94.1077 161.339H100.426C101.55 161.339 102.113 161.868 102.113 162.926C102.113 163.411 101.936 163.93 101.584 164.481L83.8862 191.837V205.731C83.8862 206.591 83.5775 207.318 82.96 207.914C82.3646 208.487 81.6369 208.774 80.7768 208.774H74.5579C73.6979 208.774 72.9591 208.487 72.3416 207.914C71.7242 207.318 71.4154 206.591 71.4154 205.731V191.837L53.7512 164.481C53.3763 163.93 53.1888 163.411 53.1888 162.926Z" fill="url(#paint6_linear_1239_189)"/>
<path d="M120.816 205.598V164.547C120.816 163.643 121.114 162.882 121.709 162.265C122.305 161.647 123.033 161.339 123.893 161.339H137.356C138.216 161.339 139.032 161.647 139.804 162.265C140.575 162.882 141.094 163.621 141.358 164.481L151.117 192.731L160.875 164.481C161.14 163.621 161.658 162.882 162.43 162.265C163.202 161.647 164.018 161.339 164.878 161.339H178.341C179.201 161.339 179.918 161.647 180.491 162.265C181.086 162.882 181.384 163.643 181.384 164.547V205.598C181.384 206.502 181.075 207.263 180.458 207.881C179.862 208.476 179.135 208.774 178.275 208.774H172.32C171.46 208.774 170.722 208.476 170.104 207.881C169.509 207.263 169.211 206.502 169.211 205.598V173.28L157.534 205.797C157.225 206.613 156.685 207.318 155.913 207.914C155.141 208.487 154.325 208.774 153.465 208.774H148.735C147.875 208.774 147.059 208.487 146.287 207.914C145.537 207.318 144.997 206.613 144.666 205.797L133.022 173.28V205.598C133.022 206.502 132.714 207.263 132.096 207.881C131.501 208.476 130.773 208.774 129.913 208.774H123.959C123.099 208.774 122.36 208.476 121.742 207.881C121.125 207.263 120.816 206.502 120.816 205.598ZM234.641 203.878C230.143 207.826 223.527 209.799 214.794 209.799C206.083 209.799 199.467 207.826 194.946 203.878C190.426 199.909 188.165 193.635 188.165 185.056C188.165 176.478 190.426 170.215 194.946 166.267C199.467 162.32 206.083 160.346 214.794 160.346C223.527 160.346 230.143 162.32 234.641 166.267C239.162 170.215 241.423 176.478 241.423 185.056C241.423 193.635 239.162 199.909 234.641 203.878ZM225.611 173.247C223.383 170.601 219.778 169.277 214.794 169.277C209.832 169.277 206.226 170.601 203.977 173.247C201.75 175.893 200.636 179.841 200.636 185.089C200.636 190.316 201.75 194.252 203.977 196.899C206.226 199.523 209.832 200.835 214.794 200.835C219.778 200.835 223.383 199.523 225.611 196.899C227.838 194.252 228.952 190.316 228.952 185.089C228.952 179.841 227.838 175.893 225.611 173.247ZM292.001 203.878C287.502 207.826 280.886 209.799 272.153 209.799C263.442 209.799 256.826 207.826 252.306 203.878C247.785 199.909 245.524 193.635 245.524 185.056C245.524 176.478 247.785 170.215 252.306 166.267C256.826 162.32 263.442 160.346 272.153 160.346C280.886 160.346 287.502 162.32 292.001 166.267C296.521 170.215 298.782 176.478 298.782 185.056C298.782 193.635 296.521 199.909 292.001 203.878ZM282.97 173.247C280.743 170.601 277.137 169.277 272.153 169.277C267.191 169.277 263.586 170.601 261.336 173.247C259.109 175.893 257.995 179.841 257.995 185.089C257.995 190.316 259.109 194.252 261.336 196.899C263.586 199.523 267.191 200.835 272.153 200.835C277.137 200.835 280.743 199.523 282.97 196.899C285.197 194.252 286.311 190.316 286.311 185.089C286.311 179.841 285.197 175.893 282.97 173.247ZM305.596 205.731V164.547C305.596 163.643 305.905 162.882 306.522 162.265C307.14 161.647 307.879 161.339 308.739 161.339H327.23C336.801 161.339 343.758 163.257 348.103 167.094C352.469 170.909 354.652 176.908 354.652 185.089C354.652 193.249 352.469 199.236 348.103 203.051C343.758 206.866 336.801 208.774 327.23 208.774H308.739C307.879 208.774 307.14 208.487 306.522 207.914C305.905 207.318 305.596 206.591 305.596 205.731ZM318.067 199.413H326.866C332.798 199.413 336.834 198.332 338.973 196.171C341.112 194.01 342.182 190.316 342.182 185.089C342.182 179.841 341.112 176.136 338.973 173.975C336.834 171.792 332.798 170.7 326.866 170.7H318.067V199.413ZM361.434 205.731V164.547C361.434 163.643 361.742 162.882 362.36 162.265C362.977 161.647 363.716 161.339 364.576 161.339H370.795C371.655 161.339 372.383 161.647 372.978 162.265C373.596 162.882 373.904 163.643 373.904 164.547V199.413H402.716C403.576 199.413 404.304 199.721 404.899 200.339C405.517 200.956 405.826 201.695 405.826 202.555V205.664C405.826 206.525 405.517 207.263 404.899 207.881C404.304 208.476 403.576 208.774 402.716 208.774H364.576C363.716 208.774 362.977 208.487 362.36 207.914C361.742 207.318 361.434 206.591 361.434 205.731ZM402.22 162.926C402.22 161.868 402.793 161.339 403.94 161.339H410.225C412.717 161.339 414.636 162.386 415.981 164.481L426.699 180.987L437.383 164.481C438.75 162.386 440.669 161.339 443.139 161.339H449.457C450.582 161.339 451.144 161.868 451.144 162.926C451.144 163.411 450.968 163.93 450.615 164.481L432.917 191.837V205.731C432.917 206.591 432.609 207.318 431.991 207.914C431.396 208.487 430.668 208.774 429.808 208.774H423.589C422.729 208.774 421.99 208.487 421.373 207.914C420.755 207.318 420.447 206.591 420.447 205.731V191.837L402.782 164.481C402.408 163.93 402.22 163.411 402.22 162.926Z" fill="url(#paint7_linear_1239_189)"/>
<path d="M-14.2384 257.47V216.419C-14.2384 215.515 -13.9407 214.754 -13.3453 214.136C-12.7499 213.519 -12.0221 213.21 -11.1621 213.21H2.30111C3.16116 213.21 3.97711 213.519 4.74896 214.136C5.5208 214.754 6.03904 215.493 6.30368 216.353L16.062 244.602L25.8203 216.353C26.085 215.493 26.6032 214.754 27.3751 214.136C28.1469 213.519 28.9629 213.21 29.8229 213.21H43.2861C44.1462 213.21 44.8629 213.519 45.4362 214.136C46.0317 214.754 46.3294 215.515 46.3294 216.419V257.47C46.3294 258.374 46.0206 259.135 45.4032 259.752C44.8077 260.348 44.08 260.646 43.2199 260.646H37.2657C36.4056 260.646 35.6669 260.348 35.0494 259.752C34.454 259.135 34.1563 258.374 34.1563 257.47V225.152L22.4794 257.668C22.1706 258.484 21.6303 259.19 20.8585 259.785C20.0866 260.359 19.2707 260.646 18.4106 260.646H13.6803C12.8203 260.646 12.0043 260.359 11.2325 259.785C10.4827 259.19 9.94238 258.484 9.61159 257.668L-2.03226 225.152V257.47C-2.03226 258.374 -2.34099 259.135 -2.95847 259.752C-3.55389 260.348 -4.28163 260.646 -5.14169 260.646H-11.0959C-11.956 260.646 -12.6947 260.348 -13.3122 259.752C-13.9297 259.135 -14.2384 258.374 -14.2384 257.47ZM99.5867 255.75C95.088 259.697 88.4721 261.671 79.7393 261.671C71.0284 261.671 64.4126 259.697 59.8918 255.75C55.371 251.78 53.1106 245.506 53.1106 236.928C53.1106 228.349 55.371 222.086 59.8918 218.139C64.4126 214.191 71.0284 212.218 79.7393 212.218C88.4721 212.218 95.088 214.191 99.5867 218.139C104.108 222.086 106.368 228.349 106.368 236.928C106.368 245.506 104.108 251.78 99.5867 255.75ZM90.5561 225.119C88.3288 222.472 84.7232 221.149 79.7393 221.149C74.7774 221.149 71.1718 222.472 68.9224 225.119C66.6951 227.765 65.5814 231.712 65.5814 236.961C65.5814 242.187 66.6951 246.124 68.9224 248.77C71.1718 251.394 74.7774 252.707 79.7393 252.707C84.7232 252.707 88.3288 251.394 90.5561 248.77C92.7834 246.124 93.8971 242.187 93.8971 236.961C93.8971 231.712 92.7834 227.765 90.5561 225.119ZM156.946 255.75C152.447 259.697 145.831 261.671 137.098 261.671C128.388 261.671 121.772 259.697 117.251 255.75C112.73 251.78 110.47 245.506 110.47 236.928C110.47 228.349 112.73 222.086 117.251 218.139C121.772 214.191 128.388 212.218 137.098 212.218C145.831 212.218 152.447 214.191 156.946 218.139C161.467 222.086 163.727 228.349 163.727 236.928C163.727 245.506 161.467 251.78 156.946 255.75ZM147.915 225.119C145.688 222.472 142.082 221.149 137.098 221.149C132.137 221.149 128.531 222.472 126.282 225.119C124.054 227.765 122.941 231.712 122.941 236.961C122.941 242.187 124.054 246.124 126.282 248.77C128.531 251.394 132.137 252.707 137.098 252.707C142.082 252.707 145.688 251.394 147.915 248.77C150.143 246.124 151.256 242.187 151.256 236.961C151.256 231.712 150.143 227.765 147.915 225.119ZM170.541 257.602V216.419C170.541 215.515 170.85 214.754 171.468 214.136C172.085 213.519 172.824 213.21 173.684 213.21H192.175C201.746 213.21 208.704 215.129 213.048 218.966C217.414 222.781 219.598 228.779 219.598 236.961C219.598 245.12 217.414 251.108 213.048 254.923C208.704 258.738 201.746 260.646 192.175 260.646H173.684C172.824 260.646 172.085 260.359 171.468 259.785C170.85 259.19 170.541 258.462 170.541 257.602ZM183.012 251.284H191.811C197.743 251.284 201.779 250.204 203.918 248.042C206.057 245.881 207.127 242.187 207.127 236.961C207.127 231.712 206.057 228.007 203.918 225.846C201.779 223.663 197.743 222.571 191.811 222.571H183.012V251.284ZM226.379 257.602V216.419C226.379 215.515 226.688 214.754 227.305 214.136C227.923 213.519 228.661 213.21 229.521 213.21H235.74C236.6 213.21 237.328 213.519 237.923 214.136C238.541 214.754 238.85 215.515 238.85 216.419V251.284H267.662C268.522 251.284 269.249 251.593 269.845 252.21C270.462 252.828 270.771 253.567 270.771 254.427V257.536C270.771 258.396 270.462 259.135 269.845 259.752C269.249 260.348 268.522 260.646 267.662 260.646H229.521C228.661 260.646 227.923 260.359 227.305 259.785C226.688 259.19 226.379 258.462 226.379 257.602ZM267.165 214.798C267.165 213.739 267.739 213.21 268.886 213.21H275.171C277.662 213.21 279.581 214.258 280.926 216.353L291.644 232.859L302.328 216.353C303.696 214.258 305.614 213.21 308.084 213.21H314.402C315.527 213.21 316.089 213.739 316.089 214.798C316.089 215.283 315.913 215.801 315.56 216.353L297.863 243.709V257.602C297.863 258.462 297.554 259.19 296.937 259.785C296.341 260.359 295.613 260.646 294.753 260.646H288.534C287.674 260.646 286.936 260.359 286.318 259.785C285.701 259.19 285.392 258.462 285.392 257.602V243.709L267.728 216.353C267.353 215.801 267.165 215.283 267.165 214.798Z" fill="url(#paint8_linear_1239_189)"/>
</g>
<defs>
<linearGradient id="paint0_linear_1239_189" x1="16.3901" y1="-18.0776" x2="19.0916" y2="79.3077" gradientUnits="userSpaceOnUse">
<stop stop-color="#7C86ED"/>
<stop offset="1" stop-color="#F0A3D9"/>
</linearGradient>
<linearGradient id="paint1_linear_1239_189" x1="365.421" y1="-18.0776" x2="368.123" y2="79.3077" gradientUnits="userSpaceOnUse">
<stop stop-color="#7C86ED"/>
<stop offset="1" stop-color="#F0A3D9"/>
</linearGradient>
<linearGradient id="paint2_linear_1239_189" x1="-75.8443" y1="36.1196" x2="-73.1428" y2="133.505" gradientUnits="userSpaceOnUse">
<stop stop-color="#7C86ED"/>
<stop offset="1" stop-color="#F0A3D9"/>
</linearGradient>
<linearGradient id="paint3_linear_1239_189" x1="273.219" y1="36.1196" x2="275.919" y2="133.505" gradientUnits="userSpaceOnUse">
<stop stop-color="#7C86ED"/>
<stop offset="1" stop-color="#F0A3D9"/>
</linearGradient>
<linearGradient id="paint4_linear_1239_189" x1="-25.5991" y1="97.8558" x2="-19.1699" y2="172.337" gradientUnits="userSpaceOnUse">
<stop stop-color="#7C86ED"/>
<stop offset="1" stop-color="#F0D8A3"/>
</linearGradient>
<linearGradient id="paint5_linear_1239_189" x1="323.432" y1="97.8558" x2="329.861" y2="172.337" gradientUnits="userSpaceOnUse">
<stop stop-color="#7C86ED"/>
<stop offset="1" stop-color="#F0D8A3"/>
</linearGradient>
<linearGradient id="paint6_linear_1239_189" x1="-177.505" y1="151.664" x2="-171.076" y2="226.145" gradientUnits="userSpaceOnUse">
<stop stop-color="#7C86ED"/>
<stop offset="1" stop-color="#F0D8A3"/>
</linearGradient>
<linearGradient id="paint7_linear_1239_189" x1="171.526" y1="151.664" x2="177.955" y2="226.145" gradientUnits="userSpaceOnUse">
<stop stop-color="#7C86ED"/>
<stop offset="1" stop-color="#F0D8A3"/>
</linearGradient>
<linearGradient id="paint8_linear_1239_189" x1="36.4713" y1="203.536" x2="42.9004" y2="278.017" gradientUnits="userSpaceOnUse">
<stop stop-color="#7C86ED"/>
<stop offset="1" stop-color="#F0D8A3"/>
</linearGradient>
</defs>
</svg>
