<svg width="304" height="254" viewBox="0 0 304 254" fill="none" xmlns="http://www.w3.org/2000/svg">
<g opacity="0.02" clip-path="url(#clip0_1285_397)">
<path d="M-64.9025 41.0168V-0.0343625C-64.9025 -0.938524 -64.6048 -1.69934 -64.0094 -2.31682C-63.4139 -2.9343 -62.6862 -3.24303 -61.8261 -3.24303H-48.363C-47.5029 -3.24303 -46.6869 -2.9343 -45.9151 -2.31682C-45.1433 -1.69934 -44.625 -0.960577 -44.3604 -0.100521L-34.6021 28.149L-24.8437 -0.100521C-24.5791 -0.960577 -24.0609 -1.69934 -23.289 -2.31682C-22.5172 -2.9343 -21.7012 -3.24303 -20.8412 -3.24303H-7.37796C-6.51791 -3.24303 -5.80119 -2.9343 -5.22782 -2.31682C-4.6324 -1.69934 -4.33469 -0.938524 -4.33469 -0.0343625V41.0168C-4.33469 41.921 -4.64342 42.6818 -5.2609 43.2992C-5.85632 43.8947 -6.58406 44.1924 -7.44412 44.1924H-13.3984C-14.2584 44.1924 -14.9972 43.8947 -15.6147 43.2992C-16.2101 42.6818 -16.5078 41.921 -16.5078 41.0168V8.69852L-28.1847 41.2153C-28.4934 42.0312 -29.0337 42.7369 -29.8056 43.3323C-30.5774 43.9057 -31.3934 44.1924 -32.2534 44.1924H-36.9837C-37.8438 44.1924 -38.6598 43.9057 -39.4316 43.3323C-40.1814 42.7369 -40.7217 42.0312 -41.0525 41.2153L-52.6963 8.69852V41.0168C-52.6963 41.921 -53.0051 42.6818 -53.6225 43.2992C-54.218 43.8947 -54.9457 44.1924 -55.8058 44.1924H-61.76C-62.62 44.1924 -63.3588 43.8947 -63.9763 43.2992C-64.5938 42.6818 -64.9025 41.921 -64.9025 41.0168ZM48.9227 39.2967C44.4239 43.2441 37.8081 45.2178 29.0752 45.2178C20.3644 45.2178 13.7486 43.2441 9.22774 39.2967C4.70693 35.3272 2.44653 29.0532 2.44653 20.4747C2.44653 11.8962 4.70693 5.63319 9.22774 1.68575C13.7486 -2.26169 20.3644 -4.23541 29.0752 -4.23541C37.8081 -4.23541 44.4239 -2.26169 48.9227 1.68575C53.4435 5.63319 55.7039 11.8962 55.7039 20.4747C55.7039 29.0532 53.4435 35.3272 48.9227 39.2967ZM39.8921 8.66544C37.6647 6.01911 34.0591 4.69595 29.0752 4.69595C24.1133 4.69595 20.5077 6.01911 18.2583 8.66544C16.031 11.3118 14.9173 15.2592 14.9173 20.5078C14.9173 25.7342 16.031 29.6707 18.2583 32.317C20.5077 34.9413 24.1133 36.2534 29.0752 36.2534C34.0591 36.2534 37.6647 34.9413 39.8921 32.317C42.1194 29.6707 43.233 25.7342 43.233 20.5078C43.233 15.2592 42.1194 11.3118 39.8921 8.66544ZM106.282 39.2967C101.783 43.2441 95.1672 45.2178 86.4343 45.2178C77.7235 45.2178 71.1077 43.2441 66.5869 39.2967C62.0661 35.3272 59.8057 29.0532 59.8057 20.4747C59.8057 11.8962 62.0661 5.63319 66.5869 1.68575C71.1077 -2.26169 77.7235 -4.23541 86.4343 -4.23541C95.1672 -4.23541 101.783 -2.26169 106.282 1.68575C110.803 5.63319 113.063 11.8962 113.063 20.4747C113.063 29.0532 110.803 35.3272 106.282 39.2967ZM97.2512 8.66544C95.0239 6.01911 91.4183 4.69595 86.4343 4.69595C81.4725 4.69595 77.8669 6.01911 75.6175 8.66544C73.3902 11.3118 72.2765 15.2592 72.2765 20.5078C72.2765 25.7342 73.3902 29.6707 75.6175 32.317C77.8669 34.9413 81.4725 36.2534 86.4343 36.2534C91.4183 36.2534 95.0239 34.9413 97.2512 32.317C99.4785 29.6707 100.592 25.7342 100.592 20.5078C100.592 15.2592 99.4785 11.3118 97.2512 8.66544ZM119.877 41.1491V-0.0343625C119.877 -0.938524 120.186 -1.69934 120.804 -2.31682C121.421 -2.9343 122.16 -3.24303 123.02 -3.24303H141.511C151.082 -3.24303 158.04 -1.32445 162.384 2.51273C166.75 6.32785 168.934 12.3262 168.934 20.5078C168.934 28.6673 166.75 34.6546 162.384 38.4697C158.04 42.2848 151.082 44.1924 141.511 44.1924H123.02C122.16 44.1924 121.421 43.9057 120.804 43.3323C120.186 42.7369 119.877 42.0092 119.877 41.1491ZM132.348 34.831H141.147C147.079 34.831 151.115 33.7504 153.254 31.5892C155.393 29.4281 156.463 25.7342 156.463 20.5078C156.463 15.2592 155.393 11.5543 153.254 9.39318C151.115 7.20996 147.079 6.11835 141.147 6.11835H132.348V34.831ZM175.715 41.1491V-0.0343625C175.715 -0.938524 176.024 -1.69934 176.641 -2.31682C177.258 -2.9343 177.997 -3.24303 178.857 -3.24303H185.076C185.936 -3.24303 186.664 -2.9343 187.259 -2.31682C187.877 -1.69934 188.186 -0.938524 188.186 -0.0343625V34.831H216.998C217.858 34.831 218.585 35.1397 219.181 35.7572C219.798 36.3747 220.107 37.1135 220.107 37.9735V41.0829C220.107 41.943 219.798 42.6818 219.181 43.2992C218.585 43.8947 217.858 44.1924 216.998 44.1924H178.857C177.997 44.1924 177.258 43.9057 176.641 43.3323C176.024 42.7369 175.715 42.0092 175.715 41.1491ZM216.501 -1.65524C216.501 -2.71377 217.075 -3.24303 218.221 -3.24303H224.506C226.998 -3.24303 228.917 -2.19553 230.262 -0.100521L240.98 16.4059L251.664 -0.100521C253.032 -2.19553 254.95 -3.24303 257.42 -3.24303H263.738C264.863 -3.24303 265.425 -2.71377 265.425 -1.65524C265.425 -1.17008 265.249 -0.651839 264.896 -0.100521L247.199 27.2559V41.1491C247.199 42.0092 246.89 42.7369 246.273 43.3323C245.677 43.9057 244.949 44.1924 244.089 44.1924H237.87C237.01 44.1924 236.272 43.9057 235.654 43.3323C235.037 42.7369 234.728 42.0092 234.728 41.1491V27.2559L217.064 -0.100521C216.689 -0.651839 216.501 -1.17008 216.501 -1.65524Z" fill="#001F3F"/>
<path d="M284.129 41.0168V-0.0343625C284.129 -0.938524 284.426 -1.69934 285.022 -2.31682C285.617 -2.9343 286.345 -3.24303 287.205 -3.24303H300.668C301.528 -3.24303 302.344 -2.9343 303.116 -2.31682C303.888 -1.69934 304.406 -0.960577 304.671 -0.100521L314.429 28.149L324.188 -0.100521C324.452 -0.960577 324.97 -1.69934 325.742 -2.31682C326.514 -2.9343 327.33 -3.24303 328.19 -3.24303H341.653C342.513 -3.24303 343.23 -2.9343 343.803 -2.31682C344.399 -1.69934 344.697 -0.938524 344.697 -0.0343625V41.0168C344.697 41.921 344.388 42.6818 343.77 43.2992C343.175 43.8947 342.447 44.1924 341.587 44.1924H335.633C334.773 44.1924 334.034 43.8947 333.417 43.2992C332.821 42.6818 332.523 41.921 332.523 41.0168V8.69852L320.847 41.2153C320.538 42.0312 319.998 42.7369 319.226 43.3323C318.454 43.9057 317.638 44.1924 316.778 44.1924H312.048C311.187 44.1924 310.371 43.9057 309.6 43.3323C308.85 42.7369 308.31 42.0312 307.979 41.2153L296.335 8.69852V41.0168C296.335 41.921 296.026 42.6818 295.409 43.2992C294.813 43.8947 294.086 44.1924 293.225 44.1924H287.271C286.411 44.1924 285.672 43.8947 285.055 43.2992C284.437 42.6818 284.129 41.921 284.129 41.0168ZM397.954 39.2967C393.455 43.2441 386.839 45.2178 378.106 45.2178C369.396 45.2178 362.78 43.2441 358.259 39.2967C353.738 35.3272 351.478 29.0532 351.478 20.4747C351.478 11.8962 353.738 5.63319 358.259 1.68575C362.78 -2.26169 369.396 -4.23541 378.106 -4.23541C386.839 -4.23541 393.455 -2.26169 397.954 1.68575C402.475 5.63319 404.735 11.8962 404.735 20.4747C404.735 29.0532 402.475 35.3272 397.954 39.2967ZM388.923 8.66544C386.696 6.01911 383.09 4.69595 378.106 4.69595C373.145 4.69595 369.539 6.01911 367.29 8.66544C365.062 11.3118 363.949 15.2592 363.949 20.5078C363.949 25.7342 365.062 29.6707 367.29 32.317C369.539 34.9413 373.145 36.2534 378.106 36.2534C383.09 36.2534 386.696 34.9413 388.923 32.317C391.151 29.6707 392.264 25.7342 392.264 20.5078C392.264 15.2592 391.151 11.3118 388.923 8.66544ZM455.313 39.2967C450.814 43.2441 444.198 45.2178 435.466 45.2178C426.755 45.2178 420.139 43.2441 415.618 39.2967C411.097 35.3272 408.837 29.0532 408.837 20.4747C408.837 11.8962 411.097 5.63319 415.618 1.68575C420.139 -2.26169 426.755 -4.23541 435.466 -4.23541C444.198 -4.23541 450.814 -2.26169 455.313 1.68575C459.834 5.63319 462.094 11.8962 462.094 20.4747C462.094 29.0532 459.834 35.3272 455.313 39.2967ZM446.282 8.66544C444.055 6.01911 440.45 4.69595 435.466 4.69595C430.504 4.69595 426.898 6.01911 424.649 8.66544C422.421 11.3118 421.308 15.2592 421.308 20.5078C421.308 25.7342 422.421 29.6707 424.649 32.317C426.898 34.9413 430.504 36.2534 435.466 36.2534C440.45 36.2534 444.055 34.9413 446.282 32.317C448.51 29.6707 449.623 25.7342 449.623 20.5078C449.623 15.2592 448.51 11.3118 446.282 8.66544ZM468.909 41.1491V-0.0343625C468.909 -0.938524 469.217 -1.69934 469.835 -2.31682C470.452 -2.9343 471.191 -3.24303 472.051 -3.24303H490.542C500.113 -3.24303 507.071 -1.32445 511.415 2.51273C515.782 6.32785 517.965 12.3262 517.965 20.5078C517.965 28.6673 515.782 34.6546 511.415 38.4697C507.071 42.2848 500.113 44.1924 490.542 44.1924H472.051C471.191 44.1924 470.452 43.9057 469.835 43.3323C469.217 42.7369 468.909 42.0092 468.909 41.1491ZM481.379 34.831H490.178C496.111 34.831 500.146 33.7504 502.285 31.5892C504.424 29.4281 505.494 25.7342 505.494 20.5078C505.494 15.2592 504.424 11.5543 502.285 9.39318C500.146 7.20996 496.111 6.11835 490.178 6.11835H481.379V34.831ZM524.746 41.1491V-0.0343625C524.746 -0.938524 525.055 -1.69934 525.672 -2.31682C526.29 -2.9343 527.029 -3.24303 527.889 -3.24303H534.107C534.967 -3.24303 535.695 -2.9343 536.291 -2.31682C536.908 -1.69934 537.217 -0.938524 537.217 -0.0343625V34.831H566.029C566.889 34.831 567.617 35.1397 568.212 35.7572C568.829 36.3747 569.138 37.1135 569.138 37.9735V41.0829C569.138 41.943 568.829 42.6818 568.212 43.2992C567.617 43.8947 566.889 44.1924 566.029 44.1924H527.889C527.029 44.1924 526.29 43.9057 525.672 43.3323C525.055 42.7369 524.746 42.0092 524.746 41.1491ZM565.533 -1.65524C565.533 -2.71377 566.106 -3.24303 567.253 -3.24303H573.538C576.03 -3.24303 577.948 -2.19553 579.293 -0.100521L590.011 16.4059L600.696 -0.100521C602.063 -2.19553 603.982 -3.24303 606.451 -3.24303H612.77C613.894 -3.24303 614.457 -2.71377 614.457 -1.65524C614.457 -1.17008 614.28 -0.651839 613.927 -0.100521L596.23 27.2559V41.1491C596.23 42.0092 595.921 42.7369 595.304 43.3323C594.708 43.9057 593.981 44.1924 593.121 44.1924H586.902C586.042 44.1924 585.303 43.9057 584.685 43.3323C584.068 42.7369 583.759 42.0092 583.759 41.1491V27.2559L566.095 -0.100521C565.72 -0.651839 565.533 -1.17008 565.533 -1.65524Z" fill="#001F3F"/>
<path d="M-157.137 95.2138V54.1627C-157.137 53.2585 -156.839 52.4977 -156.244 51.8802C-155.648 51.2627 -154.921 50.954 -154.061 50.954H-140.597C-139.737 50.954 -138.921 51.2627 -138.149 51.8802C-137.378 52.4977 -136.859 53.2364 -136.595 54.0965L-126.836 82.346L-117.078 54.0965C-116.813 53.2364 -116.295 52.4977 -115.523 51.8802C-114.752 51.2627 -113.936 50.954 -113.076 50.954H-99.6123C-98.7523 50.954 -98.0356 51.2627 -97.4622 51.8802C-96.8668 52.4977 -96.5691 53.2585 -96.5691 54.1627V95.2138C-96.5691 96.118 -96.8778 96.8788 -97.4953 97.4963C-98.0907 98.0917 -98.8184 98.3894 -99.6785 98.3894H-105.633C-106.493 98.3894 -107.232 98.0917 -107.849 97.4963C-108.444 96.8788 -108.742 96.118 -108.742 95.2138V62.8955L-120.419 95.4123C-120.728 96.2282 -121.268 96.9339 -122.04 97.5293C-122.812 98.1027 -123.628 98.3894 -124.488 98.3894H-129.218C-130.078 98.3894 -130.894 98.1027 -131.666 97.5293C-132.416 96.9339 -132.956 96.2282 -133.287 95.4123L-144.931 62.8955V95.2138C-144.931 96.118 -145.239 96.8788 -145.857 97.4963C-146.452 98.0917 -147.18 98.3894 -148.04 98.3894H-153.994C-154.854 98.3894 -155.593 98.0917 -156.211 97.4963C-156.828 96.8788 -157.137 96.118 -157.137 95.2138ZM-43.3117 93.4937C-47.8105 97.4411 -54.4263 99.4149 -63.1592 99.4149C-71.87 99.4149 -78.4858 97.4411 -83.0066 93.4937C-87.5274 89.5242 -89.7878 83.2502 -89.7878 74.6717C-89.7878 66.0932 -87.5274 59.8302 -83.0066 55.8828C-78.4858 51.9353 -71.87 49.9616 -63.1592 49.9616C-54.4263 49.9616 -47.8105 51.9353 -43.3117 55.8828C-38.7909 59.8302 -36.5305 66.0932 -36.5305 74.6717C-36.5305 83.2502 -38.7909 89.5242 -43.3117 93.4937ZM-52.3423 62.8625C-54.5696 60.2161 -58.1753 58.893 -63.1592 58.893C-68.121 58.893 -71.7267 60.2161 -73.976 62.8625C-76.2034 65.5088 -77.317 69.4562 -77.317 74.7048C-77.317 79.9313 -76.2034 83.8677 -73.976 86.514C-71.7267 89.1383 -68.121 90.4504 -63.1592 90.4504C-58.1753 90.4504 -54.5696 89.1383 -52.3423 86.514C-50.115 83.8677 -49.0013 79.9313 -49.0013 74.7048C-49.0013 69.4562 -50.115 65.5088 -52.3423 62.8625ZM14.0474 93.4937C9.54867 97.4411 2.93285 99.4149 -5.80003 99.4149C-14.5109 99.4149 -21.1267 97.4411 -25.6475 93.4937C-30.1683 89.5242 -32.4287 83.2502 -32.4287 74.6717C-32.4287 66.0932 -30.1683 59.8302 -25.6475 55.8828C-21.1267 51.9353 -14.5109 49.9616 -5.80003 49.9616C2.93285 49.9616 9.54867 51.9353 14.0474 55.8828C18.5682 59.8302 20.8286 66.0932 20.8286 74.6717C20.8286 83.2502 18.5682 89.5242 14.0474 93.4937ZM5.01683 62.8625C2.78951 60.2161 -0.816116 58.893 -5.80003 58.893C-10.7619 58.893 -14.3675 60.2161 -16.6169 62.8625C-18.8442 65.5088 -19.9579 69.4562 -19.9579 74.7048C-19.9579 79.9313 -18.8442 83.8677 -16.6169 86.514C-14.3675 89.1383 -10.7619 90.4504 -5.80003 90.4504C-0.816116 90.4504 2.78951 89.1383 5.01683 86.514C7.24416 83.8677 8.35782 79.9313 8.35782 74.7048C8.35782 69.4562 7.24416 65.5088 5.01683 62.8625ZM27.6429 95.3461V54.1627C27.6429 53.2585 27.9517 52.4977 28.5692 51.8802C29.1866 51.2627 29.9254 50.954 30.7855 50.954H49.2767C58.8475 50.954 65.8052 52.8726 70.1496 56.7097C74.516 60.5249 76.6992 66.5232 76.6992 74.7048C76.6992 82.8643 74.516 88.8516 70.1496 92.6667C65.8052 96.4818 58.8475 98.3894 49.2767 98.3894H30.7855C29.9254 98.3894 29.1866 98.1027 28.5692 97.5293C27.9517 96.9339 27.6429 96.2062 27.6429 95.3461ZM40.1138 89.028H48.9128C54.845 89.028 58.8806 87.9474 61.0197 85.7863C63.1589 83.6251 64.2284 79.9313 64.2284 74.7048C64.2284 69.4562 63.1589 65.7514 61.0197 63.5902C58.8806 61.407 54.845 60.3154 48.9128 60.3154H40.1138V89.028ZM83.4804 95.3461V54.1627C83.4804 53.2585 83.7892 52.4977 84.4066 51.8802C85.0241 51.2627 85.7629 50.954 86.6229 50.954H92.8418C93.7019 50.954 94.4296 51.2627 95.025 51.8802C95.6425 52.4977 95.9512 53.2585 95.9512 54.1627V89.028H124.763C125.623 89.028 126.351 89.3368 126.946 89.9542C127.564 90.5717 127.873 91.3105 127.873 92.1705V95.28C127.873 96.14 127.564 96.8788 126.946 97.4963C126.351 98.0917 125.623 98.3894 124.763 98.3894H86.6229C85.7629 98.3894 85.0241 98.1027 84.4066 97.5293C83.7892 96.9339 83.4804 96.2062 83.4804 95.3461ZM124.267 52.5418C124.267 51.4833 124.84 50.954 125.987 50.954H132.272C134.764 50.954 136.683 52.0015 138.028 54.0965L148.745 70.603L159.43 54.0965C160.797 52.0015 162.716 50.954 165.186 50.954H171.504C172.629 50.954 173.191 51.4833 173.191 52.5418C173.191 53.0269 173.015 53.5452 172.662 54.0965L154.964 81.4529V95.3461C154.964 96.2062 154.656 96.9339 154.038 97.5293C153.443 98.1027 152.715 98.3894 151.855 98.3894H145.636C144.776 98.3894 144.037 98.1027 143.42 97.5293C142.802 96.9339 142.494 96.2062 142.494 95.3461V81.4529L124.829 54.0965C124.454 53.5452 124.267 53.0269 124.267 52.5418Z" fill="#001F3F"/>
<path d="M191.894 95.2138V54.1627C191.894 53.2585 192.192 52.4977 192.788 51.8802C193.383 51.2627 194.111 50.954 194.971 50.954H208.434C209.294 50.954 210.11 51.2627 210.882 51.8802C211.654 52.4977 212.172 53.2364 212.436 54.0965L222.195 82.346L231.953 54.0965C232.218 53.2364 232.736 52.4977 233.508 51.8802C234.28 51.2627 235.096 50.954 235.956 50.954H249.419C250.279 50.954 250.996 51.2627 251.569 51.8802C252.164 52.4977 252.462 53.2585 252.462 54.1627V95.2138C252.462 96.118 252.153 96.8788 251.536 97.4963C250.941 98.0917 250.213 98.3894 249.353 98.3894H243.399C242.538 98.3894 241.8 98.0917 241.182 97.4963C240.587 96.8788 240.289 96.118 240.289 95.2138V62.8955L228.612 95.4123C228.303 96.2282 227.763 96.9339 226.991 97.5293C226.219 98.1027 225.403 98.3894 224.543 98.3894H219.813C218.953 98.3894 218.137 98.1027 217.365 97.5293C216.615 96.9339 216.075 96.2282 215.744 95.4123L204.101 62.8955V95.2138C204.101 96.118 203.792 96.8788 203.174 97.4963C202.579 98.0917 201.851 98.3894 200.991 98.3894H195.037C194.177 98.3894 193.438 98.0917 192.821 97.4963C192.203 96.8788 191.894 96.118 191.894 95.2138ZM305.72 93.4937C301.221 97.4411 294.605 99.4149 285.872 99.4149C277.161 99.4149 270.545 97.4411 266.025 93.4937C261.504 89.5242 259.243 83.2502 259.243 74.6717C259.243 66.0932 261.504 59.8302 266.025 55.8828C270.545 51.9353 277.161 49.9616 285.872 49.9616C294.605 49.9616 301.221 51.9353 305.72 55.8828C310.24 59.8302 312.501 66.0932 312.501 74.6717C312.501 83.2502 310.24 89.5242 305.72 93.4937ZM296.689 62.8625C294.462 60.2161 290.856 58.893 285.872 58.893C280.91 58.893 277.305 60.2161 275.055 62.8625C272.828 65.5088 271.714 69.4562 271.714 74.7048C271.714 79.9313 272.828 83.8677 275.055 86.514C277.305 89.1383 280.91 90.4504 285.872 90.4504C290.856 90.4504 294.462 89.1383 296.689 86.514C298.916 83.8677 300.03 79.9313 300.03 74.7048C300.03 69.4562 298.916 65.5088 296.689 62.8625ZM363.079 93.4937C358.58 97.4411 351.964 99.4149 343.231 99.4149C334.52 99.4149 327.905 97.4411 323.384 93.4937C318.863 89.5242 316.603 83.2502 316.603 74.6717C316.603 66.0932 318.863 59.8302 323.384 55.8828C327.905 51.9353 334.52 49.9616 343.231 49.9616C351.964 49.9616 358.58 51.9353 363.079 55.8828C367.599 59.8302 369.86 66.0932 369.86 74.6717C369.86 83.2502 367.599 89.5242 363.079 93.4937ZM354.048 62.8625C351.821 60.2161 348.215 58.893 343.231 58.893C338.269 58.893 334.664 60.2161 332.414 62.8625C330.187 65.5088 329.073 69.4562 329.073 74.7048C329.073 79.9313 330.187 83.8677 332.414 86.514C334.664 89.1383 338.269 90.4504 343.231 90.4504C348.215 90.4504 351.821 89.1383 354.048 86.514C356.275 83.8677 357.389 79.9313 357.389 74.7048C357.389 69.4562 356.275 65.5088 354.048 62.8625ZM376.674 95.3461V54.1627C376.674 53.2585 376.983 52.4977 377.6 51.8802C378.218 51.2627 378.957 50.954 379.817 50.954H398.308C407.879 50.954 414.836 52.8726 419.181 56.7097C423.547 60.5249 425.73 66.5232 425.73 74.7048C425.73 82.8643 423.547 88.8516 419.181 92.6667C414.836 96.4818 407.879 98.3894 398.308 98.3894H379.817C378.957 98.3894 378.218 98.1027 377.6 97.5293C376.983 96.9339 376.674 96.2062 376.674 95.3461ZM389.145 89.028H397.944C403.876 89.028 407.912 87.9474 410.051 85.7863C412.19 83.6251 413.26 79.9313 413.26 74.7048C413.26 69.4562 412.19 65.7514 410.051 63.5902C407.912 61.407 403.876 60.3154 397.944 60.3154H389.145V89.028ZM432.512 95.3461V54.1627C432.512 53.2585 432.82 52.4977 433.438 51.8802C434.055 51.2627 434.794 50.954 435.654 50.954H441.873C442.733 50.954 443.461 51.2627 444.056 51.8802C444.674 52.4977 444.982 53.2585 444.982 54.1627V89.028H473.794C474.654 89.028 475.382 89.3368 475.978 89.9542C476.595 90.5717 476.904 91.3105 476.904 92.1705V95.28C476.904 96.14 476.595 96.8788 475.978 97.4963C475.382 98.0917 474.654 98.3894 473.794 98.3894H435.654C434.794 98.3894 434.055 98.1027 433.438 97.5293C432.82 96.9339 432.512 96.2062 432.512 95.3461ZM473.298 52.5418C473.298 51.4833 473.872 50.954 475.018 50.954H481.303C483.795 50.954 485.714 52.0015 487.059 54.0965L497.777 70.603L508.461 54.0965C509.829 52.0015 511.747 50.954 514.217 50.954H520.535C521.66 50.954 522.222 51.4833 522.222 52.5418C522.222 53.0269 522.046 53.5452 521.693 54.0965L503.996 81.4529V95.3461C503.996 96.2062 503.687 96.9339 503.069 97.5293C502.474 98.1027 501.746 98.3894 500.886 98.3894H494.667C493.807 98.3894 493.068 98.1027 492.451 97.5293C491.834 96.9339 491.525 96.2062 491.525 95.3461V81.4529L473.861 54.0965C473.486 53.5452 473.298 53.0269 473.298 52.5418Z" fill="#001F3F"/>
<path d="M-76.3088 151.79V110.739C-76.3088 109.835 -76.011 109.074 -75.4156 108.456C-74.8202 107.839 -74.0925 107.53 -73.2324 107.53H-59.7692C-58.9092 107.53 -58.0932 107.839 -57.3214 108.456C-56.5495 109.074 -56.0313 109.813 -55.7666 110.673L-46.0083 138.922L-36.25 110.673C-35.9853 109.813 -35.4671 109.074 -34.6953 108.456C-33.9234 107.839 -33.1075 107.53 -32.2474 107.53H-18.7842C-17.9242 107.53 -17.2074 107.839 -16.6341 108.456C-16.0386 109.074 -15.7409 109.835 -15.7409 110.739V151.79C-15.7409 152.694 -16.0497 153.455 -16.6672 154.072C-17.2626 154.668 -17.9903 154.966 -18.8504 154.966H-24.8046C-25.6647 154.966 -26.4034 154.668 -27.0209 154.072C-27.6163 153.455 -27.914 152.694 -27.914 151.79V119.472L-39.591 151.988C-39.8997 152.804 -40.44 153.51 -41.2118 154.106C-41.9837 154.679 -42.7996 154.966 -43.6597 154.966H-48.39C-49.2501 154.966 -50.066 154.679 -50.8379 154.106C-51.5876 153.51 -52.1279 152.804 -52.4587 151.988L-64.1026 119.472V151.79C-64.1026 152.694 -64.4113 153.455 -65.0288 154.072C-65.6242 154.668 -66.3519 154.966 -67.212 154.966H-73.1662C-74.0263 154.966 -74.7651 154.668 -75.3825 154.072C-76 153.455 -76.3088 152.694 -76.3088 151.79ZM37.5164 150.07C33.0176 154.017 26.4018 155.991 17.6689 155.991C8.95812 155.991 2.3423 154.017 -2.17851 150.07C-6.69932 146.1 -8.95972 139.826 -8.95972 131.248C-8.95972 122.669 -6.69932 116.406 -2.17851 112.459C2.3423 108.512 8.95812 106.538 17.6689 106.538C26.4018 106.538 33.0176 108.512 37.5164 112.459C42.0372 116.406 44.2976 122.669 44.2976 131.248C44.2976 139.826 42.0372 146.1 37.5164 150.07ZM28.4858 119.439C26.2585 116.792 22.6529 115.469 17.6689 115.469C12.7071 115.469 9.10146 116.792 6.85208 119.439C4.62476 122.085 3.5111 126.032 3.5111 131.281C3.5111 136.507 4.62476 140.444 6.85208 143.09C9.10146 145.714 12.7071 147.027 17.6689 147.027C22.6529 147.027 26.2585 145.714 28.4858 143.09C30.7131 140.444 31.8268 136.507 31.8268 131.281C31.8268 126.032 30.7131 122.085 28.4858 119.439ZM94.8755 150.07C90.3768 154.017 83.761 155.991 75.0281 155.991C66.3173 155.991 59.7014 154.017 55.1806 150.07C50.6598 146.1 48.3994 139.826 48.3994 131.248C48.3994 122.669 50.6598 116.406 55.1806 112.459C59.7014 108.512 66.3173 106.538 75.0281 106.538C83.761 106.538 90.3768 108.512 94.8755 112.459C99.3964 116.406 101.657 122.669 101.657 131.248C101.657 139.826 99.3964 146.1 94.8755 150.07ZM85.845 119.439C83.6176 116.792 80.012 115.469 75.0281 115.469C70.0662 115.469 66.4606 116.792 64.2112 119.439C61.9839 122.085 60.8702 126.032 60.8702 131.281C60.8702 136.507 61.9839 140.444 64.2112 143.09C66.4606 145.714 70.0662 147.027 75.0281 147.027C80.012 147.027 83.6176 145.714 85.845 143.09C88.0723 140.444 89.1859 136.507 89.1859 131.281C89.1859 126.032 88.0723 122.085 85.845 119.439ZM108.471 151.922V110.739C108.471 109.835 108.78 109.074 109.397 108.456C110.015 107.839 110.754 107.53 111.614 107.53H130.105C139.676 107.53 146.633 109.449 150.978 113.286C155.344 117.101 157.527 123.099 157.527 131.281C157.527 139.44 155.344 145.428 150.978 149.243C146.633 153.058 139.676 154.966 130.105 154.966H111.614C110.754 154.966 110.015 154.679 109.397 154.106C108.78 153.51 108.471 152.782 108.471 151.922ZM120.942 145.604H129.741C135.673 145.604 139.709 144.524 141.848 142.362C143.987 140.201 145.057 136.507 145.057 131.281C145.057 126.032 143.987 122.328 141.848 120.166C139.709 117.983 135.673 116.892 129.741 116.892H120.942V145.604ZM164.309 151.922V110.739C164.309 109.835 164.617 109.074 165.235 108.456C165.852 107.839 166.591 107.53 167.451 107.53H173.67C174.53 107.53 175.258 107.839 175.853 108.456C176.471 109.074 176.779 109.835 176.779 110.739V145.604H205.591C206.451 145.604 207.179 145.913 207.774 146.53C208.392 147.148 208.701 147.887 208.701 148.747V151.856C208.701 152.716 208.392 153.455 207.774 154.072C207.179 154.668 206.451 154.966 205.591 154.966H167.451C166.591 154.966 165.852 154.679 165.235 154.106C164.617 153.51 164.309 152.782 164.309 151.922ZM205.095 109.118C205.095 108.059 205.668 107.53 206.815 107.53H213.1C215.592 107.53 217.511 108.578 218.856 110.673L229.574 127.179L240.258 110.673C241.625 108.578 243.544 107.53 246.014 107.53H252.332C253.457 107.53 254.019 108.059 254.019 109.118C254.019 109.603 253.843 110.121 253.49 110.673L235.792 138.029V151.922C235.792 152.782 235.484 153.51 234.866 154.106C234.271 154.679 233.543 154.966 232.683 154.966H226.464C225.604 154.966 224.865 154.679 224.248 154.106C223.63 153.51 223.322 152.782 223.322 151.922V138.029L205.657 110.673C205.283 110.121 205.095 109.603 205.095 109.118Z" fill="#001F3F"/>
<path d="M272.722 151.79V110.739C272.722 109.835 273.02 109.074 273.616 108.456C274.211 107.839 274.939 107.53 275.799 107.53H289.262C290.122 107.53 290.938 107.839 291.71 108.456C292.482 109.074 293 109.813 293.265 110.673L303.023 138.922L312.781 110.673C313.046 109.813 313.564 109.074 314.336 108.456C315.108 107.839 315.924 107.53 316.784 107.53H330.247C331.107 107.53 331.824 107.839 332.397 108.456C332.993 109.074 333.29 109.835 333.29 110.739V151.79C333.29 152.694 332.982 153.455 332.364 154.072C331.769 154.668 331.041 154.966 330.181 154.966H324.227C323.367 154.966 322.628 154.668 322.01 154.072C321.415 153.455 321.117 152.694 321.117 151.79V119.472L309.44 151.988C309.132 152.804 308.591 153.51 307.819 154.106C307.048 154.679 306.232 154.966 305.372 154.966H300.641C299.781 154.966 298.965 154.679 298.193 154.106C297.444 153.51 296.903 152.804 296.573 151.988L284.929 119.472V151.79C284.929 152.694 284.62 153.455 284.002 154.072C283.407 154.668 282.679 154.966 281.819 154.966H275.865C275.005 154.966 274.266 154.668 273.649 154.072C273.031 153.455 272.722 152.694 272.722 151.79ZM386.548 150.07C382.049 154.017 375.433 155.991 366.7 155.991C357.989 155.991 351.374 154.017 346.853 150.07C342.332 146.1 340.072 139.826 340.072 131.248C340.072 122.669 342.332 116.406 346.853 112.459C351.374 108.512 357.989 106.538 366.7 106.538C375.433 106.538 382.049 108.512 386.548 112.459C391.068 116.406 393.329 122.669 393.329 131.248C393.329 139.826 391.068 146.1 386.548 150.07ZM377.517 119.439C375.29 116.792 371.684 115.469 366.7 115.469C361.738 115.469 358.133 116.792 355.883 119.439C353.656 122.085 352.542 126.032 352.542 131.281C352.542 136.507 353.656 140.444 355.883 143.09C358.133 145.714 361.738 147.027 366.7 147.027C371.684 147.027 375.29 145.714 377.517 143.09C379.744 140.444 380.858 136.507 380.858 131.281C380.858 126.032 379.744 122.085 377.517 119.439ZM443.907 150.07C439.408 154.017 432.792 155.991 424.059 155.991C415.349 155.991 408.733 154.017 404.212 150.07C399.691 146.1 397.431 139.826 397.431 131.248C397.431 122.669 399.691 116.406 404.212 112.459C408.733 108.512 415.349 106.538 424.059 106.538C432.792 106.538 439.408 108.512 443.907 112.459C448.428 116.406 450.688 122.669 450.688 131.248C450.688 139.826 448.428 146.1 443.907 150.07ZM434.876 119.439C432.649 116.792 429.043 115.469 424.059 115.469C419.097 115.469 415.492 116.792 413.242 119.439C411.015 122.085 409.901 126.032 409.901 131.281C409.901 136.507 411.015 140.444 413.242 143.09C415.492 145.714 419.097 147.027 424.059 147.027C429.043 147.027 432.649 145.714 434.876 143.09C437.104 140.444 438.217 136.507 438.217 131.281C438.217 126.032 437.104 122.085 434.876 119.439ZM457.502 151.922V110.739C457.502 109.835 457.811 109.074 458.429 108.456C459.046 107.839 459.785 107.53 460.645 107.53H479.136C488.707 107.53 495.665 109.449 500.009 113.286C504.375 117.101 506.559 123.099 506.559 131.281C506.559 139.44 504.375 145.428 500.009 149.243C495.665 153.058 488.707 154.966 479.136 154.966H460.645C459.785 154.966 459.046 154.679 458.429 154.106C457.811 153.51 457.502 152.782 457.502 151.922ZM469.973 145.604H478.772C484.704 145.604 488.74 144.524 490.879 142.362C493.018 140.201 494.088 136.507 494.088 131.281C494.088 126.032 493.018 122.328 490.879 120.166C488.74 117.983 484.704 116.892 478.772 116.892H469.973V145.604ZM513.34 151.922V110.739C513.34 109.835 513.649 109.074 514.266 108.456C514.883 107.839 515.622 107.53 516.482 107.53H522.701C523.561 107.53 524.289 107.839 524.884 108.456C525.502 109.074 525.811 109.835 525.811 110.739V145.604H554.623C555.483 145.604 556.21 145.913 556.806 146.53C557.423 147.148 557.732 147.887 557.732 148.747V151.856C557.732 152.716 557.423 153.455 556.806 154.072C556.21 154.668 555.483 154.966 554.623 154.966H516.482C515.622 154.966 514.883 154.679 514.266 154.106C513.649 153.51 513.34 152.782 513.34 151.922ZM554.126 109.118C554.126 108.059 554.7 107.53 555.846 107.53H562.131C564.623 107.53 566.542 108.578 567.887 110.673L578.605 127.179L589.289 110.673C590.657 108.578 592.575 107.53 595.045 107.53H601.363C602.488 107.53 603.05 108.059 603.05 109.118C603.05 109.603 602.874 110.121 602.521 110.673L584.824 138.029V151.922C584.824 152.782 584.515 153.51 583.898 154.106C583.302 154.679 582.574 154.966 581.714 154.966H575.495C574.635 154.966 573.897 154.679 573.279 154.106C572.662 153.51 572.353 152.782 572.353 151.922V138.029L554.689 110.673C554.314 110.121 554.126 109.603 554.126 109.118Z" fill="#001F3F"/>
<path d="M-228.215 205.599V164.547C-228.215 163.643 -227.917 162.882 -227.322 162.265C-226.726 161.647 -225.999 161.339 -225.139 161.339H-211.675C-210.815 161.339 -209.999 161.647 -209.228 162.265C-208.456 162.882 -207.938 163.621 -207.673 164.481L-197.915 192.731L-188.156 164.481C-187.892 163.621 -187.373 162.882 -186.602 162.265C-185.83 161.647 -185.014 161.339 -184.154 161.339H-170.69C-169.83 161.339 -169.114 161.647 -168.54 162.265C-167.945 162.882 -167.647 163.643 -167.647 164.547V205.599C-167.647 206.503 -167.956 207.264 -168.573 207.881C-169.169 208.476 -169.897 208.774 -170.757 208.774H-176.711C-177.571 208.774 -178.31 208.476 -178.927 207.881C-179.523 207.264 -179.82 206.503 -179.82 205.599V173.28L-191.497 205.797C-191.806 206.613 -192.346 207.319 -193.118 207.914C-193.89 208.487 -194.706 208.774 -195.566 208.774H-200.296C-201.156 208.774 -201.972 208.487 -202.744 207.914C-203.494 207.319 -204.034 206.613 -204.365 205.797L-216.009 173.28V205.599C-216.009 206.503 -216.318 207.264 -216.935 207.881C-217.53 208.476 -218.258 208.774 -219.118 208.774H-225.072C-225.933 208.774 -226.671 208.476 -227.289 207.881C-227.906 207.264 -228.215 206.503 -228.215 205.599ZM-114.39 203.878C-118.889 207.826 -125.504 209.8 -134.237 209.8C-142.948 209.8 -149.564 207.826 -154.085 203.878C-158.606 199.909 -160.866 193.635 -160.866 185.056C-160.866 176.478 -158.606 170.215 -154.085 166.268C-149.564 162.32 -142.948 160.346 -134.237 160.346C-125.504 160.346 -118.889 162.32 -114.39 166.268C-109.869 170.215 -107.609 176.478 -107.609 185.056C-107.609 193.635 -109.869 199.909 -114.39 203.878ZM-123.42 173.247C-125.648 170.601 -129.253 169.278 -134.237 169.278C-139.199 169.278 -142.805 170.601 -145.054 173.247C-147.281 175.894 -148.395 179.841 -148.395 185.09C-148.395 190.316 -147.281 194.252 -145.054 196.899C-142.805 199.523 -139.199 200.835 -134.237 200.835C-129.253 200.835 -125.648 199.523 -123.42 196.899C-121.193 194.252 -120.079 190.316 -120.079 185.09C-120.079 179.841 -121.193 175.894 -123.42 173.247ZM-57.0307 203.878C-61.5295 207.826 -68.1453 209.8 -76.8782 209.8C-85.589 209.8 -92.2048 207.826 -96.7256 203.878C-101.246 199.909 -103.507 193.635 -103.507 185.056C-103.507 176.478 -101.246 170.215 -96.7256 166.268C-92.2048 162.32 -85.589 160.346 -76.8782 160.346C-68.1453 160.346 -61.5295 162.32 -57.0307 166.268C-52.5099 170.215 -50.2495 176.478 -50.2495 185.056C-50.2495 193.635 -52.5099 199.909 -57.0307 203.878ZM-66.0613 173.247C-68.2886 170.601 -71.8942 169.278 -76.8782 169.278C-81.84 169.278 -85.4456 170.601 -87.695 173.247C-89.9223 175.894 -91.036 179.841 -91.036 185.09C-91.036 190.316 -89.9223 194.252 -87.695 196.899C-85.4456 199.523 -81.84 200.835 -76.8782 200.835C-71.8942 200.835 -68.2886 199.523 -66.0613 196.899C-63.834 194.252 -62.7203 190.316 -62.7203 185.09C-62.7203 179.841 -63.834 175.894 -66.0613 173.247ZM-43.4352 205.731V164.547C-43.4352 163.643 -43.1264 162.882 -42.509 162.265C-41.8915 161.647 -41.1527 161.339 -40.2927 161.339H-21.8015C-12.2306 161.339 -5.27294 163.257 -0.928554 167.095C3.43789 170.91 5.62111 176.908 5.62111 185.09C5.62111 193.249 3.43789 199.236 -0.928554 203.051C-5.27294 206.867 -12.2306 208.774 -21.8015 208.774H-40.2927C-41.1527 208.774 -41.8915 208.487 -42.509 207.914C-43.1264 207.319 -43.4352 206.591 -43.4352 205.731ZM-30.9644 199.413H-22.1653C-16.2331 199.413 -12.1975 198.332 -10.0584 196.171C-7.91927 194.01 -6.84971 190.316 -6.84971 185.09C-6.84971 179.841 -7.91927 176.136 -10.0584 173.975C-12.1975 171.792 -16.2331 170.7 -22.1653 170.7H-30.9644V199.413ZM12.4023 205.731V164.547C12.4023 163.643 12.711 162.882 13.3285 162.265C13.946 161.647 14.6848 161.339 15.5448 161.339H21.7637C22.6237 161.339 23.3515 161.647 23.9469 162.265C24.5644 162.882 24.8731 163.643 24.8731 164.547V199.413H53.685C54.5451 199.413 55.2728 199.722 55.8682 200.339C56.4857 200.956 56.7944 201.695 56.7944 202.555V205.665C56.7944 206.525 56.4857 207.264 55.8682 207.881C55.2728 208.476 54.5451 208.774 53.685 208.774H15.5448C14.6848 208.774 13.946 208.487 13.3285 207.914C12.711 207.319 12.4023 206.591 12.4023 205.731ZM53.1888 162.927C53.1888 161.868 53.7622 161.339 54.9089 161.339H61.194C63.6859 161.339 65.6045 162.386 66.9497 164.481L77.6674 180.988L88.3519 164.481C89.7192 162.386 91.6378 161.339 94.1077 161.339H100.426C101.55 161.339 102.113 161.868 102.113 162.927C102.113 163.412 101.936 163.93 101.584 164.481L83.8862 191.838V205.731C83.8862 206.591 83.5775 207.319 82.96 207.914C82.3646 208.487 81.6369 208.774 80.7768 208.774H74.5579C73.6979 208.774 72.9591 208.487 72.3416 207.914C71.7242 207.319 71.4154 206.591 71.4154 205.731V191.838L53.7512 164.481C53.3763 163.93 53.1888 163.412 53.1888 162.927Z" fill="#001F3F"/>
<path d="M120.816 205.599V164.547C120.816 163.643 121.114 162.882 121.709 162.265C122.305 161.647 123.033 161.339 123.893 161.339H137.356C138.216 161.339 139.032 161.647 139.804 162.265C140.575 162.882 141.094 163.621 141.358 164.481L151.117 192.731L160.875 164.481C161.14 163.621 161.658 162.882 162.43 162.265C163.202 161.647 164.018 161.339 164.878 161.339H178.341C179.201 161.339 179.918 161.647 180.491 162.265C181.086 162.882 181.384 163.643 181.384 164.547V205.599C181.384 206.503 181.075 207.264 180.458 207.881C179.862 208.476 179.135 208.774 178.275 208.774H172.32C171.46 208.774 170.722 208.476 170.104 207.881C169.509 207.264 169.211 206.503 169.211 205.599V173.28L157.534 205.797C157.225 206.613 156.685 207.319 155.913 207.914C155.141 208.487 154.325 208.774 153.465 208.774H148.735C147.875 208.774 147.059 208.487 146.287 207.914C145.537 207.319 144.997 206.613 144.666 205.797L133.022 173.28V205.599C133.022 206.503 132.714 207.264 132.096 207.881C131.501 208.476 130.773 208.774 129.913 208.774H123.959C123.099 208.774 122.36 208.476 121.742 207.881C121.125 207.264 120.816 206.503 120.816 205.599ZM234.641 203.878C230.143 207.826 223.527 209.8 214.794 209.8C206.083 209.8 199.467 207.826 194.946 203.878C190.426 199.909 188.165 193.635 188.165 185.056C188.165 176.478 190.426 170.215 194.946 166.268C199.467 162.32 206.083 160.346 214.794 160.346C223.527 160.346 230.143 162.32 234.641 166.268C239.162 170.215 241.423 176.478 241.423 185.056C241.423 193.635 239.162 199.909 234.641 203.878ZM225.611 173.247C223.383 170.601 219.778 169.278 214.794 169.278C209.832 169.278 206.226 170.601 203.977 173.247C201.75 175.894 200.636 179.841 200.636 185.09C200.636 190.316 201.75 194.252 203.977 196.899C206.226 199.523 209.832 200.835 214.794 200.835C219.778 200.835 223.383 199.523 225.611 196.899C227.838 194.252 228.952 190.316 228.952 185.09C228.952 179.841 227.838 175.894 225.611 173.247ZM292.001 203.878C287.502 207.826 280.886 209.8 272.153 209.8C263.442 209.8 256.826 207.826 252.306 203.878C247.785 199.909 245.524 193.635 245.524 185.056C245.524 176.478 247.785 170.215 252.306 166.268C256.826 162.32 263.442 160.346 272.153 160.346C280.886 160.346 287.502 162.32 292.001 166.268C296.521 170.215 298.782 176.478 298.782 185.056C298.782 193.635 296.521 199.909 292.001 203.878ZM282.97 173.247C280.743 170.601 277.137 169.278 272.153 169.278C267.191 169.278 263.586 170.601 261.336 173.247C259.109 175.894 257.995 179.841 257.995 185.09C257.995 190.316 259.109 194.252 261.336 196.899C263.586 199.523 267.191 200.835 272.153 200.835C277.137 200.835 280.743 199.523 282.97 196.899C285.197 194.252 286.311 190.316 286.311 185.09C286.311 179.841 285.197 175.894 282.97 173.247ZM305.596 205.731V164.547C305.596 163.643 305.905 162.882 306.522 162.265C307.14 161.647 307.879 161.339 308.739 161.339H327.23C336.801 161.339 343.758 163.257 348.103 167.095C352.469 170.91 354.652 176.908 354.652 185.09C354.652 193.249 352.469 199.236 348.103 203.051C343.758 206.867 336.801 208.774 327.23 208.774H308.739C307.879 208.774 307.14 208.487 306.522 207.914C305.905 207.319 305.596 206.591 305.596 205.731ZM318.067 199.413H326.866C332.798 199.413 336.834 198.332 338.973 196.171C341.112 194.01 342.182 190.316 342.182 185.09C342.182 179.841 341.112 176.136 338.973 173.975C336.834 171.792 332.798 170.7 326.866 170.7H318.067V199.413ZM361.434 205.731V164.547C361.434 163.643 361.742 162.882 362.36 162.265C362.977 161.647 363.716 161.339 364.576 161.339H370.795C371.655 161.339 372.383 161.647 372.978 162.265C373.596 162.882 373.904 163.643 373.904 164.547V199.413H402.716C403.576 199.413 404.304 199.722 404.899 200.339C405.517 200.956 405.826 201.695 405.826 202.555V205.665C405.826 206.525 405.517 207.264 404.899 207.881C404.304 208.476 403.576 208.774 402.716 208.774H364.576C363.716 208.774 362.977 208.487 362.36 207.914C361.742 207.319 361.434 206.591 361.434 205.731ZM402.22 162.927C402.22 161.868 402.793 161.339 403.94 161.339H410.225C412.717 161.339 414.636 162.386 415.981 164.481L426.699 180.988L437.383 164.481C438.75 162.386 440.669 161.339 443.139 161.339H449.457C450.582 161.339 451.144 161.868 451.144 162.927C451.144 163.412 450.968 163.93 450.615 164.481L432.917 191.838V205.731C432.917 206.591 432.609 207.319 431.991 207.914C431.396 208.487 430.668 208.774 429.808 208.774H423.589C422.729 208.774 421.99 208.487 421.373 207.914C420.755 207.319 420.447 206.591 420.447 205.731V191.838L402.782 164.481C402.408 163.93 402.22 163.412 402.22 162.927Z" fill="#001F3F"/>
<path d="M10.7616 263.017V221.965C10.7616 221.061 11.0593 220.3 11.6547 219.683C12.2501 219.065 12.9779 218.757 13.8379 218.757H27.3011C28.1612 218.757 28.9771 219.065 29.749 219.683C30.5208 220.3 31.039 221.039 31.3037 221.899L41.062 250.149L50.8203 221.899C51.085 221.039 51.6032 220.3 52.3751 219.683C53.1469 219.065 53.9629 218.757 54.8229 218.757H68.2861C69.1462 218.757 69.8629 219.065 70.4362 219.683C71.0317 220.3 71.3294 221.061 71.3294 221.965V263.017C71.3294 263.921 71.0206 264.682 70.4032 265.299C69.8077 265.894 69.08 266.192 68.2199 266.192H62.2657C61.4056 266.192 60.6669 265.894 60.0494 265.299C59.454 264.682 59.1563 263.921 59.1563 263.017V230.698L47.4794 263.215C47.1706 264.031 46.6303 264.737 45.8585 265.332C45.0866 265.905 44.2707 266.192 43.4106 266.192H38.6803C37.8203 266.192 37.0043 265.905 36.2325 265.332C35.4827 264.737 34.9424 264.031 34.6116 263.215L22.9677 230.698V263.017C22.9677 263.921 22.659 264.682 22.0415 265.299C21.4461 265.894 20.7184 266.192 19.8583 266.192H13.9041C13.044 266.192 12.3053 265.894 11.6878 265.299C11.0703 264.682 10.7616 263.921 10.7616 263.017ZM124.587 261.296C120.088 265.244 113.472 267.218 104.739 267.218C96.0284 267.218 89.4126 265.244 84.8918 261.296C80.371 257.327 78.1106 251.053 78.1106 242.474C78.1106 233.896 80.371 227.633 84.8918 223.686C89.4126 219.738 96.0284 217.764 104.739 217.764C113.472 217.764 120.088 219.738 124.587 223.686C129.108 227.633 131.368 233.896 131.368 242.474C131.368 251.053 129.108 257.327 124.587 261.296ZM115.556 230.665C113.329 228.019 109.723 226.696 104.739 226.696C99.7774 226.696 96.1718 228.019 93.9224 230.665C91.6951 233.312 90.5814 237.259 90.5814 242.508C90.5814 247.734 91.6951 251.67 93.9224 254.317C96.1718 256.941 99.7774 258.253 104.739 258.253C109.723 258.253 113.329 256.941 115.556 254.317C117.783 251.67 118.897 247.734 118.897 242.508C118.897 237.259 117.783 233.312 115.556 230.665ZM181.946 261.296C177.447 265.244 170.831 267.218 162.098 267.218C153.388 267.218 146.772 265.244 142.251 261.296C137.73 257.327 135.47 251.053 135.47 242.474C135.47 233.896 137.73 227.633 142.251 223.686C146.772 219.738 153.388 217.764 162.098 217.764C170.831 217.764 177.447 219.738 181.946 223.686C186.467 227.633 188.727 233.896 188.727 242.474C188.727 251.053 186.467 257.327 181.946 261.296ZM172.915 230.665C170.688 228.019 167.082 226.696 162.098 226.696C157.137 226.696 153.531 228.019 151.282 230.665C149.054 233.312 147.941 237.259 147.941 242.508C147.941 247.734 149.054 251.67 151.282 254.317C153.531 256.941 157.137 258.253 162.098 258.253C167.082 258.253 170.688 256.941 172.915 254.317C175.143 251.67 176.256 247.734 176.256 242.508C176.256 237.259 175.143 233.312 172.915 230.665ZM195.541 263.149V221.965C195.541 221.061 195.85 220.3 196.468 219.683C197.085 219.065 197.824 218.757 198.684 218.757H217.175C226.746 218.757 233.704 220.675 238.048 224.512C242.414 228.328 244.598 234.326 244.598 242.508C244.598 250.667 242.414 256.654 238.048 260.469C233.704 264.285 226.746 266.192 217.175 266.192H198.684C197.824 266.192 197.085 265.905 196.468 265.332C195.85 264.737 195.541 264.009 195.541 263.149ZM208.012 256.831H216.811C222.743 256.831 226.779 255.75 228.918 253.589C231.057 251.428 232.127 247.734 232.127 242.508C232.127 237.259 231.057 233.554 228.918 231.393C226.779 229.21 222.743 228.118 216.811 228.118H208.012V256.831ZM251.379 263.149V221.965C251.379 221.061 251.688 220.3 252.305 219.683C252.923 219.065 253.661 218.757 254.521 218.757H260.74C261.6 218.757 262.328 219.065 262.923 219.683C263.541 220.3 263.85 221.061 263.85 221.965V256.831H292.662C293.522 256.831 294.249 257.139 294.845 257.757C295.462 258.374 295.771 259.113 295.771 259.973V263.083C295.771 263.943 295.462 264.682 294.845 265.299C294.249 265.894 293.522 266.192 292.662 266.192H254.521C253.661 266.192 252.923 265.905 252.305 265.332C251.688 264.737 251.379 264.009 251.379 263.149ZM292.165 220.345C292.165 219.286 292.739 218.757 293.886 218.757H300.171C302.662 218.757 304.581 219.804 305.926 221.899L316.644 238.406L327.328 221.899C328.696 219.804 330.614 218.757 333.084 218.757H339.402C340.527 218.757 341.089 219.286 341.089 220.345C341.089 220.83 340.913 221.348 340.56 221.899L322.863 249.256V263.149C322.863 264.009 322.554 264.737 321.937 265.332C321.341 265.905 320.613 266.192 319.753 266.192H313.534C312.674 266.192 311.936 265.905 311.318 265.332C310.701 264.737 310.392 264.009 310.392 263.149V249.256L292.728 221.899C292.353 221.348 292.165 220.83 292.165 220.345Z" fill="#001F3F"/>
</g>
<defs>
<clipPath id="clip0_1285_397">
<rect width="304" height="254" fill="white"/>
</clipPath>
</defs>
</svg>
