<svg width="304" height="254" viewBox="0 0 304 254" fill="none" xmlns="http://www.w3.org/2000/svg">
<g opacity="0.12" clip-path="url(#clip0_1285_415)">
<path d="M-67.615 32.0521C-67.615 30.751 -67.2291 29.8248 -66.4572 29.2735C-65.6854 28.7001 -64.9356 28.4134 -64.2078 28.4134H-60.2714C-58.2867 28.4134 -56.7761 29.494 -55.7396 31.6552C-54.7031 33.8163 -52.3766 34.8969 -48.7599 34.8969L-37.1822 35.1285C-33.3009 35.1285 -31.3603 33.8604 -31.3603 31.3244C-31.3603 29.4058 -33.731 27.8952 -38.4723 26.7925C-40.5894 26.2853 -42.927 25.7891 -45.4851 25.304C-48.0432 24.7968 -50.5903 24.1683 -53.1263 23.4185C-55.6404 22.6687 -57.9559 21.7866 -60.073 20.7721C-62.19 19.7577 -63.9101 18.3684 -65.2333 16.6042C-66.5344 14.8179 -67.185 12.7229 -67.185 10.3191C-67.185 5.88655 -65.6082 2.4794 -62.4546 0.0977098C-59.3011 -2.30604 -53.8761 -3.50791 -46.1797 -3.50791L-37.7776 -3.30944C-33.2568 -3.30944 -29.1881 -2.14064 -25.5715 0.196947C-21.9328 2.51248 -20.1134 5.41242 -20.1134 8.89675C-20.1134 10.1979 -20.4993 11.1351 -21.2712 11.7085C-22.043 12.2818 -22.7818 12.5685 -23.4875 12.5685H-27.4239C-29.4086 12.5685 -30.9192 11.4879 -31.9557 9.32678C-32.9922 7.14356 -35.3188 6.05195 -38.9354 6.05195L-48.8922 5.85347C-52.7735 5.85347 -54.7141 7.1215 -54.7141 9.65757C-54.7141 11.0469 -53.4902 12.1826 -51.0424 13.0647C-48.5725 13.9468 -45.5953 14.7297 -42.111 15.4133C-38.6046 16.0749 -35.0872 16.8798 -31.5588 17.8281C-28.0303 18.7764 -25.0422 20.3421 -22.5943 22.5253C-20.1244 24.6865 -18.8895 27.388 -18.8895 30.6297C-18.8895 35.0623 -20.4773 38.4805 -23.6529 40.8842C-26.8064 43.2659 -32.2204 44.4568 -39.8947 44.4568L-49.9177 44.2583C-54.4385 44.2583 -58.5182 43.1005 -62.1569 40.785C-65.7956 38.4474 -67.615 35.5364 -67.615 32.0521ZM-12.1083 41.0165V-0.0346066C-12.1083 -0.938768 -11.8106 -1.69959 -11.2151 -2.31706C-10.6197 -2.93454 -9.89197 -3.24328 -9.03192 -3.24328H4.43127C5.29133 -3.24328 6.10728 -2.93454 6.87913 -2.31706C7.65097 -1.69959 8.16921 -0.960821 8.43384 -0.100765L18.1922 28.1488L27.9505 -0.100765C28.2151 -0.960821 28.7334 -1.69959 29.5052 -2.31706C30.2771 -2.93454 31.093 -3.24328 31.9531 -3.24328H45.4163C46.2763 -3.24328 46.993 -2.93454 47.5664 -2.31706C48.1618 -1.69959 48.4595 -0.938768 48.4595 -0.0346066V41.0165C48.4595 41.9207 48.1508 42.6815 47.5333 43.299C46.9379 43.8944 46.2102 44.1921 45.3501 44.1921H39.3959C38.5358 44.1921 37.7971 43.8944 37.1796 43.299C36.5842 42.6815 36.2864 41.9207 36.2864 41.0165V8.69827L24.6095 41.215C24.3008 42.031 23.7605 42.7367 22.9886 43.3321C22.2168 43.9055 21.4008 44.1921 20.5408 44.1921H15.8105C14.9504 44.1921 14.1345 43.9055 13.3626 43.3321C12.6128 42.7367 12.0725 42.031 11.7418 41.215L0.0979137 8.69827V41.0165C0.0979137 41.9207 -0.210824 42.6815 -0.828301 43.299C-1.42372 43.8944 -2.15146 44.1921 -3.01152 44.1921H-8.96576C-9.82581 44.1921 -10.5646 43.8944 -11.1821 43.299C-11.7995 42.6815 -12.1083 41.9207 -12.1083 41.0165ZM54.0499 41.1489L62.3528 9.65757C64.6021 1.07906 71.9236 -3.22123 84.3173 -3.24328H102.147C102.963 -3.24328 103.635 -2.93454 104.165 -2.31706C104.716 -1.69959 104.992 -0.982874 104.992 -0.166923V41.1489C104.992 42.0089 104.683 42.7367 104.065 43.3321C103.448 43.9055 102.709 44.1921 101.849 44.1921H95.6303C94.7262 44.1921 93.9764 43.9055 93.3809 43.3321C92.8076 42.7367 92.5209 41.9869 92.5209 41.0827V32.7468H69.0017L66.7854 41.0827C66.5648 41.9869 66.0686 42.7367 65.2968 43.3321C64.525 43.9055 63.709 44.1921 62.8489 44.1921H56.3324C55.4723 44.1921 54.8548 43.9496 54.4799 43.4644C54.105 42.9572 53.9176 42.5161 53.9176 42.1412C53.9396 41.7663 53.9838 41.4355 54.0499 41.1489ZM71.4495 23.3854H92.5209V6.1181H83.0934C80.9763 6.1181 79.1239 6.72455 77.5361 7.93745C75.9703 9.1283 74.9118 10.7382 74.3605 12.767L71.4495 23.3854ZM163.707 42.7697C163.707 43.718 163.145 44.1921 162.02 44.1921H154.081C153.243 44.1921 152.317 43.8944 151.302 43.299C150.31 42.6815 149.549 41.9428 149.02 41.0827L143.397 32.2837C141.081 28.667 138.28 26.8587 134.994 26.8587H126.923V41.0827C126.923 41.9428 126.614 42.6815 125.997 43.299C125.402 43.8944 124.674 44.1921 123.814 44.1921H117.595C116.735 44.1921 115.996 43.8944 115.379 43.299C114.761 42.6815 114.452 41.9428 114.452 41.0827V-0.100765C114.452 -0.960821 114.75 -1.69959 115.345 -2.31706C115.941 -2.93454 116.669 -3.24328 117.529 -3.24328H144.819C149.869 -3.24328 154.004 -1.88704 157.224 0.82545C160.465 3.53794 162.086 7.19869 162.086 11.8077C162.086 18.2251 157.929 22.2497 149.615 23.8816C150.939 24.3667 152.162 25.2047 153.287 26.3956C154.412 27.5644 155.702 29.2735 157.157 31.5228L163.178 41.0827C163.531 41.7002 163.707 42.2625 163.707 42.7697ZM126.923 17.4973H141.015C143.286 17.4973 145.282 17.0452 147.002 16.1411C148.744 15.2369 149.615 13.7925 149.615 11.8077C149.615 9.82296 148.744 8.37851 147.002 7.47435C145.282 6.57019 143.286 6.1181 141.015 6.1181H126.923V17.4973ZM164.832 3.00867V-0.100765C164.832 -1.00493 165.13 -1.75472 165.725 -2.35014C166.32 -2.94557 167.07 -3.24328 167.974 -3.24328H209.952C210.856 -3.24328 211.606 -2.94557 212.201 -2.35014C212.796 -1.75472 213.094 -1.00493 213.094 -0.100765V3.00867C213.094 3.91283 212.796 4.66262 212.201 5.25805C211.606 5.83142 210.856 6.1181 209.952 6.1181H195.198V41.1489C195.198 42.0089 194.89 42.7367 194.272 43.3321C193.677 43.9055 192.949 44.1921 192.089 44.1921H185.837C184.977 44.1921 184.238 43.9055 183.621 43.3321C183.025 42.7367 182.728 42.0089 182.728 41.1489V6.1181H167.974C167.07 6.1181 166.32 5.83142 165.725 5.25805C165.13 4.66262 164.832 3.91283 164.832 3.00867ZM214.616 -0.464635C214.506 -0.729268 214.45 -1.02698 214.45 -1.35777C214.45 -1.71061 214.638 -2.10756 215.013 -2.54862C215.41 -3.01172 215.994 -3.24328 216.766 -3.24328H224.01C224.87 -3.24328 225.664 -2.94557 226.392 -2.35014C227.12 -1.75472 227.638 -1.00493 227.947 -0.100765L236.68 26.0979L244.751 -0.100765C245.39 -2.19577 246.703 -3.24328 248.687 -3.24328H254.774C256.759 -3.24328 258.071 -2.19577 258.71 -0.100765L266.782 26.0979L275.514 -0.100765C275.823 -1.00493 276.341 -1.75472 277.069 -2.35014C277.797 -2.94557 278.591 -3.24328 279.451 -3.24328H286.695C287.445 -3.24328 288.007 -3.01172 288.382 -2.54862C288.779 -2.10756 288.978 -1.71061 288.978 -1.35777C288.978 -1.02698 288.934 -0.729268 288.845 -0.464635L274.092 40.8181C273.276 43.0674 271.688 44.1921 269.329 44.1921H264.532C262.084 44.1921 260.508 43.0674 259.802 40.8181L251.731 15.3472L243.659 40.8181C242.932 43.0674 241.355 44.1921 238.929 44.1921H234.099C231.762 44.1921 230.185 43.0674 229.369 40.8181L214.616 -0.464635ZM294.403 41.1489V-0.100765C294.403 -0.960821 294.711 -1.69959 295.329 -2.31706C295.946 -2.93454 296.685 -3.24328 297.545 -3.24328H303.698C304.602 -3.24328 305.352 -2.93454 305.947 -2.31706C306.565 -1.69959 306.873 -0.960821 306.873 -0.100765V41.0827C306.873 41.9428 306.554 42.6815 305.914 43.299C305.297 43.8944 304.558 44.1921 303.698 44.1921H297.545C296.685 44.1921 295.946 43.9055 295.329 43.3321C294.711 42.7367 294.403 42.0089 294.403 41.1489ZM316.367 41.0827V-0.100765C316.367 -0.960821 316.665 -1.69959 317.26 -2.31706C317.856 -2.93454 318.583 -3.24328 319.443 -3.24328H329.169C329.941 -3.24328 330.757 -2.93454 331.617 -2.31706C332.477 -1.69959 333.182 -0.960821 333.734 -0.100765L353.713 30.6297V-0.166923C353.713 -1.02698 354.011 -1.75472 354.607 -2.35014C355.224 -2.94557 355.963 -3.24328 356.823 -3.24328H362.512C363.373 -3.24328 364.1 -2.94557 364.696 -2.35014C365.313 -1.75472 365.622 -1.00493 365.622 -0.100765V41.0827C365.622 41.9428 365.313 42.6815 364.696 43.299C364.1 43.8944 363.373 44.1921 362.512 44.1921H351.53C350.67 44.1921 349.788 43.8944 348.884 43.299C347.98 42.6815 347.263 41.9428 346.734 41.0827L328.441 12.7008V41.0827C328.441 41.9428 328.132 42.6815 327.515 43.299C326.919 43.8944 326.192 44.1921 325.332 44.1921H319.51C318.65 44.1921 317.911 43.8944 317.293 43.299C316.676 42.6815 316.367 41.9428 316.367 41.0827Z" fill="url(#paint0_linear_1285_415)"/>
<path d="M-159.849 86.2494C-159.849 84.9483 -159.463 84.0221 -158.692 83.4707C-157.92 82.8974 -157.17 82.6107 -156.442 82.6107H-152.506C-150.521 82.6107 -149.01 83.6913 -147.974 85.8524C-146.937 88.0136 -144.611 89.0942 -140.994 89.0942L-129.417 89.3257C-125.535 89.3257 -123.595 88.0577 -123.595 85.5216C-123.595 83.6031 -125.965 82.0924 -130.707 80.9898C-132.824 80.4826 -135.161 79.9864 -137.719 79.5012C-140.278 78.994 -142.825 78.3655 -145.361 77.6157C-147.875 76.8659 -150.19 75.9838 -152.307 74.9694C-154.424 73.955 -156.145 72.5657 -157.468 70.8014C-158.769 69.0152 -159.419 66.9202 -159.419 64.5164C-159.419 60.0838 -157.843 56.6767 -154.689 54.295C-151.535 51.8912 -146.111 50.6894 -138.414 50.6894L-130.012 50.8878C-125.491 50.8878 -121.422 52.0566 -117.806 54.3942C-114.167 56.7097 -112.348 59.6097 -112.348 63.094C-112.348 64.3951 -112.734 65.3324 -113.506 65.9057C-114.277 66.4791 -115.016 66.7658 -115.722 66.7658H-119.658C-121.643 66.7658 -123.154 65.6852 -124.19 63.524C-125.227 61.3408 -127.553 60.2492 -131.17 60.2492L-141.127 60.0507C-145.008 60.0507 -146.949 61.3188 -146.949 63.8548C-146.949 65.2442 -145.725 66.3799 -143.277 67.262C-140.807 68.1441 -137.83 68.927 -134.345 69.6106C-130.839 70.2722 -127.322 71.0771 -123.793 72.0254C-120.265 72.9736 -117.277 74.5394 -114.829 76.7226C-112.359 78.8838 -111.124 81.5852 -111.124 84.827C-111.124 89.2596 -112.712 92.6777 -115.887 95.0815C-119.041 97.4632 -124.455 98.654 -132.129 98.654L-142.152 98.4556C-146.673 98.4556 -150.753 97.2978 -154.391 94.9823C-158.03 92.6447 -159.849 89.7337 -159.849 86.2494ZM-104.343 95.2138V54.1627C-104.343 53.2585 -104.045 52.4977 -103.45 51.8802C-102.854 51.2627 -102.126 50.954 -101.266 50.954H-87.8031C-86.943 50.954 -86.1271 51.2627 -85.3552 51.8802C-84.5834 52.4977 -84.0652 53.2364 -83.8005 54.0965L-74.0422 82.346L-64.2839 54.0965C-64.0192 53.2364 -63.501 52.4977 -62.7291 51.8802C-61.9573 51.2627 -61.1414 50.954 -60.2813 50.954H-46.8181C-45.958 50.954 -45.2413 51.2627 -44.668 51.8802C-44.0725 52.4977 -43.7748 53.2585 -43.7748 54.1627V95.2138C-43.7748 96.118 -44.0836 96.8788 -44.701 97.4963C-45.2965 98.0917 -46.0242 98.3894 -46.8843 98.3894H-52.8385C-53.6986 98.3894 -54.4373 98.0917 -55.0548 97.4963C-55.6502 96.8788 -55.9479 96.118 -55.9479 95.2138V62.8955L-67.6249 95.4123C-67.9336 96.2282 -68.4739 96.9339 -69.2457 97.5293C-70.0176 98.1027 -70.8335 98.3894 -71.6936 98.3894H-76.4239C-77.2839 98.3894 -78.0999 98.1027 -78.8717 97.5293C-79.6215 96.9339 -80.1618 96.2282 -80.4926 95.4123L-92.1365 62.8955V95.2138C-92.1365 96.118 -92.4452 96.8788 -93.0627 97.4963C-93.6581 98.0917 -94.3858 98.3894 -95.2459 98.3894H-101.2C-102.06 98.3894 -102.799 98.0917 -103.416 97.4963C-104.034 96.8788 -104.343 96.118 -104.343 95.2138ZM-38.1845 95.3461L-29.8816 63.8548C-27.6322 55.2763 -20.3107 50.976 -7.9171 50.954H9.91253C10.7285 50.954 11.4011 51.2627 11.9304 51.8802C12.4817 52.4977 12.7573 53.2144 12.7573 54.0303V95.3461C12.7573 96.2062 12.4486 96.9339 11.8311 97.5293C11.2136 98.1027 10.4749 98.3894 9.61482 98.3894H3.39595C2.49179 98.3894 1.742 98.1027 1.14657 97.5293C0.573202 96.9339 0.286517 96.1841 0.286517 95.28V86.944H-23.2327L-25.449 95.28C-25.6695 96.1841 -26.1657 96.9339 -26.9376 97.5293C-27.7094 98.1027 -28.5254 98.3894 -29.3854 98.3894H-35.902C-36.7621 98.3894 -37.3795 98.1468 -37.7544 97.6617C-38.1293 97.1545 -38.3168 96.7134 -38.3168 96.3385C-38.2947 95.9636 -38.2506 95.6328 -38.1845 95.3461ZM-20.7849 77.5827H0.286517V60.3154H-9.14102C-11.2581 60.3154 -13.1105 60.9218 -14.6983 62.1347C-16.2641 63.3256 -17.3226 64.9354 -17.8739 66.9643L-20.7849 77.5827ZM71.4727 96.967C71.4727 97.9153 70.9104 98.3894 69.7857 98.3894H61.8467C61.0087 98.3894 60.0825 98.0917 59.0681 97.4963C58.0757 96.8788 57.3149 96.14 56.7856 95.28L51.1622 86.4809C48.8466 82.8643 46.0459 81.056 42.7601 81.056H34.6888V95.28C34.6888 96.14 34.38 96.8788 33.7626 97.4963C33.1671 98.0917 32.4394 98.3894 31.5793 98.3894H25.3605C24.5004 98.3894 23.7616 98.0917 23.1442 97.4963C22.5267 96.8788 22.218 96.14 22.218 95.28V54.0965C22.218 53.2364 22.5157 52.4977 23.1111 51.8802C23.7065 51.2627 24.4342 50.954 25.2943 50.954H52.5846C57.6346 50.954 61.7695 52.3102 64.9892 55.0227C68.231 57.7352 69.8518 61.396 69.8518 66.005C69.8518 72.4223 65.6949 76.4469 57.381 78.0788C58.7042 78.564 59.9281 79.402 61.0528 80.5929C62.1775 81.7616 63.4676 83.4707 64.9231 85.7201L70.9435 95.28C71.2963 95.8974 71.4727 96.4598 71.4727 96.967ZM34.6888 71.6946H48.7805C51.0519 71.6946 53.0477 71.2425 54.7678 70.3383C56.5099 69.4342 57.381 67.9897 57.381 66.005C57.381 64.0202 56.5099 62.5758 54.7678 61.6716C53.0477 60.7675 51.0519 60.3154 48.7805 60.3154H34.6888V71.6946ZM72.5974 57.2059V54.0965C72.5974 53.1923 72.8951 52.4425 73.4906 51.8471C74.086 51.2517 74.8358 50.954 75.7399 50.954H117.717C118.621 50.954 119.371 51.2517 119.967 51.8471C120.562 52.4425 120.86 53.1923 120.86 54.0965V57.2059C120.86 58.1101 120.562 58.8599 119.967 59.4553C119.371 60.0287 118.621 60.3154 117.717 60.3154H102.964V95.3461C102.964 96.2062 102.655 96.9339 102.038 97.5293C101.442 98.1027 100.715 98.3894 99.8546 98.3894H93.6026C92.7426 98.3894 92.0038 98.1027 91.3863 97.5293C90.7909 96.9339 90.4932 96.2062 90.4932 95.3461V60.3154H75.7399C74.8358 60.3154 74.086 60.0287 73.4906 59.4553C72.8951 58.8599 72.5974 58.1101 72.5974 57.2059ZM122.381 53.7326C122.271 53.468 122.216 53.1703 122.216 52.8395C122.216 52.4867 122.404 52.0897 122.778 51.6486C123.175 51.1855 123.76 50.954 124.532 50.954H131.776C132.636 50.954 133.43 51.2517 134.158 51.8471C134.885 52.4425 135.404 53.1923 135.712 54.0965L144.445 80.2951L152.517 54.0965C153.156 52.0015 154.468 50.954 156.453 50.954H162.539C164.524 50.954 165.836 52.0015 166.476 54.0965L174.547 80.2951L183.28 54.0965C183.589 53.1923 184.107 52.4425 184.835 51.8471C185.563 51.2517 186.356 50.954 187.216 50.954H194.461C195.211 50.954 195.773 51.1855 196.148 51.6486C196.545 52.0897 196.743 52.4867 196.743 52.8395C196.743 53.1703 196.699 53.468 196.611 53.7326L181.858 95.0153C181.042 97.2647 179.454 98.3894 177.094 98.3894H172.298C169.85 98.3894 168.273 97.2647 167.567 95.0153L159.496 69.5444L151.425 95.0153C150.697 97.2647 149.12 98.3894 146.695 98.3894H141.865C139.527 98.3894 137.951 97.2647 137.135 95.0153L122.381 53.7326ZM202.168 95.3461V54.0965C202.168 53.2364 202.477 52.4977 203.094 51.8802C203.712 51.2627 204.451 50.954 205.311 50.954H211.463C212.368 50.954 213.117 51.2627 213.713 51.8802C214.33 52.4977 214.639 53.2364 214.639 54.0965V95.28C214.639 96.14 214.319 96.8788 213.68 97.4963C213.062 98.0917 212.323 98.3894 211.463 98.3894H205.311C204.451 98.3894 203.712 98.1027 203.094 97.5293C202.477 96.9339 202.168 96.2062 202.168 95.3461ZM224.133 95.28V54.0965C224.133 53.2364 224.43 52.4977 225.026 51.8802C225.621 51.2627 226.349 50.954 227.209 50.954H236.934C237.706 50.954 238.522 51.2627 239.382 51.8802C240.242 52.4977 240.948 53.2364 241.499 54.0965L261.479 84.827V54.0303C261.479 53.1703 261.777 52.4425 262.372 51.8471C262.99 51.2517 263.728 50.954 264.588 50.954H270.278C271.138 50.954 271.866 51.2517 272.461 51.8471C273.079 52.4425 273.388 53.1923 273.388 54.0965V95.28C273.388 96.14 273.079 96.8788 272.461 97.4963C271.866 98.0917 271.138 98.3894 270.278 98.3894H259.296C258.436 98.3894 257.554 98.0917 256.649 97.4963C255.745 96.8788 255.029 96.14 254.499 95.28L236.207 66.8981V95.28C236.207 96.14 235.898 96.8788 235.28 97.4963C234.685 98.0917 233.957 98.3894 233.097 98.3894H227.275C226.415 98.3894 225.676 98.0917 225.059 97.4963C224.441 96.8788 224.133 96.14 224.133 95.28Z" fill="url(#paint1_linear_1285_415)"/>
<path d="M294.182 86.2494C294.182 84.9483 294.568 84.0221 295.34 83.4707C296.112 82.8974 296.861 82.6107 297.589 82.6107H301.525C303.51 82.6107 305.021 83.6913 306.057 85.8524C307.094 88.0136 309.42 89.0942 313.037 89.0942L324.615 89.3257C328.496 89.3257 330.437 88.0577 330.437 85.5216C330.437 83.6031 328.066 82.0924 323.325 80.9898C321.208 80.4826 318.87 79.9864 316.312 79.5012C313.754 78.994 311.207 78.3655 308.671 77.6157C306.157 76.8659 303.841 75.9838 301.724 74.9694C299.607 73.955 297.887 72.5657 296.564 70.8014C295.262 69.0152 294.612 66.9202 294.612 64.5164C294.612 60.0838 296.189 56.6767 299.342 54.295C302.496 51.8912 307.921 50.6894 315.617 50.6894L324.019 50.8878C328.54 50.8878 332.609 52.0566 336.225 54.3942C339.864 56.7097 341.683 59.6097 341.683 63.094C341.683 64.3951 341.298 65.3324 340.526 65.9057C339.754 66.4791 339.015 66.7658 338.309 66.7658H334.373C332.388 66.7658 330.878 65.6852 329.841 63.524C328.805 61.3408 326.478 60.2492 322.861 60.2492L312.905 60.0507C309.023 60.0507 307.083 61.3188 307.083 63.8548C307.083 65.2442 308.307 66.3799 310.755 67.262C313.224 68.1441 316.202 68.927 319.686 69.6106C323.192 70.2722 326.71 71.0771 330.238 72.0254C333.767 72.9736 336.755 74.5394 339.203 76.7226C341.672 78.8838 342.907 81.5852 342.907 84.827C342.907 89.2596 341.32 92.6777 338.144 95.0815C334.99 97.4632 329.577 98.654 321.902 98.654L311.879 98.4556C307.358 98.4556 303.279 97.2978 299.64 94.9823C296.001 92.6447 294.182 89.7337 294.182 86.2494ZM349.689 95.2138V54.1627C349.689 53.2585 349.986 52.4977 350.582 51.8802C351.177 51.2627 351.905 50.954 352.765 50.954H366.228C367.088 50.954 367.904 51.2627 368.676 51.8802C369.448 52.4977 369.966 53.2364 370.231 54.0965L379.989 82.346L389.747 54.0965C390.012 53.2364 390.53 52.4977 391.302 51.8802C392.074 51.2627 392.89 50.954 393.75 50.954H407.213C408.073 50.954 408.79 51.2627 409.363 51.8802C409.959 52.4977 410.256 53.2585 410.256 54.1627V95.2138C410.256 96.118 409.948 96.8788 409.33 97.4963C408.735 98.0917 408.007 98.3894 407.147 98.3894H401.193C400.333 98.3894 399.594 98.0917 398.976 97.4963C398.381 96.8788 398.083 96.118 398.083 95.2138V62.8955L386.406 95.4123C386.098 96.2282 385.557 96.9339 384.786 97.5293C384.014 98.1027 383.198 98.3894 382.338 98.3894H377.607C376.747 98.3894 375.931 98.1027 375.16 97.5293C374.41 96.9339 373.869 96.2282 373.539 95.4123L361.895 62.8955V95.2138C361.895 96.118 361.586 96.8788 360.969 97.4963C360.373 98.0917 359.645 98.3894 358.785 98.3894H352.831C351.971 98.3894 351.232 98.0917 350.615 97.4963C349.997 96.8788 349.689 96.118 349.689 95.2138ZM415.847 95.3461L424.15 63.8548C426.399 55.2763 433.721 50.976 446.114 50.954H463.944C464.76 50.954 465.432 51.2627 465.962 51.8802C466.513 52.4977 466.789 53.2144 466.789 54.0303V95.3461C466.789 96.2062 466.48 96.9339 465.862 97.5293C465.245 98.1027 464.506 98.3894 463.646 98.3894H457.427C456.523 98.3894 455.773 98.1027 455.178 97.5293C454.604 96.9339 454.318 96.1841 454.318 95.28V86.944H430.799L428.582 95.28C428.362 96.1841 427.866 96.9339 427.094 97.5293C426.322 98.1027 425.506 98.3894 424.646 98.3894H418.129C417.269 98.3894 416.652 98.1468 416.277 97.6617C415.902 97.1545 415.714 96.7134 415.714 96.3385C415.737 95.9636 415.781 95.6328 415.847 95.3461ZM433.246 77.5827H454.318V60.3154H444.89C442.773 60.3154 440.921 60.9218 439.333 62.1347C437.767 63.3256 436.709 64.9354 436.157 66.9643L433.246 77.5827ZM525.504 96.967C525.504 97.9153 524.942 98.3894 523.817 98.3894H515.878C515.04 98.3894 514.114 98.0917 513.099 97.4963C512.107 96.8788 511.346 96.14 510.817 95.28L505.193 86.4809C502.878 82.8643 500.077 81.056 496.791 81.056H488.72V95.28C488.72 96.14 488.411 96.8788 487.794 97.4963C487.198 98.0917 486.471 98.3894 485.611 98.3894H479.392C478.532 98.3894 477.793 98.0917 477.175 97.4963C476.558 96.8788 476.249 96.14 476.249 95.28V54.0965C476.249 53.2364 476.547 52.4977 477.142 51.8802C477.738 51.2627 478.465 50.954 479.326 50.954H506.616C511.666 50.954 515.801 52.3102 519.02 55.0227C522.262 57.7352 523.883 61.396 523.883 66.005C523.883 72.4223 519.726 76.4469 511.412 78.0788C512.735 78.564 513.959 79.402 515.084 80.5929C516.209 81.7616 517.499 83.4707 518.954 85.7201L524.975 95.28C525.328 95.8974 525.504 96.4598 525.504 96.967ZM488.72 71.6946H502.812C505.083 71.6946 507.079 71.2425 508.799 70.3383C510.541 69.4342 511.412 67.9897 511.412 66.005C511.412 64.0202 510.541 62.5758 508.799 61.6716C507.079 60.7675 505.083 60.3154 502.812 60.3154H488.72V71.6946ZM526.629 57.2059V54.0965C526.629 53.1923 526.926 52.4425 527.522 51.8471C528.117 51.2517 528.867 50.954 529.771 50.954H571.749C572.653 50.954 573.403 51.2517 573.998 51.8471C574.593 52.4425 574.891 53.1923 574.891 54.0965V57.2059C574.891 58.1101 574.593 58.8599 573.998 59.4553C573.403 60.0287 572.653 60.3154 571.749 60.3154H556.995V95.3461C556.995 96.2062 556.687 96.9339 556.069 97.5293C555.474 98.1027 554.746 98.3894 553.886 98.3894H547.634C546.774 98.3894 546.035 98.1027 545.418 97.5293C544.822 96.9339 544.524 96.2062 544.524 95.3461V60.3154H529.771C528.867 60.3154 528.117 60.0287 527.522 59.4553C526.926 58.8599 526.629 58.1101 526.629 57.2059ZM576.413 53.7326C576.302 53.468 576.247 53.1703 576.247 52.8395C576.247 52.4867 576.435 52.0897 576.81 51.6486C577.207 51.1855 577.791 50.954 578.563 50.954H585.807C586.667 50.954 587.461 51.2517 588.189 51.8471C588.917 52.4425 589.435 53.1923 589.744 54.0965L598.476 80.2951L606.548 54.0965C607.187 52.0015 608.499 50.954 610.484 50.954H616.571C618.555 50.954 619.868 52.0015 620.507 54.0965L628.578 80.2951L637.311 54.0965C637.62 53.1923 638.138 52.4425 638.866 51.8471C639.594 51.2517 640.388 50.954 641.248 50.954H648.492C649.242 50.954 649.804 51.1855 650.179 51.6486C650.576 52.0897 650.774 52.4867 650.774 52.8395C650.774 53.1703 650.73 53.468 650.642 53.7326L635.889 95.0153C635.073 97.2647 633.485 98.3894 631.126 98.3894H626.329C623.881 98.3894 622.304 97.2647 621.599 95.0153L613.527 69.5444L605.456 95.0153C604.728 97.2647 603.152 98.3894 600.726 98.3894H595.896C593.559 98.3894 591.982 97.2647 591.166 95.0153L576.413 53.7326ZM656.199 95.3461V54.0965C656.199 53.2364 656.508 52.4977 657.126 51.8802C657.743 51.2627 658.482 50.954 659.342 50.954H665.495C666.399 50.954 667.149 51.2627 667.744 51.8802C668.362 52.4977 668.67 53.2364 668.67 54.0965V95.28C668.67 96.14 668.351 96.8788 667.711 97.4963C667.094 98.0917 666.355 98.3894 665.495 98.3894H659.342C658.482 98.3894 657.743 98.1027 657.126 97.5293C656.508 96.9339 656.199 96.2062 656.199 95.3461ZM678.164 95.28V54.0965C678.164 53.2364 678.462 52.4977 679.057 51.8802C679.653 51.2627 680.38 50.954 681.24 50.954H690.966C691.737 50.954 692.553 51.2627 693.413 51.8802C694.274 52.4977 694.979 53.2364 695.531 54.0965L715.51 84.827V54.0303C715.51 53.1703 715.808 52.4425 716.403 51.8471C717.021 51.2517 717.76 50.954 718.62 50.954H724.309C725.169 50.954 725.897 51.2517 726.493 51.8471C727.11 52.4425 727.419 53.1923 727.419 54.0965V95.28C727.419 96.14 727.11 96.8788 726.493 97.4963C725.897 98.0917 725.169 98.3894 724.309 98.3894H713.327C712.467 98.3894 711.585 98.0917 710.681 97.4963C709.777 96.8788 709.06 96.14 708.531 95.28L690.238 66.8981V95.28C690.238 96.14 689.929 96.8788 689.312 97.4963C688.716 98.0917 687.988 98.3894 687.128 98.3894H681.307C680.446 98.3894 679.708 98.0917 679.09 97.4963C678.473 96.8788 678.164 96.14 678.164 95.28Z" fill="url(#paint2_linear_1285_415)"/>
<path d="M-79.0212 142.826C-79.0212 141.524 -78.6353 140.598 -77.8635 140.047C-77.0916 139.474 -76.3418 139.187 -75.6141 139.187H-71.6777C-69.6929 139.187 -68.1823 140.267 -67.1458 142.429C-66.1094 144.59 -63.7828 145.67 -60.1662 145.67L-48.5885 145.902C-44.7072 145.902 -42.7666 144.634 -42.7666 142.098C-42.7666 140.179 -45.1372 138.669 -49.8786 137.566C-51.9956 137.059 -54.3332 136.563 -56.8913 136.077C-59.4494 135.57 -61.9965 134.942 -64.5326 134.192C-67.0466 133.442 -69.3621 132.56 -71.4792 131.546C-73.5963 130.531 -75.3164 129.142 -76.6395 127.378C-77.9407 125.591 -78.5912 123.496 -78.5912 121.093C-78.5912 116.66 -77.0144 113.253 -73.8609 110.871C-70.7074 108.467 -65.2824 107.266 -57.586 107.266L-49.1839 107.464C-44.6631 107.464 -40.5944 108.633 -36.9777 110.97C-33.339 113.286 -31.5197 116.186 -31.5197 119.67C-31.5197 120.971 -31.9056 121.909 -32.6774 122.482C-33.4493 123.055 -34.188 123.342 -34.8937 123.342H-38.8301C-40.8149 123.342 -42.3255 122.261 -43.362 120.1C-44.3985 117.917 -46.725 116.825 -50.3417 116.825L-60.2985 116.627C-64.1798 116.627 -66.1204 117.895 -66.1204 120.431C-66.1204 121.82 -64.8965 122.956 -62.4486 123.838C-59.9787 124.72 -57.0016 125.503 -53.5173 126.187C-50.0109 126.848 -46.4935 127.653 -42.965 128.602C-39.4366 129.55 -36.4484 131.116 -34.0006 133.299C-31.5307 135.46 -30.2957 138.161 -30.2957 141.403C-30.2957 145.836 -31.8835 149.254 -35.0591 151.658C-38.2127 154.039 -43.6266 155.23 -51.301 155.23L-61.3239 155.032C-65.8447 155.032 -69.9245 153.874 -73.5632 151.558C-77.2019 149.221 -79.0212 146.31 -79.0212 142.826ZM-23.5145 151.79V110.739C-23.5145 109.835 -23.2168 109.074 -22.6214 108.456C-22.026 107.839 -21.2982 107.53 -20.4382 107.53H-6.97498C-6.11492 107.53 -5.29897 107.839 -4.52712 108.456C-3.75528 109.074 -3.23704 109.813 -2.97241 110.673L6.78593 138.922L16.5443 110.673C16.8089 109.813 17.3271 109.074 18.099 108.456C18.8708 107.839 19.6868 107.53 20.5468 107.53H34.01C34.8701 107.53 35.5868 107.839 36.1602 108.456C36.7556 109.074 37.0533 109.835 37.0533 110.739V151.79C37.0533 152.694 36.7446 153.455 36.1271 154.072C35.5317 154.668 34.8039 154.966 33.9439 154.966H27.9896C27.1296 154.966 26.3908 154.668 25.7733 154.072C25.1779 153.455 24.8802 152.694 24.8802 151.79V119.472L13.2033 151.988C12.8945 152.804 12.3542 153.51 11.5824 154.106C10.8105 154.679 9.9946 154.966 9.13454 154.966H4.40423C3.54418 154.966 2.72822 154.679 1.95638 154.106C1.20659 153.51 0.666295 152.804 0.335504 151.988L-11.3083 119.472V151.79C-11.3083 152.694 -11.6171 153.455 -12.2346 154.072C-12.83 154.668 -13.5577 154.966 -14.4178 154.966H-20.372C-21.2321 154.966 -21.9708 154.668 -22.5883 154.072C-23.2058 153.455 -23.5145 152.694 -23.5145 151.79ZM42.6437 151.922L50.9465 120.431C53.1959 111.852 60.5174 107.552 72.911 107.53H90.7407C91.5566 107.53 92.2292 107.839 92.7585 108.456C93.3098 109.074 93.5855 109.791 93.5855 110.607V151.922C93.5855 152.782 93.2767 153.51 92.6592 154.106C92.0418 154.679 91.303 154.966 90.4429 154.966H84.2241C83.3199 154.966 82.5701 154.679 81.9747 154.106C81.4013 153.51 81.1146 152.76 81.1146 151.856V143.52H57.5954L55.3791 151.856C55.1586 152.76 54.6624 153.51 53.8905 154.106C53.1187 154.679 52.3028 154.966 51.4427 154.966H44.9261C44.0661 154.966 43.4486 154.723 43.0737 154.238C42.6988 153.731 42.5113 153.29 42.5113 152.915C42.5334 152.54 42.5775 152.209 42.6437 151.922ZM60.0433 134.159H81.1146V116.892H71.6871C69.57 116.892 67.7176 117.498 66.1298 118.711C64.5641 119.902 63.5055 121.512 62.9542 123.54L60.0433 134.159ZM152.301 153.543C152.301 154.491 151.738 154.966 150.614 154.966H142.675C141.837 154.966 140.911 154.668 139.896 154.072C138.904 153.455 138.143 152.716 137.614 151.856L131.99 143.057C129.675 139.44 126.874 137.632 123.588 137.632H115.517V151.856C115.517 152.716 115.208 153.455 114.591 154.072C113.995 154.668 113.268 154.966 112.407 154.966H106.189C105.329 154.966 104.59 154.668 103.972 154.072C103.355 153.455 103.046 152.716 103.046 151.856V110.673C103.046 109.813 103.344 109.074 103.939 108.456C104.535 107.839 105.262 107.53 106.122 107.53H133.413C138.463 107.53 142.598 108.886 145.817 111.599C149.059 114.311 150.68 117.972 150.68 122.581C150.68 128.998 146.523 133.023 138.209 134.655C139.532 135.14 140.756 135.978 141.881 137.169C143.006 138.338 144.296 140.047 145.751 142.296L151.772 151.856C152.124 152.474 152.301 153.036 152.301 153.543ZM115.517 128.271H129.609C131.88 128.271 133.876 127.819 135.596 126.915C137.338 126.01 138.209 124.566 138.209 122.581C138.209 120.596 137.338 119.152 135.596 118.248C133.876 117.344 131.88 116.892 129.609 116.892H115.517V128.271ZM153.426 113.782V110.673C153.426 109.769 153.723 109.019 154.319 108.423C154.914 107.828 155.664 107.53 156.568 107.53H198.545C199.45 107.53 200.199 107.828 200.795 108.423C201.39 109.019 201.688 109.769 201.688 110.673V113.782C201.688 114.686 201.39 115.436 200.795 116.031C200.199 116.605 199.45 116.892 198.545 116.892H183.792V151.922C183.792 152.782 183.483 153.51 182.866 154.106C182.271 154.679 181.543 154.966 180.683 154.966H174.431C173.571 154.966 172.832 154.679 172.214 154.106C171.619 153.51 171.321 152.782 171.321 151.922V116.892H156.568C155.664 116.892 154.914 116.605 154.319 116.031C153.723 115.436 153.426 114.686 153.426 113.782ZM203.21 110.309C203.099 110.044 203.044 109.746 203.044 109.416C203.044 109.063 203.232 108.666 203.607 108.225C204.003 107.762 204.588 107.53 205.36 107.53H212.604C213.464 107.53 214.258 107.828 214.986 108.423C215.713 109.019 216.232 109.769 216.54 110.673L225.273 136.871L233.345 110.673C233.984 108.578 235.296 107.53 237.281 107.53H243.368C245.352 107.53 246.664 108.578 247.304 110.673L255.375 136.871L264.108 110.673C264.417 109.769 264.935 109.019 265.663 108.423C266.391 107.828 267.185 107.53 268.045 107.53H275.289C276.039 107.53 276.601 107.762 276.976 108.225C277.373 108.666 277.571 109.063 277.571 109.416C277.571 109.746 277.527 110.044 277.439 110.309L262.686 151.592C261.87 153.841 260.282 154.966 257.922 154.966H253.126C250.678 154.966 249.101 153.841 248.396 151.592L240.324 126.121L232.253 151.592C231.525 153.841 229.949 154.966 227.523 154.966H222.693C220.356 154.966 218.779 153.841 217.963 151.592L203.21 110.309ZM282.996 151.922V110.673C282.996 109.813 283.305 109.074 283.923 108.456C284.54 107.839 285.279 107.53 286.139 107.53H292.292C293.196 107.53 293.946 107.839 294.541 108.456C295.158 109.074 295.467 109.813 295.467 110.673V151.856C295.467 152.716 295.147 153.455 294.508 154.072C293.89 154.668 293.152 154.966 292.292 154.966H286.139C285.279 154.966 284.54 154.679 283.923 154.106C283.305 153.51 282.996 152.782 282.996 151.922ZM304.961 151.856V110.673C304.961 109.813 305.259 109.074 305.854 108.456C306.449 107.839 307.177 107.53 308.037 107.53H317.762C318.534 107.53 319.35 107.839 320.21 108.456C321.07 109.074 321.776 109.813 322.327 110.673L342.307 141.403V110.607C342.307 109.746 342.605 109.019 343.2 108.423C343.818 107.828 344.557 107.53 345.417 107.53H351.106C351.966 107.53 352.694 107.828 353.289 108.423C353.907 109.019 354.216 109.769 354.216 110.673V151.856C354.216 152.716 353.907 153.455 353.289 154.072C352.694 154.668 351.966 154.966 351.106 154.966H340.124C339.264 154.966 338.382 154.668 337.478 154.072C336.573 153.455 335.857 152.716 335.327 151.856L317.035 123.474V151.856C317.035 152.716 316.726 153.455 316.109 154.072C315.513 154.668 314.785 154.966 313.925 154.966H308.103C307.243 154.966 306.505 154.668 305.887 154.072C305.27 153.455 304.961 152.716 304.961 151.856Z" fill="url(#paint3_linear_1285_415)"/>
<path d="M-230.927 196.634C-230.927 195.333 -230.542 194.407 -229.77 193.855C-228.998 193.282 -228.248 192.995 -227.52 192.995H-223.584C-221.599 192.995 -220.089 194.076 -219.052 196.237C-218.016 198.398 -215.689 199.479 -212.072 199.479L-200.495 199.71C-196.613 199.71 -194.673 198.442 -194.673 195.906C-194.673 193.988 -197.043 192.477 -201.785 191.375C-203.902 190.867 -206.239 190.371 -208.798 189.886C-211.356 189.379 -213.903 188.75 -216.439 188.001C-218.953 187.251 -221.268 186.369 -223.385 185.354C-225.503 184.34 -227.223 182.95 -228.546 181.186C-229.847 179.4 -230.497 177.305 -230.497 174.901C-230.497 170.469 -228.921 167.061 -225.767 164.68C-222.614 162.276 -217.189 161.074 -209.492 161.074L-201.09 161.273C-196.569 161.273 -192.501 162.441 -188.884 164.779C-185.245 167.095 -183.426 169.994 -183.426 173.479C-183.426 174.78 -183.812 175.717 -184.584 176.291C-185.356 176.864 -186.094 177.151 -186.8 177.151H-190.736C-192.721 177.151 -194.232 176.07 -195.268 173.909C-196.305 171.726 -198.631 170.634 -202.248 170.634L-212.205 170.436C-216.086 170.436 -218.027 171.704 -218.027 174.24C-218.027 175.629 -216.803 176.765 -214.355 177.647C-211.885 178.529 -208.908 179.312 -205.424 179.995C-201.917 180.657 -198.4 181.462 -194.871 182.41C-191.343 183.358 -188.355 184.924 -185.907 187.107C-183.437 189.269 -182.202 191.97 -182.202 195.212C-182.202 199.644 -183.79 203.063 -186.965 205.466C-190.119 207.848 -195.533 209.039 -203.207 209.039L-213.23 208.84C-217.751 208.84 -221.831 207.683 -225.469 205.367C-229.108 203.029 -230.927 200.118 -230.927 196.634ZM-175.421 205.599V164.547C-175.421 163.643 -175.123 162.882 -174.528 162.265C-173.932 161.647 -173.204 161.339 -172.344 161.339H-158.881C-158.021 161.339 -157.205 161.647 -156.433 162.265C-155.662 162.882 -155.143 163.621 -154.879 164.481L-145.12 192.731L-135.362 164.481C-135.097 163.621 -134.579 162.882 -133.807 162.265C-133.035 161.647 -132.219 161.339 -131.359 161.339H-117.896C-117.036 161.339 -116.319 161.647 -115.746 162.265C-115.151 162.882 -114.853 163.643 -114.853 164.547V205.599C-114.853 206.503 -115.162 207.264 -115.779 207.881C-116.375 208.476 -117.102 208.774 -117.962 208.774H-123.917C-124.777 208.774 -125.515 208.476 -126.133 207.881C-126.728 207.264 -127.026 206.503 -127.026 205.599V173.28L-138.703 205.797C-139.012 206.613 -139.552 207.319 -140.324 207.914C-141.096 208.487 -141.912 208.774 -142.772 208.774H-147.502C-148.362 208.774 -149.178 208.487 -149.95 207.914C-150.7 207.319 -151.24 206.613 -151.571 205.797L-163.215 173.28V205.599C-163.215 206.503 -163.523 207.264 -164.141 207.881C-164.736 208.476 -165.464 208.774 -166.324 208.774H-172.278C-173.138 208.774 -173.877 208.476 -174.495 207.881C-175.112 207.264 -175.421 206.503 -175.421 205.599ZM-109.263 205.731L-100.96 174.24C-98.7104 165.661 -91.3889 161.361 -78.9952 161.339H-61.1656C-60.3496 161.339 -59.677 161.647 -59.1478 162.265C-58.5965 162.882 -58.3208 163.599 -58.3208 164.415V205.731C-58.3208 206.591 -58.6295 207.319 -59.247 207.914C-59.8645 208.487 -60.6032 208.774 -61.4633 208.774H-67.6822C-68.5863 208.774 -69.3361 208.487 -69.9316 207.914C-70.5049 207.319 -70.7916 206.569 -70.7916 205.665V197.329H-94.3108L-96.5271 205.665C-96.7477 206.569 -97.2439 207.319 -98.0157 207.914C-98.7875 208.487 -99.6035 208.774 -100.464 208.774H-106.98C-107.84 208.774 -108.458 208.532 -108.833 208.046C-109.207 207.539 -109.395 207.098 -109.395 206.723C-109.373 206.348 -109.329 206.018 -109.263 205.731ZM-91.863 187.967H-70.7916V170.7H-80.2191C-82.3362 170.7 -84.1886 171.307 -85.7764 172.519C-87.3422 173.71 -88.4007 175.32 -88.952 177.349L-91.863 187.967ZM0.394593 207.352C0.394593 208.3 -0.167752 208.774 -1.29244 208.774H-9.23142C-10.0694 208.774 -10.9956 208.476 -12.0101 207.881C-13.0024 207.264 -13.7633 206.525 -14.2925 205.665L-19.916 196.866C-22.2315 193.249 -25.0322 191.441 -28.3181 191.441H-36.3894V205.665C-36.3894 206.525 -36.6981 207.264 -37.3156 207.881C-37.911 208.476 -38.6387 208.774 -39.4988 208.774H-45.7177C-46.5777 208.774 -47.3165 208.476 -47.934 207.881C-48.5514 207.264 -48.8602 206.525 -48.8602 205.665V164.481C-48.8602 163.621 -48.5625 162.882 -47.967 162.265C-47.3716 161.647 -46.6439 161.339 -45.7838 161.339H-18.4936C-13.4435 161.339 -9.30861 162.695 -6.08891 165.407C-2.84716 168.12 -1.22628 171.781 -1.22628 176.39C-1.22628 182.807 -5.38322 186.832 -13.6971 188.464C-12.3739 188.949 -11.15 189.787 -10.0253 190.978C-8.90063 192.146 -7.61055 193.855 -6.15507 196.105L-0.134673 205.665C0.218171 206.282 0.394593 206.845 0.394593 207.352ZM-36.3894 182.079H-22.2977C-20.0262 182.079 -18.0305 181.627 -16.3103 180.723C-14.5682 179.819 -13.6971 178.374 -13.6971 176.39C-13.6971 174.405 -14.5682 172.961 -16.3103 172.056C-18.0305 171.152 -20.0262 170.7 -22.2977 170.7H-36.3894V182.079ZM1.51929 167.591V164.481C1.51929 163.577 1.81701 162.827 2.41243 162.232C3.00785 161.636 3.75765 161.339 4.66181 161.339H46.6392C47.5433 161.339 48.2931 161.636 48.8886 162.232C49.484 162.827 49.7817 163.577 49.7817 164.481V167.591C49.7817 168.495 49.484 169.245 48.8886 169.84C48.2931 170.413 47.5433 170.7 46.6392 170.7H31.8859V205.731C31.8859 206.591 31.5772 207.319 30.9597 207.914C30.3643 208.487 29.6365 208.774 28.7765 208.774H22.5245C21.6645 208.774 20.9257 208.487 20.3082 207.914C19.7128 207.319 19.4151 206.591 19.4151 205.731V170.7H4.66181C3.75765 170.7 3.00785 170.413 2.41243 169.84C1.81701 169.245 1.51929 168.495 1.51929 167.591ZM51.3033 164.117C51.1931 163.853 51.1379 163.555 51.1379 163.224C51.1379 162.871 51.3254 162.474 51.7003 162.033C52.0972 161.57 52.6816 161.339 53.4535 161.339H60.6978C61.5578 161.339 62.3517 161.636 63.0795 162.232C63.8072 162.827 64.3255 163.577 64.6342 164.481L73.3671 190.68L81.4384 164.481C82.0779 162.386 83.39 161.339 85.3748 161.339H91.4613C93.4461 161.339 94.7582 162.386 95.3978 164.481L103.469 190.68L112.202 164.481C112.511 163.577 113.029 162.827 113.757 162.232C114.484 161.636 115.278 161.339 116.138 161.339H123.383C124.132 161.339 124.695 161.57 125.07 162.033C125.467 162.474 125.665 162.871 125.665 163.224C125.665 163.555 125.621 163.853 125.533 164.117L110.78 205.4C109.964 207.649 108.376 208.774 106.016 208.774H101.22C98.7718 208.774 97.1951 207.649 96.4894 205.4L88.4181 179.929L80.3468 205.4C79.619 207.649 78.0423 208.774 75.6165 208.774H70.7869C68.4493 208.774 66.8726 207.649 66.0566 205.4L51.3033 164.117ZM131.09 205.731V164.481C131.09 163.621 131.399 162.882 132.016 162.265C132.634 161.647 133.373 161.339 134.233 161.339H140.385C141.289 161.339 142.039 161.647 142.635 162.265C143.252 162.882 143.561 163.621 143.561 164.481V205.665C143.561 206.525 143.241 207.264 142.602 207.881C141.984 208.476 141.245 208.774 140.385 208.774H134.233C133.373 208.774 132.634 208.487 132.016 207.914C131.399 207.319 131.09 206.591 131.09 205.731ZM153.055 205.665V164.481C153.055 163.621 153.352 162.882 153.948 162.265C154.543 161.647 155.271 161.339 156.131 161.339H165.856C166.628 161.339 167.444 161.647 168.304 162.265C169.164 162.882 169.87 163.621 170.421 164.481L190.401 195.212V164.415C190.401 163.555 190.699 162.827 191.294 162.232C191.912 161.636 192.65 161.339 193.51 161.339H199.2C200.06 161.339 200.788 161.636 201.383 162.232C202.001 162.827 202.309 163.577 202.309 164.481V205.665C202.309 206.525 202.001 207.264 201.383 207.881C200.788 208.476 200.06 208.774 199.2 208.774H188.218C187.358 208.774 186.476 208.476 185.571 207.881C184.667 207.264 183.95 206.525 183.421 205.665L165.128 177.283V205.665C165.128 206.525 164.82 207.264 164.202 207.881C163.607 208.476 162.879 208.774 162.019 208.774H156.197C155.337 208.774 154.598 208.476 153.981 207.881C153.363 207.264 153.055 206.525 153.055 205.665Z" fill="url(#paint4_linear_1285_415)"/>
<path d="M223.104 196.634C223.104 195.333 223.49 194.407 224.262 193.855C225.033 193.282 225.783 192.995 226.511 192.995H230.447C232.432 192.995 233.943 194.076 234.979 196.237C236.016 198.398 238.342 199.479 241.959 199.479L253.537 199.71C257.418 199.71 259.358 198.442 259.358 195.906C259.358 193.988 256.988 192.477 252.246 191.375C250.129 190.867 247.792 190.371 245.234 189.886C242.676 189.379 240.128 188.75 237.592 188.001C235.078 187.251 232.763 186.369 230.646 185.354C228.529 184.34 226.809 182.95 225.485 181.186C224.184 179.4 223.534 177.305 223.534 174.901C223.534 170.469 225.111 167.061 228.264 164.68C231.418 162.276 236.843 161.074 244.539 161.074L252.941 161.273C257.462 161.273 261.531 162.441 265.147 164.779C268.786 167.095 270.605 169.994 270.605 173.479C270.605 174.78 270.219 175.717 269.448 176.291C268.676 176.864 267.937 177.151 267.231 177.151H263.295C261.31 177.151 259.8 176.07 258.763 173.909C257.727 171.726 255.4 170.634 251.783 170.634L241.827 170.436C237.945 170.436 236.005 171.704 236.005 174.24C236.005 175.629 237.229 176.765 239.676 177.647C242.146 178.529 245.123 179.312 248.608 179.995C252.114 180.657 255.632 181.462 259.16 182.41C262.688 183.358 265.677 184.924 268.124 187.107C270.594 189.269 271.829 191.97 271.829 195.212C271.829 199.644 270.241 203.063 267.066 205.466C263.912 207.848 258.498 209.039 250.824 209.039L240.801 208.84C236.28 208.84 232.201 207.683 228.562 205.367C224.923 203.029 223.104 200.118 223.104 196.634ZM278.61 205.599V164.547C278.61 163.643 278.908 162.882 279.504 162.265C280.099 161.647 280.827 161.339 281.687 161.339H295.15C296.01 161.339 296.826 161.647 297.598 162.265C298.37 162.882 298.888 163.621 299.153 164.481L308.911 192.731L318.669 164.481C318.934 163.621 319.452 162.882 320.224 162.265C320.996 161.647 321.812 161.339 322.672 161.339H336.135C336.995 161.339 337.712 161.647 338.285 162.265C338.881 162.882 339.178 163.643 339.178 164.547V205.599C339.178 206.503 338.87 207.264 338.252 207.881C337.657 208.476 336.929 208.774 336.069 208.774H330.115C329.255 208.774 328.516 208.476 327.898 207.881C327.303 207.264 327.005 206.503 327.005 205.599V173.28L315.328 205.797C315.02 206.613 314.479 207.319 313.707 207.914C312.936 208.487 312.12 208.774 311.26 208.774H306.529C305.669 208.774 304.853 208.487 304.081 207.914C303.332 207.319 302.791 206.613 302.461 205.797L290.817 173.28V205.599C290.817 206.503 290.508 207.264 289.89 207.881C289.295 208.476 288.567 208.774 287.707 208.774H281.753C280.893 208.774 280.154 208.476 279.537 207.881C278.919 207.264 278.61 206.503 278.61 205.599ZM344.769 205.731L353.072 174.24C355.321 165.661 362.642 161.361 375.036 161.339H392.866C393.682 161.339 394.354 161.647 394.883 162.265C395.435 162.882 395.71 163.599 395.71 164.415V205.731C395.71 206.591 395.402 207.319 394.784 207.914C394.167 208.487 393.428 208.774 392.568 208.774H386.349C385.445 208.774 384.695 208.487 384.1 207.914C383.526 207.319 383.24 206.569 383.24 205.665V197.329H359.72L357.504 205.665C357.284 206.569 356.787 207.319 356.016 207.914C355.244 208.487 354.428 208.774 353.568 208.774H347.051C346.191 208.774 345.574 208.532 345.199 208.046C344.824 207.539 344.636 207.098 344.636 206.723C344.658 206.348 344.703 206.018 344.769 205.731ZM362.168 187.967H383.24V170.7H373.812C371.695 170.7 369.843 171.307 368.255 172.519C366.689 173.71 365.631 175.32 365.079 177.349L362.168 187.967ZM454.426 207.352C454.426 208.3 453.863 208.774 452.739 208.774H444.8C443.962 208.774 443.036 208.476 442.021 207.881C441.029 207.264 440.268 206.525 439.739 205.665L434.115 196.866C431.8 193.249 428.999 191.441 425.713 191.441H417.642V205.665C417.642 206.525 417.333 207.264 416.716 207.881C416.12 208.476 415.393 208.774 414.532 208.774H408.314C407.454 208.774 406.715 208.476 406.097 207.881C405.48 207.264 405.171 206.525 405.171 205.665V164.481C405.171 163.621 405.469 162.882 406.064 162.265C406.66 161.647 407.387 161.339 408.247 161.339H435.538C440.588 161.339 444.723 162.695 447.942 165.407C451.184 168.12 452.805 171.781 452.805 176.39C452.805 182.807 448.648 186.832 440.334 188.464C441.657 188.949 442.881 189.787 444.006 190.978C445.131 192.146 446.421 193.855 447.876 196.105L453.897 205.665C454.249 206.282 454.426 206.845 454.426 207.352ZM417.642 182.079H431.734C434.005 182.079 436.001 181.627 437.721 180.723C439.463 179.819 440.334 178.374 440.334 176.39C440.334 174.405 439.463 172.961 437.721 172.056C436.001 171.152 434.005 170.7 431.734 170.7H417.642V182.079ZM455.551 167.591V164.481C455.551 163.577 455.848 162.827 456.444 162.232C457.039 161.636 457.789 161.339 458.693 161.339H500.67C501.575 161.339 502.324 161.636 502.92 162.232C503.515 162.827 503.813 163.577 503.813 164.481V167.591C503.813 168.495 503.515 169.245 502.92 169.84C502.324 170.413 501.575 170.7 500.67 170.7H485.917V205.731C485.917 206.591 485.608 207.319 484.991 207.914C484.396 208.487 483.668 208.774 482.808 208.774H476.556C475.696 208.774 474.957 208.487 474.339 207.914C473.744 207.319 473.446 206.591 473.446 205.731V170.7H458.693C457.789 170.7 457.039 170.413 456.444 169.84C455.848 169.245 455.551 168.495 455.551 167.591ZM505.335 164.117C505.224 163.853 505.169 163.555 505.169 163.224C505.169 162.871 505.357 162.474 505.732 162.033C506.128 161.57 506.713 161.339 507.485 161.339H514.729C515.589 161.339 516.383 161.636 517.111 162.232C517.838 162.827 518.357 163.577 518.665 164.481L527.398 190.68L535.47 164.481C536.109 162.386 537.421 161.339 539.406 161.339H545.493C547.477 161.339 548.789 162.386 549.429 164.481L557.5 190.68L566.233 164.481C566.542 163.577 567.06 162.827 567.788 162.232C568.516 161.636 569.31 161.339 570.17 161.339H577.414C578.164 161.339 578.726 161.57 579.101 162.033C579.498 162.474 579.696 162.871 579.696 163.224C579.696 163.555 579.652 163.853 579.564 164.117L564.811 205.4C563.995 207.649 562.407 208.774 560.047 208.774H555.251C552.803 208.774 551.226 207.649 550.521 205.4L542.449 179.929L534.378 205.4C533.65 207.649 532.074 208.774 529.648 208.774H524.818C522.481 208.774 520.904 207.649 520.088 205.4L505.335 164.117ZM585.121 205.731V164.481C585.121 163.621 585.43 162.882 586.048 162.265C586.665 161.647 587.404 161.339 588.264 161.339H594.417C595.321 161.339 596.071 161.647 596.666 162.265C597.283 162.882 597.592 163.621 597.592 164.481V205.665C597.592 206.525 597.272 207.264 596.633 207.881C596.015 208.476 595.277 208.774 594.417 208.774H588.264C587.404 208.774 586.665 208.487 586.048 207.914C585.43 207.319 585.121 206.591 585.121 205.731ZM607.086 205.665V164.481C607.086 163.621 607.384 162.882 607.979 162.265C608.574 161.647 609.302 161.339 610.162 161.339H619.887C620.659 161.339 621.475 161.647 622.335 162.265C623.195 162.882 623.901 163.621 624.452 164.481L644.432 195.212V164.415C644.432 163.555 644.73 162.827 645.325 162.232C645.943 161.636 646.682 161.339 647.542 161.339H653.231C654.091 161.339 654.819 161.636 655.414 162.232C656.032 162.827 656.341 163.577 656.341 164.481V205.665C656.341 206.525 656.032 207.264 655.414 207.881C654.819 208.476 654.091 208.774 653.231 208.774H642.249C641.389 208.774 640.507 208.476 639.603 207.881C638.698 207.264 637.982 206.525 637.452 205.665L619.16 177.283V205.665C619.16 206.525 618.851 207.264 618.234 207.881C617.638 208.476 616.91 208.774 616.05 208.774H610.228C609.368 208.774 608.63 208.476 608.012 207.881C607.395 207.264 607.086 206.525 607.086 205.665Z" fill="url(#paint5_linear_1285_415)"/>
<path d="M-340.982 254.052C-340.982 252.751 -340.596 251.825 -339.824 251.273C-339.053 250.7 -338.303 250.413 -337.575 250.413H-333.639C-331.654 250.413 -330.143 251.494 -329.107 253.655C-328.07 255.816 -325.744 256.897 -322.127 256.897L-310.549 257.128C-306.668 257.128 -304.727 255.86 -304.727 253.324C-304.727 251.406 -307.098 249.895 -311.839 248.793C-313.957 248.285 -316.294 247.789 -318.852 247.304C-321.41 246.797 -323.957 246.168 -326.494 245.418C-329.008 244.669 -331.323 243.787 -333.44 242.772C-335.557 241.758 -337.277 240.368 -338.6 238.604C-339.902 236.818 -340.552 234.723 -340.552 232.319C-340.552 227.887 -338.975 224.479 -335.822 222.098C-332.668 219.694 -327.243 218.492 -319.547 218.492L-311.145 218.691C-306.624 218.691 -302.555 219.859 -298.939 222.197C-295.3 224.512 -293.481 227.412 -293.481 230.897C-293.481 232.198 -293.867 233.135 -294.638 233.708C-295.41 234.282 -296.149 234.569 -296.855 234.569H-300.791C-302.776 234.569 -304.286 233.488 -305.323 231.327C-306.359 229.144 -308.686 228.052 -312.303 228.052L-322.259 227.853C-326.141 227.853 -328.081 229.122 -328.081 231.658C-328.081 233.047 -326.857 234.183 -324.41 235.065C-321.94 235.947 -318.963 236.73 -315.478 237.413C-311.972 238.075 -308.454 238.88 -304.926 239.828C-301.398 240.776 -298.409 242.342 -295.962 244.525C-293.492 246.687 -292.257 249.388 -292.257 252.63C-292.257 257.062 -293.844 260.48 -297.02 262.884C-300.174 265.266 -305.588 266.457 -313.262 266.457L-323.285 266.258C-327.806 266.258 -331.885 265.101 -335.524 262.785C-339.163 260.447 -340.982 257.536 -340.982 254.052ZM-285.475 263.017V221.965C-285.475 221.061 -285.178 220.3 -284.582 219.683C-283.987 219.065 -283.259 218.757 -282.399 218.757H-268.936C-268.076 218.757 -267.26 219.065 -266.488 219.683C-265.716 220.3 -265.198 221.039 -264.933 221.899L-255.175 250.149L-245.417 221.899C-245.152 221.039 -244.634 220.3 -243.862 219.683C-243.09 219.065 -242.274 218.757 -241.414 218.757H-227.951C-227.091 218.757 -226.374 219.065 -225.801 219.683C-225.205 220.3 -224.908 221.061 -224.908 221.965V263.017C-224.908 263.921 -225.216 264.682 -225.834 265.299C-226.429 265.894 -227.157 266.192 -228.017 266.192H-233.971C-234.831 266.192 -235.57 265.894 -236.188 265.299C-236.783 264.682 -237.081 263.921 -237.081 263.017V230.698L-248.758 263.215C-249.066 264.031 -249.607 264.737 -250.379 265.332C-251.15 265.905 -251.966 266.192 -252.826 266.192H-257.557C-258.417 266.192 -259.233 265.905 -260.005 265.332C-260.754 264.737 -261.295 264.031 -261.625 263.215L-273.269 230.698V263.017C-273.269 263.921 -273.578 264.682 -274.195 265.299C-274.791 265.894 -275.519 266.192 -276.379 266.192H-282.333C-283.193 266.192 -283.932 265.894 -284.549 265.299C-285.167 264.682 -285.475 263.921 -285.475 263.017ZM-219.317 263.149L-211.014 231.658C-208.765 223.079 -201.444 218.779 -189.05 218.757H-171.22C-170.404 218.757 -169.732 219.065 -169.202 219.683C-168.651 220.3 -168.375 221.017 -168.375 221.833V263.149C-168.375 264.009 -168.684 264.737 -169.302 265.332C-169.919 265.905 -170.658 266.192 -171.518 266.192H-177.737C-178.641 266.192 -179.391 265.905 -179.986 265.332C-180.56 264.737 -180.846 263.987 -180.846 263.083V254.747H-204.366L-206.582 263.083C-206.802 263.987 -207.299 264.737 -208.07 265.332C-208.842 265.905 -209.658 266.192 -210.518 266.192H-217.035C-217.895 266.192 -218.512 265.95 -218.887 265.464C-219.262 264.957 -219.45 264.516 -219.45 264.141C-219.428 263.766 -219.383 263.436 -219.317 263.149ZM-201.918 245.385H-180.846V228.118H-190.274C-192.391 228.118 -194.243 228.725 -195.831 229.937C-197.397 231.128 -198.455 232.738 -199.007 234.767L-201.918 245.385ZM-109.66 264.77C-109.66 265.718 -110.222 266.192 -111.347 266.192H-119.286C-120.124 266.192 -121.05 265.894 -122.065 265.299C-123.057 264.682 -123.818 263.943 -124.347 263.083L-129.971 254.284C-132.286 250.667 -135.087 248.859 -138.373 248.859H-146.444V263.083C-146.444 263.943 -146.753 264.682 -147.37 265.299C-147.966 265.894 -148.693 266.192 -149.553 266.192H-155.772C-156.632 266.192 -157.371 265.894 -157.989 265.299C-158.606 264.682 -158.915 263.943 -158.915 263.083V221.899C-158.915 221.039 -158.617 220.3 -158.022 219.683C-157.426 219.065 -156.699 218.757 -155.839 218.757H-128.548C-123.498 218.757 -119.363 220.113 -116.144 222.825C-112.902 225.538 -111.281 229.199 -111.281 233.808C-111.281 240.225 -115.438 244.25 -123.752 245.882C-122.429 246.367 -121.205 247.205 -120.08 248.396C-118.955 249.564 -117.665 251.273 -116.21 253.523L-110.189 263.083C-109.837 263.7 -109.66 264.263 -109.66 264.77ZM-146.444 239.497H-132.352C-130.081 239.497 -128.085 239.045 -126.365 238.141C-124.623 237.237 -123.752 235.792 -123.752 233.808C-123.752 231.823 -124.623 230.379 -126.365 229.474C-128.085 228.57 -130.081 228.118 -132.352 228.118H-146.444V239.497ZM-108.535 225.009V221.899C-108.535 220.995 -108.238 220.245 -107.642 219.65C-107.047 219.054 -106.297 218.757 -105.393 218.757H-63.4155C-62.5114 218.757 -61.7616 219.054 -61.1661 219.65C-60.5707 220.245 -60.273 220.995 -60.273 221.899V225.009C-60.273 225.913 -60.5707 226.663 -61.1661 227.258C-61.7616 227.831 -62.5114 228.118 -63.4155 228.118H-78.1688V263.149C-78.1688 264.009 -78.4775 264.737 -79.095 265.332C-79.6904 265.905 -80.4182 266.192 -81.2782 266.192H-87.5302C-88.3902 266.192 -89.129 265.905 -89.7465 265.332C-90.3419 264.737 -90.6396 264.009 -90.6396 263.149V228.118H-105.393C-106.297 228.118 -107.047 227.831 -107.642 227.258C-108.238 226.663 -108.535 225.913 -108.535 225.009ZM-58.7514 221.535C-58.8616 221.271 -58.9168 220.973 -58.9168 220.642C-58.9168 220.289 -58.7293 219.892 -58.3544 219.451C-57.9575 218.988 -57.3731 218.757 -56.6012 218.757H-49.3569C-48.4968 218.757 -47.7029 219.054 -46.9752 219.65C-46.2475 220.245 -45.7292 220.995 -45.4205 221.899L-36.6876 248.098L-28.6163 221.899C-27.9768 219.804 -26.6646 218.757 -24.6799 218.757H-18.5933C-16.6086 218.757 -15.2965 219.804 -14.6569 221.899L-6.58563 248.098L2.14725 221.899C2.45598 220.995 2.97422 220.245 3.70196 219.65C4.4297 219.054 5.2236 218.757 6.08366 218.757H13.328C14.0778 218.757 14.6401 218.988 15.015 219.451C15.412 219.892 15.6104 220.289 15.6104 220.642C15.6104 220.973 15.5663 221.271 15.4781 221.535L0.724845 262.818C-0.0911058 265.067 -1.6789 266.192 -4.03854 266.192H-8.83501C-11.2829 266.192 -12.8596 265.067 -13.5653 262.818L-21.6366 237.347L-29.7079 262.818C-30.4357 265.067 -32.0124 266.192 -34.4382 266.192H-39.2678C-41.6054 266.192 -43.1821 265.067 -43.9981 262.818L-58.7514 221.535ZM21.0354 263.149V221.899C21.0354 221.039 21.3441 220.3 21.9616 219.683C22.5791 219.065 23.3179 218.757 24.1779 218.757H30.3306C31.2348 218.757 31.9846 219.065 32.58 219.683C33.1975 220.3 33.5062 221.039 33.5062 221.899V263.083C33.5062 263.943 33.1864 264.682 32.5469 265.299C31.9294 265.894 31.1907 266.192 30.3306 266.192H24.1779C23.3179 266.192 22.5791 265.905 21.9616 265.332C21.3441 264.737 21.0354 264.009 21.0354 263.149ZM42.9999 263.083V221.899C42.9999 221.039 43.2976 220.3 43.8931 219.683C44.4885 219.065 45.2162 218.757 46.0763 218.757H55.8015C56.5734 218.757 57.3893 219.065 58.2494 219.683C59.1095 220.3 59.8151 221.039 60.3665 221.899L80.3462 252.63V221.833C80.3462 220.973 80.6439 220.245 81.2394 219.65C81.8568 219.054 82.5956 218.757 83.4557 218.757H89.1453C90.0053 218.757 90.7331 219.054 91.3285 219.65C91.946 220.245 92.2547 220.995 92.2547 221.899V263.083C92.2547 263.943 91.946 264.682 91.3285 265.299C90.7331 265.894 90.0053 266.192 89.1453 266.192H78.163C77.303 266.192 76.4208 265.894 75.5167 265.299C74.6125 264.682 73.8958 263.943 73.3665 263.083L55.0738 234.701V263.083C55.0738 263.943 54.7651 264.682 54.1476 265.299C53.5522 265.894 52.8244 266.192 51.9644 266.192H46.1424C45.2824 266.192 44.5436 265.894 43.9261 265.299C43.3087 264.682 42.9999 263.943 42.9999 263.083Z" fill="url(#paint6_linear_1285_415)"/>
<path d="M113.049 254.052C113.049 252.751 113.435 251.825 114.207 251.273C114.979 250.7 115.728 250.413 116.456 250.413H120.393C122.377 250.413 123.888 251.494 124.924 253.655C125.961 255.816 128.288 256.897 131.904 256.897L143.482 257.128C147.363 257.128 149.304 255.86 149.304 253.324C149.304 251.406 146.933 249.895 142.192 248.793C140.075 248.285 137.737 247.789 135.179 247.304C132.621 246.797 130.074 246.168 127.538 245.418C125.024 244.669 122.708 243.787 120.591 242.772C118.474 241.758 116.754 240.368 115.431 238.604C114.13 236.818 113.479 234.723 113.479 232.319C113.479 227.887 115.056 224.479 118.209 222.098C121.363 219.694 126.788 218.492 134.484 218.492L142.886 218.691C147.407 218.691 151.476 219.859 155.093 222.197C158.731 224.512 160.551 227.412 160.551 230.897C160.551 232.198 160.165 233.135 159.393 233.708C158.621 234.282 157.882 234.569 157.177 234.569H153.24C151.255 234.569 149.745 233.488 148.708 231.327C147.672 229.144 145.345 228.052 141.729 228.052L131.772 227.853C127.891 227.853 125.95 229.122 125.95 231.658C125.95 233.047 127.174 234.183 129.622 235.065C132.092 235.947 135.069 236.73 138.553 237.413C142.059 238.075 145.577 238.88 149.105 239.828C152.634 240.776 155.622 242.342 158.07 244.525C160.54 246.687 161.775 249.388 161.775 252.63C161.775 257.062 160.187 260.48 157.011 262.884C153.858 265.266 148.444 266.457 140.769 266.457L130.746 266.258C126.226 266.258 122.146 265.101 118.507 262.785C114.868 260.447 113.049 257.536 113.049 254.052ZM168.556 263.017V221.965C168.556 221.061 168.854 220.3 169.449 219.683C170.044 219.065 170.772 218.757 171.632 218.757H185.095C185.955 218.757 186.771 219.065 187.543 219.683C188.315 220.3 188.833 221.039 189.098 221.899L198.856 250.149L208.615 221.899C208.879 221.039 209.397 220.3 210.169 219.683C210.941 219.065 211.757 218.757 212.617 218.757H226.08C226.94 218.757 227.657 219.065 228.23 219.683C228.826 220.3 229.124 221.061 229.124 221.965V263.017C229.124 263.921 228.815 264.682 228.197 265.299C227.602 265.894 226.874 266.192 226.014 266.192H220.06C219.2 266.192 218.461 265.894 217.844 265.299C217.248 264.682 216.951 263.921 216.951 263.017V230.698L205.274 263.215C204.965 264.031 204.425 264.737 203.653 265.332C202.881 265.905 202.065 266.192 201.205 266.192H196.475C195.614 266.192 194.799 265.905 194.027 265.332C193.277 264.737 192.737 264.031 192.406 263.215L180.762 230.698V263.017C180.762 263.921 180.453 264.682 179.836 265.299C179.24 265.894 178.513 266.192 177.653 266.192H171.698C170.838 266.192 170.099 265.894 169.482 265.299C168.865 264.682 168.556 263.921 168.556 263.017ZM234.714 263.149L243.017 231.658C245.266 223.079 252.588 218.779 264.981 218.757H282.811C283.627 218.757 284.3 219.065 284.829 219.683C285.38 220.3 285.656 221.017 285.656 221.833V263.149C285.656 264.009 285.347 264.737 284.73 265.332C284.112 265.905 283.373 266.192 282.513 266.192H276.294C275.39 266.192 274.64 265.905 274.045 265.332C273.472 264.737 273.185 263.987 273.185 263.083V254.747H249.666L247.449 263.083C247.229 263.987 246.733 264.737 245.961 265.332C245.189 265.905 244.373 266.192 243.513 266.192H236.996C236.136 266.192 235.519 265.95 235.144 265.464C234.769 264.957 234.582 264.516 234.582 264.141C234.604 263.766 234.648 263.436 234.714 263.149ZM252.114 245.385H273.185V228.118H263.757C261.64 228.118 259.788 228.725 258.2 229.937C256.634 231.128 255.576 232.738 255.025 234.767L252.114 245.385ZM344.371 264.77C344.371 265.718 343.809 266.192 342.684 266.192H334.745C333.907 266.192 332.981 265.894 331.966 265.299C330.974 264.682 330.213 263.943 329.684 263.083L324.061 254.284C321.745 250.667 318.944 248.859 315.659 248.859H307.587V263.083C307.587 263.943 307.278 264.682 306.661 265.299C306.066 265.894 305.338 266.192 304.478 266.192H298.259C297.399 266.192 296.66 265.894 296.043 265.299C295.425 264.682 295.116 263.943 295.116 263.083V221.899C295.116 221.039 295.414 220.3 296.01 219.683C296.605 219.065 297.333 218.757 298.193 218.757H325.483C330.533 218.757 334.668 220.113 337.888 222.825C341.129 225.538 342.75 229.199 342.75 233.808C342.75 240.225 338.593 244.25 330.279 245.882C331.603 246.367 332.827 247.205 333.951 248.396C335.076 249.564 336.366 251.273 337.821 253.523L343.842 263.083C344.195 263.7 344.371 264.263 344.371 264.77ZM307.587 239.497H321.679C323.95 239.497 325.946 239.045 327.666 238.141C329.408 237.237 330.279 235.792 330.279 233.808C330.279 231.823 329.408 230.379 327.666 229.474C325.946 228.57 323.95 228.118 321.679 228.118H307.587V239.497ZM345.496 225.009V221.899C345.496 220.995 345.794 220.245 346.389 219.65C346.984 219.054 347.734 218.757 348.638 218.757H390.616C391.52 218.757 392.27 219.054 392.865 219.65C393.461 220.245 393.758 220.995 393.758 221.899V225.009C393.758 225.913 393.461 226.663 392.865 227.258C392.27 227.831 391.52 228.118 390.616 228.118H375.862V263.149C375.862 264.009 375.554 264.737 374.936 265.332C374.341 265.905 373.613 266.192 372.753 266.192H366.501C365.641 266.192 364.902 265.905 364.285 265.332C363.689 264.737 363.392 264.009 363.392 263.149V228.118H348.638C347.734 228.118 346.984 227.831 346.389 227.258C345.794 226.663 345.496 225.913 345.496 225.009ZM395.28 221.535C395.17 221.271 395.114 220.973 395.114 220.642C395.114 220.289 395.302 219.892 395.677 219.451C396.074 218.988 396.658 218.757 397.43 218.757H404.674C405.534 218.757 406.328 219.054 407.056 219.65C407.784 220.245 408.302 220.995 408.611 221.899L417.344 248.098L425.415 221.899C426.054 219.804 427.367 218.757 429.351 218.757H435.438C437.423 218.757 438.735 219.804 439.374 221.899L447.446 248.098L456.178 221.899C456.487 220.995 457.005 220.245 457.733 219.65C458.461 219.054 459.255 218.757 460.115 218.757H467.359C468.109 218.757 468.671 218.988 469.046 219.451C469.443 219.892 469.642 220.289 469.642 220.642C469.642 220.973 469.598 221.271 469.509 221.535L454.756 262.818C453.94 265.067 452.352 266.192 449.993 266.192H445.196C442.748 266.192 441.172 265.067 440.466 262.818L432.395 237.347L424.323 262.818C423.596 265.067 422.019 266.192 419.593 266.192H414.763C412.426 266.192 410.849 265.067 410.033 262.818L395.28 221.535ZM475.067 263.149V221.899C475.067 221.039 475.375 220.3 475.993 219.683C476.61 219.065 477.349 218.757 478.209 218.757H484.362C485.266 218.757 486.016 219.065 486.611 219.683C487.229 220.3 487.537 221.039 487.537 221.899V263.083C487.537 263.943 487.218 264.682 486.578 265.299C485.961 265.894 485.222 266.192 484.362 266.192H478.209C477.349 266.192 476.61 265.905 475.993 265.332C475.375 264.737 475.067 264.009 475.067 263.149ZM497.031 263.083V221.899C497.031 221.039 497.329 220.3 497.924 219.683C498.52 219.065 499.247 218.757 500.108 218.757H509.833C510.605 218.757 511.421 219.065 512.281 219.683C513.141 220.3 513.846 221.039 514.398 221.899L534.377 252.63V221.833C534.377 220.973 534.675 220.245 535.271 219.65C535.888 219.054 536.627 218.757 537.487 218.757H543.177C544.037 218.757 544.764 219.054 545.36 219.65C545.977 220.245 546.286 220.995 546.286 221.899V263.083C546.286 263.943 545.977 264.682 545.36 265.299C544.764 265.894 544.037 266.192 543.177 266.192H532.194C531.334 266.192 530.452 265.894 529.548 265.299C528.644 264.682 527.927 263.943 527.398 263.083L509.105 234.701V263.083C509.105 263.943 508.796 264.682 508.179 265.299C507.583 265.894 506.856 266.192 505.996 266.192H500.174C499.314 266.192 498.575 265.894 497.957 265.299C497.34 264.682 497.031 263.943 497.031 263.083Z" fill="url(#paint7_linear_1285_415)"/>
</g>
<defs>
<linearGradient id="paint0_linear_1285_415" x1="3.13219" y1="-12.9179" x2="8.04582" y2="61.7951" gradientUnits="userSpaceOnUse">
<stop stop-color="#8A92B2"/>
<stop offset="1" stop-color="#454A75"/>
</linearGradient>
<linearGradient id="paint1_linear_1285_415" x1="-89.1022" y1="41.2794" x2="-84.1886" y2="115.992" gradientUnits="userSpaceOnUse">
<stop stop-color="#8A92B2"/>
<stop offset="1" stop-color="#454A75"/>
</linearGradient>
<linearGradient id="paint2_linear_1285_415" x1="364.929" y1="41.2794" x2="369.843" y2="115.992" gradientUnits="userSpaceOnUse">
<stop stop-color="#8A92B2"/>
<stop offset="1" stop-color="#454A75"/>
</linearGradient>
<linearGradient id="paint3_linear_1285_415" x1="-8.27406" y1="97.8556" x2="-3.36043" y2="172.569" gradientUnits="userSpaceOnUse">
<stop stop-color="#8A92B2"/>
<stop offset="1" stop-color="#454A75"/>
</linearGradient>
<linearGradient id="paint4_linear_1285_415" x1="-160.18" y1="151.664" x2="-155.267" y2="226.377" gradientUnits="userSpaceOnUse">
<stop stop-color="#8A92B2"/>
<stop offset="1" stop-color="#454A75"/>
</linearGradient>
<linearGradient id="paint5_linear_1285_415" x1="293.851" y1="151.664" x2="298.765" y2="226.377" gradientUnits="userSpaceOnUse">
<stop stop-color="#8A92B2"/>
<stop offset="1" stop-color="#454A75"/>
</linearGradient>
<linearGradient id="paint6_linear_1285_415" x1="-270.235" y1="209.082" x2="-265.321" y2="283.795" gradientUnits="userSpaceOnUse">
<stop stop-color="#8A92B2"/>
<stop offset="1" stop-color="#454A75"/>
</linearGradient>
<linearGradient id="paint7_linear_1285_415" x1="183.796" y1="209.082" x2="188.71" y2="283.795" gradientUnits="userSpaceOnUse">
<stop stop-color="#8A92B2"/>
<stop offset="1" stop-color="#454A75"/>
</linearGradient>
<clipPath id="clip0_1285_415">
<rect width="304" height="254" fill="white"/>
</clipPath>
</defs>
</svg>
