<svg width="304" height="254" viewBox="0 0 304 254" fill="none" xmlns="http://www.w3.org/2000/svg">
<g opacity="0.02" clip-path="url(#clip0_1285_361)">
<g opacity="0.12">
<path d="M-67.615 32.0524C-67.615 30.7512 -67.2291 29.825 -66.4572 29.2737C-65.6854 28.7003 -64.9356 28.4137 -64.2078 28.4137H-60.2714C-58.2867 28.4137 -56.7761 29.4942 -55.7396 31.6554C-54.7031 33.8166 -52.3766 34.8972 -48.7599 34.8972L-37.1822 35.1287C-33.3009 35.1287 -31.3603 33.8607 -31.3603 31.3246C-31.3603 29.406 -33.731 27.8954 -38.4723 26.7928C-40.5894 26.2856 -42.927 25.7894 -45.4851 25.3042C-48.0432 24.797 -50.5903 24.1685 -53.1263 23.4187C-55.6404 22.6689 -57.9559 21.7868 -60.073 20.7724C-62.19 19.758 -63.9101 18.3686 -65.2333 16.6044C-66.5344 14.8181 -67.185 12.7231 -67.185 10.3194C-67.185 5.88679 -65.6082 2.47965 -62.4546 0.0979539C-59.3011 -2.30579 -53.8761 -3.50767 -46.1797 -3.50767L-37.7776 -3.30919C-33.2568 -3.30919 -29.1881 -2.1404 -25.5715 0.197191C-21.9328 2.51273 -20.1134 5.41266 -20.1134 8.89699C-20.1134 10.1981 -20.4993 11.1353 -21.2712 11.7087C-22.043 12.2821 -22.7818 12.5688 -23.4875 12.5688H-27.4239C-29.4086 12.5688 -30.9192 11.4882 -31.9557 9.32702C-32.9922 7.1438 -35.3188 6.05219 -38.9354 6.05219L-48.8922 5.85372C-52.7735 5.85372 -54.7141 7.12175 -54.7141 9.65781C-54.7141 11.0471 -53.4902 12.1828 -51.0424 13.065C-48.5725 13.9471 -45.5953 14.7299 -42.111 15.4136C-38.6046 16.0752 -35.0872 16.8801 -31.5588 17.8283C-28.0303 18.7766 -25.0422 20.3424 -22.5943 22.5256C-20.1244 24.6867 -18.8895 27.3882 -18.8895 30.63C-18.8895 35.0626 -20.4773 38.4807 -23.6529 40.8845C-26.8064 43.2662 -32.2204 44.457 -39.8947 44.457L-49.9177 44.2585C-54.4385 44.2585 -58.5182 43.1008 -62.1569 40.7852C-65.7956 38.4476 -67.615 35.5367 -67.615 32.0524ZM31.6554 39.2967C27.1566 43.2441 20.5408 45.2178 11.8079 45.2178C3.09708 45.2178 -3.51873 43.2441 -8.03954 39.2967C-12.5604 35.3272 -14.8208 29.0532 -14.8208 20.4747C-14.8208 11.8962 -12.5604 5.63319 -8.03954 1.68575C-3.51873 -2.26169 3.09708 -4.23541 11.8079 -4.23541C20.5408 -4.23541 27.1566 -2.26169 31.6554 1.68575C36.1762 5.63319 38.4366 11.8962 38.4366 20.4747C38.4366 29.0532 36.1762 35.3272 31.6554 39.2967ZM22.6248 8.66544C20.3974 6.01911 16.7918 4.69595 11.8079 4.69595C6.84605 4.69595 3.24043 6.01911 0.991049 8.66544C-1.23628 11.3118 -2.34994 15.2592 -2.34994 20.5078C-2.34994 25.7342 -1.23628 29.6707 0.991049 32.317C3.24043 34.9413 6.84605 36.2534 11.8079 36.2534C16.7918 36.2534 20.3974 34.9413 22.6248 32.317C24.8521 29.6707 25.9658 25.7342 25.9658 20.5078C25.9658 15.2592 24.8521 11.3118 22.6248 8.66544ZM39.5282 -1.65524C39.5282 -2.71377 40.1016 -3.24303 41.2483 -3.24303H47.5333C50.0253 -3.24303 51.9439 -2.19553 53.2891 -0.100521L64.0067 16.4059L74.6913 -0.100521C76.0585 -2.19553 77.9771 -3.24303 80.447 -3.24303H86.7651C87.8898 -3.24303 88.4522 -2.71377 88.4522 -1.65524C88.4522 -1.17008 88.2757 -0.651839 87.9229 -0.100521L70.2256 27.2559V41.1491C70.2256 42.0092 69.9168 42.7369 69.2994 43.3323C68.7039 43.9057 67.9762 44.1924 67.1162 44.1924H60.8973C60.0372 44.1924 59.2985 43.9057 58.681 43.3323C58.0635 42.7369 57.7548 42.0092 57.7548 41.1491V27.2559L40.0905 -0.100521C39.7156 -0.651839 39.5282 -1.17008 39.5282 -1.65524ZM143.132 42.77C143.132 43.7182 142.57 44.1924 141.445 44.1924H133.506C132.668 44.1924 131.742 43.8947 130.727 43.2992C129.735 42.6818 128.974 41.943 128.445 41.0829L122.821 32.2839C120.506 28.6673 117.705 26.8589 114.419 26.8589H106.348V41.0829C106.348 41.943 106.039 42.6818 105.422 43.2992C104.826 43.8947 104.099 44.1924 103.239 44.1924H97.0196C96.1596 44.1924 95.4208 43.8947 94.8033 43.2992C94.1859 42.6818 93.8771 41.943 93.8771 41.0829V-0.100521C93.8771 -0.960577 94.1748 -1.69934 94.7703 -2.31682C95.3657 -2.9343 96.0934 -3.24303 96.9535 -3.24303H124.244C129.294 -3.24303 133.429 -1.88679 136.648 0.825694C139.89 3.53818 141.511 7.19893 141.511 11.808C141.511 18.2253 137.354 22.2499 129.04 23.8818C130.363 24.367 131.587 25.205 132.712 26.3958C133.837 27.5646 135.127 29.2737 136.582 31.5231L142.603 41.0829C142.955 41.7004 143.132 42.2628 143.132 42.77ZM106.348 17.4976H120.44C122.711 17.4976 124.707 17.0455 126.427 16.1413C128.169 15.2372 129.04 13.7927 129.04 11.808C129.04 9.82321 128.169 8.37875 126.427 7.47459C124.707 6.57043 122.711 6.11835 120.44 6.11835H106.348V17.4976ZM148.656 41.0168V-0.166679C148.656 -1.02674 148.965 -1.75448 149.582 -2.3499C150.2 -2.94532 150.939 -3.24303 151.799 -3.24303H189.939C190.799 -3.24303 191.527 -2.9343 192.122 -2.31682C192.74 -1.69934 193.048 -0.960577 193.048 -0.100521V3.00891C193.048 3.86897 192.74 4.60774 192.122 5.22521C191.527 5.82064 190.799 6.11835 189.939 6.11835H161.127V15.7444H185.936C186.796 15.7444 187.524 16.0531 188.119 16.6706C188.737 17.266 189.046 17.9937 189.046 18.8538V21.9632C189.046 22.8233 188.737 23.5621 188.119 24.1795C187.524 24.775 186.796 25.0727 185.936 25.0727H161.127V34.831H189.873C190.711 34.831 191.427 35.1287 192.023 35.7241C192.618 36.3196 192.916 37.0473 192.916 37.9074V41.0829C192.916 41.943 192.607 42.6818 191.99 43.2992C191.372 43.8947 190.633 44.1924 189.773 44.1924H151.799C150.939 44.1924 150.2 43.8947 149.582 43.2992C148.965 42.6818 148.656 41.921 148.656 41.0168ZM195.298 -0.464391C195.165 -0.729023 195.099 -1.01571 195.099 -1.32445C195.099 -1.65524 195.298 -2.05219 195.695 -2.51529C196.114 -3.00045 196.698 -3.24303 197.448 -3.24303H204.692C206.412 -3.24303 207.724 -2.19553 208.629 -0.100521L221.43 28.4137L234.232 -0.100521C235.136 -2.17348 236.448 -3.22098 238.168 -3.24303H245.412C246.184 -3.24303 246.769 -3.00045 247.166 -2.51529C247.563 -2.05219 247.761 -1.65524 247.761 -1.32445C247.761 -1.01571 247.706 -0.729023 247.596 -0.464391L228.542 40.8183C227.506 43.0677 225.929 44.1924 223.812 44.1924H219.048C216.931 44.1924 215.355 43.0677 214.318 40.8183L195.298 -0.464391Z" fill="#001F3F"/>
<path d="M264.416 32.0524C264.416 30.7512 264.802 29.825 265.574 29.2737C266.346 28.7003 267.096 28.4137 267.823 28.4137H271.76C273.745 28.4137 275.255 29.4942 276.292 31.6554C277.328 33.8166 279.655 34.8972 283.271 34.8972L294.849 35.1287C298.73 35.1287 300.671 33.8607 300.671 31.3246C300.671 29.406 298.3 27.8954 293.559 26.7928C291.442 26.2856 289.104 25.7894 286.546 25.3042C283.988 24.797 281.441 24.1685 278.905 23.4187C276.391 22.6689 274.075 21.7868 271.958 20.7724C269.841 19.758 268.121 18.3686 266.798 16.6044C265.497 14.8181 264.846 12.7231 264.846 10.3194C264.846 5.88679 266.423 2.47965 269.577 0.0979539C272.73 -2.30579 278.155 -3.50767 285.852 -3.50767L294.254 -3.30919C298.774 -3.30919 302.843 -2.1404 306.46 0.197191C310.098 2.51273 311.918 5.41266 311.918 8.89699C311.918 10.1981 311.532 11.1353 310.76 11.7087C309.988 12.2821 309.249 12.5688 308.544 12.5688H304.607C302.623 12.5688 301.112 11.4882 300.076 9.32702C299.039 7.1438 296.712 6.05219 293.096 6.05219L283.139 5.85372C279.258 5.85372 277.317 7.12175 277.317 9.65781C277.317 11.0471 278.541 12.1828 280.989 13.065C283.459 13.9471 286.436 14.7299 289.92 15.4136C293.427 16.0752 296.944 16.8801 300.472 17.8283C304.001 18.7766 306.989 20.3424 309.437 22.5256C311.907 24.6867 313.142 27.3882 313.142 30.63C313.142 35.0626 311.554 38.4807 308.378 40.8845C305.225 43.2662 299.811 44.457 292.137 44.457L282.114 44.2585C277.593 44.2585 273.513 43.1008 269.874 40.7852C266.236 38.4476 264.416 35.5367 264.416 32.0524ZM363.687 39.2967C359.188 43.2441 352.572 45.2178 343.839 45.2178C335.128 45.2178 328.513 43.2441 323.992 39.2967C319.471 35.3272 317.21 29.0532 317.21 20.4747C317.21 11.8962 319.471 5.63319 323.992 1.68575C328.513 -2.26169 335.128 -4.23541 343.839 -4.23541C352.572 -4.23541 359.188 -2.26169 363.687 1.68575C368.207 5.63319 370.468 11.8962 370.468 20.4747C370.468 29.0532 368.207 35.3272 363.687 39.2967ZM354.656 8.66544C352.429 6.01911 348.823 4.69595 343.839 4.69595C338.877 4.69595 335.272 6.01911 333.022 8.66544C330.795 11.3118 329.681 15.2592 329.681 20.5078C329.681 25.7342 330.795 29.6707 333.022 32.317C335.272 34.9413 338.877 36.2534 343.839 36.2534C348.823 36.2534 352.429 34.9413 354.656 32.317C356.883 29.6707 357.997 25.7342 357.997 20.5078C357.997 15.2592 356.883 11.3118 354.656 8.66544ZM371.559 -1.65524C371.559 -2.71377 372.133 -3.24303 373.28 -3.24303H379.565C382.057 -3.24303 383.975 -2.19553 385.32 -0.100521L396.038 16.4059L406.723 -0.100521C408.09 -2.19553 410.008 -3.24303 412.478 -3.24303H418.796C419.921 -3.24303 420.483 -2.71377 420.483 -1.65524C420.483 -1.17008 420.307 -0.651839 419.954 -0.100521L402.257 27.2559V41.1491C402.257 42.0092 401.948 42.7369 401.331 43.3323C400.735 43.9057 400.007 44.1924 399.147 44.1924H392.929C392.068 44.1924 391.33 43.9057 390.712 43.3323C390.095 42.7369 389.786 42.0092 389.786 41.1491V27.2559L372.122 -0.100521C371.747 -0.651839 371.559 -1.17008 371.559 -1.65524ZM475.163 42.77C475.163 43.7182 474.601 44.1924 473.476 44.1924H465.537C464.699 44.1924 463.773 43.8947 462.758 43.2992C461.766 42.6818 461.005 41.943 460.476 41.0829L454.853 32.2839C452.537 28.6673 449.736 26.8589 446.45 26.8589H438.379V41.0829C438.379 41.943 438.07 42.6818 437.453 43.2992C436.858 43.8947 436.13 44.1924 435.27 44.1924H429.051C428.191 44.1924 427.452 43.8947 426.835 43.2992C426.217 42.6818 425.908 41.943 425.908 41.0829V-0.100521C425.908 -0.960577 426.206 -1.69934 426.802 -2.31682C427.397 -2.9343 428.125 -3.24303 428.985 -3.24303H456.275C461.325 -3.24303 465.46 -1.88679 468.68 0.825694C471.921 3.53818 473.542 7.19893 473.542 11.808C473.542 18.2253 469.385 22.2499 461.071 23.8818C462.395 24.367 463.619 25.205 464.743 26.3958C465.868 27.5646 467.158 29.2737 468.613 31.5231L474.634 41.0829C474.987 41.7004 475.163 42.2628 475.163 42.77ZM438.379 17.4976H452.471C454.742 17.4976 456.738 17.0455 458.458 16.1413C460.2 15.2372 461.071 13.7927 461.071 11.808C461.071 9.82321 460.2 8.37875 458.458 7.47459C456.738 6.57043 454.742 6.11835 452.471 6.11835H438.379V17.4976ZM480.687 41.0168V-0.166679C480.687 -1.02674 480.996 -1.75448 481.614 -2.3499C482.231 -2.94532 482.97 -3.24303 483.83 -3.24303H521.97C522.83 -3.24303 523.558 -2.9343 524.153 -2.31682C524.771 -1.69934 525.08 -0.960577 525.08 -0.100521V3.00891C525.08 3.86897 524.771 4.60774 524.153 5.22521C523.558 5.82064 522.83 6.11835 521.97 6.11835H493.158V15.7444H517.968C518.828 15.7444 519.555 16.0531 520.151 16.6706C520.768 17.266 521.077 17.9937 521.077 18.8538V21.9632C521.077 22.8233 520.768 23.5621 520.151 24.1795C519.555 24.775 518.828 25.0727 517.968 25.0727H493.158V34.831H521.904C522.742 34.831 523.459 35.1287 524.054 35.7241C524.649 36.3196 524.947 37.0473 524.947 37.9074V41.0829C524.947 41.943 524.638 42.6818 524.021 43.2992C523.404 43.8947 522.665 44.1924 521.805 44.1924H483.83C482.97 44.1924 482.231 43.8947 481.614 43.2992C480.996 42.6818 480.687 41.921 480.687 41.0168ZM527.329 -0.464391C527.197 -0.729023 527.13 -1.01571 527.13 -1.32445C527.13 -1.65524 527.329 -2.05219 527.726 -2.51529C528.145 -3.00045 528.729 -3.24303 529.479 -3.24303H536.723C538.443 -3.24303 539.756 -2.19553 540.66 -0.100521L553.461 28.4137L566.263 -0.100521C567.167 -2.17348 568.479 -3.22098 570.199 -3.24303H577.444C578.216 -3.24303 578.8 -3.00045 579.197 -2.51529C579.594 -2.05219 579.792 -1.65524 579.792 -1.32445C579.792 -1.01571 579.737 -0.729023 579.627 -0.464391L560.573 40.8183C559.537 43.0677 557.96 44.1924 555.843 44.1924H551.08C548.963 44.1924 547.386 43.0677 546.349 40.8183L527.329 -0.464391Z" fill="#001F3F"/>
<path d="M-159.849 86.2496C-159.849 84.9485 -159.463 84.0223 -158.692 83.471C-157.92 82.8976 -157.17 82.6109 -156.442 82.6109H-152.506C-150.521 82.6109 -149.01 83.6915 -147.974 85.8527C-146.937 88.0138 -144.611 89.0944 -140.994 89.0944L-129.417 89.326C-125.535 89.326 -123.595 88.0579 -123.595 85.5219C-123.595 83.6033 -125.965 82.0927 -130.707 80.99C-132.824 80.4828 -135.161 79.9866 -137.719 79.5015C-140.278 78.9943 -142.825 78.3658 -145.361 77.616C-147.875 76.8662 -150.19 75.9841 -152.307 74.9697C-154.424 73.9552 -156.145 72.5659 -157.468 70.8017C-158.769 69.0154 -159.419 66.9204 -159.419 64.5167C-159.419 60.0841 -157.843 56.6769 -154.689 54.2952C-151.535 51.8915 -146.111 50.6896 -138.414 50.6896L-130.012 50.8881C-125.491 50.8881 -121.422 52.0569 -117.806 54.3945C-114.167 56.71 -112.348 59.6099 -112.348 63.0943C-112.348 64.3954 -112.734 65.3326 -113.506 65.906C-114.277 66.4794 -115.016 66.766 -115.722 66.766H-119.658C-121.643 66.766 -123.154 65.6855 -124.19 63.5243C-125.227 61.3411 -127.553 60.2495 -131.17 60.2495L-141.127 60.051C-145.008 60.051 -146.949 61.319 -146.949 63.8551C-146.949 65.2444 -145.725 66.3801 -143.277 67.2622C-140.807 68.1443 -137.83 68.9272 -134.345 69.6108C-130.839 70.2724 -127.322 71.0773 -123.793 72.0256C-120.265 72.9739 -117.277 74.5396 -114.829 76.7228C-112.359 78.884 -111.124 81.5855 -111.124 84.8272C-111.124 89.2598 -112.712 92.678 -115.887 95.0817C-119.041 97.4634 -124.455 98.6543 -132.129 98.6543L-142.152 98.4558C-146.673 98.4558 -150.753 97.298 -154.391 94.9825C-158.03 92.6449 -159.849 89.734 -159.849 86.2496ZM-60.579 93.4939C-65.0778 97.4414 -71.6936 99.4151 -80.4265 99.4151C-89.1373 99.4151 -95.7531 97.4414 -100.274 93.4939C-104.795 89.5245 -107.055 83.2505 -107.055 74.6719C-107.055 66.0934 -104.795 59.8305 -100.274 55.883C-95.7531 51.9356 -89.1373 49.9619 -80.4265 49.9619C-71.6936 49.9619 -65.0778 51.9356 -60.579 55.883C-56.0582 59.8305 -53.7978 66.0934 -53.7978 74.6719C-53.7978 83.2505 -56.0582 89.5245 -60.579 93.4939ZM-69.6096 62.8627C-71.8369 60.2164 -75.4425 58.8932 -80.4265 58.8932C-85.3883 58.8932 -88.9939 60.2164 -91.2433 62.8627C-93.4707 65.509 -94.5843 69.4565 -94.5843 74.705C-94.5843 79.9315 -93.4707 83.8679 -91.2433 86.5143C-88.9939 89.1385 -85.3883 90.4507 -80.4265 90.4507C-75.4425 90.4507 -71.8369 89.1385 -69.6096 86.5143C-67.3823 83.8679 -66.2686 79.9315 -66.2686 74.705C-66.2686 69.4565 -67.3823 65.509 -69.6096 62.8627ZM-52.7062 52.542C-52.7062 51.4835 -52.1328 50.9542 -50.9861 50.9542H-44.701C-42.2091 50.9542 -40.2905 52.0017 -38.9453 54.0967L-28.2277 70.6032L-17.5431 54.0967C-16.1758 52.0017 -14.2573 50.9542 -11.7873 50.9542H-5.46924C-4.34455 50.9542 -3.78221 51.4835 -3.78221 52.542C-3.78221 53.0272 -3.95863 53.5454 -4.31147 54.0967L-22.0088 81.4532V95.3464C-22.0088 96.2064 -22.3175 96.9342 -22.935 97.5296C-23.5304 98.103 -24.2582 98.3896 -25.1182 98.3896H-31.3371C-32.1971 98.3896 -32.9359 98.103 -33.5534 97.5296C-34.1709 96.9342 -34.4796 96.2064 -34.4796 95.3464V81.4532L-52.1438 54.0967C-52.5187 53.5454 -52.7062 53.0272 -52.7062 52.542ZM50.8975 96.9672C50.8975 97.9155 50.3352 98.3896 49.2105 98.3896H41.2715C40.4335 98.3896 39.5073 98.0919 38.4929 97.4965C37.5005 96.879 36.7397 96.1403 36.2104 95.2802L30.587 86.4812C28.2714 82.8645 25.4707 81.0562 22.1849 81.0562H14.1136V95.2802C14.1136 96.1403 13.8048 96.879 13.1874 97.4965C12.5919 98.0919 11.8642 98.3896 11.0041 98.3896H4.78527C3.92521 98.3896 3.18645 98.0919 2.56897 97.4965C1.95149 96.879 1.64276 96.1403 1.64276 95.2802V54.0967C1.64276 53.2367 1.94047 52.4979 2.53589 51.8804C3.13131 51.263 3.85905 50.9542 4.71911 50.9542H32.0094C37.0594 50.9542 41.1943 52.3105 44.414 55.023C47.6558 57.7354 49.2766 61.3962 49.2766 66.0052C49.2766 72.4226 45.1197 76.4472 36.8058 78.0791C38.129 78.5642 39.3529 79.4022 40.4776 80.5931C41.6023 81.7619 42.8924 83.471 44.3479 85.7204L50.3683 95.2802C50.7211 95.8977 50.8975 96.46 50.8975 96.9672ZM14.1136 71.6948H28.2053C30.4767 71.6948 32.4725 71.2427 34.1926 70.3386C35.9347 69.4344 36.8058 67.99 36.8058 66.0052C36.8058 64.0205 35.9347 62.576 34.1926 61.6719C32.4725 60.7677 30.4767 60.3156 28.2053 60.3156H14.1136V71.6948ZM56.4217 95.2141V54.0306C56.4217 53.1705 56.7305 52.4428 57.348 51.8474C57.9654 51.2519 58.7042 50.9542 59.5643 50.9542H97.7045C98.5645 50.9542 99.2922 51.263 99.8877 51.8804C100.505 52.4979 100.814 53.2367 100.814 54.0967V57.2062C100.814 58.0662 100.505 58.805 99.8877 59.4225C99.2922 60.0179 98.5645 60.3156 97.7045 60.3156H68.8926V69.9416H93.7019C94.5619 69.9416 95.2897 70.2504 95.8851 70.8678C96.5026 71.4633 96.8113 72.191 96.8113 73.0511V76.1605C96.8113 77.0206 96.5026 77.7593 95.8851 78.3768C95.2897 78.9722 94.5619 79.2699 93.7019 79.2699H68.8926V89.0283H97.6383C98.4763 89.0283 99.193 89.326 99.7884 89.9214C100.384 90.5168 100.682 91.2446 100.682 92.1046V95.2802C100.682 96.1403 100.373 96.879 99.7554 97.4965C99.1379 98.0919 98.3991 98.3896 97.5391 98.3896H59.5643C58.7042 98.3896 57.9654 98.0919 57.348 97.4965C56.7305 96.879 56.4217 96.1182 56.4217 95.2141ZM103.063 53.7329C102.931 53.4682 102.865 53.1816 102.865 52.8728C102.865 52.542 103.063 52.1451 103.46 51.682C103.879 51.1968 104.464 50.9542 105.213 50.9542H112.458C114.178 50.9542 115.49 52.0017 116.394 54.0967L129.196 82.6109L141.997 54.0967C142.902 52.0238 144.214 50.9763 145.934 50.9542H153.178C153.95 50.9542 154.534 51.1968 154.931 51.682C155.328 52.1451 155.527 52.542 155.527 52.8728C155.527 53.1816 155.472 53.4682 155.361 53.7329L136.308 95.0156C135.271 97.265 133.695 98.3896 131.577 98.3896H126.814C124.697 98.3896 123.12 97.265 122.084 95.0156L103.063 53.7329Z" fill="#001F3F"/>
<path d="M172.182 86.2496C172.182 84.9485 172.568 84.0223 173.34 83.471C174.112 82.8976 174.861 82.6109 175.589 82.6109H179.525C181.51 82.6109 183.021 83.6915 184.057 85.8527C185.094 88.0138 187.42 89.0944 191.037 89.0944L202.615 89.326C206.496 89.326 208.437 88.0579 208.437 85.5219C208.437 83.6033 206.066 82.0927 201.325 80.99C199.208 80.4828 196.87 79.9866 194.312 79.5015C191.754 78.9943 189.207 78.3658 186.671 77.616C184.157 76.8662 181.841 75.9841 179.724 74.9697C177.607 73.9552 175.887 72.5659 174.564 70.8017C173.262 69.0154 172.612 66.9204 172.612 64.5167C172.612 60.0841 174.189 56.6769 177.342 54.2952C180.496 51.8915 185.921 50.6896 193.617 50.6896L202.019 50.8881C206.54 50.8881 210.609 52.0569 214.225 54.3945C217.864 56.71 219.683 59.6099 219.683 63.0943C219.683 64.3954 219.298 65.3326 218.526 65.906C217.754 66.4794 217.015 66.766 216.309 66.766H212.373C210.388 66.766 208.878 65.6855 207.841 63.5243C206.805 61.3411 204.478 60.2495 200.861 60.2495L190.905 60.051C187.023 60.051 185.083 61.319 185.083 63.8551C185.083 65.2444 186.307 66.3801 188.755 67.2622C191.224 68.1443 194.202 68.9272 197.686 69.6108C201.192 70.2724 204.71 71.0773 208.238 72.0256C211.767 72.9739 214.755 74.5396 217.203 76.7228C219.672 78.884 220.907 81.5855 220.907 84.8272C220.907 89.2598 219.32 92.678 216.144 95.0817C212.99 97.4634 207.577 98.6543 199.902 98.6543L189.879 98.4558C185.358 98.4558 181.279 97.298 177.64 94.9825C174.001 92.6449 172.182 89.734 172.182 86.2496ZM271.452 93.4939C266.953 97.4414 260.338 99.4151 251.605 99.4151C242.894 99.4151 236.278 97.4414 231.757 93.4939C227.237 89.5245 224.976 83.2505 224.976 74.6719C224.976 66.0934 227.237 59.8305 231.757 55.883C236.278 51.9356 242.894 49.9619 251.605 49.9619C260.338 49.9619 266.953 51.9356 271.452 55.883C275.973 59.8305 278.233 66.0934 278.233 74.6719C278.233 83.2505 275.973 89.5245 271.452 93.4939ZM262.422 62.8627C260.194 60.2164 256.589 58.8932 251.605 58.8932C246.643 58.8932 243.037 60.2164 240.788 62.8627C238.561 65.509 237.447 69.4565 237.447 74.705C237.447 79.9315 238.561 83.8679 240.788 86.5143C243.037 89.1385 246.643 90.4507 251.605 90.4507C256.589 90.4507 260.194 89.1385 262.422 86.5143C264.649 83.8679 265.763 79.9315 265.763 74.705C265.763 69.4565 264.649 65.509 262.422 62.8627ZM279.325 52.542C279.325 51.4835 279.898 50.9542 281.045 50.9542H287.33C289.822 50.9542 291.741 52.0017 293.086 54.0967L303.804 70.6032L314.488 54.0967C315.855 52.0017 317.774 50.9542 320.244 50.9542H326.562C327.687 50.9542 328.249 51.4835 328.249 52.542C328.249 53.0272 328.073 53.5454 327.72 54.0967L310.022 81.4532V95.3464C310.022 96.2064 309.714 96.9342 309.096 97.5296C308.501 98.103 307.773 98.3896 306.913 98.3896H300.694C299.834 98.3896 299.095 98.103 298.478 97.5296C297.86 96.9342 297.552 96.2064 297.552 95.3464V81.4532L279.887 54.0967C279.513 53.5454 279.325 53.0272 279.325 52.542ZM382.929 96.9672C382.929 97.9155 382.366 98.3896 381.242 98.3896H373.303C372.465 98.3896 371.539 98.0919 370.524 97.4965C369.532 96.879 368.771 96.1403 368.242 95.2802L362.618 86.4812C360.303 82.8645 357.502 81.0562 354.216 81.0562H346.145V95.2802C346.145 96.1403 345.836 96.879 345.219 97.4965C344.623 98.0919 343.895 98.3896 343.035 98.3896H336.817C335.956 98.3896 335.218 98.0919 334.6 97.4965C333.983 96.879 333.674 96.1403 333.674 95.2802V54.0967C333.674 53.2367 333.972 52.4979 334.567 51.8804C335.163 51.263 335.89 50.9542 336.75 50.9542H364.041C369.091 50.9542 373.226 52.3105 376.445 55.023C379.687 57.7354 381.308 61.3962 381.308 66.0052C381.308 72.4226 377.151 76.4472 368.837 78.0791C370.16 78.5642 371.384 79.4022 372.509 80.5931C373.634 81.7619 374.924 83.471 376.379 85.7204L382.4 95.2802C382.752 95.8977 382.929 96.46 382.929 96.9672ZM346.145 71.6948H360.237C362.508 71.6948 364.504 71.2427 366.224 70.3386C367.966 69.4344 368.837 67.99 368.837 66.0052C368.837 64.0205 367.966 62.576 366.224 61.6719C364.504 60.7677 362.508 60.3156 360.237 60.3156H346.145V71.6948ZM388.453 95.2141V54.0306C388.453 53.1705 388.762 52.4428 389.379 51.8474C389.997 51.2519 390.735 50.9542 391.596 50.9542H429.736C430.596 50.9542 431.323 51.263 431.919 51.8804C432.536 52.4979 432.845 53.2367 432.845 54.0967V57.2062C432.845 58.0662 432.536 58.805 431.919 59.4225C431.323 60.0179 430.596 60.3156 429.736 60.3156H400.924V69.9416H425.733C426.593 69.9416 427.321 70.2504 427.916 70.8678C428.534 71.4633 428.843 72.191 428.843 73.0511V76.1605C428.843 77.0206 428.534 77.7593 427.916 78.3768C427.321 78.9722 426.593 79.2699 425.733 79.2699H400.924V89.0283H429.67C430.508 89.0283 431.224 89.326 431.82 89.9214C432.415 90.5168 432.713 91.2446 432.713 92.1046V95.2802C432.713 96.1403 432.404 96.879 431.787 97.4965C431.169 98.0919 430.43 98.3896 429.57 98.3896H391.596C390.735 98.3896 389.997 98.0919 389.379 97.4965C388.762 96.879 388.453 96.1182 388.453 95.2141ZM435.095 53.7329C434.962 53.4682 434.896 53.1816 434.896 52.8728C434.896 52.542 435.095 52.1451 435.491 51.682C435.91 51.1968 436.495 50.9542 437.245 50.9542H444.489C446.209 50.9542 447.521 52.0017 448.425 54.0967L461.227 82.6109L474.029 54.0967C474.933 52.0238 476.245 50.9763 477.965 50.9542H485.209C485.981 50.9542 486.566 51.1968 486.963 51.682C487.359 52.1451 487.558 52.542 487.558 52.8728C487.558 53.1816 487.503 53.4682 487.393 53.7329L468.339 95.0156C467.303 97.265 465.726 98.3896 463.609 98.3896H458.845C456.728 98.3896 455.151 97.265 454.115 95.0156L435.095 53.7329Z" fill="#001F3F"/>
<path d="M-79.0212 142.826C-79.0212 141.525 -78.6353 140.598 -77.8635 140.047C-77.0916 139.474 -76.3418 139.187 -75.6141 139.187H-71.6777C-69.6929 139.187 -68.1823 140.268 -67.1458 142.429C-66.1094 144.59 -63.7828 145.671 -60.1662 145.671L-48.5885 145.902C-44.7072 145.902 -42.7666 144.634 -42.7666 142.098C-42.7666 140.179 -45.1372 138.669 -49.8786 137.566C-51.9956 137.059 -54.3332 136.563 -56.8913 136.078C-59.4494 135.57 -61.9965 134.942 -64.5326 134.192C-67.0466 133.442 -69.3621 132.56 -71.4792 131.546C-73.5963 130.531 -75.3164 129.142 -76.6395 127.378C-77.9407 125.592 -78.5912 123.497 -78.5912 121.093C-78.5912 116.66 -77.0144 113.253 -73.8609 110.871C-70.7074 108.468 -65.2824 107.266 -57.586 107.266L-49.1839 107.464C-44.6631 107.464 -40.5944 108.633 -36.9777 110.971C-33.339 113.286 -31.5197 116.186 -31.5197 119.67C-31.5197 120.972 -31.9056 121.909 -32.6774 122.482C-33.4493 123.056 -34.188 123.342 -34.8937 123.342H-38.8301C-40.8149 123.342 -42.3255 122.262 -43.362 120.1C-44.3985 117.917 -46.725 116.826 -50.3417 116.826L-60.2985 116.627C-64.1798 116.627 -66.1204 117.895 -66.1204 120.431C-66.1204 121.821 -64.8965 122.956 -62.4486 123.838C-59.9787 124.721 -57.0016 125.503 -53.5173 126.187C-50.0109 126.849 -46.4935 127.654 -42.965 128.602C-39.4366 129.55 -36.4484 131.116 -34.0006 133.299C-31.5307 135.46 -30.2957 138.162 -30.2957 141.403C-30.2957 145.836 -31.8835 149.254 -35.0591 151.658C-38.2127 154.04 -43.6266 155.23 -51.301 155.23L-61.3239 155.032C-65.8447 155.032 -69.9245 153.874 -73.5632 151.559C-77.2019 149.221 -79.0212 146.31 -79.0212 142.826ZM20.2491 150.07C15.7504 154.018 9.13454 155.991 0.401662 155.991C-8.30917 155.991 -14.925 154.018 -19.4458 150.07C-23.9666 146.101 -26.227 139.827 -26.227 131.248C-26.227 122.67 -23.9666 116.407 -19.4458 112.459C-14.925 108.512 -8.30917 106.538 0.401662 106.538C9.13454 106.538 15.7504 108.512 20.2491 112.459C24.7699 116.407 27.0303 122.67 27.0303 131.248C27.0303 139.827 24.7699 146.101 20.2491 150.07ZM11.2185 119.439C8.9912 116.793 5.38558 115.469 0.401662 115.469C-4.5602 115.469 -8.16582 116.793 -10.4152 119.439C-12.6425 122.085 -13.7562 126.033 -13.7562 131.281C-13.7562 136.508 -12.6425 140.444 -10.4152 143.09C-8.16582 145.715 -4.5602 147.027 0.401662 147.027C5.38558 147.027 8.9912 145.715 11.2185 143.09C13.4459 140.444 14.5595 136.508 14.5595 131.281C14.5595 126.033 13.4459 122.085 11.2185 119.439ZM28.1219 109.118C28.1219 108.06 28.6953 107.53 29.8421 107.53H36.1271C38.619 107.53 40.5376 108.578 41.8828 110.673L52.6005 127.179L63.285 110.673C64.6523 108.578 66.5709 107.53 69.0408 107.53H75.3589C76.4836 107.53 77.0459 108.06 77.0459 109.118C77.0459 109.603 76.8695 110.122 76.5167 110.673L58.8193 138.029V151.923C58.8193 152.783 58.5106 153.51 57.8931 154.106C57.2977 154.679 56.57 154.966 55.7099 154.966H49.491C48.631 154.966 47.8922 154.679 47.2747 154.106C46.6573 153.51 46.3485 152.783 46.3485 151.923V138.029L28.6843 110.673C28.3094 110.122 28.1219 109.603 28.1219 109.118ZM131.726 153.543C131.726 154.492 131.163 154.966 130.039 154.966H122.1C121.262 154.966 120.335 154.668 119.321 154.073C118.329 153.455 117.568 152.716 117.039 151.856L111.415 143.057C109.1 139.441 106.299 137.632 103.013 137.632H94.9417V151.856C94.9417 152.716 94.633 153.455 94.0155 154.073C93.4201 154.668 92.6923 154.966 91.8323 154.966H85.6134C84.7533 154.966 84.0146 154.668 83.3971 154.073C82.7796 153.455 82.4709 152.716 82.4709 151.856V110.673C82.4709 109.813 82.7686 109.074 83.364 108.457C83.9594 107.839 84.6872 107.53 85.5472 107.53H112.837C117.888 107.53 122.022 108.887 125.242 111.599C128.484 114.312 130.105 117.972 130.105 122.581C130.105 128.999 125.948 133.023 117.634 134.655C118.957 135.14 120.181 135.978 121.306 137.169C122.43 138.338 123.721 140.047 125.176 142.297L131.196 151.856C131.549 152.474 131.726 153.036 131.726 153.543ZM94.9417 128.271H109.033C111.305 128.271 113.301 127.819 115.021 126.915C116.763 126.011 117.634 124.566 117.634 122.581C117.634 120.597 116.763 119.152 115.021 118.248C113.301 117.344 111.305 116.892 109.033 116.892H94.9417V128.271ZM137.25 151.79V110.607C137.25 109.747 137.559 109.019 138.176 108.424C138.794 107.828 139.532 107.53 140.392 107.53H178.533C179.393 107.53 180.12 107.839 180.716 108.457C181.333 109.074 181.642 109.813 181.642 110.673V113.782C181.642 114.642 181.333 115.381 180.716 115.999C180.12 116.594 179.393 116.892 178.533 116.892H149.721V126.518H174.53C175.39 126.518 176.118 126.827 176.713 127.444C177.331 128.039 177.639 128.767 177.639 129.627V132.737C177.639 133.597 177.331 134.335 176.713 134.953C176.118 135.548 175.39 135.846 174.53 135.846H149.721V145.604H178.466C179.304 145.604 180.021 145.902 180.617 146.498C181.212 147.093 181.51 147.821 181.51 148.681V151.856C181.51 152.716 181.201 153.455 180.583 154.073C179.966 154.668 179.227 154.966 178.367 154.966H140.392C139.532 154.966 138.794 154.668 138.176 154.073C137.559 153.455 137.25 152.694 137.25 151.79ZM183.891 110.309C183.759 110.044 183.693 109.758 183.693 109.449C183.693 109.118 183.891 108.721 184.288 108.258C184.707 107.773 185.292 107.53 186.042 107.53H193.286C195.006 107.53 196.318 108.578 197.222 110.673L210.024 139.187L222.825 110.673C223.73 108.6 225.042 107.552 226.762 107.53H234.006C234.778 107.53 235.362 107.773 235.759 108.258C236.156 108.721 236.355 109.118 236.355 109.449C236.355 109.758 236.3 110.044 236.189 110.309L217.136 151.592C216.099 153.841 214.523 154.966 212.406 154.966H207.642C205.525 154.966 203.948 153.841 202.912 151.592L183.891 110.309Z" fill="#001F3F"/>
<path d="M253.01 142.826C253.01 141.525 253.396 140.598 254.168 140.047C254.94 139.474 255.689 139.187 256.417 139.187H260.354C262.338 139.187 263.849 140.268 264.885 142.429C265.922 144.59 268.248 145.671 271.865 145.671L283.443 145.902C287.324 145.902 289.265 144.634 289.265 142.098C289.265 140.179 286.894 138.669 282.153 137.566C280.036 137.059 277.698 136.563 275.14 136.078C272.582 135.57 270.035 134.942 267.499 134.192C264.985 133.442 262.669 132.56 260.552 131.546C258.435 130.531 256.715 129.142 255.392 127.378C254.091 125.592 253.44 123.497 253.44 121.093C253.44 116.66 255.017 113.253 258.17 110.871C261.324 108.468 266.749 107.266 274.445 107.266L282.847 107.464C287.368 107.464 291.437 108.633 295.054 110.971C298.692 113.286 300.512 116.186 300.512 119.67C300.512 120.972 300.126 121.909 299.354 122.482C298.582 123.056 297.843 123.342 297.138 123.342H293.201C291.216 123.342 289.706 122.262 288.669 120.1C287.633 117.917 285.306 116.826 281.69 116.826L271.733 116.627C267.851 116.627 265.911 117.895 265.911 120.431C265.911 121.821 267.135 122.956 269.583 123.838C272.053 124.721 275.03 125.503 278.514 126.187C282.02 126.849 285.538 127.654 289.066 128.602C292.595 129.55 295.583 131.116 298.031 133.299C300.501 135.46 301.736 138.162 301.736 141.403C301.736 145.836 300.148 149.254 296.972 151.658C293.819 154.04 288.405 155.23 280.73 155.23L270.707 155.032C266.187 155.032 262.107 153.874 258.468 151.559C254.829 149.221 253.01 146.31 253.01 142.826ZM352.28 150.07C347.782 154.018 341.166 155.991 332.433 155.991C323.722 155.991 317.106 154.018 312.585 150.07C308.065 146.101 305.804 139.827 305.804 131.248C305.804 122.67 308.065 116.407 312.585 112.459C317.106 108.512 323.722 106.538 332.433 106.538C341.166 106.538 347.782 108.512 352.28 112.459C356.801 116.407 359.062 122.67 359.062 131.248C359.062 139.827 356.801 146.101 352.28 150.07ZM343.25 119.439C341.022 116.793 337.417 115.469 332.433 115.469C327.471 115.469 323.865 116.793 321.616 119.439C319.389 122.085 318.275 126.033 318.275 131.281C318.275 136.508 319.389 140.444 321.616 143.09C323.865 145.715 327.471 147.027 332.433 147.027C337.417 147.027 341.022 145.715 343.25 143.09C345.477 140.444 346.591 136.508 346.591 131.281C346.591 126.033 345.477 122.085 343.25 119.439ZM360.153 109.118C360.153 108.06 360.727 107.53 361.873 107.53H368.158C370.65 107.53 372.569 108.578 373.914 110.673L384.632 127.179L395.316 110.673C396.684 108.578 398.602 107.53 401.072 107.53H407.39C408.515 107.53 409.077 108.06 409.077 109.118C409.077 109.603 408.901 110.122 408.548 110.673L390.851 138.029V151.923C390.851 152.783 390.542 153.51 389.924 154.106C389.329 154.679 388.601 154.966 387.741 154.966H381.522C380.662 154.966 379.923 154.679 379.306 154.106C378.689 153.51 378.38 152.783 378.38 151.923V138.029L360.716 110.673C360.341 110.122 360.153 109.603 360.153 109.118ZM463.757 153.543C463.757 154.492 463.195 154.966 462.07 154.966H454.131C453.293 154.966 452.367 154.668 451.352 154.073C450.36 153.455 449.599 152.716 449.07 151.856L443.446 143.057C441.131 139.441 438.33 137.632 435.044 137.632H426.973V151.856C426.973 152.716 426.664 153.455 426.047 154.073C425.451 154.668 424.724 154.966 423.864 154.966H417.645C416.785 154.966 416.046 154.668 415.428 154.073C414.811 153.455 414.502 152.716 414.502 151.856V110.673C414.502 109.813 414.8 109.074 415.395 108.457C415.991 107.839 416.718 107.53 417.578 107.53H444.869C449.919 107.53 454.054 108.887 457.273 111.599C460.515 114.312 462.136 117.972 462.136 122.581C462.136 128.999 457.979 133.023 449.665 134.655C450.988 135.14 452.212 135.978 453.337 137.169C454.462 138.338 455.752 140.047 457.207 142.297L463.228 151.856C463.58 152.474 463.757 153.036 463.757 153.543ZM426.973 128.271H441.065C443.336 128.271 445.332 127.819 447.052 126.915C448.794 126.011 449.665 124.566 449.665 122.581C449.665 120.597 448.794 119.152 447.052 118.248C445.332 117.344 443.336 116.892 441.065 116.892H426.973V128.271ZM469.281 151.79V110.607C469.281 109.747 469.59 109.019 470.207 108.424C470.825 107.828 471.564 107.53 472.424 107.53H510.564C511.424 107.53 512.152 107.839 512.747 108.457C513.365 109.074 513.673 109.813 513.673 110.673V113.782C513.673 114.642 513.365 115.381 512.747 115.999C512.152 116.594 511.424 116.892 510.564 116.892H481.752V126.518H506.561C507.421 126.518 508.149 126.827 508.744 127.444C509.362 128.039 509.671 128.767 509.671 129.627V132.737C509.671 133.597 509.362 134.335 508.744 134.953C508.149 135.548 507.421 135.846 506.561 135.846H481.752V145.604H510.498C511.336 145.604 512.052 145.902 512.648 146.498C513.243 147.093 513.541 147.821 513.541 148.681V151.856C513.541 152.716 513.232 153.455 512.615 154.073C511.997 154.668 511.258 154.966 510.398 154.966H472.424C471.564 154.966 470.825 154.668 470.207 154.073C469.59 153.455 469.281 152.694 469.281 151.79ZM515.923 110.309C515.79 110.044 515.724 109.758 515.724 109.449C515.724 109.118 515.923 108.721 516.32 108.258C516.739 107.773 517.323 107.53 518.073 107.53H525.317C527.037 107.53 528.349 108.578 529.254 110.673L542.055 139.187L554.857 110.673C555.761 108.6 557.073 107.552 558.793 107.53H566.037C566.809 107.53 567.394 107.773 567.791 108.258C568.188 108.721 568.386 109.118 568.386 109.449C568.386 109.758 568.331 110.044 568.221 110.309L549.167 151.592C548.131 153.841 546.554 154.966 544.437 154.966H539.673C537.556 154.966 535.98 153.841 534.943 151.592L515.923 110.309Z" fill="#001F3F"/>
<path d="M-230.927 196.634C-230.927 195.333 -230.542 194.407 -229.77 193.855C-228.998 193.282 -228.248 192.995 -227.52 192.995H-223.584C-221.599 192.995 -220.089 194.076 -219.052 196.237C-218.016 198.398 -215.689 199.479 -212.072 199.479L-200.495 199.71C-196.613 199.71 -194.673 198.442 -194.673 195.906C-194.673 193.988 -197.043 192.477 -201.785 191.374C-203.902 190.867 -206.239 190.371 -208.798 189.886C-211.356 189.379 -213.903 188.75 -216.439 188C-218.953 187.25 -221.268 186.368 -223.385 185.354C-225.503 184.34 -227.223 182.95 -228.546 181.186C-229.847 179.4 -230.497 177.305 -230.497 174.901C-230.497 170.468 -228.921 167.061 -225.767 164.679C-222.614 162.276 -217.189 161.074 -209.492 161.074L-201.09 161.272C-196.569 161.272 -192.501 162.441 -188.884 164.779C-185.245 167.094 -183.426 169.994 -183.426 173.479C-183.426 174.78 -183.812 175.717 -184.584 176.29C-185.356 176.864 -186.094 177.15 -186.8 177.15H-190.736C-192.721 177.15 -194.232 176.07 -195.268 173.909C-196.305 171.725 -198.631 170.634 -202.248 170.634L-212.205 170.435C-216.086 170.435 -218.027 171.703 -218.027 174.239C-218.027 175.629 -216.803 176.764 -214.355 177.647C-211.885 178.529 -208.908 179.311 -205.424 179.995C-201.917 180.657 -198.4 181.462 -194.871 182.41C-191.343 183.358 -188.355 184.924 -185.907 187.107C-183.437 189.268 -182.202 191.97 -182.202 195.211C-182.202 199.644 -183.79 203.062 -186.965 205.466C-190.119 207.848 -195.533 209.039 -203.207 209.039L-213.23 208.84C-217.751 208.84 -221.831 207.682 -225.469 205.367C-229.108 203.029 -230.927 200.118 -230.927 196.634ZM-131.657 203.878C-136.156 207.826 -142.772 209.799 -151.505 209.799C-160.215 209.799 -166.831 207.826 -171.352 203.878C-175.873 199.909 -178.133 193.635 -178.133 185.056C-178.133 176.478 -175.873 170.215 -171.352 166.267C-166.831 162.32 -160.215 160.346 -151.505 160.346C-142.772 160.346 -136.156 162.32 -131.657 166.267C-127.136 170.215 -124.876 176.478 -124.876 185.056C-124.876 193.635 -127.136 199.909 -131.657 203.878ZM-140.688 173.247C-142.915 170.601 -146.521 169.277 -151.505 169.277C-156.466 169.277 -160.072 170.601 -162.321 173.247C-164.549 175.893 -165.662 179.841 -165.662 185.089C-165.662 190.316 -164.549 194.252 -162.321 196.899C-160.072 199.523 -156.466 200.835 -151.505 200.835C-146.521 200.835 -142.915 199.523 -140.688 196.899C-138.46 194.252 -137.347 190.316 -137.347 185.089C-137.347 179.841 -138.46 175.893 -140.688 173.247ZM-123.784 162.926C-123.784 161.868 -123.211 161.339 -122.064 161.339H-115.779C-113.287 161.339 -111.369 162.386 -110.023 164.481L-99.3058 180.987L-88.6212 164.481C-87.254 162.386 -85.3354 161.339 -82.8655 161.339H-76.5474C-75.4227 161.339 -74.8603 161.868 -74.8603 162.926C-74.8603 163.411 -75.0368 163.93 -75.3896 164.481L-93.0869 191.837V205.731C-93.0869 206.591 -93.3957 207.318 -94.0131 207.914C-94.6086 208.487 -95.3363 208.774 -96.1963 208.774H-102.415C-103.275 208.774 -104.014 208.487 -104.632 207.914C-105.249 207.318 -105.558 206.591 -105.558 205.731V191.837L-123.222 164.481C-123.597 163.93 -123.784 163.411 -123.784 162.926ZM-20.1806 207.352C-20.1806 208.3 -20.7429 208.774 -21.8676 208.774H-29.8066C-30.6446 208.774 -31.5708 208.476 -32.5853 207.881C-33.5776 207.263 -34.3385 206.525 -34.8677 205.664L-40.4912 196.865C-42.8067 193.249 -45.6074 191.44 -48.8933 191.44H-56.9646V205.664C-56.9646 206.525 -57.2733 207.263 -57.8908 207.881C-58.4862 208.476 -59.2139 208.774 -60.074 208.774H-66.2929C-67.1529 208.774 -67.8917 208.476 -68.5092 207.881C-69.1266 207.263 -69.4354 206.525 -69.4354 205.664V164.481C-69.4354 163.621 -69.1377 162.882 -68.5422 162.265C-67.9468 161.647 -67.2191 161.339 -66.359 161.339H-39.0688C-34.0187 161.339 -29.8838 162.695 -26.6641 165.407C-23.4224 168.12 -21.8015 171.78 -21.8015 176.389C-21.8015 182.807 -25.9584 186.831 -34.2723 188.463C-32.9491 188.949 -31.7252 189.787 -30.6005 190.977C-29.4758 192.146 -28.1857 193.855 -26.7303 196.105L-20.7099 205.664C-20.357 206.282 -20.1806 206.844 -20.1806 207.352ZM-56.9646 182.079H-42.8729C-40.6014 182.079 -38.6057 181.627 -36.8855 180.723C-35.1434 179.819 -34.2723 178.374 -34.2723 176.389C-34.2723 174.405 -35.1434 172.96 -36.8855 172.056C-38.6057 171.152 -40.6014 170.7 -42.8729 170.7H-56.9646V182.079ZM-14.6564 205.598V164.415C-14.6564 163.555 -14.3476 162.827 -13.7302 162.232C-13.1127 161.636 -12.3739 161.339 -11.5139 161.339H26.6263C27.4864 161.339 28.2141 161.647 28.8095 162.265C29.427 162.882 29.7358 163.621 29.7358 164.481V167.59C29.7358 168.451 29.427 169.189 28.8095 169.807C28.2141 170.402 27.4864 170.7 26.6263 170.7H-2.18556V180.326H22.6238C23.4838 180.326 24.2116 180.635 24.807 181.252C25.4245 181.848 25.7332 182.575 25.7332 183.435V186.545C25.7332 187.405 25.4245 188.144 24.807 188.761C24.2116 189.356 23.4838 189.654 22.6238 189.654H-2.18556V199.413H26.5602C27.3982 199.413 28.1149 199.71 28.7103 200.306C29.3057 200.901 29.6034 201.629 29.6034 202.489V205.664C29.6034 206.525 29.2947 207.263 28.6772 207.881C28.0598 208.476 27.321 208.774 26.4609 208.774H-11.5139C-12.3739 208.774 -13.1127 208.476 -13.7302 207.881C-14.3476 207.263 -14.6564 206.502 -14.6564 205.598ZM31.9851 164.117C31.8528 163.853 31.7867 163.566 31.7867 163.257C31.7867 162.926 31.9851 162.529 32.3821 162.066C32.8011 161.581 33.3855 161.339 34.1353 161.339H41.3796C43.0997 161.339 44.4119 162.386 45.316 164.481L58.1176 192.995L70.9192 164.481C71.8234 162.408 73.1355 161.361 74.8556 161.339H82.1C82.8718 161.339 83.4562 161.581 83.8532 162.066C84.2501 162.529 84.4486 162.926 84.4486 163.257C84.4486 163.566 84.3935 163.853 84.2832 164.117L65.2296 205.4C64.1932 207.649 62.6164 208.774 60.4993 208.774H55.7359C53.6189 208.774 52.0421 207.649 51.0056 205.4L31.9851 164.117Z" fill="#001F3F"/>
<path d="M101.104 196.634C101.104 195.333 101.49 194.407 102.262 193.855C103.033 193.282 103.783 192.995 104.511 192.995H108.447C110.432 192.995 111.943 194.076 112.979 196.237C114.016 198.398 116.342 199.479 119.959 199.479L131.537 199.71C135.418 199.71 137.358 198.442 137.358 195.906C137.358 193.988 134.988 192.477 130.246 191.374C128.129 190.867 125.792 190.371 123.234 189.886C120.676 189.379 118.128 188.75 115.592 188C113.078 187.25 110.763 186.368 108.646 185.354C106.529 184.34 104.809 182.95 103.485 181.186C102.184 179.4 101.534 177.305 101.534 174.901C101.534 170.468 103.111 167.061 106.264 164.679C109.418 162.276 114.843 161.074 122.539 161.074L130.941 161.272C135.462 161.272 139.531 162.441 143.147 164.779C146.786 167.094 148.605 169.994 148.605 173.479C148.605 174.78 148.219 175.717 147.448 176.29C146.676 176.864 145.937 177.15 145.231 177.15H141.295C139.31 177.15 137.8 176.07 136.763 173.909C135.727 171.725 133.4 170.634 129.783 170.634L119.827 170.435C115.945 170.435 114.005 171.703 114.005 174.239C114.005 175.629 115.229 176.764 117.676 177.647C120.146 178.529 123.123 179.311 126.608 179.995C130.114 180.657 133.632 181.462 137.16 182.41C140.688 183.358 143.677 184.924 146.124 187.107C148.594 189.268 149.829 191.97 149.829 195.211C149.829 199.644 148.241 203.062 145.066 205.466C141.912 207.848 136.498 209.039 128.824 209.039L118.801 208.84C114.28 208.84 110.201 207.682 106.562 205.367C102.923 203.029 101.104 200.118 101.104 196.634ZM200.374 203.878C195.875 207.826 189.26 209.799 180.527 209.799C171.816 209.799 165.2 207.826 160.679 203.878C156.158 199.909 153.898 193.635 153.898 185.056C153.898 176.478 156.158 170.215 160.679 166.267C165.2 162.32 171.816 160.346 180.527 160.346C189.26 160.346 195.875 162.32 200.374 166.267C204.895 170.215 207.155 176.478 207.155 185.056C207.155 193.635 204.895 199.909 200.374 203.878ZM191.344 173.247C189.116 170.601 185.511 169.277 180.527 169.277C175.565 169.277 171.959 170.601 169.71 173.247C167.482 175.893 166.369 179.841 166.369 185.089C166.369 190.316 167.482 194.252 169.71 196.899C171.959 199.523 175.565 200.835 180.527 200.835C185.511 200.835 189.116 199.523 191.344 196.899C193.571 194.252 194.685 190.316 194.685 185.089C194.685 179.841 193.571 175.893 191.344 173.247ZM208.247 162.926C208.247 161.868 208.82 161.339 209.967 161.339H216.252C218.744 161.339 220.663 162.386 222.008 164.481L232.725 180.987L243.41 164.481C244.777 162.386 246.696 161.339 249.166 161.339H255.484C256.609 161.339 257.171 161.868 257.171 162.926C257.171 163.411 256.994 163.93 256.642 164.481L238.944 191.837V205.731C238.944 206.591 238.636 207.318 238.018 207.914C237.423 208.487 236.695 208.774 235.835 208.774H229.616C228.756 208.774 228.017 208.487 227.4 207.914C226.782 207.318 226.474 206.591 226.474 205.731V191.837L208.809 164.481C208.434 163.93 208.247 163.411 208.247 162.926ZM311.851 207.352C311.851 208.3 311.288 208.774 310.164 208.774H302.225C301.387 208.774 300.46 208.476 299.446 207.881C298.454 207.263 297.693 206.525 297.164 205.664L291.54 196.865C289.225 193.249 286.424 191.44 283.138 191.44H275.067V205.664C275.067 206.525 274.758 207.263 274.14 207.881C273.545 208.476 272.817 208.774 271.957 208.774H265.738C264.878 208.774 264.14 208.476 263.522 207.881C262.905 207.263 262.596 206.525 262.596 205.664V164.481C262.596 163.621 262.894 162.882 263.489 162.265C264.084 161.647 264.812 161.339 265.672 161.339H292.962C298.013 161.339 302.147 162.695 305.367 165.407C308.609 168.12 310.23 171.78 310.23 176.389C310.23 182.807 306.073 186.831 297.759 188.463C299.082 188.949 300.306 189.787 301.431 190.977C302.555 192.146 303.846 193.855 305.301 196.105L311.321 205.664C311.674 206.282 311.851 206.844 311.851 207.352ZM275.067 182.079H289.158C291.43 182.079 293.426 181.627 295.146 180.723C296.888 179.819 297.759 178.374 297.759 176.389C297.759 174.405 296.888 172.96 295.146 172.056C293.426 171.152 291.43 170.7 289.158 170.7H275.067V182.079ZM317.375 205.598V164.415C317.375 163.555 317.684 162.827 318.301 162.232C318.919 161.636 319.657 161.339 320.517 161.339H358.658C359.518 161.339 360.245 161.647 360.841 162.265C361.458 162.882 361.767 163.621 361.767 164.481V167.59C361.767 168.451 361.458 169.189 360.841 169.807C360.245 170.402 359.518 170.7 358.658 170.7H329.846V180.326H354.655C355.515 180.326 356.243 180.635 356.838 181.252C357.456 181.848 357.764 182.575 357.764 183.435V186.545C357.764 187.405 357.456 188.144 356.838 188.761C356.243 189.356 355.515 189.654 354.655 189.654H329.846V199.413H358.591C359.429 199.413 360.146 199.71 360.742 200.306C361.337 200.901 361.635 201.629 361.635 202.489V205.664C361.635 206.525 361.326 207.263 360.708 207.881C360.091 208.476 359.352 208.774 358.492 208.774H320.517C319.657 208.774 318.919 208.476 318.301 207.881C317.684 207.263 317.375 206.502 317.375 205.598ZM364.016 164.117C363.884 163.853 363.818 163.566 363.818 163.257C363.818 162.926 364.016 162.529 364.413 162.066C364.832 161.581 365.417 161.339 366.167 161.339H373.411C375.131 161.339 376.443 162.386 377.347 164.481L390.149 192.995L402.95 164.481C403.855 162.408 405.167 161.361 406.887 161.339H414.131C414.903 161.339 415.487 161.581 415.884 162.066C416.281 162.529 416.48 162.926 416.48 163.257C416.48 163.566 416.425 163.853 416.314 164.117L397.261 205.4C396.224 207.649 394.648 208.774 392.531 208.774H387.767C385.65 208.774 384.073 207.649 383.037 205.4L364.016 164.117Z" fill="#001F3F"/>
<path d="M-8.95093 254.052C-8.95093 252.751 -8.565 251.825 -7.79316 251.274C-7.02131 250.7 -6.27152 250.414 -5.54378 250.414H-1.60737C0.377378 250.414 1.88799 251.494 2.92447 253.655C3.96095 255.817 6.28751 256.897 9.90416 256.897L21.4818 257.129C25.3631 257.129 27.3038 255.861 27.3038 253.325C27.3038 251.406 24.9331 249.895 20.1918 248.793C18.0747 248.286 15.7371 247.789 13.179 247.304C10.6209 246.797 8.07378 246.169 5.53772 245.419C3.02371 244.669 0.708169 243.787 -1.40889 242.772C-3.52595 241.758 -5.24607 240.369 -6.56923 238.604C-7.87034 236.818 -8.5209 234.723 -8.5209 232.319C-8.5209 227.887 -6.94413 224.48 -3.79059 222.098C-0.637047 219.694 4.78792 218.492 12.4843 218.492L20.8864 218.691C25.4072 218.691 29.476 219.86 33.0926 222.197C36.7313 224.513 38.5506 227.413 38.5506 230.897C38.5506 232.198 38.1647 233.135 37.3929 233.709C36.621 234.282 35.8823 234.569 35.1766 234.569H31.2402C29.2554 234.569 27.7448 233.488 26.7083 231.327C25.6719 229.144 23.3453 228.052 19.7286 228.052L9.77184 227.854C5.89056 227.854 3.94992 229.122 3.94992 231.658C3.94992 233.047 5.17385 234.183 7.6217 235.065C10.0916 235.947 13.0687 236.73 16.5531 237.414C20.0594 238.075 23.5768 238.88 27.1053 239.828C30.6337 240.777 33.6219 242.342 36.0697 244.526C38.5396 246.687 39.7746 249.388 39.7746 252.63C39.7746 257.063 38.1868 260.481 35.0112 262.884C31.8576 265.266 26.4437 266.457 18.7694 266.457L8.74639 266.259C4.22558 266.259 0.145825 265.101 -3.49288 262.785C-7.13158 260.448 -8.95093 257.537 -8.95093 254.052ZM90.3194 261.297C85.8207 265.244 79.2049 267.218 70.472 267.218C61.7611 267.218 55.1453 265.244 50.6245 261.297C46.1037 257.327 43.8433 251.053 43.8433 242.475C43.8433 233.896 46.1037 227.633 50.6245 223.686C55.1453 219.738 61.7611 217.765 70.472 217.765C79.2049 217.765 85.8207 219.738 90.3194 223.686C94.8402 227.633 97.1006 233.896 97.1006 242.475C97.1006 251.053 94.8402 257.327 90.3194 261.297ZM81.2888 230.665C79.0615 228.019 75.4559 226.696 70.472 226.696C65.5101 226.696 61.9045 228.019 59.6551 230.665C57.4278 233.312 56.3141 237.259 56.3141 242.508C56.3141 247.734 57.4278 251.671 59.6551 254.317C61.9045 256.941 65.5101 258.253 70.472 258.253C75.4559 258.253 79.0615 256.941 81.2888 254.317C83.5162 251.671 84.6298 247.734 84.6298 242.508C84.6298 237.259 83.5162 233.312 81.2888 230.665ZM98.1923 220.345C98.1923 219.286 98.7656 218.757 99.9124 218.757H106.197C108.689 218.757 110.608 219.804 111.953 221.899L122.671 238.406L133.355 221.899C134.723 219.804 136.641 218.757 139.111 218.757H145.429C146.554 218.757 147.116 219.286 147.116 220.345C147.116 220.83 146.94 221.348 146.587 221.899L128.89 249.256V263.149C128.89 264.009 128.581 264.737 127.963 265.332C127.368 265.906 126.64 266.192 125.78 266.192H119.561C118.701 266.192 117.963 265.906 117.345 265.332C116.728 264.737 116.419 264.009 116.419 263.149V249.256L98.7546 221.899C98.3797 221.348 98.1923 220.83 98.1923 220.345ZM201.796 264.77C201.796 265.718 201.234 266.192 200.109 266.192H192.17C191.332 266.192 190.406 265.895 189.391 265.299C188.399 264.682 187.638 263.943 187.109 263.083L181.485 254.284C179.17 250.667 176.369 248.859 173.083 248.859H165.012V263.083C165.012 263.943 164.703 264.682 164.086 265.299C163.49 265.895 162.763 266.192 161.903 266.192H155.684C154.824 266.192 154.085 265.895 153.467 265.299C152.85 264.682 152.541 263.943 152.541 263.083V221.899C152.541 221.039 152.839 220.301 153.434 219.683C154.03 219.066 154.757 218.757 155.618 218.757H182.908C187.958 218.757 192.093 220.113 195.312 222.826C198.554 225.538 200.175 229.199 200.175 233.808C200.175 240.225 196.018 244.25 187.704 245.882C189.027 246.367 190.251 247.205 191.376 248.396C192.501 249.565 193.791 251.274 195.246 253.523L201.267 263.083C201.62 263.7 201.796 264.263 201.796 264.77ZM165.012 239.498H179.104C181.375 239.498 183.371 239.045 185.091 238.141C186.833 237.237 187.704 235.793 187.704 233.808C187.704 231.823 186.833 230.379 185.091 229.475C183.371 228.57 181.375 228.118 179.104 228.118H165.012V239.498ZM207.32 263.017V221.833C207.32 220.973 207.629 220.246 208.246 219.65C208.864 219.055 209.603 218.757 210.463 218.757H248.603C249.463 218.757 250.191 219.066 250.786 219.683C251.404 220.301 251.712 221.039 251.712 221.899V225.009C251.712 225.869 251.404 226.608 250.786 227.225C250.191 227.821 249.463 228.118 248.603 228.118H219.791V237.744H244.6C245.46 237.744 246.188 238.053 246.784 238.671C247.401 239.266 247.71 239.994 247.71 240.854V243.963C247.71 244.823 247.401 245.562 246.784 246.18C246.188 246.775 245.46 247.073 244.6 247.073H219.791V256.831H248.537C249.375 256.831 250.091 257.129 250.687 257.724C251.282 258.32 251.58 259.047 251.58 259.907V263.083C251.58 263.943 251.271 264.682 250.654 265.299C250.036 265.895 249.298 266.192 248.437 266.192H210.463C209.603 266.192 208.864 265.895 208.246 265.299C207.629 264.682 207.32 263.921 207.32 263.017ZM253.962 221.536C253.829 221.271 253.763 220.984 253.763 220.676C253.763 220.345 253.962 219.948 254.359 219.485C254.778 219 255.362 218.757 256.112 218.757H263.356C265.076 218.757 266.388 219.804 267.293 221.899L280.094 250.414L292.896 221.899C293.8 219.827 295.112 218.779 296.832 218.757H304.077C304.848 218.757 305.433 219 305.83 219.485C306.227 219.948 306.425 220.345 306.425 220.676C306.425 220.984 306.37 221.271 306.26 221.536L287.206 262.818C286.17 265.068 284.593 266.192 282.476 266.192H277.712C275.595 266.192 274.019 265.068 272.982 262.818L253.962 221.536Z" fill="#001F3F"/>
</g>
</g>
<defs>
<clipPath id="clip0_1285_361">
<rect width="304" height="254" fill="white"/>
</clipPath>
</defs>
</svg>
