<svg width="686" height="133" viewBox="0 0 686 133" fill="none" xmlns="http://www.w3.org/2000/svg">
<path d="M36.4487 64.2051H8.32665C3.73128 64.2051 0 67.9364 0 72.5317C0 77.1271 3.73128 80.8584 8.32665 80.8584H28.1417V100.673C28.1417 105.269 31.873 108.98 36.4684 109C38.7661 109 40.8477 108.077 42.3402 106.565C43.8524 105.053 44.7754 102.971 44.7754 100.673V72.5317C44.7754 70.234 43.8524 68.1524 42.3402 66.6402C40.8281 65.1281 38.7661 64.2051 36.4487 64.2051Z" fill="#8E8E8E"/>
<path d="M69.6242 36.1416H41.5414C36.946 36.1416 33.2344 39.8532 33.2344 44.4486C33.2344 49.044 36.946 52.7556 41.5414 52.7556H61.3172V72.5314C61.3172 77.1268 65.0288 80.8384 69.6242 80.8384C71.9219 80.8384 73.9839 79.9154 75.4961 78.4033C77.0082 76.8911 77.9312 74.8291 77.9312 72.5314V44.4486C77.9312 42.1509 77.0082 40.0693 75.4961 38.5768C73.9839 37.0646 71.9219 36.1416 69.6242 36.1416Z" fill="#8E8E8E"/>
<path d="M102.828 8H74.686C70.0907 8 66.3594 11.7313 66.3594 16.3267C66.3594 20.922 70.0907 24.6533 74.686 24.6533H94.5011V44.4684C94.5011 49.0637 98.2324 52.795 102.828 52.795C105.125 52.795 107.207 51.8524 108.7 50.3599C110.212 48.8477 111.135 46.7661 111.135 44.4684V16.3267C111.135 14.029 110.192 11.9473 108.7 10.4352C107.187 8.923 105.125 8 102.828 8Z" fill="#8E8E8E"/>
<path d="M129.816 87.2803L143.322 74.8229C148.83 81.904 156.173 86.1001 163.647 86.1001C170.991 86.1001 175.449 82.1662 175.449 75.6097C175.449 58.6938 133.749 63.2834 133.749 32.2054C133.749 17.6499 145.813 5.58585 163.385 5.58585C177.154 5.58585 187.644 11.749 195.512 21.0593L181.874 33.3856C176.498 26.4356 170.466 21.8461 163.516 21.8461C156.96 21.8461 152.632 26.0423 152.632 31.5497C152.632 48.2034 194.332 43.4826 194.332 74.954C194.07 92.2633 180.694 102.623 163.778 102.623C148.305 102.623 137.946 96.984 129.816 87.2803ZM244.252 71.4135V33.9101H261.036V70.6267C261.036 90.4275 249.497 102.623 230.09 102.623C210.682 102.623 199.274 90.4275 199.274 70.6267V33.9101H216.059V71.4135C216.059 80.986 221.042 86.8869 230.221 86.8869C239.269 86.8869 244.252 80.986 244.252 71.4135ZM269.637 132.258V33.9101H286.29V39.2865C291.404 34.1724 297.83 31.2875 306.878 31.2875C327.859 31.2875 340.447 47.6788 340.447 66.955C340.447 86.2313 327.859 102.623 306.878 102.623C297.83 102.623 291.404 99.7377 286.29 94.6236V132.258H269.637ZM304.518 47.0232C296.781 47.0232 290.487 50.4326 286.29 56.5957V77.3144C290.749 83.6087 296.912 86.8869 304.518 86.8869C315.795 86.8869 323.138 78.4946 323.138 66.955C323.138 55.4155 315.795 47.0232 304.518 47.0232ZM366.219 101.967C352.974 101.967 343.926 94.3614 343.926 82.1662C343.926 72.2003 351.663 64.7258 365.825 62.3655L386.019 58.9561V57.2514C386.019 50.3014 380.774 45.843 373.169 45.843C366.743 45.843 361.76 48.859 358.22 53.7108L346.025 44.4006C351.925 36.2705 361.629 31.2875 373.693 31.2875C392.838 31.2875 402.673 42.6959 402.673 57.2514V100H386.019V93.5746C381.823 98.6887 373.955 101.967 366.219 101.967ZM360.449 81.3794C360.449 85.8379 363.989 88.7228 369.628 88.7228C377.234 88.7228 382.741 85.1822 386.019 79.937V70.6267L370.284 73.2493C363.334 74.4295 360.449 77.3144 360.449 81.3794ZM403.466 33.9101H421.3L438.478 81.1172L455.525 33.9101H473.49L449.362 100H427.463L403.466 33.9101ZM537.499 89.2473C531.336 97.5085 521.108 102.623 508.65 102.623C485.178 102.623 471.934 86.2313 471.934 66.955C471.934 47.4166 484.26 31.2875 505.896 31.2875C524.255 31.2875 536.319 43.7449 536.319 61.0542C536.319 64.7258 535.794 68.1352 535.27 70.3644H488.981C490.554 82.6907 498.16 87.6737 508.519 87.6737C515.731 87.6737 522.026 84.5266 525.566 79.8059L537.499 89.2473ZM505.503 44.9251C496.98 44.9251 491.341 49.6458 489.505 58.3004H519.927C519.665 51.6127 514.813 44.9251 505.503 44.9251ZM544.397 100V33.9101H561.05V39.1553C565.64 34.6969 571.803 31.2875 580.589 31.2875C594.882 31.2875 606.29 41.1223 606.29 60.6608V100H589.506V61.3164C589.506 52.5307 584.523 47.0232 576.393 47.0232C568 47.0232 563.542 52.6618 561.05 56.858V100H544.397ZM623.758 22.3706C617.858 22.3706 612.875 17.3876 612.875 11.4867C612.875 5.58585 617.858 0.602887 623.758 0.602887C629.659 0.602887 634.511 5.58585 634.511 11.4867C634.511 17.3876 629.659 22.3706 623.758 22.3706ZM615.366 100V33.9101H632.02V100H615.366ZM642.156 100V33.9101H658.809V40.4666C663.137 36.0082 668.775 32.5988 676.25 32.5988C678.479 32.5988 680.446 32.9922 682.019 33.5167V49.908C679.921 49.3835 677.692 48.9901 674.676 48.9901C666.546 48.9901 661.301 53.4486 658.809 57.6448V100H642.156Z" fill="#8E8E8E"/>
</svg>
