<svg width="304" height="254" viewBox="0 0 304 254" fill="none" xmlns="http://www.w3.org/2000/svg">
<g opacity="0.02" clip-path="url(#clip0_1286_469)">
<path d="M-67.615 32.0521C-67.615 30.751 -67.2291 29.8248 -66.4572 29.2735C-65.6854 28.7001 -64.9356 28.4134 -64.2078 28.4134H-60.2714C-58.2867 28.4134 -56.7761 29.494 -55.7396 31.6552C-54.7031 33.8163 -52.3766 34.8969 -48.7599 34.8969L-37.1822 35.1285C-33.3009 35.1285 -31.3603 33.8604 -31.3603 31.3244C-31.3603 29.4058 -33.731 27.8952 -38.4723 26.7925C-40.5894 26.2853 -42.927 25.7891 -45.4851 25.304C-48.0432 24.7968 -50.5903 24.1683 -53.1263 23.4185C-55.6404 22.6687 -57.9559 21.7866 -60.073 20.7721C-62.19 19.7577 -63.9101 18.3684 -65.2333 16.6042C-66.5344 14.8179 -67.185 12.7229 -67.185 10.3191C-67.185 5.88655 -65.6082 2.4794 -62.4546 0.0977098C-59.3011 -2.30604 -53.8761 -3.50791 -46.1797 -3.50791L-37.7776 -3.30944C-33.2568 -3.30944 -29.1881 -2.14064 -25.5715 0.196947C-21.9328 2.51248 -20.1134 5.41242 -20.1134 8.89675C-20.1134 10.1979 -20.4993 11.1351 -21.2712 11.7085C-22.043 12.2818 -22.7818 12.5685 -23.4875 12.5685H-27.4239C-29.4086 12.5685 -30.9192 11.4879 -31.9557 9.32678C-32.9922 7.14356 -35.3188 6.05195 -38.9354 6.05195L-48.8922 5.85347C-52.7735 5.85347 -54.7141 7.1215 -54.7141 9.65757C-54.7141 11.0469 -53.4902 12.1826 -51.0424 13.0647C-48.5725 13.9468 -45.5953 14.7297 -42.111 15.4133C-38.6046 16.0749 -35.0872 16.8798 -31.5588 17.8281C-28.0303 18.7764 -25.0422 20.3421 -22.5943 22.5253C-20.1244 24.6865 -18.8895 27.388 -18.8895 30.6297C-18.8895 35.0623 -20.4773 38.4805 -23.6529 40.8842C-26.8064 43.2659 -32.2204 44.4568 -39.8947 44.4568L-49.9177 44.2583C-54.4385 44.2583 -58.5182 43.1005 -62.1569 40.785C-65.7956 38.4474 -67.615 35.5364 -67.615 32.0521ZM-12.7699 25.4363V-0.100765C-12.7699 -0.960821 -12.4721 -1.69959 -11.8767 -2.31706C-11.2592 -2.93454 -10.4984 -3.24328 -9.59426 -3.24328H-3.40847C-2.57047 -3.24328 -1.84273 -2.93454 -1.22525 -2.31706C-0.607774 -1.69959 -0.299035 -0.960821 -0.299035 -0.100765V25.5025C-0.299035 28.7442 0.406652 31.159 1.81803 32.7468C3.25145 34.3346 5.45673 35.1285 8.43384 35.1285H13.7265C16.7036 35.1285 18.8979 34.3346 20.3092 32.7468C21.7427 31.159 22.4594 28.7442 22.4594 25.5025V-0.100765C22.4594 -0.960821 22.7571 -1.69959 23.3525 -2.31706C23.97 -2.93454 24.7088 -3.24328 25.5688 -3.24328H31.7215C32.6257 -3.24328 33.3865 -2.93454 34.004 -2.31706C34.6215 -1.69959 34.9302 -0.960821 34.9302 -0.100765V25.4363C34.9302 31.4787 33.155 36.1649 29.6045 39.4949C26.054 42.8028 20.8716 44.4568 14.0573 44.4568H8.10305C1.26671 44.4568 -3.92671 42.8028 -7.4772 39.4949C-11.0056 36.1649 -12.7699 31.4787 -12.7699 25.4363ZM43.7292 41.0827V-0.100765C43.7292 -0.960821 44.0269 -1.69959 44.6224 -2.31706C45.2178 -2.93454 45.9455 -3.24328 46.8056 -3.24328H72.0449C85.3868 -3.24328 92.0578 2.90943 92.0578 15.2149C92.0578 27.4982 85.3868 33.6399 72.0449 33.6399H56.2001V41.0827C56.2001 41.9428 55.8913 42.6815 55.2738 43.299C54.6784 43.8944 53.9507 44.1921 53.0906 44.1921H46.8717C46.0117 44.1921 45.2729 43.8944 44.6554 43.299C44.038 42.6815 43.7292 41.9428 43.7292 41.0827ZM56.2001 24.2785H68.2739C71.9788 24.2785 74.7905 23.661 76.7091 22.4261C78.6277 21.1691 79.587 18.7653 79.587 15.2149C79.587 11.6423 78.6277 9.23857 76.7091 8.00361C74.7905 6.74661 71.9788 6.1181 68.2739 6.1181H56.2001V24.2785ZM93.2817 41.1489L101.585 9.65757C103.834 1.07906 111.155 -3.22123 123.549 -3.24328H141.379C142.195 -3.24328 142.867 -2.93454 143.397 -2.31706C143.948 -1.69959 144.224 -0.982874 144.224 -0.166923V41.1489C144.224 42.0089 143.915 42.7367 143.297 43.3321C142.68 43.9055 141.941 44.1921 141.081 44.1921H134.862C133.958 44.1921 133.208 43.9055 132.613 43.3321C132.039 42.7367 131.753 41.9869 131.753 41.0827V32.7468H108.233L106.017 41.0827C105.797 41.9869 105.3 42.7367 104.529 43.3321C103.757 43.9055 102.941 44.1921 102.081 44.1921H95.5642C94.7041 44.1921 94.0866 43.9496 93.7117 43.4644C93.3369 42.9572 93.1494 42.5161 93.1494 42.1412C93.1715 41.7663 93.2156 41.4355 93.2817 41.1489ZM110.681 23.3854H131.753V6.1181H122.325C120.208 6.1181 118.356 6.72455 116.768 7.93745C115.202 9.1283 114.144 10.7382 113.592 12.767L110.681 23.3854ZM149.847 -0.464635C149.715 -0.729268 149.648 -1.01595 149.648 -1.32469C149.648 -1.65548 149.847 -2.05243 150.244 -2.51554C150.663 -3.0007 151.247 -3.24328 151.997 -3.24328H159.241C160.962 -3.24328 162.274 -2.19577 163.178 -0.100765L175.979 28.4134L188.781 -0.100765C189.685 -2.17372 190.997 -3.22123 192.717 -3.24328H199.962C200.734 -3.24328 201.318 -3.0007 201.715 -2.51554C202.112 -2.05243 202.31 -1.65548 202.31 -1.32469C202.31 -1.01595 202.255 -0.729268 202.145 -0.464635L183.091 40.8181C182.055 43.0674 180.478 44.1921 178.361 44.1921H173.598C171.481 44.1921 169.904 43.0674 168.867 40.8181L149.847 -0.464635ZM207.735 41.0165V-0.166923C207.735 -1.02698 208.044 -1.75472 208.662 -2.35014C209.279 -2.94557 210.018 -3.24328 210.878 -3.24328H249.018C249.878 -3.24328 250.606 -2.93454 251.201 -2.31706C251.819 -1.69959 252.128 -0.960821 252.128 -0.100765V3.00867C252.128 3.86873 251.819 4.60749 251.201 5.22497C250.606 5.82039 249.878 6.1181 249.018 6.1181H220.206V15.7441H245.016C245.876 15.7441 246.603 16.0529 247.199 16.6703C247.816 17.2658 248.125 17.9935 248.125 18.8536V21.963C248.125 22.823 247.816 23.5618 247.199 24.1793C246.603 24.7747 245.876 25.0724 245.016 25.0724H220.206V34.8308H248.952C249.79 34.8308 250.507 35.1285 251.102 35.7239C251.697 36.3193 251.995 37.0471 251.995 37.9071V41.0827C251.995 41.9428 251.686 42.6815 251.069 43.299C250.452 43.8944 249.713 44.1921 248.853 44.1921H210.878C210.018 44.1921 209.279 43.8944 208.662 43.299C208.044 42.6815 207.735 41.9207 207.735 41.0165ZM258.214 41.0827V-0.100765C258.214 -0.960821 258.512 -1.69959 259.107 -2.31706C259.703 -2.93454 260.43 -3.24328 261.29 -3.24328H271.016C271.788 -3.24328 272.603 -2.93454 273.464 -2.31706C274.324 -1.69959 275.029 -0.960821 275.581 -0.100765L295.56 30.6297V-0.166923C295.56 -1.02698 295.858 -1.75472 296.454 -2.35014C297.071 -2.94557 297.81 -3.24328 298.67 -3.24328H304.359C305.219 -3.24328 305.947 -2.94557 306.543 -2.35014C307.16 -1.75472 307.469 -1.00493 307.469 -0.100765V41.0827C307.469 41.9428 307.16 42.6815 306.543 43.299C305.947 43.8944 305.219 44.1921 304.359 44.1921H293.377C292.517 44.1921 291.635 43.8944 290.731 43.299C289.827 42.6815 289.11 41.9428 288.581 41.0827L270.288 12.7008V41.0827C270.288 41.9428 269.979 42.6815 269.362 43.299C268.766 43.8944 268.039 44.1921 267.179 44.1921H261.357C260.497 44.1921 259.758 43.8944 259.14 43.299C258.523 42.6815 258.214 41.9428 258.214 41.0827ZM316.963 41.1489V-0.100765C316.963 -0.960821 317.271 -1.69959 317.889 -2.31706C318.506 -2.93454 319.245 -3.24328 320.105 -3.24328H326.258C327.162 -3.24328 327.912 -2.93454 328.507 -2.31706C329.125 -1.69959 329.433 -0.960821 329.433 -0.100765V41.0827C329.433 41.9428 329.114 42.6815 328.474 43.299C327.857 43.8944 327.118 44.1921 326.258 44.1921H320.105C319.245 44.1921 318.506 43.9055 317.889 43.3321C317.271 42.7367 316.963 42.0089 316.963 41.1489ZM388.182 42.7697C388.182 43.718 387.619 44.1921 386.495 44.1921H378.556C377.718 44.1921 376.792 43.8944 375.777 43.299C374.785 42.6815 374.024 41.9428 373.495 41.0827L367.871 32.2837C365.556 28.667 362.755 26.8587 359.469 26.8587H351.398V41.0827C351.398 41.9428 351.089 42.6815 350.472 43.299C349.876 43.8944 349.148 44.1921 348.288 44.1921H342.07C341.21 44.1921 340.471 43.8944 339.853 43.299C339.236 42.6815 338.927 41.9428 338.927 41.0827V-0.100765C338.927 -0.960821 339.225 -1.69959 339.82 -2.31706C340.416 -2.93454 341.143 -3.24328 342.003 -3.24328H369.294C374.344 -3.24328 378.479 -1.88704 381.698 0.82545C384.94 3.53794 386.561 7.19869 386.561 11.8077C386.561 18.2251 382.404 22.2497 374.09 23.8816C375.413 24.3667 376.637 25.2047 377.762 26.3956C378.887 27.5644 380.177 29.2735 381.632 31.5228L387.653 41.0827C388.005 41.7002 388.182 42.2625 388.182 42.7697ZM351.398 17.4973H365.49C367.761 17.4973 369.757 17.0452 371.477 16.1411C373.219 15.2369 374.09 13.7925 374.09 11.8077C374.09 9.82296 373.219 8.37851 371.477 7.47435C369.757 6.57019 367.761 6.1181 365.49 6.1181H351.398V17.4973Z" fill="#001F3F"/>
<path d="M-159.849 86.2494C-159.849 84.9483 -159.463 84.0221 -158.692 83.4707C-157.92 82.8974 -157.17 82.6107 -156.442 82.6107H-152.506C-150.521 82.6107 -149.01 83.6913 -147.974 85.8524C-146.937 88.0136 -144.611 89.0942 -140.994 89.0942L-129.417 89.3257C-125.535 89.3257 -123.595 88.0577 -123.595 85.5216C-123.595 83.6031 -125.965 82.0924 -130.707 80.9898C-132.824 80.4826 -135.161 79.9864 -137.719 79.5012C-140.278 78.994 -142.825 78.3655 -145.361 77.6157C-147.875 76.8659 -150.19 75.9838 -152.307 74.9694C-154.424 73.955 -156.145 72.5657 -157.468 70.8014C-158.769 69.0152 -159.419 66.9202 -159.419 64.5164C-159.419 60.0838 -157.843 56.6767 -154.689 54.295C-151.535 51.8912 -146.111 50.6894 -138.414 50.6894L-130.012 50.8878C-125.491 50.8878 -121.422 52.0566 -117.806 54.3942C-114.167 56.7097 -112.348 59.6097 -112.348 63.094C-112.348 64.3951 -112.734 65.3324 -113.506 65.9057C-114.277 66.4791 -115.016 66.7658 -115.722 66.7658H-119.658C-121.643 66.7658 -123.154 65.6852 -124.19 63.524C-125.227 61.3408 -127.553 60.2492 -131.17 60.2492L-141.127 60.0507C-145.008 60.0507 -146.949 61.3188 -146.949 63.8548C-146.949 65.2442 -145.725 66.3799 -143.277 67.262C-140.807 68.1441 -137.83 68.927 -134.345 69.6106C-130.839 70.2722 -127.322 71.0771 -123.793 72.0254C-120.265 72.9736 -117.277 74.5394 -114.829 76.7226C-112.359 78.8838 -111.124 81.5852 -111.124 84.827C-111.124 89.2596 -112.712 92.6777 -115.887 95.0815C-119.041 97.4632 -124.455 98.654 -132.129 98.654L-142.152 98.4556C-146.673 98.4556 -150.753 97.2978 -154.391 94.9823C-158.03 92.6447 -159.849 89.7337 -159.849 86.2494ZM-105.004 79.6336V54.0965C-105.004 53.2364 -104.707 52.4977 -104.111 51.8802C-103.494 51.2627 -102.733 50.954 -101.829 50.954H-95.6428C-94.8048 50.954 -94.0771 51.2627 -93.4596 51.8802C-92.8421 52.4977 -92.5334 53.2364 -92.5334 54.0965V79.6997C-92.5334 82.9415 -91.8277 85.3562 -90.4163 86.944C-88.9829 88.5318 -86.7776 89.3257 -83.8005 89.3257H-78.5079C-75.5308 89.3257 -73.3365 88.5318 -71.9251 86.944C-70.4917 85.3562 -69.775 82.9415 -69.775 79.6997V54.0965C-69.775 53.2364 -69.4773 52.4977 -68.8819 51.8802C-68.2644 51.2627 -67.5256 50.954 -66.6656 50.954H-60.5128C-59.6087 50.954 -58.8479 51.2627 -58.2304 51.8802C-57.6129 52.4977 -57.3042 53.2364 -57.3042 54.0965V79.6336C-57.3042 85.676 -59.0794 90.3622 -62.6299 93.6922C-66.1804 97.0001 -71.3628 98.654 -78.1771 98.654H-84.1313C-90.9677 98.654 -96.1611 97.0001 -99.7116 93.6922C-103.24 90.3622 -105.004 85.676 -105.004 79.6336ZM-48.5051 95.28V54.0965C-48.5051 53.2364 -48.2074 52.4977 -47.612 51.8802C-47.0166 51.2627 -46.2888 50.954 -45.4288 50.954H-20.1894C-6.84754 50.954 -0.176588 57.1067 -0.176588 69.4121C-0.176588 81.6955 -6.84754 87.8372 -20.1894 87.8372H-36.0343V95.28C-36.0343 96.14 -36.3431 96.8788 -36.9605 97.4963C-37.556 98.0917 -38.2837 98.3894 -39.1438 98.3894H-45.3626C-46.2227 98.3894 -46.9614 98.0917 -47.5789 97.4963C-48.1964 96.8788 -48.5051 96.14 -48.5051 95.28ZM-36.0343 78.4758H-23.9605C-20.2556 78.4758 -17.4439 77.8583 -15.5253 76.6234C-13.6067 75.3664 -12.6474 72.9626 -12.6474 69.4121C-12.6474 65.8396 -13.6067 63.4358 -15.5253 62.2009C-17.4439 60.9439 -20.2556 60.3154 -23.9605 60.3154H-36.0343V78.4758ZM1.04734 95.3461L9.3502 63.8548C11.5996 55.2763 18.9211 50.976 31.3147 50.954H49.1443C49.9603 50.954 50.6329 51.2627 51.1622 51.8802C51.7135 52.4977 51.9891 53.2144 51.9891 54.0303V95.3461C51.9891 96.2062 51.6804 96.9339 51.0629 97.5293C50.4455 98.1027 49.7067 98.3894 48.8466 98.3894H42.6278C41.7236 98.3894 40.9738 98.1027 40.3784 97.5293C39.805 96.9339 39.5183 96.1841 39.5183 95.28V86.944H15.9991L13.7828 95.28C13.5623 96.1841 13.0661 96.9339 12.2942 97.5293C11.5224 98.1027 10.7064 98.3894 9.84638 98.3894H3.3298C2.46975 98.3894 1.85227 98.1468 1.47737 97.6617C1.10248 97.1545 0.915028 96.7134 0.915028 96.3385C0.937081 95.9636 0.981187 95.6328 1.04734 95.3461ZM18.4469 77.5827H39.5183V60.3154H30.0908C27.9737 60.3154 26.1213 60.9218 24.5335 62.1347C22.9678 63.3256 21.9092 64.9354 21.3579 66.9643L18.4469 77.5827ZM57.6126 53.7326C57.4803 53.468 57.4141 53.1813 57.4141 52.8726C57.4141 52.5418 57.6126 52.1448 58.0095 51.6817C58.4285 51.1966 59.0129 50.954 59.7627 50.954H67.007C68.7272 50.954 70.0393 52.0015 70.9435 54.0965L83.7451 82.6107L96.5467 54.0965C97.4508 52.0235 98.763 50.976 100.483 50.954H107.727C108.499 50.954 109.084 51.1966 109.481 51.6817C109.878 52.1448 110.076 52.5418 110.076 52.8726C110.076 53.1813 110.021 53.468 109.911 53.7326L90.8571 95.0153C89.8206 97.2647 88.2438 98.3894 86.1268 98.3894H81.3634C79.2463 98.3894 77.6695 97.2647 76.6331 95.0153L57.6126 53.7326ZM115.501 95.2138V54.0303C115.501 53.1703 115.81 52.4425 116.427 51.8471C117.045 51.2517 117.783 50.954 118.644 50.954H156.784C157.644 50.954 158.372 51.2627 158.967 51.8802C159.584 52.4977 159.893 53.2364 159.893 54.0965V57.2059C159.893 58.066 159.584 58.8048 158.967 59.4222C158.372 60.0177 157.644 60.3154 156.784 60.3154H127.972V69.9414H152.781C153.641 69.9414 154.369 70.2501 154.964 70.8676C155.582 71.463 155.891 72.1908 155.891 73.0508V76.1603C155.891 77.0203 155.582 77.7591 154.964 78.3766C154.369 78.972 153.641 79.2697 152.781 79.2697H127.972V89.028H156.718C157.556 89.028 158.272 89.3257 158.868 89.9212C159.463 90.5166 159.761 91.2443 159.761 92.1044V95.28C159.761 96.14 159.452 96.8788 158.835 97.4963C158.217 98.0917 157.478 98.3894 156.618 98.3894H118.644C117.783 98.3894 117.045 98.0917 116.427 97.4963C115.81 96.8788 115.501 96.118 115.501 95.2138ZM165.98 95.28V54.0965C165.98 53.2364 166.277 52.4977 166.873 51.8802C167.468 51.2627 168.196 50.954 169.056 50.954H178.781C179.553 50.954 180.369 51.2627 181.229 51.8802C182.089 52.4977 182.795 53.2364 183.346 54.0965L203.326 84.827V54.0303C203.326 53.1703 203.624 52.4425 204.219 51.8471C204.837 51.2517 205.575 50.954 206.435 50.954H212.125C212.985 50.954 213.713 51.2517 214.308 51.8471C214.926 52.4425 215.234 53.1923 215.234 54.0965V95.28C215.234 96.14 214.926 96.8788 214.308 97.4963C213.713 98.0917 212.985 98.3894 212.125 98.3894H201.143C200.283 98.3894 199.401 98.0917 198.496 97.4963C197.592 96.8788 196.876 96.14 196.346 95.28L178.054 66.8981V95.28C178.054 96.14 177.745 96.8788 177.127 97.4963C176.532 98.0917 175.804 98.3894 174.944 98.3894H169.122C168.262 98.3894 167.523 98.0917 166.906 97.4963C166.288 96.8788 165.98 96.14 165.98 95.28ZM224.728 95.3461V54.0965C224.728 53.2364 225.037 52.4977 225.654 51.8802C226.272 51.2627 227.011 50.954 227.871 50.954H234.023C234.928 50.954 235.677 51.2627 236.273 51.8802C236.89 52.4977 237.199 53.2364 237.199 54.0965V95.28C237.199 96.14 236.879 96.8788 236.24 97.4963C235.622 98.0917 234.883 98.3894 234.023 98.3894H227.871C227.011 98.3894 226.272 98.1027 225.654 97.5293C225.037 96.9339 224.728 96.2062 224.728 95.3461ZM295.947 96.967C295.947 97.9153 295.385 98.3894 294.26 98.3894H286.321C285.483 98.3894 284.557 98.0917 283.543 97.4963C282.55 96.8788 281.79 96.14 281.26 95.28L275.637 86.4809C273.321 82.8643 270.521 81.056 267.235 81.056H259.163V95.28C259.163 96.14 258.855 96.8788 258.237 97.4963C257.642 98.0917 256.914 98.3894 256.054 98.3894H249.835C248.975 98.3894 248.236 98.0917 247.619 97.4963C247.001 96.8788 246.693 96.14 246.693 95.28V54.0965C246.693 53.2364 246.99 52.4977 247.586 51.8802C248.181 51.2627 248.909 50.954 249.769 50.954H277.059C282.109 50.954 286.244 52.3102 289.464 55.0227C292.706 57.7352 294.327 61.396 294.327 66.005C294.327 72.4223 290.17 76.4469 281.856 78.0788C283.179 78.564 284.403 79.402 285.528 80.5929C286.652 81.7616 287.942 83.4707 289.398 85.7201L295.418 95.28C295.771 95.8974 295.947 96.4598 295.947 96.967ZM259.163 71.6946H273.255C275.527 71.6946 277.522 71.2425 279.243 70.3383C280.985 69.4342 281.856 67.9897 281.856 66.005C281.856 64.0202 280.985 62.5758 279.243 61.6716C277.522 60.7675 275.527 60.3154 273.255 60.3154H259.163V71.6946Z" fill="#001F3F"/>
<path d="M-79.0212 142.826C-79.0212 141.524 -78.6353 140.598 -77.8635 140.047C-77.0916 139.474 -76.3418 139.187 -75.6141 139.187H-71.6777C-69.6929 139.187 -68.1823 140.267 -67.1458 142.429C-66.1094 144.59 -63.7828 145.67 -60.1662 145.67L-48.5885 145.902C-44.7072 145.902 -42.7666 144.634 -42.7666 142.098C-42.7666 140.179 -45.1372 138.669 -49.8786 137.566C-51.9956 137.059 -54.3332 136.563 -56.8913 136.077C-59.4494 135.57 -61.9965 134.942 -64.5326 134.192C-67.0466 133.442 -69.3621 132.56 -71.4792 131.546C-73.5963 130.531 -75.3164 129.142 -76.6395 127.378C-77.9407 125.591 -78.5912 123.496 -78.5912 121.093C-78.5912 116.66 -77.0144 113.253 -73.8609 110.871C-70.7074 108.467 -65.2824 107.266 -57.586 107.266L-49.1839 107.464C-44.6631 107.464 -40.5944 108.633 -36.9777 110.97C-33.339 113.286 -31.5197 116.186 -31.5197 119.67C-31.5197 120.971 -31.9056 121.909 -32.6774 122.482C-33.4493 123.055 -34.188 123.342 -34.8937 123.342H-38.8301C-40.8149 123.342 -42.3255 122.261 -43.362 120.1C-44.3985 117.917 -46.725 116.825 -50.3417 116.825L-60.2985 116.627C-64.1798 116.627 -66.1204 117.895 -66.1204 120.431C-66.1204 121.82 -64.8965 122.956 -62.4486 123.838C-59.9787 124.72 -57.0016 125.503 -53.5173 126.187C-50.0109 126.848 -46.4935 127.653 -42.965 128.602C-39.4366 129.55 -36.4484 131.116 -34.0006 133.299C-31.5307 135.46 -30.2957 138.161 -30.2957 141.403C-30.2957 145.836 -31.8835 149.254 -35.0591 151.658C-38.2127 154.039 -43.6266 155.23 -51.301 155.23L-61.3239 155.032C-65.8447 155.032 -69.9245 153.874 -73.5632 151.558C-77.2019 149.221 -79.0212 146.31 -79.0212 142.826ZM-24.1761 136.21V110.673C-24.1761 109.813 -23.8784 109.074 -23.283 108.456C-22.6655 107.839 -21.9047 107.53 -21.0005 107.53H-14.8147C-13.9767 107.53 -13.249 107.839 -12.6315 108.456C-12.014 109.074 -11.7053 109.813 -11.7053 110.673V136.276C-11.7053 139.518 -10.9996 141.932 -9.58822 143.52C-8.1548 145.108 -5.94952 145.902 -2.97241 145.902H2.32025C5.29737 145.902 7.49161 145.108 8.90299 143.52C10.3364 141.932 11.0531 139.518 11.0531 136.276V110.673C11.0531 109.813 11.3508 109.074 11.9463 108.456C12.5637 107.839 13.3025 107.53 14.1626 107.53H20.3153C21.2194 107.53 21.9803 107.839 22.5977 108.456C23.2152 109.074 23.5239 109.813 23.5239 110.673V136.21C23.5239 142.252 21.7487 146.938 18.1982 150.268C14.6477 153.576 9.46533 155.23 2.65104 155.23H-3.3032C-10.1395 155.23 -15.333 153.576 -18.8834 150.268C-22.4119 146.938 -24.1761 142.252 -24.1761 136.21ZM32.323 151.856V110.673C32.323 109.813 32.6207 109.074 33.2161 108.456C33.8115 107.839 34.5393 107.53 35.3993 107.53H60.6387C73.9806 107.53 80.6515 113.683 80.6515 125.988C80.6515 138.272 73.9806 144.413 60.6387 144.413H44.7938V151.856C44.7938 152.716 44.4851 153.455 43.8676 154.072C43.2722 154.668 42.5444 154.966 41.6844 154.966H35.4655C34.6054 154.966 33.8667 154.668 33.2492 154.072C32.6317 153.455 32.323 152.716 32.323 151.856ZM44.7938 135.052H56.8677C60.5725 135.052 63.3843 134.434 65.3028 133.2C67.2214 131.943 68.1807 129.539 68.1807 125.988C68.1807 122.416 67.2214 120.012 65.3028 118.777C63.3843 117.52 60.5725 116.892 56.8677 116.892H44.7938V135.052ZM81.8755 151.922L90.1783 120.431C92.4277 111.852 99.7492 107.552 112.143 107.53H129.972C130.788 107.53 131.461 107.839 131.99 108.456C132.542 109.074 132.817 109.791 132.817 110.607V151.922C132.817 152.782 132.509 153.51 131.891 154.106C131.274 154.679 130.535 154.966 129.675 154.966H123.456C122.552 154.966 121.802 154.679 121.207 154.106C120.633 153.51 120.346 152.76 120.346 151.856V143.52H96.8272L94.6109 151.856C94.3904 152.76 93.8942 153.51 93.1224 154.106C92.3505 154.679 91.5346 154.966 90.6745 154.966H84.1579C83.2979 154.966 82.6804 154.723 82.3055 154.238C81.9306 153.731 81.7432 153.29 81.7432 152.915C81.7652 152.54 81.8093 152.209 81.8755 151.922ZM99.2751 134.159H120.346V116.892H110.919C108.802 116.892 106.949 117.498 105.362 118.711C103.796 119.902 102.737 121.512 102.186 123.54L99.2751 134.159ZM138.441 110.309C138.308 110.044 138.242 109.757 138.242 109.449C138.242 109.118 138.441 108.721 138.838 108.258C139.257 107.773 139.841 107.53 140.591 107.53H147.835C149.555 107.53 150.867 108.578 151.772 110.673L164.573 139.187L177.375 110.673C178.279 108.6 179.591 107.552 181.311 107.53H188.556C189.327 107.53 189.912 107.773 190.309 108.258C190.706 108.721 190.904 109.118 190.904 109.449C190.904 109.757 190.849 110.044 190.739 110.309L171.685 151.592C170.649 153.841 169.072 154.966 166.955 154.966H162.192C160.074 154.966 158.498 153.841 157.461 151.592L138.441 110.309ZM196.329 151.79V110.607C196.329 109.746 196.638 109.019 197.255 108.423C197.873 107.828 198.612 107.53 199.472 107.53H237.612C238.472 107.53 239.2 107.839 239.795 108.456C240.413 109.074 240.721 109.813 240.721 110.673V113.782C240.721 114.642 240.413 115.381 239.795 115.998C239.2 116.594 238.472 116.892 237.612 116.892H208.8V126.518H233.609C234.469 126.518 235.197 126.826 235.792 127.444C236.41 128.039 236.719 128.767 236.719 129.627V132.736C236.719 133.596 236.41 134.335 235.792 134.953C235.197 135.548 234.469 135.846 233.609 135.846H208.8V145.604H237.546C238.384 145.604 239.1 145.902 239.696 146.497C240.291 147.093 240.589 147.82 240.589 148.681V151.856C240.589 152.716 240.28 153.455 239.663 154.072C239.045 154.668 238.306 154.966 237.446 154.966H199.472C198.612 154.966 197.873 154.668 197.255 154.072C196.638 153.455 196.329 152.694 196.329 151.79ZM246.808 151.856V110.673C246.808 109.813 247.106 109.074 247.701 108.456C248.296 107.839 249.024 107.53 249.884 107.53H259.609C260.381 107.53 261.197 107.839 262.057 108.456C262.917 109.074 263.623 109.813 264.174 110.673L284.154 141.403V110.607C284.154 109.746 284.452 109.019 285.047 108.423C285.665 107.828 286.403 107.53 287.264 107.53H292.953C293.813 107.53 294.541 107.828 295.136 108.423C295.754 109.019 296.063 109.769 296.063 110.673V151.856C296.063 152.716 295.754 153.455 295.136 154.072C294.541 154.668 293.813 154.966 292.953 154.966H281.971C281.111 154.966 280.229 154.668 279.325 154.072C278.42 153.455 277.704 152.716 277.174 151.856L258.882 123.474V151.856C258.882 152.716 258.573 153.455 257.955 154.072C257.36 154.668 256.632 154.966 255.772 154.966H249.95C249.09 154.966 248.352 154.668 247.734 154.072C247.117 153.455 246.808 152.716 246.808 151.856ZM305.556 151.922V110.673C305.556 109.813 305.865 109.074 306.482 108.456C307.1 107.839 307.839 107.53 308.699 107.53H314.851C315.756 107.53 316.505 107.839 317.101 108.456C317.718 109.074 318.027 109.813 318.027 110.673V151.856C318.027 152.716 317.707 153.455 317.068 154.072C316.45 154.668 315.712 154.966 314.851 154.966H308.699C307.839 154.966 307.1 154.679 306.482 154.106C305.865 153.51 305.556 152.782 305.556 151.922ZM376.776 153.543C376.776 154.491 376.213 154.966 375.089 154.966H367.15C366.312 154.966 365.385 154.668 364.371 154.072C363.379 153.455 362.618 152.716 362.088 151.856L356.465 143.057C354.149 139.44 351.349 137.632 348.063 137.632H339.992V151.856C339.992 152.716 339.683 153.455 339.065 154.072C338.47 154.668 337.742 154.966 336.882 154.966H330.663C329.803 154.966 329.064 154.668 328.447 154.072C327.83 153.455 327.521 152.716 327.521 151.856V110.673C327.521 109.813 327.819 109.074 328.414 108.456C329.009 107.839 329.737 107.53 330.597 107.53H357.887C362.937 107.53 367.072 108.886 370.292 111.599C373.534 114.311 375.155 117.972 375.155 122.581C375.155 128.998 370.998 133.023 362.684 134.655C364.007 135.14 365.231 135.978 366.356 137.169C367.48 138.338 368.77 140.047 370.226 142.296L376.246 151.856C376.599 152.474 376.776 153.036 376.776 153.543ZM339.992 128.271H354.083C356.355 128.271 358.351 127.819 360.071 126.915C361.813 126.01 362.684 124.566 362.684 122.581C362.684 120.596 361.813 119.152 360.071 118.248C358.351 117.344 356.355 116.892 354.083 116.892H339.992V128.271Z" fill="#001F3F"/>
<path d="M-230.927 196.634C-230.927 195.333 -230.542 194.407 -229.77 193.855C-228.998 193.282 -228.248 192.995 -227.52 192.995H-223.584C-221.599 192.995 -220.089 194.076 -219.052 196.237C-218.016 198.398 -215.689 199.479 -212.072 199.479L-200.495 199.71C-196.613 199.71 -194.673 198.442 -194.673 195.906C-194.673 193.988 -197.043 192.477 -201.785 191.375C-203.902 190.867 -206.239 190.371 -208.798 189.886C-211.356 189.379 -213.903 188.75 -216.439 188.001C-218.953 187.251 -221.268 186.369 -223.385 185.354C-225.503 184.34 -227.223 182.95 -228.546 181.186C-229.847 179.4 -230.497 177.305 -230.497 174.901C-230.497 170.469 -228.921 167.061 -225.767 164.68C-222.614 162.276 -217.189 161.074 -209.492 161.074L-201.09 161.273C-196.569 161.273 -192.501 162.441 -188.884 164.779C-185.245 167.095 -183.426 169.994 -183.426 173.479C-183.426 174.78 -183.812 175.717 -184.584 176.291C-185.356 176.864 -186.094 177.151 -186.8 177.151H-190.736C-192.721 177.151 -194.232 176.07 -195.268 173.909C-196.305 171.726 -198.631 170.634 -202.248 170.634L-212.205 170.436C-216.086 170.436 -218.027 171.704 -218.027 174.24C-218.027 175.629 -216.803 176.765 -214.355 177.647C-211.885 178.529 -208.908 179.312 -205.424 179.995C-201.917 180.657 -198.4 181.462 -194.871 182.41C-191.343 183.358 -188.355 184.924 -185.907 187.107C-183.437 189.269 -182.202 191.97 -182.202 195.212C-182.202 199.644 -183.79 203.063 -186.965 205.466C-190.119 207.848 -195.533 209.039 -203.207 209.039L-213.23 208.84C-217.751 208.84 -221.831 207.683 -225.469 205.367C-229.108 203.029 -230.927 200.118 -230.927 196.634ZM-176.082 190.018V164.481C-176.082 163.621 -175.785 162.882 -175.189 162.265C-174.572 161.647 -173.811 161.339 -172.907 161.339H-166.721C-165.883 161.339 -165.155 161.647 -164.538 162.265C-163.92 162.882 -163.612 163.621 -163.612 164.481V190.084C-163.612 193.326 -162.906 195.741 -161.494 197.329C-160.061 198.917 -157.856 199.71 -154.879 199.71H-149.586C-146.609 199.71 -144.415 198.917 -143.003 197.329C-141.57 195.741 -140.853 193.326 -140.853 190.084V164.481C-140.853 163.621 -140.555 162.882 -139.96 162.265C-139.343 161.647 -138.604 161.339 -137.744 161.339H-131.591C-130.687 161.339 -129.926 161.647 -129.309 162.265C-128.691 162.882 -128.382 163.621 -128.382 164.481V190.018C-128.382 196.061 -130.158 200.747 -133.708 204.077C-137.259 207.385 -142.441 209.039 -149.255 209.039H-155.209C-162.046 209.039 -167.239 207.385 -170.79 204.077C-174.318 200.747 -176.082 196.061 -176.082 190.018ZM-119.583 205.665V164.481C-119.583 163.621 -119.286 162.882 -118.69 162.265C-118.095 161.647 -117.367 161.339 -116.507 161.339H-91.2676C-77.9257 161.339 -71.2547 167.491 -71.2547 179.797C-71.2547 192.08 -77.9257 198.222 -91.2676 198.222H-107.112V205.665C-107.112 206.525 -107.421 207.264 -108.039 207.881C-108.634 208.476 -109.362 208.774 -110.222 208.774H-116.441C-117.301 208.774 -118.04 208.476 -118.657 207.881C-119.275 207.264 -119.583 206.525 -119.583 205.665ZM-107.112 188.861H-95.0386C-91.3337 188.861 -88.522 188.243 -86.6034 187.008C-84.6848 185.751 -83.7255 183.347 -83.7255 179.797C-83.7255 176.224 -84.6848 173.821 -86.6034 172.586C-88.522 171.329 -91.3337 170.7 -95.0386 170.7H-107.112V188.861ZM-70.0308 205.731L-61.7279 174.24C-59.4786 165.661 -52.157 161.361 -39.7634 161.339H-21.9338C-21.1178 161.339 -20.4452 161.647 -19.916 162.265C-19.3646 162.882 -19.089 163.599 -19.089 164.415V205.731C-19.089 206.591 -19.3977 207.319 -20.0152 207.914C-20.6327 208.487 -21.3714 208.774 -22.2315 208.774H-28.4504C-29.3545 208.774 -30.1043 208.487 -30.6997 207.914C-31.2731 207.319 -31.5598 206.569 -31.5598 205.665V197.329H-55.079L-57.2953 205.665C-57.5159 206.569 -58.012 207.319 -58.7839 207.914C-59.5557 208.487 -60.3717 208.774 -61.2317 208.774H-67.7483C-68.6084 208.774 -69.2259 208.532 -69.6008 208.046C-69.9756 207.539 -70.1631 207.098 -70.1631 206.723C-70.141 206.348 -70.0969 206.018 -70.0308 205.731ZM-52.6312 187.967H-31.5598V170.7H-40.9873C-43.1044 170.7 -44.9568 171.307 -46.5446 172.519C-48.1104 173.71 -49.1689 175.32 -49.7202 177.349L-52.6312 187.967ZM-13.4655 164.117C-13.5979 163.853 -13.664 163.566 -13.664 163.257C-13.664 162.927 -13.4655 162.53 -13.0686 162.066C-12.6496 161.581 -12.0652 161.339 -11.3154 161.339H-4.07108C-2.35096 161.339 -1.03883 162.386 -0.134664 164.481L12.6669 192.995L25.4686 164.481C26.3727 162.408 27.6849 161.361 29.405 161.339H36.6493C37.4211 161.339 38.0055 161.581 38.4025 162.066C38.7994 162.53 38.9979 162.927 38.9979 163.257C38.9979 163.566 38.9428 163.853 38.8325 164.117L19.7789 205.4C18.7425 207.649 17.1657 208.774 15.0486 208.774H10.2853C8.16819 208.774 6.59142 207.649 5.55494 205.4L-13.4655 164.117ZM44.4229 205.599V164.415C44.4229 163.555 44.7316 162.827 45.3491 162.232C45.9666 161.636 46.7053 161.339 47.5654 161.339H85.7056C86.5656 161.339 87.2934 161.647 87.8888 162.265C88.5063 162.882 88.815 163.621 88.815 164.481V167.591C88.815 168.451 88.5063 169.19 87.8888 169.807C87.2934 170.402 86.5656 170.7 85.7056 170.7H56.8937V180.326H81.703C82.5631 180.326 83.2908 180.635 83.8862 181.252C84.5037 181.848 84.8124 182.576 84.8124 183.436V186.545C84.8124 187.405 84.5037 188.144 83.8862 188.761C83.2908 189.357 82.5631 189.654 81.703 189.654H56.8937V199.413H85.6394C86.4774 199.413 87.1941 199.71 87.7896 200.306C88.385 200.901 88.6827 201.629 88.6827 202.489V205.665C88.6827 206.525 88.374 207.264 87.7565 207.881C87.139 208.476 86.4002 208.774 85.5402 208.774H47.5654C46.7053 208.774 45.9666 208.476 45.3491 207.881C44.7316 207.264 44.4229 206.503 44.4229 205.599ZM94.9016 205.665V164.481C94.9016 163.621 95.1993 162.882 95.7947 162.265C96.3901 161.647 97.1179 161.339 97.9779 161.339H107.703C108.475 161.339 109.291 161.647 110.151 162.265C111.011 162.882 111.717 163.621 112.268 164.481L132.248 195.212V164.415C132.248 163.555 132.546 162.827 133.141 162.232C133.758 161.636 134.497 161.339 135.357 161.339H141.047C141.907 161.339 142.635 161.636 143.23 162.232C143.848 162.827 144.156 163.577 144.156 164.481V205.665C144.156 206.525 143.848 207.264 143.23 207.881C142.635 208.476 141.907 208.774 141.047 208.774H130.065C129.205 208.774 128.322 208.476 127.418 207.881C126.514 207.264 125.797 206.525 125.268 205.665L106.975 177.283V205.665C106.975 206.525 106.667 207.264 106.049 207.881C105.454 208.476 104.726 208.774 103.866 208.774H98.0441C97.184 208.774 96.4453 208.476 95.8278 207.881C95.2103 207.264 94.9016 206.525 94.9016 205.665ZM153.65 205.731V164.481C153.65 163.621 153.959 162.882 154.576 162.265C155.194 161.647 155.932 161.339 156.793 161.339H162.945C163.849 161.339 164.599 161.647 165.195 162.265C165.812 162.882 166.121 163.621 166.121 164.481V205.665C166.121 206.525 165.801 207.264 165.162 207.881C164.544 208.476 163.805 208.774 162.945 208.774H156.793C155.932 208.774 155.194 208.487 154.576 207.914C153.959 207.319 153.65 206.591 153.65 205.731ZM224.869 207.352C224.869 208.3 224.307 208.774 223.182 208.774H215.243C214.405 208.774 213.479 208.476 212.465 207.881C211.472 207.264 210.711 206.525 210.182 205.665L204.559 196.866C202.243 193.249 199.443 191.441 196.157 191.441H188.085V205.665C188.085 206.525 187.777 207.264 187.159 207.881C186.564 208.476 185.836 208.774 184.976 208.774H178.757C177.897 208.774 177.158 208.476 176.541 207.881C175.923 207.264 175.615 206.525 175.615 205.665V164.481C175.615 163.621 175.912 162.882 176.508 162.265C177.103 161.647 177.831 161.339 178.691 161.339H205.981C211.031 161.339 215.166 162.695 218.386 165.407C221.628 168.12 223.248 171.781 223.248 176.39C223.248 182.807 219.092 186.832 210.778 188.464C212.101 188.949 213.325 189.787 214.449 190.978C215.574 192.146 216.864 193.855 218.32 196.105L224.34 205.665C224.693 206.282 224.869 206.845 224.869 207.352ZM188.085 182.079H202.177C204.448 182.079 206.444 181.627 208.164 180.723C209.907 179.819 210.778 178.374 210.778 176.39C210.778 174.405 209.907 172.961 208.164 172.056C206.444 171.152 204.448 170.7 202.177 170.7H188.085V182.079Z" fill="#001F3F"/>
<path d="M241.104 196.634C241.104 195.333 241.49 194.407 242.262 193.855C243.033 193.282 243.783 192.995 244.511 192.995H248.447C250.432 192.995 251.943 194.076 252.979 196.237C254.016 198.398 256.342 199.479 259.959 199.479L271.537 199.71C275.418 199.71 277.358 198.442 277.358 195.906C277.358 193.988 274.988 192.477 270.246 191.375C268.129 190.867 265.792 190.371 263.234 189.886C260.676 189.379 258.128 188.75 255.592 188.001C253.078 187.251 250.763 186.369 248.646 185.354C246.529 184.34 244.809 182.95 243.485 181.186C242.184 179.4 241.534 177.305 241.534 174.901C241.534 170.469 243.111 167.061 246.264 164.68C249.418 162.276 254.843 161.074 262.539 161.074L270.941 161.273C275.462 161.273 279.531 162.441 283.147 164.779C286.786 167.095 288.605 169.994 288.605 173.479C288.605 174.78 288.219 175.717 287.448 176.291C286.676 176.864 285.937 177.151 285.231 177.151H281.295C279.31 177.151 277.8 176.07 276.763 173.909C275.727 171.726 273.4 170.634 269.783 170.634L259.827 170.436C255.945 170.436 254.005 171.704 254.005 174.24C254.005 175.629 255.229 176.765 257.676 177.647C260.146 178.529 263.123 179.312 266.608 179.995C270.114 180.657 273.632 181.462 277.16 182.41C280.688 183.358 283.677 184.924 286.124 187.107C288.594 189.269 289.829 191.97 289.829 195.212C289.829 199.644 288.241 203.063 285.066 205.466C281.912 207.848 276.498 209.039 268.824 209.039L258.801 208.84C254.28 208.84 250.201 207.683 246.562 205.367C242.923 203.029 241.104 200.118 241.104 196.634ZM295.949 190.018V164.481C295.949 163.621 296.247 162.882 296.842 162.265C297.46 161.647 298.22 161.339 299.124 161.339H305.31C306.148 161.339 306.876 161.647 307.494 162.265C308.111 162.882 308.42 163.621 308.42 164.481V190.084C308.42 193.326 309.125 195.741 310.537 197.329C311.97 198.917 314.175 199.71 317.153 199.71H322.445C325.422 199.71 327.617 198.917 329.028 197.329C330.461 195.741 331.178 193.326 331.178 190.084V164.481C331.178 163.621 331.476 162.882 332.071 162.265C332.689 161.647 333.428 161.339 334.288 161.339H340.44C341.344 161.339 342.105 161.647 342.723 162.265C343.34 162.882 343.649 163.621 343.649 164.481V190.018C343.649 196.061 341.874 200.747 338.323 204.077C334.773 207.385 329.59 209.039 322.776 209.039H316.822C309.985 209.039 304.792 207.385 301.242 204.077C297.713 200.747 295.949 196.061 295.949 190.018ZM352.448 205.665V164.481C352.448 163.621 352.746 162.882 353.341 162.265C353.937 161.647 354.664 161.339 355.524 161.339H380.764C394.106 161.339 400.777 167.491 400.777 179.797C400.777 192.08 394.106 198.222 380.764 198.222H364.919V205.665C364.919 206.525 364.61 207.264 363.993 207.881C363.397 208.476 362.669 208.774 361.809 208.774H355.59C354.73 208.774 353.992 208.476 353.374 207.881C352.757 207.264 352.448 206.525 352.448 205.665ZM364.919 188.861H376.993C380.698 188.861 383.509 188.243 385.428 187.008C387.346 185.751 388.306 183.347 388.306 179.797C388.306 176.224 387.346 173.821 385.428 172.586C383.509 171.329 380.698 170.7 376.993 170.7H364.919V188.861ZM402 205.731L410.303 174.24C412.553 165.661 419.874 161.361 432.268 161.339H450.097C450.913 161.339 451.586 161.647 452.115 162.265C452.667 162.882 452.942 163.599 452.942 164.415V205.731C452.942 206.591 452.634 207.319 452.016 207.914C451.399 208.487 450.66 208.774 449.8 208.774H443.581C442.677 208.774 441.927 208.487 441.332 207.914C440.758 207.319 440.471 206.569 440.471 205.665V197.329H416.952L414.736 205.665C414.515 206.569 414.019 207.319 413.247 207.914C412.476 208.487 411.66 208.774 410.8 208.774H404.283C403.423 208.774 402.805 208.532 402.43 208.046C402.056 207.539 401.868 207.098 401.868 206.723C401.89 206.348 401.934 206.018 402 205.731ZM419.4 187.967H440.471V170.7H431.044C428.927 170.7 427.074 171.307 425.487 172.519C423.921 173.71 422.862 175.32 422.311 177.349L419.4 187.967ZM458.566 164.117C458.433 163.853 458.367 163.566 458.367 163.257C458.367 162.927 458.566 162.53 458.963 162.066C459.382 161.581 459.966 161.339 460.716 161.339H467.96C469.68 161.339 470.992 162.386 471.897 164.481L484.698 192.995L497.5 164.481C498.404 162.408 499.716 161.361 501.436 161.339H508.681C509.452 161.339 510.037 161.581 510.434 162.066C510.831 162.53 511.029 162.927 511.029 163.257C511.029 163.566 510.974 163.853 510.864 164.117L491.81 205.4C490.774 207.649 489.197 208.774 487.08 208.774H482.317C480.199 208.774 478.623 207.649 477.586 205.4L458.566 164.117ZM516.454 205.599V164.415C516.454 163.555 516.763 162.827 517.38 162.232C517.998 161.636 518.737 161.339 519.597 161.339H557.737C558.597 161.339 559.325 161.647 559.92 162.265C560.538 162.882 560.846 163.621 560.846 164.481V167.591C560.846 168.451 560.538 169.19 559.92 169.807C559.325 170.402 558.597 170.7 557.737 170.7H528.925V180.326H553.734C554.594 180.326 555.322 180.635 555.917 181.252C556.535 181.848 556.844 182.576 556.844 183.436V186.545C556.844 187.405 556.535 188.144 555.917 188.761C555.322 189.357 554.594 189.654 553.734 189.654H528.925V199.413H557.671C558.509 199.413 559.225 199.71 559.821 200.306C560.416 200.901 560.714 201.629 560.714 202.489V205.665C560.714 206.525 560.405 207.264 559.788 207.881C559.17 208.476 558.431 208.774 557.571 208.774H519.597C518.737 208.774 517.998 208.476 517.38 207.881C516.763 207.264 516.454 206.503 516.454 205.599ZM566.933 205.665V164.481C566.933 163.621 567.231 162.882 567.826 162.265C568.421 161.647 569.149 161.339 570.009 161.339H579.734C580.506 161.339 581.322 161.647 582.182 162.265C583.042 162.882 583.748 163.621 584.299 164.481L604.279 195.212V164.415C604.279 163.555 604.577 162.827 605.172 162.232C605.79 161.636 606.528 161.339 607.389 161.339H613.078C613.938 161.339 614.666 161.636 615.261 162.232C615.879 162.827 616.188 163.577 616.188 164.481V205.665C616.188 206.525 615.879 207.264 615.261 207.881C614.666 208.476 613.938 208.774 613.078 208.774H602.096C601.236 208.774 600.354 208.476 599.45 207.881C598.545 207.264 597.829 206.525 597.299 205.665L579.007 177.283V205.665C579.007 206.525 578.698 207.264 578.08 207.881C577.485 208.476 576.757 208.774 575.897 208.774H570.075C569.215 208.774 568.477 208.476 567.859 207.881C567.242 207.264 566.933 206.525 566.933 205.665ZM625.681 205.731V164.481C625.681 163.621 625.99 162.882 626.607 162.265C627.225 161.647 627.964 161.339 628.824 161.339H634.976C635.881 161.339 636.63 161.647 637.226 162.265C637.843 162.882 638.152 163.621 638.152 164.481V205.665C638.152 206.525 637.832 207.264 637.193 207.881C636.575 208.476 635.837 208.774 634.976 208.774H628.824C627.964 208.774 627.225 208.487 626.607 207.914C625.99 207.319 625.681 206.591 625.681 205.731ZM696.901 207.352C696.901 208.3 696.338 208.774 695.214 208.774H687.275C686.437 208.774 685.51 208.476 684.496 207.881C683.504 207.264 682.743 206.525 682.213 205.665L676.59 196.866C674.274 193.249 671.474 191.441 668.188 191.441H660.117V205.665C660.117 206.525 659.808 207.264 659.19 207.881C658.595 208.476 657.867 208.774 657.007 208.774H650.788C649.928 208.774 649.189 208.476 648.572 207.881C647.955 207.264 647.646 206.525 647.646 205.665V164.481C647.646 163.621 647.944 162.882 648.539 162.265C649.134 161.647 649.862 161.339 650.722 161.339H678.012C683.062 161.339 687.197 162.695 690.417 165.407C693.659 168.12 695.28 171.781 695.28 176.39C695.28 182.807 691.123 186.832 682.809 188.464C684.132 188.949 685.356 189.787 686.481 190.978C687.605 192.146 688.895 193.855 690.351 196.105L696.371 205.665C696.724 206.282 696.901 206.845 696.901 207.352ZM660.117 182.079H674.208C676.48 182.079 678.476 181.627 680.196 180.723C681.938 179.819 682.809 178.374 682.809 176.39C682.809 174.405 681.938 172.961 680.196 172.056C678.476 171.152 676.48 170.7 674.208 170.7H660.117V182.079Z" fill="#001F3F"/>
<path d="M-340.982 254.052C-340.982 252.751 -340.596 251.825 -339.824 251.273C-339.053 250.7 -338.303 250.413 -337.575 250.413H-333.639C-331.654 250.413 -330.143 251.494 -329.107 253.655C-328.07 255.816 -325.744 256.897 -322.127 256.897L-310.549 257.128C-306.668 257.128 -304.727 255.86 -304.727 253.324C-304.727 251.406 -307.098 249.895 -311.839 248.793C-313.957 248.285 -316.294 247.789 -318.852 247.304C-321.41 246.797 -323.957 246.168 -326.494 245.418C-329.008 244.669 -331.323 243.787 -333.44 242.772C-335.557 241.758 -337.277 240.368 -338.6 238.604C-339.902 236.818 -340.552 234.723 -340.552 232.319C-340.552 227.887 -338.975 224.479 -335.822 222.098C-332.668 219.694 -327.243 218.492 -319.547 218.492L-311.145 218.691C-306.624 218.691 -302.555 219.859 -298.939 222.197C-295.3 224.512 -293.481 227.412 -293.481 230.897C-293.481 232.198 -293.867 233.135 -294.638 233.708C-295.41 234.282 -296.149 234.569 -296.855 234.569H-300.791C-302.776 234.569 -304.286 233.488 -305.323 231.327C-306.359 229.144 -308.686 228.052 -312.303 228.052L-322.259 227.853C-326.141 227.853 -328.081 229.122 -328.081 231.658C-328.081 233.047 -326.857 234.183 -324.41 235.065C-321.94 235.947 -318.963 236.73 -315.478 237.413C-311.972 238.075 -308.454 238.88 -304.926 239.828C-301.398 240.776 -298.409 242.342 -295.962 244.525C-293.492 246.687 -292.257 249.388 -292.257 252.63C-292.257 257.062 -293.844 260.48 -297.02 262.884C-300.174 265.266 -305.588 266.457 -313.262 266.457L-323.285 266.258C-327.806 266.258 -331.885 265.101 -335.524 262.785C-339.163 260.447 -340.982 257.536 -340.982 254.052ZM-286.137 247.436V221.899C-286.137 221.039 -285.839 220.3 -285.244 219.683C-284.626 219.065 -283.866 218.757 -282.961 218.757H-276.776C-275.938 218.757 -275.21 219.065 -274.592 219.683C-273.975 220.3 -273.666 221.039 -273.666 221.899V247.502C-273.666 250.744 -272.961 253.159 -271.549 254.747C-270.116 256.335 -267.91 257.128 -264.933 257.128H-259.641C-256.664 257.128 -254.469 256.335 -253.058 254.747C-251.625 253.159 -250.908 250.744 -250.908 247.502V221.899C-250.908 221.039 -250.61 220.3 -250.015 219.683C-249.397 219.065 -248.658 218.757 -247.798 218.757H-241.646C-240.742 218.757 -239.981 219.065 -239.363 219.683C-238.746 220.3 -238.437 221.039 -238.437 221.899V247.436C-238.437 253.479 -240.212 258.165 -243.763 261.495C-247.313 264.803 -252.496 266.457 -259.31 266.457H-265.264C-272.1 266.457 -277.294 264.803 -280.844 261.495C-284.373 258.165 -286.137 253.479 -286.137 247.436ZM-229.638 263.083V221.899C-229.638 221.039 -229.34 220.3 -228.745 219.683C-228.149 219.065 -227.422 218.757 -226.562 218.757H-201.322C-187.98 218.757 -181.309 224.909 -181.309 237.215C-181.309 249.498 -187.98 255.64 -201.322 255.64H-217.167V263.083C-217.167 263.943 -217.476 264.682 -218.093 265.299C-218.689 265.894 -219.417 266.192 -220.277 266.192H-226.495C-227.355 266.192 -228.094 265.894 -228.712 265.299C-229.329 264.682 -229.638 263.943 -229.638 263.083ZM-217.167 246.279H-205.093C-201.388 246.279 -198.577 245.661 -196.658 244.426C-194.74 243.169 -193.78 240.765 -193.78 237.215C-193.78 233.642 -194.74 231.239 -196.658 230.004C-198.577 228.747 -201.388 228.118 -205.093 228.118H-217.167V246.279ZM-180.085 263.149L-171.783 231.658C-169.533 223.079 -162.212 218.779 -149.818 218.757H-131.988C-131.173 218.757 -130.5 219.065 -129.971 219.683C-129.419 220.3 -129.144 221.017 -129.144 221.833V263.149C-129.144 264.009 -129.452 264.737 -130.07 265.332C-130.687 265.905 -131.426 266.192 -132.286 266.192H-138.505C-139.409 266.192 -140.159 265.905 -140.754 265.332C-141.328 264.737 -141.614 263.987 -141.614 263.083V254.747H-165.134L-167.35 263.083C-167.571 263.987 -168.067 264.737 -168.839 265.332C-169.61 265.905 -170.426 266.192 -171.286 266.192H-177.803C-178.663 266.192 -179.281 265.95 -179.655 265.464C-180.03 264.957 -180.218 264.516 -180.218 264.141C-180.196 263.766 -180.152 263.436 -180.085 263.149ZM-162.686 245.385H-141.614V228.118H-151.042C-153.159 228.118 -155.012 228.725 -156.599 229.937C-158.165 231.128 -159.224 232.738 -159.775 234.767L-162.686 245.385ZM-123.52 221.535C-123.653 221.271 -123.719 220.984 -123.719 220.675C-123.719 220.345 -123.52 219.948 -123.123 219.484C-122.704 218.999 -122.12 218.757 -121.37 218.757H-114.126C-112.406 218.757 -111.094 219.804 -110.189 221.899L-97.3877 250.413L-84.5861 221.899C-83.682 219.826 -82.3698 218.779 -80.6497 218.757H-73.4054C-72.6336 218.757 -72.0492 218.999 -71.6522 219.484C-71.2553 219.948 -71.0568 220.345 -71.0568 220.675C-71.0568 220.984 -71.1119 221.271 -71.2222 221.535L-90.2757 262.818C-91.3122 265.067 -92.889 266.192 -95.006 266.192H-99.7694C-101.886 266.192 -103.463 265.067 -104.5 262.818L-123.52 221.535ZM-65.6318 263.017V221.833C-65.6318 220.973 -65.3231 220.245 -64.7056 219.65C-64.0881 219.054 -63.3494 218.757 -62.4893 218.757H-24.3491C-23.489 218.757 -22.7613 219.065 -22.1659 219.683C-21.5484 220.3 -21.2397 221.039 -21.2397 221.899V225.009C-21.2397 225.869 -21.5484 226.607 -22.1659 227.225C-22.7613 227.82 -23.489 228.118 -24.3491 228.118H-53.161V237.744H-28.3517C-27.4916 237.744 -26.7639 238.053 -26.1685 238.67C-25.551 239.266 -25.2422 239.993 -25.2422 240.854V243.963C-25.2422 244.823 -25.551 245.562 -26.1685 246.179C-26.7639 246.775 -27.4916 247.072 -28.3517 247.072H-53.161V256.831H-24.4153C-23.5773 256.831 -22.8605 257.128 -22.2651 257.724C-21.6697 258.319 -21.372 259.047 -21.372 259.907V263.083C-21.372 263.943 -21.6807 264.682 -22.2982 265.299C-22.9157 265.894 -23.6544 266.192 -24.5145 266.192H-62.4893C-63.3494 266.192 -64.0881 265.894 -64.7056 265.299C-65.3231 264.682 -65.6318 263.921 -65.6318 263.017ZM-15.1531 263.083V221.899C-15.1531 221.039 -14.8554 220.3 -14.26 219.683C-13.6646 219.065 -12.9368 218.757 -12.0768 218.757H-2.3515C-1.57966 218.757 -0.763708 219.065 0.0963484 219.683C0.956405 220.3 1.66209 221.039 2.21341 221.899L22.1932 252.63V221.833C22.1932 220.973 22.4909 220.245 23.0863 219.65C23.7038 219.054 24.4426 218.757 25.3026 218.757H30.9922C31.8523 218.757 32.58 219.054 33.1754 219.65C33.7929 220.245 34.1017 220.995 34.1017 221.899V263.083C34.1017 263.943 33.7929 264.682 33.1754 265.299C32.58 265.894 31.8523 266.192 30.9922 266.192H20.01C19.1499 266.192 18.2678 265.894 17.3636 265.299C16.4595 264.682 15.7428 263.943 15.2135 263.083L-3.07924 234.701V263.083C-3.07924 263.943 -3.38798 264.682 -4.00546 265.299C-4.60088 265.894 -5.32862 266.192 -6.18868 266.192H-12.0106C-12.8707 266.192 -13.6094 265.894 -14.2269 265.299C-14.8444 264.682 -15.1531 263.943 -15.1531 263.083ZM43.5953 263.149V221.899C43.5953 221.039 43.9041 220.3 44.5215 219.683C45.139 219.065 45.8778 218.757 46.7378 218.757H52.8906C53.7947 218.757 54.5445 219.065 55.1399 219.683C55.7574 220.3 56.0661 221.039 56.0661 221.899V263.083C56.0661 263.943 55.7464 264.682 55.1069 265.299C54.4894 265.894 53.7506 266.192 52.8906 266.192H46.7378C45.8778 266.192 45.139 265.905 44.5215 265.332C43.9041 264.737 43.5953 264.009 43.5953 263.149ZM114.815 264.77C114.815 265.718 114.252 266.192 113.128 266.192H105.189C104.351 266.192 103.424 265.894 102.41 265.299C101.418 264.682 100.657 263.943 100.128 263.083L94.5041 254.284C92.1885 250.667 89.3878 248.859 86.102 248.859H78.0307V263.083C78.0307 263.943 77.7219 264.682 77.1045 265.299C76.509 265.894 75.7813 266.192 74.9213 266.192H68.7024C67.8423 266.192 67.1036 265.894 66.4861 265.299C65.8686 264.682 65.5599 263.943 65.5599 263.083V221.899C65.5599 221.039 65.8576 220.3 66.453 219.683C67.0484 219.065 67.7762 218.757 68.6362 218.757H95.9265C100.977 218.757 105.111 220.113 108.331 222.825C111.573 225.538 113.194 229.199 113.194 233.808C113.194 240.225 109.037 244.25 100.723 245.882C102.046 246.367 103.27 247.205 104.395 248.396C105.519 249.564 106.809 251.273 108.265 253.523L114.285 263.083C114.638 263.7 114.815 264.263 114.815 264.77ZM78.0307 239.497H92.1224C94.3938 239.497 96.3896 239.045 98.1097 238.141C99.8519 237.237 100.723 235.792 100.723 233.808C100.723 231.823 99.8519 230.379 98.1097 229.474C96.3896 228.57 94.3938 228.118 92.1224 228.118H78.0307V239.497Z" fill="#001F3F"/>
<path d="M131.049 254.052C131.049 252.751 131.435 251.825 132.207 251.273C132.979 250.7 133.728 250.413 134.456 250.413H138.393C140.377 250.413 141.888 251.494 142.924 253.655C143.961 255.816 146.288 256.897 149.904 256.897L161.482 257.128C165.363 257.128 167.304 255.86 167.304 253.324C167.304 251.406 164.933 249.895 160.192 248.793C158.075 248.285 155.737 247.789 153.179 247.304C150.621 246.797 148.074 246.168 145.538 245.418C143.024 244.669 140.708 243.787 138.591 242.772C136.474 241.758 134.754 240.368 133.431 238.604C132.13 236.818 131.479 234.723 131.479 232.319C131.479 227.887 133.056 224.479 136.209 222.098C139.363 219.694 144.788 218.492 152.484 218.492L160.886 218.691C165.407 218.691 169.476 219.859 173.093 222.197C176.731 224.512 178.551 227.412 178.551 230.897C178.551 232.198 178.165 233.135 177.393 233.708C176.621 234.282 175.882 234.569 175.177 234.569H171.24C169.255 234.569 167.745 233.488 166.708 231.327C165.672 229.144 163.345 228.052 159.729 228.052L149.772 227.853C145.891 227.853 143.95 229.122 143.95 231.658C143.95 233.047 145.174 234.183 147.622 235.065C150.092 235.947 153.069 236.73 156.553 237.413C160.059 238.075 163.577 238.88 167.105 239.828C170.634 240.776 173.622 242.342 176.07 244.525C178.54 246.687 179.775 249.388 179.775 252.63C179.775 257.062 178.187 260.48 175.011 262.884C171.858 265.266 166.444 266.457 158.769 266.457L148.746 266.258C144.226 266.258 140.146 265.101 136.507 262.785C132.868 260.447 131.049 257.536 131.049 254.052ZM185.894 247.436V221.899C185.894 221.039 186.192 220.3 186.787 219.683C187.405 219.065 188.166 218.757 189.07 218.757H195.256C196.094 218.757 196.821 219.065 197.439 219.683C198.056 220.3 198.365 221.039 198.365 221.899V247.502C198.365 250.744 199.071 253.159 200.482 254.747C201.916 256.335 204.121 257.128 207.098 257.128H212.391C215.368 257.128 217.562 256.335 218.973 254.747C220.407 253.159 221.123 250.744 221.123 247.502V221.899C221.123 221.039 221.421 220.3 222.017 219.683C222.634 219.065 223.373 218.757 224.233 218.757H230.386C231.29 218.757 232.051 219.065 232.668 219.683C233.286 220.3 233.594 221.039 233.594 221.899V247.436C233.594 253.479 231.819 258.165 228.269 261.495C224.718 264.803 219.536 266.457 212.721 266.457H206.767C199.931 266.457 194.737 264.803 191.187 261.495C187.658 258.165 185.894 253.479 185.894 247.436ZM242.393 263.083V221.899C242.393 221.039 242.691 220.3 243.286 219.683C243.882 219.065 244.61 218.757 245.47 218.757H270.709C284.051 218.757 290.722 224.909 290.722 237.215C290.722 249.498 284.051 255.64 270.709 255.64H254.864V263.083C254.864 263.943 254.555 264.682 253.938 265.299C253.342 265.894 252.615 266.192 251.755 266.192H245.536C244.676 266.192 243.937 265.894 243.32 265.299C242.702 264.682 242.393 263.943 242.393 263.083ZM254.864 246.279H266.938C270.643 246.279 273.455 245.661 275.373 244.426C277.292 243.169 278.251 240.765 278.251 237.215C278.251 233.642 277.292 231.239 275.373 230.004C273.455 228.747 270.643 228.118 266.938 228.118H254.864V246.279ZM291.946 263.149L300.249 231.658C302.498 223.079 309.82 218.779 322.213 218.757H340.043C340.859 218.757 341.531 219.065 342.061 219.683C342.612 220.3 342.888 221.017 342.888 221.833V263.149C342.888 264.009 342.579 264.737 341.961 265.332C341.344 265.905 340.605 266.192 339.745 266.192H333.526C332.622 266.192 331.872 265.905 331.277 265.332C330.703 264.737 330.417 263.987 330.417 263.083V254.747H306.898L304.681 263.083C304.461 263.987 303.965 264.737 303.193 265.332C302.421 265.905 301.605 266.192 300.745 266.192H294.228C293.368 266.192 292.751 265.95 292.376 265.464C292.001 264.957 291.813 264.516 291.813 264.141C291.836 263.766 291.88 263.436 291.946 263.149ZM309.345 245.385H330.417V228.118H320.989C318.872 228.118 317.02 228.725 315.432 229.937C313.866 231.128 312.808 232.738 312.256 234.767L309.345 245.385ZM348.511 221.535C348.379 221.271 348.313 220.984 348.313 220.675C348.313 220.345 348.511 219.948 348.908 219.484C349.327 218.999 349.911 218.757 350.661 218.757H357.905C359.626 218.757 360.938 219.804 361.842 221.899L374.644 250.413L387.445 221.899C388.349 219.826 389.661 218.779 391.382 218.757H398.626C399.398 218.757 399.982 218.999 400.379 219.484C400.776 219.948 400.974 220.345 400.974 220.675C400.974 220.984 400.919 221.271 400.809 221.535L381.756 262.818C380.719 265.067 379.142 266.192 377.025 266.192H372.262C370.145 266.192 368.568 265.067 367.532 262.818L348.511 221.535ZM406.399 263.017V221.833C406.399 220.973 406.708 220.245 407.326 219.65C407.943 219.054 408.682 218.757 409.542 218.757H447.682C448.542 218.757 449.27 219.065 449.865 219.683C450.483 220.3 450.792 221.039 450.792 221.899V225.009C450.792 225.869 450.483 226.607 449.865 227.225C449.27 227.82 448.542 228.118 447.682 228.118H418.87V237.744H443.68C444.54 237.744 445.267 238.053 445.863 238.67C446.48 239.266 446.789 239.993 446.789 240.854V243.963C446.789 244.823 446.48 245.562 445.863 246.179C445.267 246.775 444.54 247.072 443.68 247.072H418.87V256.831H447.616C448.454 256.831 449.171 257.128 449.766 257.724C450.362 258.319 450.659 259.047 450.659 259.907V263.083C450.659 263.943 450.351 264.682 449.733 265.299C449.116 265.894 448.377 266.192 447.517 266.192H409.542C408.682 266.192 407.943 265.894 407.326 265.299C406.708 264.682 406.399 263.921 406.399 263.017ZM456.878 263.083V221.899C456.878 221.039 457.176 220.3 457.771 219.683C458.367 219.065 459.094 218.757 459.954 218.757H469.68C470.452 218.757 471.268 219.065 472.128 219.683C472.988 220.3 473.693 221.039 474.245 221.899L494.224 252.63V221.833C494.224 220.973 494.522 220.245 495.118 219.65C495.735 219.054 496.474 218.757 497.334 218.757H503.023C503.884 218.757 504.611 219.054 505.207 219.65C505.824 220.245 506.133 220.995 506.133 221.899V263.083C506.133 263.943 505.824 264.682 505.207 265.299C504.611 265.894 503.884 266.192 503.023 266.192H492.041C491.181 266.192 490.299 265.894 489.395 265.299C488.491 264.682 487.774 263.943 487.245 263.083L468.952 234.701V263.083C468.952 263.943 468.643 264.682 468.026 265.299C467.43 265.894 466.703 266.192 465.843 266.192H460.021C459.161 266.192 458.422 265.894 457.804 265.299C457.187 264.682 456.878 263.943 456.878 263.083ZM515.627 263.149V221.899C515.627 221.039 515.935 220.3 516.553 219.683C517.17 219.065 517.909 218.757 518.769 218.757H524.922C525.826 218.757 526.576 219.065 527.171 219.683C527.789 220.3 528.097 221.039 528.097 221.899V263.083C528.097 263.943 527.778 264.682 527.138 265.299C526.521 265.894 525.782 266.192 524.922 266.192H518.769C517.909 266.192 517.17 265.905 516.553 265.332C515.935 264.737 515.627 264.009 515.627 263.149ZM586.846 264.77C586.846 265.718 586.284 266.192 585.159 266.192H577.22C576.382 266.192 575.456 265.894 574.441 265.299C573.449 264.682 572.688 263.943 572.159 263.083L566.535 254.284C564.22 250.667 561.419 248.859 558.133 248.859H550.062V263.083C550.062 263.943 549.753 264.682 549.136 265.299C548.54 265.894 547.813 266.192 546.953 266.192H540.734C539.874 266.192 539.135 265.894 538.517 265.299C537.9 264.682 537.591 263.943 537.591 263.083V221.899C537.591 221.039 537.889 220.3 538.484 219.683C539.08 219.065 539.807 218.757 540.667 218.757H567.958C573.008 218.757 577.143 220.113 580.362 222.825C583.604 225.538 585.225 229.199 585.225 233.808C585.225 240.225 581.068 244.25 572.754 245.882C574.077 246.367 575.301 247.205 576.426 248.396C577.551 249.564 578.841 251.273 580.296 253.523L586.317 263.083C586.669 263.7 586.846 264.263 586.846 264.77ZM550.062 239.497H564.154C566.425 239.497 568.421 239.045 570.141 238.141C571.883 237.237 572.754 235.792 572.754 233.808C572.754 231.823 571.883 230.379 570.141 229.474C568.421 228.57 566.425 228.118 564.154 228.118H550.062V239.497Z" fill="#001F3F"/>
</g>
<defs>
<clipPath id="clip0_1286_469">
<rect width="304" height="254" fill="white"/>
</clipPath>
</defs>
</svg>
