<svg width="304" height="254" viewBox="0 0 304 254" fill="none" xmlns="http://www.w3.org/2000/svg">
<g opacity="0.12" clip-path="url(#clip0_1286_487)">
<path d="M-68.7397 -0.464635C-68.872 -0.729268 -68.9382 -1.01595 -68.9382 -1.32469C-68.9382 -1.65548 -68.7397 -2.05243 -68.3427 -2.51554C-67.9237 -3.0007 -67.3393 -3.24328 -66.5895 -3.24328H-59.3452C-57.6251 -3.24328 -56.313 -2.19577 -55.4088 -0.100765L-42.6072 28.4134L-29.8056 -0.100765C-28.9014 -2.17372 -27.5893 -3.22123 -25.8692 -3.24328H-18.6249C-17.853 -3.24328 -17.2686 -3.0007 -16.8717 -2.51554C-16.4747 -2.05243 -16.2762 -1.65548 -16.2762 -1.32469C-16.2762 -1.01595 -16.3314 -0.729268 -16.4416 -0.464635L-35.4952 40.8181C-36.5317 43.0674 -38.1084 44.1921 -40.2255 44.1921H-44.9889C-47.106 44.1921 -48.6827 43.0674 -49.7192 40.8181L-68.7397 -0.464635ZM-14.6884 -0.464635C-14.8208 -0.729268 -14.8869 -1.01595 -14.8869 -1.32469C-14.8869 -1.65548 -14.6884 -2.05243 -14.2915 -2.51554C-13.8725 -3.0007 -13.2881 -3.24328 -12.5383 -3.24328H-5.29398C-3.57387 -3.24328 -2.26173 -2.19577 -1.35757 -0.100765L11.444 28.4134L24.2456 -0.100765C25.1498 -2.17372 26.4619 -3.22123 28.1821 -3.24328H35.4264C36.1982 -3.24328 36.7826 -3.0007 37.1796 -2.51554C37.5765 -2.05243 37.775 -1.65548 37.775 -1.32469C37.775 -1.01595 37.7199 -0.729268 37.6096 -0.464635L18.556 40.8181C17.5196 43.0674 15.9428 44.1921 13.8257 44.1921H9.06235C6.94528 44.1921 5.36851 43.0674 4.33204 40.8181L-14.6884 -0.464635ZM36.3195 41.1489L44.6224 9.65757C46.8717 1.07906 54.1933 -3.22123 66.5869 -3.24328H84.4165C85.2325 -3.24328 85.9051 -2.93454 86.4343 -2.31706C86.9857 -1.69959 87.2613 -0.982874 87.2613 -0.166923V41.1489C87.2613 42.0089 86.9526 42.7367 86.3351 43.3321C85.7176 43.9055 84.9789 44.1921 84.1188 44.1921H77.8999C76.9958 44.1921 76.246 43.9055 75.6506 43.3321C75.0772 42.7367 74.7905 41.9869 74.7905 41.0827V32.7468H51.2713L49.055 41.0827C48.8344 41.9869 48.3383 42.7367 47.5664 43.3321C46.7946 43.9055 45.9786 44.1921 45.1186 44.1921H38.602C37.7419 44.1921 37.1244 43.9496 36.7495 43.4644C36.3746 42.9572 36.1872 42.5161 36.1872 42.1412C36.2093 41.7663 36.2534 41.4355 36.3195 41.1489ZM53.7191 23.3854H74.7905V6.1181H65.363C63.2459 6.1181 61.3935 6.72455 59.8057 7.93745C58.2399 9.1283 57.1814 10.7382 56.6301 12.767L53.7191 23.3854Z" fill="url(#paint0_linear_1286_487)"/>
<path d="M106.292 -0.464635C106.159 -0.729268 106.093 -1.01595 106.093 -1.32469C106.093 -1.65548 106.292 -2.05243 106.689 -2.51554C107.108 -3.0007 107.692 -3.24328 108.442 -3.24328H115.686C117.406 -3.24328 118.718 -2.19577 119.622 -0.100765L132.424 28.4134L145.226 -0.100765C146.13 -2.17372 147.442 -3.22123 149.162 -3.24328H156.406C157.178 -3.24328 157.763 -3.0007 158.16 -2.51554C158.557 -2.05243 158.755 -1.65548 158.755 -1.32469C158.755 -1.01595 158.7 -0.729268 158.59 -0.464635L139.536 40.8181C138.5 43.0674 136.923 44.1921 134.806 44.1921H130.042C127.925 44.1921 126.349 43.0674 125.312 40.8181L106.292 -0.464635ZM160.343 -0.464635C160.21 -0.729268 160.144 -1.01595 160.144 -1.32469C160.144 -1.65548 160.343 -2.05243 160.74 -2.51554C161.159 -3.0007 161.743 -3.24328 162.493 -3.24328H169.737C171.457 -3.24328 172.77 -2.19577 173.674 -0.100765L186.475 28.4134L199.277 -0.100765C200.181 -2.17372 201.493 -3.22123 203.213 -3.24328H210.458C211.229 -3.24328 211.814 -3.0007 212.211 -2.51554C212.608 -2.05243 212.806 -1.65548 212.806 -1.32469C212.806 -1.01595 212.751 -0.729268 212.641 -0.464635L193.587 40.8181C192.551 43.0674 190.974 44.1921 188.857 44.1921H184.094C181.977 44.1921 180.4 43.0674 179.363 40.8181L160.343 -0.464635ZM211.351 41.1489L219.654 9.65757C221.903 1.07906 229.225 -3.22123 241.618 -3.24328H259.448C260.264 -3.24328 260.936 -2.93454 261.466 -2.31706C262.017 -1.69959 262.293 -0.982874 262.293 -0.166923V41.1489C262.293 42.0089 261.984 42.7367 261.366 43.3321C260.749 43.9055 260.01 44.1921 259.15 44.1921H252.931C252.027 44.1921 251.277 43.9055 250.682 43.3321C250.108 42.7367 249.822 41.9869 249.822 41.0827V32.7468H226.303L224.086 41.0827C223.866 41.9869 223.37 42.7367 222.598 43.3321C221.826 43.9055 221.01 44.1921 220.15 44.1921H213.633C212.773 44.1921 212.156 43.9496 211.781 43.4644C211.406 42.9572 211.218 42.5161 211.218 42.1412C211.241 41.7663 211.285 41.4355 211.351 41.1489ZM228.75 23.3854H249.822V6.1181H240.394C238.277 6.1181 236.425 6.72455 234.837 7.93745C233.271 9.1283 232.213 10.7382 231.661 12.767L228.75 23.3854Z" fill="url(#paint1_linear_1286_487)"/>
<path d="M281.315 -0.464635C281.183 -0.729268 281.117 -1.01595 281.117 -1.32469C281.117 -1.65548 281.315 -2.05243 281.712 -2.51554C282.131 -3.0007 282.715 -3.24328 283.465 -3.24328H290.709C292.43 -3.24328 293.742 -2.19577 294.646 -0.100765L307.447 28.4134L320.249 -0.100765C321.153 -2.17372 322.465 -3.22123 324.186 -3.24328H331.43C332.202 -3.24328 332.786 -3.0007 333.183 -2.51554C333.58 -2.05243 333.778 -1.65548 333.778 -1.32469C333.778 -1.01595 333.723 -0.729268 333.613 -0.464635L314.559 40.8181C313.523 43.0674 311.946 44.1921 309.829 44.1921H305.066C302.949 44.1921 301.372 43.0674 300.335 40.8181L281.315 -0.464635ZM335.366 -0.464635C335.234 -0.729268 335.168 -1.01595 335.168 -1.32469C335.168 -1.65548 335.366 -2.05243 335.763 -2.51554C336.182 -3.0007 336.767 -3.24328 337.516 -3.24328H344.761C346.481 -3.24328 347.793 -2.19577 348.697 -0.100765L361.499 28.4134L374.3 -0.100765C375.204 -2.17372 376.517 -3.22123 378.237 -3.24328H385.481C386.253 -3.24328 386.837 -3.0007 387.234 -2.51554C387.631 -2.05243 387.83 -1.65548 387.83 -1.32469C387.83 -1.01595 387.775 -0.729268 387.664 -0.464635L368.611 40.8181C367.574 43.0674 365.997 44.1921 363.88 44.1921H359.117C357 44.1921 355.423 43.0674 354.387 40.8181L335.366 -0.464635ZM386.374 41.1489L394.677 9.65757C396.926 1.07906 404.248 -3.22123 416.642 -3.24328H434.471C435.287 -3.24328 435.96 -2.93454 436.489 -2.31706C437.04 -1.69959 437.316 -0.982874 437.316 -0.166923V41.1489C437.316 42.0089 437.007 42.7367 436.39 43.3321C435.772 43.9055 435.034 44.1921 434.173 44.1921H427.955C427.05 44.1921 426.301 43.9055 425.705 43.3321C425.132 42.7367 424.845 41.9869 424.845 41.0827V32.7468H401.326L399.11 41.0827C398.889 41.9869 398.393 42.7367 397.621 43.3321C396.849 43.9055 396.033 44.1921 395.173 44.1921H388.657C387.797 44.1921 387.179 43.9496 386.804 43.4644C386.429 42.9572 386.242 42.5161 386.242 42.1412C386.264 41.7663 386.308 41.4355 386.374 41.1489ZM403.774 23.3854H424.845V6.1181H415.418C413.301 6.1181 411.448 6.72455 409.86 7.93745C408.295 9.1283 407.236 10.7382 406.685 12.767L403.774 23.3854Z" fill="url(#paint2_linear_1286_487)"/>
<path d="M14.0572 53.7326C13.9249 53.468 13.8587 53.1813 13.8587 52.8726C13.8587 52.5418 14.0572 52.1448 14.4541 51.6817C14.8731 51.1966 15.4575 50.954 16.2073 50.954H23.4517C25.1718 50.954 26.4839 52.0015 27.3881 54.0965L40.1897 82.6107L52.9913 54.0965C53.8955 52.0235 55.2076 50.976 56.9277 50.954H64.172C64.9439 50.954 65.5283 51.1966 65.9252 51.6817C66.3222 52.1448 66.5206 52.5418 66.5206 52.8726C66.5206 53.1813 66.4655 53.468 66.3552 53.7326L47.3017 95.0153C46.2652 97.2647 44.6884 98.3894 42.5714 98.3894H37.808C35.6909 98.3894 34.1142 97.2647 33.0777 95.0153L14.0572 53.7326ZM68.1084 53.7326C67.9761 53.468 67.91 53.1813 67.91 52.8726C67.91 52.5418 68.1084 52.1448 68.5054 51.6817C68.9244 51.1966 69.5088 50.954 70.2586 50.954H77.5029C79.223 50.954 80.5351 52.0015 81.4393 54.0965L94.2409 82.6107L107.043 54.0965C107.947 52.0235 109.259 50.976 110.979 50.954H118.223C118.995 50.954 119.579 51.1966 119.976 51.6817C120.373 52.1448 120.572 52.5418 120.572 52.8726C120.572 53.1813 120.517 53.468 120.406 53.7326L101.353 95.0153C100.316 97.2647 98.7397 98.3894 96.6226 98.3894H91.8592C89.7422 98.3894 88.1654 97.2647 87.1289 95.0153L68.1084 53.7326ZM119.116 95.3461L127.419 63.8548C129.669 55.2763 136.99 50.976 149.384 50.954H167.213C168.029 50.954 168.702 51.2627 169.231 51.8802C169.783 52.4977 170.058 53.2144 170.058 54.0303V95.3461C170.058 96.2062 169.749 96.9339 169.132 97.5293C168.515 98.1027 167.776 98.3894 166.916 98.3894H160.697C159.793 98.3894 159.043 98.1027 158.447 97.5293C157.874 96.9339 157.587 96.1841 157.587 95.28V86.944H134.068L131.852 95.28C131.631 96.1841 131.135 96.9339 130.363 97.5293C129.591 98.1027 128.775 98.3894 127.915 98.3894H121.399C120.539 98.3894 119.921 98.1468 119.546 97.6617C119.172 97.1545 118.984 96.7134 118.984 96.3385C119.006 95.9636 119.05 95.6328 119.116 95.3461ZM136.516 77.5827H157.587V60.3154H148.16C146.043 60.3154 144.19 60.9218 142.603 62.1347C141.037 63.3256 139.978 64.9354 139.427 66.9643L136.516 77.5827Z" fill="url(#paint3_linear_1286_487)"/>
<path d="M189.081 53.7326C188.948 53.468 188.882 53.1813 188.882 52.8726C188.882 52.5418 189.081 52.1448 189.478 51.6817C189.897 51.1966 190.481 50.954 191.231 50.954H198.475C200.195 50.954 201.507 52.0015 202.412 54.0965L215.213 82.6107L228.015 54.0965C228.919 52.0235 230.231 50.976 231.951 50.954H239.195C239.967 50.954 240.552 51.1966 240.949 51.6817C241.346 52.1448 241.544 52.5418 241.544 52.8726C241.544 53.1813 241.489 53.468 241.379 53.7326L222.325 95.0153C221.289 97.2647 219.712 98.3894 217.595 98.3894H212.831C210.714 98.3894 209.138 97.2647 208.101 95.0153L189.081 53.7326ZM243.132 53.7326C243 53.468 242.933 53.1813 242.933 52.8726C242.933 52.5418 243.132 52.1448 243.529 51.6817C243.948 51.1966 244.532 50.954 245.282 50.954H252.526C254.246 50.954 255.559 52.0015 256.463 54.0965L269.264 82.6107L282.066 54.0965C282.97 52.0235 284.282 50.976 286.002 50.954H293.247C294.019 50.954 294.603 51.1966 295 51.6817C295.397 52.1448 295.595 52.5418 295.595 52.8726C295.595 53.1813 295.54 53.468 295.43 53.7326L276.376 95.0153C275.34 97.2647 273.763 98.3894 271.646 98.3894H266.883C264.766 98.3894 263.189 97.2647 262.152 95.0153L243.132 53.7326ZM294.14 95.3461L302.443 63.8548C304.692 55.2763 312.014 50.976 324.407 50.954H342.237C343.053 50.954 343.725 51.2627 344.255 51.8802C344.806 52.4977 345.082 53.2144 345.082 54.0303V95.3461C345.082 96.2062 344.773 96.9339 344.155 97.5293C343.538 98.1027 342.799 98.3894 341.939 98.3894H335.72C334.816 98.3894 334.066 98.1027 333.471 97.5293C332.897 96.9339 332.611 96.1841 332.611 95.28V86.944H309.092L306.875 95.28C306.655 96.1841 306.159 96.9339 305.387 97.5293C304.615 98.1027 303.799 98.3894 302.939 98.3894H296.422C295.562 98.3894 294.945 98.1468 294.57 97.6617C294.195 97.1545 294.008 96.7134 294.008 96.3385C294.03 95.9636 294.074 95.6328 294.14 95.3461ZM311.539 77.5827H332.611V60.3154H323.183C321.066 60.3154 319.214 60.9218 317.626 62.1347C316.06 63.3256 315.002 64.9354 314.45 66.9643L311.539 77.5827Z" fill="url(#paint4_linear_1286_487)"/>
<path d="M-80.1459 110.309C-80.2782 110.044 -80.3444 109.757 -80.3444 109.449C-80.3444 109.118 -80.1459 108.721 -79.749 108.258C-79.33 107.773 -78.7456 107.53 -77.9958 107.53H-70.7515C-69.0314 107.53 -67.7192 108.578 -66.8151 110.673L-54.0134 139.187L-41.2118 110.673C-40.3077 108.6 -38.9955 107.552 -37.2754 107.53H-30.0311C-29.2593 107.53 -28.6749 107.773 -28.2779 108.258C-27.881 108.721 -27.6825 109.118 -27.6825 109.449C-27.6825 109.757 -27.7376 110.044 -27.8479 110.309L-46.9014 151.592C-47.9379 153.841 -49.5147 154.966 -51.6318 154.966H-56.3951C-58.5122 154.966 -60.089 153.841 -61.1254 151.592L-80.1459 110.309ZM-26.0947 110.309C-26.227 110.044 -26.2932 109.757 -26.2932 109.449C-26.2932 109.118 -26.0947 108.721 -25.6977 108.258C-25.2787 107.773 -24.6943 107.53 -23.9446 107.53H-16.7002C-14.9801 107.53 -13.668 108.578 -12.7638 110.673L0.0377904 139.187L12.8394 110.673C13.7436 108.6 15.0557 107.552 16.7758 107.53H24.0201C24.792 107.53 25.3764 107.773 25.7733 108.258C26.1703 108.721 26.3687 109.118 26.3687 109.449C26.3687 109.757 26.3136 110.044 26.2034 110.309L7.1498 151.592C6.11332 153.841 4.53655 154.966 2.41949 154.966H-2.3439C-4.46097 154.966 -6.03774 153.841 -7.07421 151.592L-26.0947 110.309ZM24.9133 151.922L33.2161 120.431C35.4655 111.852 42.787 107.552 55.1806 107.53H73.0103C73.8262 107.53 74.4988 107.839 75.0281 108.456C75.5794 109.074 75.8551 109.791 75.8551 110.607V151.922C75.8551 152.782 75.5463 153.51 74.9289 154.106C74.3114 154.679 73.5726 154.966 72.7126 154.966H66.4937C65.5895 154.966 64.8397 154.679 64.2443 154.106C63.6709 153.51 63.3842 152.76 63.3842 151.856V143.52H39.865L37.6487 151.856C37.4282 152.76 36.932 153.51 36.1602 154.106C35.3883 154.679 34.5724 154.966 33.7123 154.966H27.1957C26.3357 154.966 25.7182 154.723 25.3433 154.238C24.9684 153.731 24.7809 153.29 24.7809 152.915C24.803 152.54 24.8471 152.209 24.9133 151.922ZM42.3129 134.159H63.3842V116.892H53.9567C51.8396 116.892 49.9872 117.498 48.3994 118.711C46.8337 119.902 45.7751 121.512 45.2238 123.54L42.3129 134.159Z" fill="url(#paint5_linear_1286_487)"/>
<path d="M94.8853 110.309C94.753 110.044 94.6868 109.757 94.6868 109.449C94.6868 109.118 94.8853 108.721 95.2823 108.258C95.7013 107.773 96.2857 107.53 97.0355 107.53H104.28C106 107.53 107.312 108.578 108.216 110.673L121.018 139.187L133.819 110.673C134.724 108.6 136.036 107.552 137.756 107.53H145C145.772 107.53 146.356 107.773 146.753 108.258C147.15 108.721 147.349 109.118 147.349 109.449C147.349 109.757 147.294 110.044 147.183 110.309L128.13 151.592C127.093 153.841 125.517 154.966 123.399 154.966H118.636C116.519 154.966 114.942 153.841 113.906 151.592L94.8853 110.309ZM148.937 110.309C148.804 110.044 148.738 109.757 148.738 109.449C148.738 109.118 148.937 108.721 149.334 108.258C149.753 107.773 150.337 107.53 151.087 107.53H158.331C160.051 107.53 161.363 108.578 162.267 110.673L175.069 139.187L187.871 110.673C188.775 108.6 190.087 107.552 191.807 107.53H199.051C199.823 107.53 200.408 107.773 200.805 108.258C201.202 108.721 201.4 109.118 201.4 109.449C201.4 109.757 201.345 110.044 201.235 110.309L182.181 151.592C181.145 153.841 179.568 154.966 177.451 154.966H172.687C170.57 154.966 168.994 153.841 167.957 151.592L148.937 110.309ZM199.945 151.922L208.247 120.431C210.497 111.852 217.818 107.552 230.212 107.53H248.042C248.857 107.53 249.53 107.839 250.059 108.456C250.611 109.074 250.886 109.791 250.886 110.607V151.922C250.886 152.782 250.578 153.51 249.96 154.106C249.343 154.679 248.604 154.966 247.744 154.966H241.525C240.621 154.966 239.871 154.679 239.276 154.106C238.702 153.51 238.415 152.76 238.415 151.856V143.52H214.896L212.68 151.856C212.459 152.76 211.963 153.51 211.191 154.106C210.42 154.679 209.604 154.966 208.744 154.966H202.227C201.367 154.966 200.749 154.723 200.375 154.238C200 153.731 199.812 153.29 199.812 152.915C199.834 152.54 199.878 152.209 199.945 151.922ZM217.344 134.159H238.415V116.892H228.988C226.871 116.892 225.018 117.498 223.431 118.711C221.865 119.902 220.806 121.512 220.255 123.54L217.344 134.159Z" fill="url(#paint6_linear_1286_487)"/>
<path d="M269.909 110.309C269.776 110.044 269.71 109.757 269.71 109.449C269.71 109.118 269.909 108.721 270.306 108.258C270.725 107.773 271.309 107.53 272.059 107.53H279.303C281.023 107.53 282.335 108.578 283.24 110.673L296.041 139.187L308.843 110.673C309.747 108.6 311.059 107.552 312.779 107.53H320.024C320.795 107.53 321.38 107.773 321.777 108.258C322.174 108.721 322.372 109.118 322.372 109.449C322.372 109.757 322.317 110.044 322.207 110.309L303.153 151.592C302.117 153.841 300.54 154.966 298.423 154.966H293.66C291.542 154.966 289.966 153.841 288.929 151.592L269.909 110.309ZM323.96 110.309C323.828 110.044 323.762 109.757 323.762 109.449C323.762 109.118 323.96 108.721 324.357 108.258C324.776 107.773 325.36 107.53 326.11 107.53H333.354C335.075 107.53 336.387 108.578 337.291 110.673L350.092 139.187L362.894 110.673C363.798 108.6 365.11 107.552 366.83 107.53H374.075C374.847 107.53 375.431 107.773 375.828 108.258C376.225 108.721 376.423 109.118 376.423 109.449C376.423 109.757 376.368 110.044 376.258 110.309L357.204 151.592C356.168 153.841 354.591 154.966 352.474 154.966H347.711C345.594 154.966 344.017 153.841 342.98 151.592L323.96 110.309ZM374.968 151.922L383.271 120.431C385.52 111.852 392.842 107.552 405.235 107.53H423.065C423.881 107.53 424.554 107.839 425.083 108.456C425.634 109.074 425.91 109.791 425.91 110.607V151.922C425.91 152.782 425.601 153.51 424.984 154.106C424.366 154.679 423.627 154.966 422.767 154.966H416.548C415.644 154.966 414.894 154.679 414.299 154.106C413.726 153.51 413.439 152.76 413.439 151.856V143.52H389.92L387.703 151.856C387.483 152.76 386.987 153.51 386.215 154.106C385.443 154.679 384.627 154.966 383.767 154.966H377.25C376.39 154.966 375.773 154.723 375.398 154.238C375.023 153.731 374.836 153.29 374.836 152.915C374.858 152.54 374.902 152.209 374.968 151.922ZM392.368 134.159H413.439V116.892H404.011C401.894 116.892 400.042 117.498 398.454 118.711C396.888 119.902 395.83 121.512 395.279 123.54L392.368 134.159Z" fill="url(#paint7_linear_1286_487)"/>
<path d="M-57.0209 164.117C-57.1532 163.853 -57.2194 163.566 -57.2194 163.257C-57.2194 162.927 -57.0209 162.53 -56.624 162.066C-56.205 161.581 -55.6206 161.339 -54.8708 161.339H-47.6265C-45.9064 161.339 -44.5942 162.386 -43.6901 164.481L-30.8884 192.995L-18.0868 164.481C-17.1827 162.408 -15.8705 161.361 -14.1504 161.339H-6.9061C-6.13426 161.339 -5.54986 161.581 -5.15291 162.066C-4.75596 162.53 -4.55749 162.927 -4.55749 163.257C-4.55749 163.566 -4.61262 163.853 -4.72288 164.117L-23.7764 205.4C-24.8129 207.649 -26.3897 208.774 -28.5068 208.774H-33.2701C-35.3872 208.774 -36.964 207.649 -38.0004 205.4L-57.0209 164.117ZM-2.96969 164.117C-3.10201 163.853 -3.16817 163.566 -3.16817 163.257C-3.16817 162.927 -2.96969 162.53 -2.57274 162.066C-2.15374 161.581 -1.56934 161.339 -0.819551 161.339H6.42477C8.14488 161.339 9.45702 162.386 10.3612 164.481L23.1628 192.995L35.9644 164.481C36.8686 162.408 38.1807 161.361 39.9008 161.339H47.1451C47.917 161.339 48.5014 161.581 48.8983 162.066C49.2953 162.53 49.4937 162.927 49.4937 163.257C49.4937 163.566 49.4386 163.853 49.3284 164.117L30.2748 205.4C29.2383 207.649 27.6615 208.774 25.5445 208.774H20.7811C18.664 208.774 17.0873 207.649 16.0508 205.4L-2.96969 164.117ZM48.0383 205.731L56.3411 174.24C58.5905 165.661 65.912 161.361 78.3056 161.339H96.1353C96.9512 161.339 97.6238 161.647 98.1531 162.265C98.7044 162.882 98.9801 163.599 98.9801 164.415V205.731C98.9801 206.591 98.6713 207.319 98.0539 207.914C97.4364 208.487 96.6976 208.774 95.8376 208.774H89.6187C88.7145 208.774 87.9647 208.487 87.3693 207.914C86.7959 207.319 86.5092 206.569 86.5092 205.665V197.329H62.99L60.7737 205.665C60.5532 206.569 60.057 207.319 59.2852 207.914C58.5133 208.487 57.6974 208.774 56.8373 208.774H50.3207C49.4607 208.774 48.8432 208.532 48.4683 208.046C48.0934 207.539 47.9059 207.098 47.9059 206.723C47.928 206.348 47.9721 206.018 48.0383 205.731ZM65.4379 187.967H86.5092V170.7H77.0817C74.9646 170.7 73.1122 171.307 71.5244 172.519C69.9587 173.71 68.9001 175.32 68.3488 177.349L65.4379 187.967Z" fill="url(#paint8_linear_1286_487)"/>
<path d="M118.003 164.117C117.87 163.853 117.804 163.566 117.804 163.257C117.804 162.927 118.003 162.53 118.399 162.066C118.818 161.581 119.403 161.339 120.153 161.339H127.397C129.117 161.339 130.429 162.386 131.333 164.481L144.135 192.995L156.937 164.481C157.841 162.408 159.153 161.361 160.873 161.339H168.117C168.889 161.339 169.474 161.581 169.871 162.066C170.267 162.53 170.466 162.927 170.466 163.257C170.466 163.566 170.411 163.853 170.301 164.117L151.247 205.4C150.211 207.649 148.634 208.774 146.517 208.774H141.753C139.636 208.774 138.059 207.649 137.023 205.4L118.003 164.117ZM172.054 164.117C171.921 163.853 171.855 163.566 171.855 163.257C171.855 162.927 172.054 162.53 172.451 162.066C172.87 161.581 173.454 161.339 174.204 161.339H181.448C183.168 161.339 184.48 162.386 185.385 164.481L198.186 192.995L210.988 164.481C211.892 162.408 213.204 161.361 214.924 161.339H222.169C222.94 161.339 223.525 161.581 223.922 162.066C224.319 162.53 224.517 162.927 224.517 163.257C224.517 163.566 224.462 163.853 224.352 164.117L205.298 205.4C204.262 207.649 202.685 208.774 200.568 208.774H195.805C193.687 208.774 192.111 207.649 191.074 205.4L172.054 164.117ZM223.062 205.731L231.365 174.24C233.614 165.661 240.935 161.361 253.329 161.339H271.159C271.975 161.339 272.647 161.647 273.177 162.265C273.728 162.882 274.004 163.599 274.004 164.415V205.731C274.004 206.591 273.695 207.319 273.077 207.914C272.46 208.487 271.721 208.774 270.861 208.774H264.642C263.738 208.774 262.988 208.487 262.393 207.914C261.819 207.319 261.533 206.569 261.533 205.665V197.329H238.013L235.797 205.665C235.577 206.569 235.08 207.319 234.309 207.914C233.537 208.487 232.721 208.774 231.861 208.774H225.344C224.484 208.774 223.867 208.532 223.492 208.046C223.117 207.539 222.929 207.098 222.929 206.723C222.951 206.348 222.996 206.018 223.062 205.731ZM240.461 187.967H261.533V170.7H252.105C249.988 170.7 248.136 171.307 246.548 172.519C244.982 173.71 243.924 175.32 243.372 177.349L240.461 187.967Z" fill="url(#paint9_linear_1286_487)"/>
<path d="M293.034 164.117C292.901 163.853 292.835 163.566 292.835 163.257C292.835 162.927 293.034 162.53 293.431 162.066C293.85 161.581 294.434 161.339 295.184 161.339H302.428C304.148 161.339 305.46 162.386 306.365 164.481L319.166 192.995L331.968 164.481C332.872 162.408 334.184 161.361 335.904 161.339H343.149C343.92 161.339 344.505 161.581 344.902 162.066C345.299 162.53 345.497 162.927 345.497 163.257C345.497 163.566 345.442 163.853 345.332 164.117L326.278 205.4C325.242 207.649 323.665 208.774 321.548 208.774H316.785C314.667 208.774 313.091 207.649 312.054 205.4L293.034 164.117ZM347.085 164.117C346.953 163.853 346.887 163.566 346.887 163.257C346.887 162.927 347.085 162.53 347.482 162.066C347.901 161.581 348.485 161.339 349.235 161.339H356.479C358.2 161.339 359.512 162.386 360.416 164.481L373.217 192.995L386.019 164.481C386.923 162.408 388.235 161.361 389.955 161.339H397.2C397.972 161.339 398.556 161.581 398.953 162.066C399.35 162.53 399.548 162.927 399.548 163.257C399.548 163.566 399.493 163.853 399.383 164.117L380.329 205.4C379.293 207.649 377.716 208.774 375.599 208.774H370.836C368.719 208.774 367.142 207.649 366.105 205.4L347.085 164.117ZM398.093 205.731L406.396 174.24C408.645 165.661 415.967 161.361 428.36 161.339H446.19C447.006 161.339 447.679 161.647 448.208 162.265C448.759 162.882 449.035 163.599 449.035 164.415V205.731C449.035 206.591 448.726 207.319 448.109 207.914C447.491 208.487 446.752 208.774 445.892 208.774H439.673C438.769 208.774 438.019 208.487 437.424 207.914C436.851 207.319 436.564 206.569 436.564 205.665V197.329H413.045L410.828 205.665C410.608 206.569 410.112 207.319 409.34 207.914C408.568 208.487 407.752 208.774 406.892 208.774H400.375C399.515 208.774 398.898 208.532 398.523 208.046C398.148 207.539 397.961 207.098 397.961 206.723C397.983 206.348 398.027 206.018 398.093 205.731ZM415.493 187.967H436.564V170.7H427.136C425.019 170.7 423.167 171.307 421.579 172.519C420.013 173.71 418.955 175.32 418.404 177.349L415.493 187.967Z" fill="url(#paint10_linear_1286_487)"/>
<path d="M7.94782 221.343C7.81551 221.079 7.74935 220.792 7.74935 220.483C7.74935 220.152 7.94782 219.755 8.34477 219.292C8.76377 218.807 9.34817 218.565 10.098 218.565H17.3423C19.0624 218.565 20.3745 219.612 21.2787 221.707L34.0803 250.221L46.8819 221.707C47.7861 219.634 49.0982 218.587 50.8183 218.565H58.0626C58.8345 218.565 59.4189 218.807 59.8158 219.292C60.2128 219.755 60.4113 220.152 60.4113 220.483C60.4113 220.792 60.3561 221.079 60.2459 221.343L41.1923 262.626C40.1558 264.875 38.5791 266 36.462 266H31.6986C29.5815 266 28.0048 264.875 26.9683 262.626L7.94782 221.343ZM61.9991 221.343C61.8667 221.079 61.8006 220.792 61.8006 220.483C61.8006 220.152 61.9991 219.755 62.396 219.292C62.815 218.807 63.3994 218.565 64.1492 218.565H71.3935C73.1136 218.565 74.4258 219.612 75.3299 221.707L88.1315 250.221L100.933 221.707C101.837 219.634 103.149 218.587 104.87 218.565H112.114C112.886 218.565 113.47 218.807 113.867 219.292C114.264 219.755 114.462 220.152 114.462 220.483C114.462 220.792 114.407 221.079 114.297 221.343L95.2435 262.626C94.2071 264.875 92.6303 266 90.5132 266H85.7498C83.6328 266 82.056 264.875 81.0195 262.626L61.9991 221.343ZM113.007 262.957L121.31 231.465C123.559 222.887 130.881 218.587 143.274 218.565H161.104C161.92 218.565 162.593 218.873 163.122 219.491C163.673 220.108 163.949 220.825 163.949 221.641V262.957C163.949 263.817 163.64 264.545 163.023 265.14C162.405 265.713 161.666 266 160.806 266H154.587C153.683 266 152.933 265.713 152.338 265.14C151.765 264.545 151.478 263.795 151.478 262.891V254.555H127.959L125.742 262.891C125.522 263.795 125.026 264.545 124.254 265.14C123.482 265.713 122.666 266 121.806 266H115.289C114.429 266 113.812 265.757 113.437 265.272C113.062 264.765 112.875 264.324 112.875 263.949C112.897 263.574 112.941 263.243 113.007 262.957ZM130.407 245.193H151.478V227.926H142.05C139.933 227.926 138.081 228.532 136.493 229.745C134.927 230.936 133.869 232.546 133.318 234.575L130.407 245.193Z" fill="url(#paint11_linear_1286_487)"/>
<path d="M182.979 221.343C182.847 221.079 182.781 220.792 182.781 220.483C182.781 220.152 182.979 219.755 183.376 219.292C183.795 218.807 184.379 218.565 185.129 218.565H192.374C194.094 218.565 195.406 219.612 196.31 221.707L209.112 250.221L221.913 221.707C222.817 219.634 224.129 218.587 225.85 218.565H233.094C233.866 218.565 234.45 218.807 234.847 219.292C235.244 219.755 235.443 220.152 235.443 220.483C235.443 220.792 235.387 221.079 235.277 221.343L216.224 262.626C215.187 264.875 213.61 266 211.493 266H206.73C204.613 266 203.036 264.875 202 262.626L182.979 221.343ZM237.03 221.343C236.898 221.079 236.832 220.792 236.832 220.483C236.832 220.152 237.03 219.755 237.427 219.292C237.846 218.807 238.431 218.565 239.18 218.565H246.425C248.145 218.565 249.457 219.612 250.361 221.707L263.163 250.221L275.964 221.707C276.869 219.634 278.181 218.587 279.901 218.565H287.145C287.917 218.565 288.501 218.807 288.898 219.292C289.295 219.755 289.494 220.152 289.494 220.483C289.494 220.792 289.439 221.079 289.328 221.343L270.275 262.626C269.238 264.875 267.662 266 265.544 266H260.781C258.664 266 257.087 264.875 256.051 262.626L237.03 221.343ZM288.038 262.957L296.341 231.465C298.59 222.887 305.912 218.587 318.306 218.565H336.135C336.951 218.565 337.624 218.873 338.153 219.491C338.704 220.108 338.98 220.825 338.98 221.641V262.957C338.98 263.817 338.671 264.545 338.054 265.14C337.436 265.713 336.698 266 335.838 266H329.619C328.715 266 327.965 265.713 327.369 265.14C326.796 264.545 326.509 263.795 326.509 262.891V254.555H302.99L300.774 262.891C300.553 263.795 300.057 264.545 299.285 265.14C298.513 265.713 297.697 266 296.837 266H290.321C289.461 266 288.843 265.757 288.468 265.272C288.093 264.765 287.906 264.324 287.906 263.949C287.928 263.574 287.972 263.243 288.038 262.957ZM305.438 245.193H326.509V227.926H317.082C314.965 227.926 313.112 228.532 311.524 229.745C309.959 230.936 308.9 232.546 308.349 234.575L305.438 245.193Z" fill="url(#paint12_linear_1286_487)"/>
</g>
<defs>
<linearGradient id="paint0_linear_1286_487" x1="-42.9028" y1="-12.9179" x2="-29.8862" y2="59.7878" gradientUnits="userSpaceOnUse">
<stop stop-color="#427EFF"/>
<stop offset="1" stop-color="#3873B8"/>
</linearGradient>
<linearGradient id="paint1_linear_1286_487" x1="132.128" y1="-12.9179" x2="145.145" y2="59.7878" gradientUnits="userSpaceOnUse">
<stop stop-color="#427EFF"/>
<stop offset="1" stop-color="#3873B8"/>
</linearGradient>
<linearGradient id="paint2_linear_1286_487" x1="307.152" y1="-12.9179" x2="320.169" y2="59.7878" gradientUnits="userSpaceOnUse">
<stop stop-color="#427EFF"/>
<stop offset="1" stop-color="#3873B8"/>
</linearGradient>
<linearGradient id="paint3_linear_1286_487" x1="39.8941" y1="41.2794" x2="52.9107" y2="113.985" gradientUnits="userSpaceOnUse">
<stop stop-color="#427EFF"/>
<stop offset="1" stop-color="#3873B8"/>
</linearGradient>
<linearGradient id="paint4_linear_1286_487" x1="243.648" y1="41.2794" x2="250.075" y2="115.761" gradientUnits="userSpaceOnUse">
<stop stop-color="#427EFF"/>
<stop offset="1" stop-color="#3873B8"/>
</linearGradient>
<linearGradient id="paint5_linear_1286_487" x1="-54.3091" y1="97.8556" x2="-41.2924" y2="170.561" gradientUnits="userSpaceOnUse">
<stop stop-color="#09113A"/>
<stop offset="1" stop-color="#458975"/>
</linearGradient>
<linearGradient id="paint6_linear_1286_487" x1="120.722" y1="97.8556" x2="133.739" y2="170.561" gradientUnits="userSpaceOnUse">
<stop stop-color="#09113A"/>
<stop offset="1" stop-color="#458975"/>
</linearGradient>
<linearGradient id="paint7_linear_1286_487" x1="295.746" y1="97.8556" x2="308.762" y2="170.561" gradientUnits="userSpaceOnUse">
<stop stop-color="#09113A"/>
<stop offset="1" stop-color="#458975"/>
</linearGradient>
<linearGradient id="paint8_linear_1286_487" x1="-31.1841" y1="151.664" x2="-18.1674" y2="224.37" gradientUnits="userSpaceOnUse">
<stop stop-color="#09113A"/>
<stop offset="1" stop-color="#D61E00"/>
</linearGradient>
<linearGradient id="paint9_linear_1286_487" x1="143.839" y1="151.664" x2="156.856" y2="224.37" gradientUnits="userSpaceOnUse">
<stop stop-color="#09113A"/>
<stop offset="1" stop-color="#D61E00"/>
</linearGradient>
<linearGradient id="paint10_linear_1286_487" x1="318.871" y1="151.664" x2="331.887" y2="224.37" gradientUnits="userSpaceOnUse">
<stop stop-color="#09113A"/>
<stop offset="1" stop-color="#D61E00"/>
</linearGradient>
<linearGradient id="paint11_linear_1286_487" x1="33.7847" y1="208.89" x2="46.8013" y2="281.596" gradientUnits="userSpaceOnUse">
<stop stop-color="#09113A"/>
<stop offset="1" stop-color="#D61E00"/>
</linearGradient>
<linearGradient id="paint12_linear_1286_487" x1="234.721" y1="208.89" x2="241.487" y2="283.311" gradientUnits="userSpaceOnUse">
<stop stop-color="#09113A"/>
<stop offset="1" stop-color="#D61E00"/>
</linearGradient>
<clipPath id="clip0_1286_487">
<rect width="304" height="254" fill="white"/>
</clipPath>
</defs>
</svg>
